<svg xmlns="http://www.w3.org/2000/svg" xmlns:xlink="http://www.w3.org/1999/xlink" viewBox="0 0 300 173.79"><defs><style>.cls-1{fill:url(#linear-gradient);}.cls-2,.cls-4{fill:#fff;}.cls-2{opacity:0.15;}.cls-3{fill:none;}</style><linearGradient id="linear-gradient" x1="150" y1="172.28" x2="150" y2="-25.45" gradientUnits="userSpaceOnUse"><stop offset="0" stop-color="#3173b1"/><stop offset="0.24" stop-color="#397ab6"/><stop offset="0.62" stop-color="#4f8cc5"/><stop offset="1" stop-color="#6ca3d7"/></linearGradient></defs><title>cybr_webinar_cta</title><g id="Layer_1" data-name="Layer 1"><rect class="cls-1" width="300" height="174.1" rx="7" ry="7"/></g><g id="Layer_2" data-name="Layer 2"><path class="cls-2" d="M551.16,190.43,535,166.49a2.69,2.69,0,0,0,1-2.11h0a2.54,2.54,0,0,0-2.7-2.66A3,3,0,0,0,532,162l-30-47.21a2.69,2.69,0,0,0,1.07-1.93l47.86-.14v-.43l-47.85.14a2.52,2.52,0,0,0-1.12-2L532.14,59a2.66,2.66,0,0,0,3.34-.84l15.38,9.29.22-.37-15.38-9.29a2.68,2.68,0,0,0,.31-1.22h0a2.54,2.54,0,0,0-2.7-2.66,2.92,2.92,0,0,0-1.41.34L510.84,24.91h1.32V17.54l38.94-27-.24-.35L512.16,17V15.9h-9v4.37l-65,1.18V19.38h-.75V17.91a2.57,2.57,0,0,0-2.57-2.57h-.63l-1.83-25-.43,0,1.83,25a2.57,2.57,0,0,0-2.22,2.54h0v1.47h-.8v2.69L366.55,33a2.51,2.51,0,0,0-2.63-2,3.37,3.37,0,0,0-.45,0L353.15-9.66l-.41.11L363,31.06a2.4,2.4,0,0,0-1.72,1.74L284.22,15.05a2.67,2.67,0,0,0,0-.41h0a2.5,2.5,0,0,0-2.06-2.6l-.35-4.24h-.07V-9.6h-.43V12a2.48,2.48,0,0,0-2.46,2.29L183.64,8.56V4.5h-9V10L118.75,35.48A2.53,2.53,0,0,0,116.3,34l.21,0L111.1-9.63l-.42.05L116.09,34a2.48,2.48,0,0,0-2.25,1.47L49,13a2.69,2.69,0,0,0,.2-1h0a2.5,2.5,0,0,0-2.34-2.63l1-18.92-.43,0-1,18.92A2.53,2.53,0,0,0,43.77,12a2.66,2.66,0,0,0,0,.37L-52.42,20a2.61,2.61,0,0,0-.52-1.28L-16.82-9.44l-.26-.34L-53.23,18.38a2.73,2.73,0,0,0-1.86-.65,2.79,2.79,0,0,0-1.72.54l-31.08-28-.29.32,31,28A2.59,2.59,0,0,0-57.77,20l-60.81-4V11.39h-6.2l-9-21.08-.39.17,9,20.91h-2.34v5.17l-73.22,14.27v-.51h-.75V28.85a2.57,2.57,0,0,0-2.3-2.55l-.44-35.91h-.43l.44,35.87h-.55a2.57,2.57,0,0,0-2.57,2.57h0v1.47h-.8v3.34l-51.21,27.08a2.69,2.69,0,0,0-2-.78,3.35,3.35,0,0,0-.37,0l-14-48.62a2.7,2.7,0,0,0,1.76-2.52h0a2.85,2.85,0,0,0-.32-1.33l25.11-16.95-.24-.35-25.1,16.94a2.61,2.61,0,0,0-2.15-1,2.54,2.54,0,0,0-2.7,2.66h0L-351,14.24A2.51,2.51,0,0,0-353.69,12a2.8,2.8,0,0,0-1.69.52L-375.77-9.75l-.31.29,20.38,22.23a2.68,2.68,0,0,0-.69,1.86,2.7,2.7,0,0,0,2.71,2.7,2.69,2.69,0,0,0,1.49-.46l26.91,33.76v4.3l-50.66,2,0,.43,50.64-2v4.14h0L-346.32,97a3.1,3.1,0,0,0-1.15-.21,2.54,2.54,0,0,0-2.7,2.66,2.68,2.68,0,0,0,.37,1.34L-376,118.57l.24.35,26.25-17.81a2.69,2.69,0,0,0,2.09,1,2.69,2.69,0,0,0,.42,0l13.53,55.16h-3.18v7.22L-376,190.37l.23.36L-336.7,165v1.28h6.93l14.48,24.41.37-.22-14.35-24.19h1.59v-4.19l73.3,1.66a2.7,2.7,0,0,0,2.69,2.53,2.7,2.7,0,0,0,2.24-1.19l46.36,25.68.21-.37-46.36-25.68a2.68,2.68,0,0,0,.26-1.13h0a3.17,3.17,0,0,0,0-.5l74-15.89v2.54h5.68l25.72,41,.36-.23-25.57-40.73h1.22v-2l60.35,21a3.09,3.09,0,0,0-.08.67,2.7,2.7,0,0,0,2.71,2.7h.12l2.37,18.43.42-.05-2.37-18.42a2.7,2.7,0,0,0,2.11-2.25l79,4.75a2.7,2.7,0,0,0,2.7,2.63,2.68,2.68,0,0,0,1.21-.3l8.46,13.73.36-.22-8.46-13.72a2.69,2.69,0,0,0,1.12-2.18h0a3,3,0,0,0-.11-.79L60,142.46a2.69,2.69,0,0,0,2.2,1.46l.15,46.62h.43l-.15-46.62a2.69,2.69,0,0,0,2.31-1.76l88.25,23.46a2.63,2.63,0,0,0,0,.3h0a2.86,2.86,0,0,0,.3,1.28l-41.71,23.15.21.37,41.73-23.16a2.6,2.6,0,0,0,2.19,1,2.51,2.51,0,0,0,2.68-2.42l84.91-5.2a2.57,2.57,0,0,0,.7,1.55L219.78,190.4l.32.28,24.36-27.89a2.84,2.84,0,0,0,1.64.47,2.52,2.52,0,0,0,2.69-2.5l86-1v3.77h3.5l-4.71,26.94.42.07,4.72-27h5.08V160l50.15,6.18s0,.06,0,.1a2.69,2.69,0,0,0,4.49,2L422,190.7l.29-.31L398.7,167.93a2.68,2.68,0,0,0,.61-1.53l72.94-1.57v3.94h6l16,21.91.35-.25-15.85-21.65h.88v-6.08h-.78v-1.47a2.55,2.55,0,0,0-.6-1.63l21.21-44.43a2.6,2.6,0,0,0,2.2-.14l30,47.19a2.57,2.57,0,0,0-1.06,2.18,2.7,2.7,0,0,0,2.71,2.7,2.68,2.68,0,0,0,1.31-.35l16.18,23.94ZM419.67,118.87a2.57,2.57,0,0,0-.66-1.46L461.17,71.3a2.66,2.66,0,0,0,3.23,0l34.08,39.36a2.66,2.66,0,0,0-.74,1.92v0Zm-84.91,35.68V155l-40.57-33.77v-4.72h-.29l45.93-29.2a2.69,2.69,0,0,0,1.83,1l-2.44,66.18Zm-45.35-36.12A1.16,1.16,0,1,1,291,120v1a.53.53,0,0,1-1,0v-1A1.16,1.16,0,0,1,289.41,118.43Zm-.79-1.89v-1.47a1.5,1.5,0,0,1,1.5-1.5h.71a1.5,1.5,0,0,1,1.5,1.5v1.47Zm-40.7,42.07a2.68,2.68,0,0,0-1.69-.69l-2.7-79.39a2.69,2.69,0,0,0,1.56-.72l42.46,37.31v1.43h-.77v6Zm-89.39,7.12a2.68,2.68,0,0,0-.53-1.42l38.67-37.59a2.74,2.74,0,0,0,1.81.62,2.65,2.65,0,0,0,2.06-.86l43.3,32.66a2.69,2.69,0,0,0-.43,1.39Zm-2.69-2.51a2.68,2.68,0,0,0-1.57.51l-38.87-50.1a2.69,2.69,0,0,0,.9-2h0a2.9,2.9,0,0,0-.25-1.2l55.21-33a2.69,2.69,0,0,0,3.22.92l22.6,44a2.69,2.69,0,0,0-1.3,2.29h0a2.71,2.71,0,0,0,.59,1.74L157.72,164A2.69,2.69,0,0,0,155.84,163.23ZM62.38,138.59a2.88,2.88,0,0,0-1.54.41L39.39,117.91a2.69,2.69,0,0,0,.87-2h0a2.56,2.56,0,0,0-1.15-2.24L60,66.54h6.71l44.75,43.37a2.75,2.75,0,0,0-.31,2.91L64.65,139.71A2.59,2.59,0,0,0,62.38,138.59Zm-165.09,28.93L-57.77,127a2.69,2.69,0,0,0,1.56.5,2.68,2.68,0,0,0,.73-.11l34.06,44.7a2.45,2.45,0,0,0-1.52,2.09l-79-4.75A2.64,2.64,0,0,0-102.71,167.51Zm-65.69-23.89v-1.47a2.57,2.57,0,0,0-2.57-2.57h-.71a2.57,2.57,0,0,0-2.57,2.57h0v1.2l-38.21-32.79a2.68,2.68,0,0,0,.54-1.6h0a2.93,2.93,0,0,0-.22-1.14L-164.63,81a2.7,2.7,0,0,0,2.44,1.54,2.69,2.69,0,0,0,2.06-1l53,29a3,3,0,0,0-.21,1.1,2.69,2.69,0,0,0,.22,1.06l-60.49,31v-.13Zm-83.29,17.27a2.84,2.84,0,0,0-1.64.47l-38.37-44v-3.53l74.66-3.7a2.7,2.7,0,0,0,1.12,1.16l-34.41,49.89A2.94,2.94,0,0,0-251.7,160.89Zm-44.79-47.17a1.16,1.16,0,0,1,1.55-.53,1.16,1.16,0,0,1,.53,1.55,1.16,1.16,0,0,1-.53.53v1a.53.53,0,0,1-.63.39.53.53,0,0,1-.39-.39v-1A1.16,1.16,0,0,1-296.48,113.72Zm-.79-1.89v-1.47a1.49,1.49,0,0,1,1.49-1.5h.71a1.5,1.5,0,0,1,1.5,1.5v1.47Zm2.22-4h-.71a2.55,2.55,0,0,0-1.65.61l-19.32-48.88h.46V55.91l52.13,6.6s0,.07,0,.11a2.7,2.7,0,0,0,2.71,2.7,2.69,2.69,0,0,0,2-.92L-217,107.67a2.86,2.86,0,0,0-.3,1.29,2.68,2.68,0,0,0,.13.77l-74.49,3.69v-1.6h-.78v-1.47A2.57,2.57,0,0,0-295.06,107.79ZM-119.7,20.41-93.23,53A2.63,2.63,0,0,0-94,55a2.67,2.67,0,0,0,.11.7l-65.76,23.06a2.43,2.43,0,0,0-.5-.8l34.65-57.55Zm62.83,2a2.68,2.68,0,0,0,1.79.68,2.69,2.69,0,0,0,2-.9l38.22,34.33h-.48v5.65l-39.29,60.4a2.87,2.87,0,0,0-1.57-.43,2.79,2.79,0,0,0-1.71.53L-89.35,56.82A2.68,2.68,0,0,0-88.63,55h0a2.71,2.71,0,0,0-.57-1.72ZM46.48,14.66a2.7,2.7,0,0,0,.5-.05L60.71,57.53H57.87v9h1.64l-20.79,47a3.06,3.06,0,0,0-1.18-.22,2.78,2.78,0,0,0-1.74.55L-7.95,62V56.51H-8.7V56.4L44.52,13.81A2.69,2.69,0,0,0,46.48,14.66ZM59.37,65V59h6v6ZM-53.51,124.8h0a2.64,2.64,0,0,0-.8-2l39.15-60.24H-8L35.5,114.12a2.58,2.58,0,0,0-.62,1.42ZM-12.7,58.4a1.16,1.16,0,0,1,1.55-.53,1.16,1.16,0,0,1,.53,1.55,1.16,1.16,0,0,1-.53.53v1a.53.53,0,0,1-.63.39.52.52,0,0,1-.39-.39v-1A1.16,1.16,0,0,1-12.7,58.4Zm-.79-1.89V55A1.5,1.5,0,0,1-12,53.55h.71A1.5,1.5,0,0,1-9.79,55v1.47Zm-1.06,0h0ZM-104.64,109a2.58,2.58,0,0,0-2.31,1.17l-52.93-28.95a2.68,2.68,0,0,0,.39-1.37h0a3.08,3.08,0,0,0-.08-.67L-93.79,56.1a2.7,2.7,0,0,0,2.46,1.59,2.68,2.68,0,0,0,1.66-.59L-58.24,123a2.68,2.68,0,0,0-.67,1.84,2.58,2.58,0,0,0,0,.27L-102,111A2.51,2.51,0,0,0-104.64,109Zm84.39,62.89A3.25,3.25,0,0,0-21,172l-34.07-44.73a2.7,2.7,0,0,0,1.52-2L34.85,116a2.69,2.69,0,0,0,.82,1.9l-54.32,54.44A2.87,2.87,0,0,0-20.26,171.87Zm137-132.54a2.69,2.69,0,0,0,1.78-1.08l52.59,36.25a2.84,2.84,0,0,0-.33,1.36,2.68,2.68,0,0,0,.3,1.21l-55.2,33a2.52,2.52,0,0,0-1.93-1.06ZM240.55,76.1a2.68,2.68,0,0,0,.72,1.61l-41.15,44.84a2.66,2.66,0,0,0-2.67-.37l-22.6-44a2.69,2.69,0,0,0,1.27-2.06Zm41-58.76a2.69,2.69,0,0,0,.64-.09l7.92,95.25a2.57,2.57,0,0,0-2.52,2.09L245.38,77.49a2.68,2.68,0,0,0,.56-1.62h0a2.57,2.57,0,0,0-1.07-2.19L280.32,17A2.67,2.67,0,0,0,281.56,17.34ZM244.11,158.81,200.8,126.14a2.82,2.82,0,0,0,.39-1.46,2.69,2.69,0,0,0-.74-1.84L241.59,78a2.68,2.68,0,0,0,1.52.56l2.7,79.39A2.68,2.68,0,0,0,244.11,158.81Zm46.73-46.31h-.28l-7.93-95.38a2.71,2.71,0,0,0,.87-.6L340,83.76a2.64,2.64,0,0,0-.77,1.94A2.67,2.67,0,0,0,339.6,87l-46.19,29.37v-1.27A2.57,2.57,0,0,0,290.83,112.5Zm73.08-76.2a2.69,2.69,0,0,0,2.06-1L408.68,65a2.84,2.84,0,0,0-.34,1.36c0,.08,0,.15,0,.23l-63.85,18.2a2.38,2.38,0,0,0-1.3-1.47l19.86-47.16A2.68,2.68,0,0,0,363.92,36.29Zm71.54-14a1.16,1.16,0,0,1-.53.53v1a.53.53,0,0,1-1,0v-1a1.16,1.16,0,1,1,1.55-.53Zm1,3.17L461.22,67a2.57,2.57,0,0,0-1.11,2.22,2.69,2.69,0,0,0,.74,1.85l-42.16,46.12a2.8,2.8,0,0,0-1.69-.51h-.08L411.6,69a2.71,2.71,0,0,0,2.16-2.64h0a2.54,2.54,0,0,0-1.26-2.3l20.05-38.59ZM344.63,85.19,408.44,67a2.7,2.7,0,0,0,2.62,2h.11l5.32,47.63a2.44,2.44,0,0,0-1.89,1.33L344.5,86.63a2.68,2.68,0,0,0,.17-.92h0A3.19,3.19,0,0,0,344.63,85.19Zm157,25a3.06,3.06,0,0,0-1.19-.23,2.84,2.84,0,0,0-1.63.47L464.73,71.08a2.69,2.69,0,0,0,.79-1.9h0c0-.08,0-.16,0-.24l65.21-11.67a2.7,2.7,0,0,0,1.06,1.51Zm3-92.81h6v6h-6Zm-1.5,3.31v4.21h7.17l21.22,29.56a2.6,2.6,0,0,0-.94,2.08,2.69,2.69,0,0,0,0,.28L465.44,68.51a2.5,2.5,0,0,0-2.63-2,3,3,0,0,0-1.21.24L436.91,25.47h1.22V21.88Zm-70.56-2.79a1.5,1.5,0,0,1,1.5-1.5h.71a1.5,1.5,0,0,1,1.49,1.5v1.47h-3.71Zm-1.86,4.6v3h1.34l-20,38.41a3.11,3.11,0,0,0-1.06-.18,2.62,2.62,0,0,0-2.13.94L366.23,35a2.68,2.68,0,0,0,.39-1.37h0c0-.08,0-.15,0-.22ZM361.24,33.22a3.14,3.14,0,0,0,0,.38A2.69,2.69,0,0,0,362.68,36L342.81,83.17a3.18,3.18,0,0,0-.85-.12,2.86,2.86,0,0,0-1.6.44l-56.6-67.31a2.68,2.68,0,0,0,.35-.72ZM278.86,14.71A2.69,2.69,0,0,0,280,16.8L244.49,73.47a3,3,0,0,0-1.26-.26,2.7,2.7,0,0,0-2,.73L183.64,12.1V9ZM176.12,6h6v6h-6Zm-1.5,4.48v3h9v-.79L241,74.27a2.71,2.71,0,0,0-.46,1.4H176.13a2.52,2.52,0,0,0-2.69-2.47,2.62,2.62,0,0,0-2.14.95L118.7,37.89a2.67,2.67,0,0,0,.3-1.21h0a3,3,0,0,0-.11-.79ZM113.7,35.91a3,3,0,0,0-.1.76,2.7,2.7,0,0,0,2.68,2.7L113.49,109a2.71,2.71,0,0,0-1.71.61L66.89,66.11V57.53H61.16l-13.77-43a2.7,2.7,0,0,0,1.39-1.13ZM44.25,13.49-8.7,55.85V55a2.57,2.57,0,0,0-2.57-2.57H-12A2.57,2.57,0,0,0-14.55,55h0v1.18L-52.83,21.85a2.69,2.69,0,0,0,.44-1.44l96.3-7.65A2.69,2.69,0,0,0,44.25,13.49Zm-102,7a2.68,2.68,0,0,0,.62,1.65L-89.5,53a2.73,2.73,0,0,0-1.83-.63,2.87,2.87,0,0,0-1.56.42l-26.26-32.35h.57v-4Zm-68.31-7.55h6v6h-6Zm-1.5,4.11v3.41H-126l-34.48,57.27a2.81,2.81,0,0,0-1.67-.5,2.64,2.64,0,0,0-2.09.89l-36.53-43V31.27Zm-78.77,11.85a1.49,1.49,0,0,1,1.49-1.5h.71a1.5,1.5,0,0,1,1.5,1.5v1.47h-3.71Zm.79,3.36a1.16,1.16,0,0,1,1.55-.53,1.16,1.16,0,0,1,.53,1.55,1.16,1.16,0,0,1-.53.53v1a.53.53,0,0,1-.63.39.53.53,0,0,1-.39-.39v-1A1.16,1.16,0,0,1-205.57,32.2Zm-2.65,1.93V36.4h7.4v-.63l36.27,42.66a2.83,2.83,0,0,0-.36,1.4,2.67,2.67,0,0,0,.12.75l-47.56,26.86a2.58,2.58,0,0,0-2.29-1.14,2.61,2.61,0,0,0-2.17,1l-42.36-43.24a2.68,2.68,0,0,0,.43-1.44h0a2.79,2.79,0,0,0-.43-1.54Zm-54,25.92a2.43,2.43,0,0,0-1.87,2l-52.16-6.61V50.59l37.78-39.64a2.68,2.68,0,0,0,1.69.6,2.71,2.71,0,0,0,.53-.05ZM-351,14.67l71.53-5.38a2.68,2.68,0,0,0,.66,1.37l-38,39.85h-8.07l-27-33.89A2.69,2.69,0,0,0-351,14.67ZM-317.76,52v6h-6V52Zm-11.42,112.75h-6v-6h6Zm-3.9-7.52L-346.62,102a2.7,2.7,0,0,0,1.86-2.55h0a2.55,2.55,0,0,0-1.18-2.26l21.18-37.64h7.58l19.45,49.21a2.55,2.55,0,0,0-.6,1.63v1.47h-.77v6.08h7.3l38.15,43.72a2.6,2.6,0,0,0-.71,1.66l-73.3-1.66v-4.39Zm83.94,5.4a2.4,2.4,0,0,0-.83-1.2l34.44-49.93a2.68,2.68,0,0,0,.9.16,2.69,2.69,0,0,0,1.88-.77l38.14,32.73H-175v3.11Zm75.94-20.49a1.5,1.5,0,0,1,1.5-1.5h.71a1.49,1.49,0,0,1,1.49,1.5v1.47h-3.71Zm2.87,4.38a1.16,1.16,0,0,1-.53.53v1a.53.53,0,0,1-.63.39.53.53,0,0,1-.39-.39v-1a1.16,1.16,0,0,1-.53-1.55,1.16,1.16,0,0,1,1.55-.53A1.16,1.16,0,0,1-170.32,146.53Zm2.7.77v-3.07l60.7-31.15a2.7,2.7,0,0,0,2.29,1.27,2.7,2.7,0,0,0,2.7-2.7h0c0-.08,0-.15,0-.23l43.15,14.07a2.7,2.7,0,0,0,.72,1.24L-103,167.24a2.86,2.86,0,0,0-1.6-.44,2.52,2.52,0,0,0-2.51,1.58Zm149.81,26a2.38,2.38,0,0,0-.52-.75L36,118.14a2.69,2.69,0,0,0,3.06,0L60.5,139.26a2.63,2.63,0,0,0-.82,2,2.68,2.68,0,0,0,.14.82ZM65,141.75a2.69,2.69,0,0,0,.05-.5h0a2.91,2.91,0,0,0-.24-1.16l46.53-26.9a2.69,2.69,0,0,0,3.68.72L153.94,164a2.69,2.69,0,0,0-.69,1.19Zm183.75,18.59a2.68,2.68,0,0,0-.58-1.42l39.07-36.3h6.91v-.81l40.57,33.77v3.78Zm93.49,1.73h-6v-6h6Zm1.5-2.55v-5h-4.13l2.44-66.16A2.69,2.69,0,0,0,344.32,87l70.11,31.37a3,3,0,0,0-.14.89,2.69,2.69,0,0,0,1.46,2.38l-18.07,42.08a3.11,3.11,0,0,0-1.06-.18A2.51,2.51,0,0,0,394,165.7ZM399.3,166a2.48,2.48,0,0,0-1.24-2l18.08-42.1a2.63,2.63,0,0,0,2.83-.72l53.69,41.58h-.42v1.72Zm78.48-4.76v1.47h-3.71v-1.47a1.5,1.5,0,0,1,1.5-1.5h.71A1.49,1.49,0,0,1,477.78,161.21Zm-.82,4.38a1.16,1.16,0,0,1-.53.53v1a.53.53,0,0,1-1,0v-1a1.16,1.16,0,1,1,1.55-.53Zm1-6.33a2.55,2.55,0,0,0-1.66-.62h-.71a2.57,2.57,0,0,0-2.57,2.57h0v1.2l-53.78-41.64a2.69,2.69,0,0,0,.45-1.47l78.08-6.22A2.69,2.69,0,0,0,499.1,115Z"/><rect class="cls-3" width="300" height="173.52" rx="6.99" ry="6.99"/><path class="cls-4" d="M119.2,152.27a4.52,4.52,0,0,1-3.24,1.28,4.23,4.23,0,0,1-4.55-4.43A4.32,4.32,0,0,1,116,144.6a4.41,4.41,0,0,1,3.16,1.31l-.93.89a3.17,3.17,0,0,0-2.23-.89,3,3,0,0,0-3.18,3.21,3,3,0,0,0,3.18,3.14,3.35,3.35,0,0,0,2.29-.94Z"/><polygon class="cls-4" points="124.27 148.56 126.72 144.75 128.38 144.75 128.38 144.81 124.96 149.84 124.96 153.38 123.58 153.38 123.58 149.84 120.25 144.81 120.25 144.75 121.89 144.75 124.27 148.56"/><path class="cls-4" d="M134.17,144.75c1.64,0,2.94.75,2.94,2.47a1.79,1.79,0,0,1-1.2,1.71,2.13,2.13,0,0,1,1.47,2c0,1.89-1.5,2.47-3.21,2.47h-4v-8.63Zm-2.59,3.58h2.6c1,0,1.55-.41,1.55-1.08s-.53-1.25-1.57-1.25h-2.59Zm0,3.77h2.59c.76,0,1.83-.25,1.83-1.2s-1-1.34-1.81-1.34h-2.6Z"/><polygon class="cls-4" points="146.03 153.38 139.66 153.38 139.66 144.75 145.99 144.75 145.99 146.1 141.04 146.1 141.04 148.43 145.8 148.43 145.8 149.71 141.04 149.71 141.04 152.03 146.03 152.03 146.03 153.38"/><path class="cls-4" d="M155.87,153.38h-1.62l-2.63-3H149.8v3h-1.38v-8.64h4a2.81,2.81,0,0,1,3,2.82,2.55,2.55,0,0,1-2.34,2.69l2.58,2.87ZM149.8,146v3.13h2.63a1.49,1.49,0,0,0,1.65-1.54,1.54,1.54,0,0,0-1.64-1.59Z"/><path class="cls-4" d="M163.68,152h-3.86l-.57,1.42h-2.59l3.87-8.63H163l3.86,8.63h-2.61Zm-1.92-4.8-1.11,2.75h2.21Z"/><path class="cls-4" d="M176.16,153.38h-2.69l-2-2.8h-.85v2.8h-2.44v-8.63h4.22a3,3,0,0,1,3.35,3,2.59,2.59,0,0,1-1.83,2.6l2.24,2.91Zm-5.55-6.68v2.07h1.8a.9.9,0,0,0,.92-1,1,1,0,0,0-.95-1.07Z"/><path class="cls-4" d="M185.5,144.9,182,149c1.21,1.33,2.6,2.89,3.8,4.25v.15h-3l-2.47-2.87v2.87h-2.44v-8.63h2.44v2.84c.74-.91,1.54-1.92,2.27-2.84h2.92Z"/><path class="cls-4" d="M187.59,145.12a1,1,0,1,1,1-1,1,1,0,0,1-1,1m0-1.87a.86.86,0,1,0,.83.86.84.84,0,0,0-.83-.86m.37,1.42h-.1a0,0,0,0,1,0,0l-.08-.14a1.83,1.83,0,0,0-.2-.28.08.08,0,0,0-.07,0h0v.42a.06.06,0,0,1-.05.06h-.07a.06.06,0,0,1-.06-.06v-1a.06.06,0,0,1,.06-.05h.29c.25,0,.37.14.37.31a.29.29,0,0,1-.29.31,1.58,1.58,0,0,1,.31.44,0,0,0,0,1,0,.06m-.41-1h-.11v.36h.11c.19,0,.25-.06.25-.19s-.09-.17-.24-.17"/><polygon class="cls-4" points="148.71 101.64 133.41 110.48 141.46 115.11 148.71 110.91 148.71 101.64"/><polygon class="cls-4" points="133.27 128.42 141.3 123.78 141.3 115.4 133.25 110.77 133.27 128.42"/><polygon class="cls-4" points="156.63 123.87 156.63 115.11 156.47 115.2 156.3 115.11 156.3 123.69 149.04 119.48 149.04 110.91 148.71 110.91 148.71 119.48 141.3 123.78 141.46 124.06 148.88 119.76 156.3 124.06 156.63 123.87"/><polygon class="cls-4" points="149.04 101.64 149.04 110.91 156.47 115.2 164.49 110.56 149.04 101.64"/><polygon class="cls-4" points="149.06 128.24 149.06 137.52 164.51 128.59 164.51 119.31 149.06 128.24"/><polygon class="cls-4" points="141.46 124.06 133.44 128.71 148.73 137.5 148.73 128.24 141.46 124.06"/><path class="cls-4" d="M40.31,41.55a3,3,0,0,1-1.3-.24V40a4.77,4.77,0,0,0,1.3.18,1.65,1.65,0,0,0,1.32-.53,2.27,2.27,0,0,0,.45-1.52V25.32h1.49V38a3.69,3.69,0,0,1-.84,2.59A3.13,3.13,0,0,1,40.31,41.55Z"/><path class="cls-4" d="M55.09,33.34A5.31,5.31,0,0,1,53.9,37a4.18,4.18,0,0,1-3.28,1.32,4.34,4.34,0,0,1-2.29-.61A4,4,0,0,1,46.78,36a6.06,6.06,0,0,1-.54-2.65,5.31,5.31,0,0,1,1.18-3.67,4.17,4.17,0,0,1,3.27-1.31A4.08,4.08,0,0,1,53.9,29.7,5.29,5.29,0,0,1,55.09,33.34Zm-7.34,0a4.57,4.57,0,0,0,.74,2.81,2.93,2.93,0,0,0,4.35,0,4.55,4.55,0,0,0,.74-2.82,4.48,4.48,0,0,0-.74-2.79,2.61,2.61,0,0,0-2.19-1,2.57,2.57,0,0,0-2.16.94A4.53,4.53,0,0,0,47.75,33.34Z"/><path class="cls-4" d="M57.52,25.92a1,1,0,0,1,.25-.73.91.91,0,0,1,1.22,0,1,1,0,0,1,.25.73,1,1,0,0,1-.25.73.89.89,0,0,1-1.22,0A1,1,0,0,1,57.52,25.92ZM59.1,38.17H57.64V28.53H59.1Z"/><path class="cls-4" d="M68.79,38.17V31.94a2.51,2.51,0,0,0-.54-1.76,2.18,2.18,0,0,0-1.68-.58,2.77,2.77,0,0,0-2.21.82,4.13,4.13,0,0,0-.7,2.7v5.05H62.2V28.53h1.19l.24,1.32h.07a3,3,0,0,1,1.26-1.1,4.08,4.08,0,0,1,1.8-.39,3.66,3.66,0,0,1,2.62.84,3.57,3.57,0,0,1,.88,2.69v6.28Z"/><path class="cls-4" d="M79.29,28.53v6.25a2.51,2.51,0,0,0,.54,1.76,2.18,2.18,0,0,0,1.68.58,2.74,2.74,0,0,0,2.21-.83,4.17,4.17,0,0,0,.7-2.7V28.53h1.46v9.63h-1.2l-.21-1.29h-.08A2.91,2.91,0,0,1,83.14,38a4.18,4.18,0,0,1-1.81.38,3.68,3.68,0,0,1-2.63-.83,3.55,3.55,0,0,1-.87-2.67v-6.3Z"/><path class="cls-4" d="M95.18,35.54a2.41,2.41,0,0,1-1,2.07,4.71,4.71,0,0,1-2.81.73,6.12,6.12,0,0,1-3-.61V36.38a7.23,7.23,0,0,0,1.49.55,6.22,6.22,0,0,0,1.53.2,3.48,3.48,0,0,0,1.76-.36,1.26,1.26,0,0,0,.13-2.07,7.67,7.67,0,0,0-1.9-.94,10.32,10.32,0,0,1-1.91-.87,2.61,2.61,0,0,1-.84-.85,2.21,2.21,0,0,1-.28-1.13,2.16,2.16,0,0,1,1-1.86,4.46,4.46,0,0,1,2.63-.68A7.69,7.69,0,0,1,95,29l-.52,1.19a7,7,0,0,0-2.63-.6,3,3,0,0,0-1.56.33,1,1,0,0,0-.53.9,1.09,1.09,0,0,0,.2.66,2,2,0,0,0,.64.52,14.24,14.24,0,0,0,1.69.71,6.3,6.3,0,0,1,2.32,1.26A2.22,2.22,0,0,1,95.18,35.54Z"/><path class="cls-4" d="M110.55,33.34A5.31,5.31,0,0,1,109.36,37a4.18,4.18,0,0,1-3.28,1.32,4.34,4.34,0,0,1-2.29-.61A4,4,0,0,1,102.24,36a6.06,6.06,0,0,1-.54-2.65,5.31,5.31,0,0,1,1.18-3.67,4.17,4.17,0,0,1,3.27-1.31,4.08,4.08,0,0,1,3.21,1.34A5.29,5.29,0,0,1,110.55,33.34Zm-7.34,0a4.57,4.57,0,0,0,.74,2.81,2.93,2.93,0,0,0,4.35,0,4.55,4.55,0,0,0,.74-2.82,4.48,4.48,0,0,0-.74-2.79,2.61,2.61,0,0,0-2.19-1,2.57,2.57,0,0,0-2.16.94A4.53,4.53,0,0,0,103.21,33.34Z"/><path class="cls-4" d="M119.69,38.17V31.94a2.51,2.51,0,0,0-.54-1.76,2.18,2.18,0,0,0-1.68-.58,2.77,2.77,0,0,0-2.21.82,4.13,4.13,0,0,0-.7,2.7v5.05H113.1V28.53h1.19l.24,1.32h.07a3,3,0,0,1,1.26-1.1,4.08,4.08,0,0,1,1.8-.39,3.66,3.66,0,0,1,2.62.84,3.57,3.57,0,0,1,.88,2.69v6.28Z"/><path class="cls-4" d="M133,38.17h-1.49V26.64h-4.07V25.32h9.63v1.33H133Z"/><path class="cls-4" d="M140.16,28.53v6.25a2.51,2.51,0,0,0,.54,1.76,2.18,2.18,0,0,0,1.68.58,2.74,2.74,0,0,0,2.21-.83,4.17,4.17,0,0,0,.7-2.7V28.53h1.46v9.63h-1.2l-.21-1.29h-.08A2.91,2.91,0,0,1,144,38a4.18,4.18,0,0,1-1.81.38,3.68,3.68,0,0,1-2.63-.83,3.55,3.55,0,0,1-.87-2.67v-6.3Z"/><path class="cls-4" d="M153.9,38.34a4.43,4.43,0,0,1-3.37-1.3,5,5,0,0,1-1.23-3.61,5.58,5.58,0,0,1,1.15-3.7,3.81,3.81,0,0,1,3.08-1.37,3.63,3.63,0,0,1,2.87,1.19,4.56,4.56,0,0,1,1.05,3.14v.92h-6.64a3.82,3.82,0,0,0,.86,2.58,3,3,0,0,0,2.29.88,7.76,7.76,0,0,0,3.08-.65v1.3a7.72,7.72,0,0,1-1.46.48A8.22,8.22,0,0,1,153.9,38.34Zm-.4-8.76a2.38,2.38,0,0,0-1.85.76,3.48,3.48,0,0,0-.81,2.09h5a3.21,3.21,0,0,0-.62-2.11A2.17,2.17,0,0,0,153.51,29.58Z"/><path class="cls-4" d="M166.15,35.54a2.41,2.41,0,0,1-1,2.07,4.71,4.71,0,0,1-2.81.73,6.12,6.12,0,0,1-3-.61V36.38a7.22,7.22,0,0,0,1.49.55,6.22,6.22,0,0,0,1.53.2,3.48,3.48,0,0,0,1.76-.36,1.26,1.26,0,0,0,.13-2.07,7.67,7.67,0,0,0-1.9-.94,10.33,10.33,0,0,1-1.91-.87,2.61,2.61,0,0,1-.84-.85,2.21,2.21,0,0,1-.28-1.13,2.16,2.16,0,0,1,1-1.86,4.46,4.46,0,0,1,2.63-.68,7.69,7.69,0,0,1,3,.63l-.52,1.19a7,7,0,0,0-2.63-.6,3,3,0,0,0-1.56.33,1,1,0,0,0-.53.9,1.09,1.09,0,0,0,.2.66,2,2,0,0,0,.64.52,14.24,14.24,0,0,0,1.69.71,6.3,6.3,0,0,1,2.32,1.26A2.22,2.22,0,0,1,166.15,35.54Z"/><path class="cls-4" d="M175.08,36.88H175a3.43,3.43,0,0,1-3,1.47A3.58,3.58,0,0,1,169,37.05a5.69,5.69,0,0,1-1-3.67,5.78,5.78,0,0,1,1.05-3.7A3.55,3.55,0,0,1,172,28.36a3.5,3.5,0,0,1,3,1.42h.11l-.06-.69,0-.68V24.49h1.46V38.17h-1.19Zm-2.92.25a2.66,2.66,0,0,0,2.17-.81,4.11,4.11,0,0,0,.67-2.62v-.31a4.83,4.83,0,0,0-.68-2.92,2.59,2.59,0,0,0-2.17-.87,2.23,2.23,0,0,0-2,1,5,5,0,0,0-.68,2.82,4.76,4.76,0,0,0,.68,2.79A2.29,2.29,0,0,0,172.16,37.12Z"/><path class="cls-4" d="M185.47,38.17l-.29-1.37h-.07A4.05,4.05,0,0,1,183.67,38a4.38,4.38,0,0,1-1.79.32,3.22,3.22,0,0,1-2.25-.74,2.69,2.69,0,0,1-.81-2.1q0-2.92,4.67-3.06l1.63-.05v-.6a2.44,2.44,0,0,0-.49-1.67,2,2,0,0,0-1.56-.54,6.36,6.36,0,0,0-2.72.74l-.45-1.12a6.85,6.85,0,0,1,1.56-.61,6.76,6.76,0,0,1,1.7-.22,3.67,3.67,0,0,1,2.55.76,3.19,3.19,0,0,1,.83,2.45v6.57Zm-3.3-1a3,3,0,0,0,2.14-.75,2.76,2.76,0,0,0,.78-2.09v-.87l-1.46.06a5.31,5.31,0,0,0-2.51.54,1.63,1.63,0,0,0-.77,1.49,1.5,1.5,0,0,0,.48,1.2A2,2,0,0,0,182.18,37.14Z"/><path class="cls-4" d="M188,28.53h1.56L191.7,34a20.89,20.89,0,0,1,.86,2.72h.07q.11-.45.48-1.53t2.39-6.68h1.56l-4.14,11a5.47,5.47,0,0,1-1.44,2.31,3.05,3.05,0,0,1-2,.68,5.87,5.87,0,0,1-1.32-.15V41.17a5.09,5.09,0,0,0,1.08.11,2.23,2.23,0,0,0,2.14-1.69l.54-1.37Z"/><path class="cls-4" d="M211.08,30.8q0,7.54-5.84,7.54a5.94,5.94,0,0,1-1.62-.18V36.91a5.17,5.17,0,0,0,1.6.23,3.89,3.89,0,0,0,3.19-1.31,6.6,6.6,0,0,0,1.17-4h-.11a3.13,3.13,0,0,1-1.28,1.11,4.13,4.13,0,0,1-1.8.38,3.62,3.62,0,0,1-2.71-1,3.89,3.89,0,0,1-1-2.85,4.36,4.36,0,0,1,1.12-3.16,4.29,4.29,0,0,1,5.24-.49,4.25,4.25,0,0,1,1.51,2A8,8,0,0,1,211.08,30.8Zm-4.32-4.42a2.41,2.41,0,0,0-1.94.81,3.37,3.37,0,0,0-.69,2.25,2.93,2.93,0,0,0,.63,2,2.42,2.42,0,0,0,1.92.73,3.33,3.33,0,0,0,1.47-.33,2.66,2.66,0,0,0,1.06-.89,2,2,0,0,0,.39-1.18,4,4,0,0,0-.36-1.71,3,3,0,0,0-1-1.23A2.53,2.53,0,0,0,206.76,26.38Z"/><path class="cls-4" d="M218.48,25.32l-4.79,12.85h-1.46L217,25.32Z"/><path class="cls-4" d="M224.94,38.17h-1.42V29q0-1.14.07-2.16l-.41.39-2.09,1.71-.77-1,3.4-2.63h1.23Z"/><path class="cls-4" d="M238.28,30.8q0,7.54-5.84,7.54a5.94,5.94,0,0,1-1.62-.18V36.91a5.17,5.17,0,0,0,1.6.23,3.89,3.89,0,0,0,3.19-1.31,6.6,6.6,0,0,0,1.17-4h-.11a3.13,3.13,0,0,1-1.28,1.11,4.13,4.13,0,0,1-1.8.38,3.62,3.62,0,0,1-2.71-1,3.89,3.89,0,0,1-1-2.85A4.36,4.36,0,0,1,231,26.29a4.29,4.29,0,0,1,5.24-.49,4.25,4.25,0,0,1,1.51,2A8,8,0,0,1,238.28,30.8ZM234,26.38a2.41,2.41,0,0,0-1.94.81,3.37,3.37,0,0,0-.69,2.25,2.93,2.93,0,0,0,.63,2,2.42,2.42,0,0,0,1.92.73,3.33,3.33,0,0,0,1.47-.33,2.66,2.66,0,0,0,1.06-.89,2,2,0,0,0,.39-1.18,4,4,0,0,0-.36-1.71,3,3,0,0,0-1-1.23A2.53,2.53,0,0,0,234,26.38Z"/><path class="cls-4" d="M251.39,38.17l-.29-1.37H251A4.05,4.05,0,0,1,249.59,38a4.38,4.38,0,0,1-1.79.32,3.22,3.22,0,0,1-2.25-.74,2.69,2.69,0,0,1-.81-2.1q0-2.92,4.67-3.06l1.63-.05v-.6a2.44,2.44,0,0,0-.49-1.67,2,2,0,0,0-1.56-.54,6.36,6.36,0,0,0-2.72.74l-.45-1.12a6.85,6.85,0,0,1,1.56-.61,6.76,6.76,0,0,1,1.7-.22,3.67,3.67,0,0,1,2.55.76,3.19,3.19,0,0,1,.83,2.45v6.57Zm-3.3-1a3,3,0,0,0,2.14-.75A2.76,2.76,0,0,0,251,34.3v-.87l-1.46.06A5.31,5.31,0,0,0,247,34a1.63,1.63,0,0,0-.77,1.49,1.5,1.5,0,0,0,.48,1.2A2,2,0,0,0,248.09,37.14Z"/><path class="cls-4" d="M258.59,37.14a4.77,4.77,0,0,0,.75-.06,4.84,4.84,0,0,0,.57-.12v1.12a2.67,2.67,0,0,1-.7.19,5.24,5.24,0,0,1-.83.07q-2.79,0-2.79-2.94V29.67H254.2V29l1.38-.61.62-2.06H257v2.23h2.79v1.13H257v5.67a2,2,0,0,0,.41,1.34A1.44,1.44,0,0,0,258.59,37.14Z"/><path class="cls-4" d="M24.14,59.77H22.71V50.61q0-1.14.07-2.16l-.41.39-2.09,1.71-.77-1,3.4-2.63h1.23Z"/><path class="cls-4" d="M34.43,59.77H33V50.61q0-1.14.07-2.16l-.41.39-2.09,1.71-.77-1,3.4-2.63h1.23Z"/><path class="cls-4" d="M45.91,59.77l-.29-1.37h-.07a4.05,4.05,0,0,1-1.44,1.23,4.38,4.38,0,0,1-1.79.32,3.22,3.22,0,0,1-2.25-.74,2.69,2.69,0,0,1-.81-2.1q0-2.92,4.67-3.06L45.56,54v-.6a2.44,2.44,0,0,0-.49-1.67,2,2,0,0,0-1.56-.54,6.36,6.36,0,0,0-2.72.74l-.45-1.12a6.86,6.86,0,0,1,1.56-.61A6.76,6.76,0,0,1,43.6,50a3.67,3.67,0,0,1,2.55.76A3.19,3.19,0,0,1,47,53.19v6.57Zm-3.3-1A3,3,0,0,0,44.75,58a2.76,2.76,0,0,0,.78-2.09V55l-1.46.06a5.31,5.31,0,0,0-2.51.54,1.63,1.63,0,0,0-.77,1.49,1.5,1.5,0,0,0,.48,1.2A2,2,0,0,0,42.61,58.74Z"/><path class="cls-4" d="M62.27,59.77V53.5a2.6,2.6,0,0,0-.49-1.73,1.9,1.9,0,0,0-1.53-.58,2.47,2.47,0,0,0-2,.78,3.72,3.72,0,0,0-.65,2.41v5.38H56.13V53.5a2.6,2.6,0,0,0-.49-1.73,1.92,1.92,0,0,0-1.54-.58,2.38,2.38,0,0,0-2,.82,4.45,4.45,0,0,0-.64,2.69v5.05H50V50.13h1.19l.24,1.32h.07a2.87,2.87,0,0,1,1.16-1.1,3.56,3.56,0,0,1,1.68-.4,2.86,2.86,0,0,1,3,1.63h.07a3.07,3.07,0,0,1,1.25-1.2A3.87,3.87,0,0,1,60.47,50a3.26,3.26,0,0,1,2.45.84,3.75,3.75,0,0,1,.81,2.69v6.28Z"/><path class="cls-4" d="M78.79,59.77H71.63V46.92h7.16v1.33H73.13v4.14h5.33V53.7H73.13v4.73h5.67Z"/><path class="cls-4" d="M85.6,59.77H84.1V48.24H80V46.92h9.63v1.33H85.6Z"/><path class="cls-4" d="M100.4,51.27H97.95v8.5H96.49v-8.5H94.76v-.66l1.72-.53v-.54q0-3.55,3.1-3.55a6.38,6.38,0,0,1,1.79.31L101,47.47a4.83,4.83,0,0,0-1.44-.27,1.4,1.4,0,0,0-1.22.55,3.07,3.07,0,0,0-.4,1.76v.62h2.45Z"/><path class="cls-4" d="M110.47,54.94a5.31,5.31,0,0,1-1.19,3.68A4.18,4.18,0,0,1,106,59.94a4.34,4.34,0,0,1-2.29-.61,4,4,0,0,1-1.55-1.74,6.06,6.06,0,0,1-.54-2.65,5.31,5.31,0,0,1,1.18-3.67A4.17,4.17,0,0,1,106.07,50a4.08,4.08,0,0,1,3.21,1.34A5.29,5.29,0,0,1,110.47,54.94Zm-7.34,0a4.57,4.57,0,0,0,.74,2.81,2.93,2.93,0,0,0,4.35,0,4.55,4.55,0,0,0,.74-2.82,4.48,4.48,0,0,0-.74-2.79,2.61,2.61,0,0,0-2.19-1,2.57,2.57,0,0,0-2.16.94A4.53,4.53,0,0,0,103.13,54.94Z"/><path class="cls-4" d="M117.42,50a5.71,5.71,0,0,1,1.15.11l-.2,1.35a5,5,0,0,0-1.05-.13,2.57,2.57,0,0,0-2,.95,3.46,3.46,0,0,0-.83,2.36v5.17H113V50.13h1.2l.17,1.78h.07a4.23,4.23,0,0,1,1.29-1.45A2.91,2.91,0,0,1,117.42,50Z"/><path class="cls-4" d="M131,59.77l-.29-1.37h-.07a4.05,4.05,0,0,1-1.44,1.23,4.38,4.38,0,0,1-1.79.32,3.22,3.22,0,0,1-2.25-.74,2.69,2.69,0,0,1-.81-2.1q0-2.92,4.67-3.06l1.63-.05v-.6a2.44,2.44,0,0,0-.49-1.67,2,2,0,0,0-1.56-.54,6.36,6.36,0,0,0-2.72.74l-.45-1.12A6.86,6.86,0,0,1,127,50.2a6.76,6.76,0,0,1,1.7-.22,3.67,3.67,0,0,1,2.55.76,3.19,3.19,0,0,1,.83,2.45v6.57Zm-3.3-1a3,3,0,0,0,2.14-.75,2.76,2.76,0,0,0,.78-2.09V55l-1.46.06a5.31,5.31,0,0,0-2.51.54,1.63,1.63,0,0,0-.77,1.49,1.5,1.5,0,0,0,.48,1.2A2,2,0,0,0,127.68,58.74Z"/><path class="cls-4" d="M141.65,59.77V53.54a2.51,2.51,0,0,0-.54-1.76,2.18,2.18,0,0,0-1.68-.58,2.77,2.77,0,0,0-2.21.82,4.13,4.13,0,0,0-.7,2.7v5.05h-1.46V50.13h1.19l.24,1.32h.07a3,3,0,0,1,1.26-1.1,4.08,4.08,0,0,1,1.8-.39,3.66,3.66,0,0,1,2.62.84,3.57,3.57,0,0,1,.88,2.69v6.28Z"/><path class="cls-4" d="M159.1,54.94a5.31,5.31,0,0,1-1.19,3.68,4.18,4.18,0,0,1-3.28,1.32,4.34,4.34,0,0,1-2.29-.61,4,4,0,0,1-1.55-1.74,6.06,6.06,0,0,1-.54-2.65,5.31,5.31,0,0,1,1.18-3.67A4.17,4.17,0,0,1,154.7,50a4.08,4.08,0,0,1,3.21,1.34A5.29,5.29,0,0,1,159.1,54.94Zm-7.34,0a4.57,4.57,0,0,0,.74,2.81,2.93,2.93,0,0,0,4.35,0,4.55,4.55,0,0,0,.74-2.82,4.48,4.48,0,0,0-.74-2.79,2.61,2.61,0,0,0-2.19-1,2.57,2.57,0,0,0-2.16.94A4.53,4.53,0,0,0,151.76,54.94Z"/><path class="cls-4" d="M168.25,59.77V53.54a2.51,2.51,0,0,0-.54-1.76A2.18,2.18,0,0,0,166,51.2a2.77,2.77,0,0,0-2.21.82,4.13,4.13,0,0,0-.7,2.7v5.05h-1.46V50.13h1.19l.24,1.32h.07a3,3,0,0,1,1.26-1.1,4.08,4.08,0,0,1,1.8-.39,3.66,3.66,0,0,1,2.62.84,3.57,3.57,0,0,1,.88,2.69v6.28Z"/><path class="cls-4" d="M174.17,59.77h-1.46V46.09h1.46Z"/><path class="cls-4" d="M177.14,47.52a1,1,0,0,1,.25-.73.91.91,0,0,1,1.22,0,1,1,0,0,1,.25.73,1,1,0,0,1-.25.73.89.89,0,0,1-1.22,0A1,1,0,0,1,177.14,47.52Zm1.58,12.24h-1.46V50.13h1.46Z"/><path class="cls-4" d="M188.4,59.77V53.54a2.51,2.51,0,0,0-.54-1.76,2.18,2.18,0,0,0-1.68-.58A2.77,2.77,0,0,0,184,52a4.13,4.13,0,0,0-.7,2.7v5.05h-1.46V50.13H183l.24,1.32h.07a3,3,0,0,1,1.26-1.1,4.08,4.08,0,0,1,1.8-.39,3.66,3.66,0,0,1,2.62.84,3.57,3.57,0,0,1,.88,2.69v6.28Z"/><path class="cls-4" d="M196.93,59.94a4.42,4.42,0,0,1-3.37-1.3A5,5,0,0,1,192.32,55a5.58,5.58,0,0,1,1.15-3.7A3.81,3.81,0,0,1,196.55,50a3.63,3.63,0,0,1,2.87,1.19,4.56,4.56,0,0,1,1.05,3.14v.92h-6.64a3.82,3.82,0,0,0,.86,2.58,3,3,0,0,0,2.29.88,7.76,7.76,0,0,0,3.08-.65v1.3a7.72,7.72,0,0,1-1.46.48A8.23,8.23,0,0,1,196.93,59.94Zm-.4-8.76a2.38,2.38,0,0,0-1.85.76,3.48,3.48,0,0,0-.81,2.09h5a3.21,3.21,0,0,0-.62-2.11A2.17,2.17,0,0,0,196.53,51.18Z"/><path class="cls-4" d="M212,50a5.71,5.71,0,0,1,1.15.11l-.2,1.35a5,5,0,0,0-1.05-.13,2.57,2.57,0,0,0-2,.95,3.46,3.46,0,0,0-.83,2.36v5.17h-1.46V50.13h1.2l.17,1.78h.07a4.23,4.23,0,0,1,1.29-1.45A2.91,2.91,0,0,1,212,50Z"/><path class="cls-4" d="M219.05,59.94a4.42,4.42,0,0,1-3.37-1.3A5,5,0,0,1,214.45,55a5.58,5.58,0,0,1,1.15-3.7A3.81,3.81,0,0,1,218.67,50a3.63,3.63,0,0,1,2.87,1.19,4.56,4.56,0,0,1,1.05,3.14v.92H216a3.82,3.82,0,0,0,.86,2.58,3,3,0,0,0,2.29.88,7.76,7.76,0,0,0,3.08-.65v1.3a7.72,7.72,0,0,1-1.46.48A8.23,8.23,0,0,1,219.05,59.94Zm-.4-8.76a2.38,2.38,0,0,0-1.85.76A3.48,3.48,0,0,0,216,54h5a3.21,3.21,0,0,0-.62-2.11A2.17,2.17,0,0,0,218.66,51.18Z"/><path class="cls-4" d="M227.19,59.77l-3.66-9.63h1.56l2.07,5.71a27,27,0,0,1,.83,2.6h.07a19.7,19.7,0,0,1,.61-1.93q.51-1.46,2.31-6.39h1.56l-3.66,9.63Z"/><path class="cls-4" d="M234,47.52a1,1,0,0,1,.25-.73.91.91,0,0,1,1.22,0,1,1,0,0,1,.25.73,1,1,0,0,1-.25.73.89.89,0,0,1-1.22,0A1,1,0,0,1,234,47.52Zm1.58,12.24H234.1V50.13h1.46Z"/><path class="cls-4" d="M242.72,59.94a4.42,4.42,0,0,1-3.37-1.3A5,5,0,0,1,238.11,55a5.58,5.58,0,0,1,1.15-3.7A3.81,3.81,0,0,1,242.34,50a3.63,3.63,0,0,1,2.87,1.19,4.56,4.56,0,0,1,1.05,3.14v.92h-6.64a3.82,3.82,0,0,0,.86,2.58,3,3,0,0,0,2.29.88,7.76,7.76,0,0,0,3.08-.65v1.3a7.72,7.72,0,0,1-1.46.48A8.23,8.23,0,0,1,242.72,59.94Zm-.4-8.76a2.38,2.38,0,0,0-1.85.76,3.48,3.48,0,0,0-.81,2.09h5a3.21,3.21,0,0,0-.62-2.11A2.17,2.17,0,0,0,242.32,51.18Z"/><path class="cls-4" d="M256.62,59.77l-1.77-5.65q-.17-.52-.62-2.36h-.07q-.35,1.54-.62,2.37l-1.82,5.63H250l-2.63-9.63h1.53l1.42,5.53a22.36,22.36,0,0,1,.56,2.56H251q.1-.5.31-1.3t.37-1.26l1.77-5.53H255l1.72,5.53a18.66,18.66,0,0,1,.67,2.54h.07a9.35,9.35,0,0,1,.19-1q.15-.66,1.83-7.09H261l-2.66,9.63Z"/><path class="cls-4" d="M275.74,54.94a5.31,5.31,0,0,1-1.19,3.68,4.18,4.18,0,0,1-3.28,1.32,4.34,4.34,0,0,1-2.29-.61,4,4,0,0,1-1.55-1.74,6.06,6.06,0,0,1-.54-2.65,5.31,5.31,0,0,1,1.18-3.67A4.17,4.17,0,0,1,271.34,50a4.08,4.08,0,0,1,3.21,1.34A5.29,5.29,0,0,1,275.74,54.94Zm-7.34,0a4.57,4.57,0,0,0,.74,2.81,2.93,2.93,0,0,0,4.35,0,4.55,4.55,0,0,0,.74-2.82,4.48,4.48,0,0,0-.74-2.79,2.61,2.61,0,0,0-2.19-1,2.57,2.57,0,0,0-2.16.94A4.53,4.53,0,0,0,268.4,54.94Z"/><path class="cls-4" d="M282.64,51.27h-2.45v8.5h-1.46v-8.5H277v-.66l1.72-.53v-.54q0-3.55,3.1-3.55a6.38,6.38,0,0,1,1.79.31l-.38,1.17a4.83,4.83,0,0,0-1.44-.27,1.4,1.4,0,0,0-1.22.55,3.07,3.07,0,0,0-.4,1.76v.62h2.45Z"/><path class="cls-4" d="M31.77,69.67a4.2,4.2,0,0,0-3.34,1.41,5.69,5.69,0,0,0-1.23,3.86,5.8,5.8,0,0,0,1.18,3.9,4.2,4.2,0,0,0,3.37,1.38,11.51,11.51,0,0,0,3.07-.48V81a9.45,9.45,0,0,1-3.3.5,5.58,5.58,0,0,1-4.38-1.72,7.09,7.09,0,0,1-1.54-4.9,7.73,7.73,0,0,1,.74-3.48,5.33,5.33,0,0,1,2.14-2.3,6.49,6.49,0,0,1,3.3-.81,8,8,0,0,1,3.53.74l-.63,1.28A6.81,6.81,0,0,0,31.77,69.67Z"/><path class="cls-4" d="M35.87,71.73h1.56l2.11,5.49a20.89,20.89,0,0,1,.86,2.72h.07q.11-.45.48-1.53t2.39-6.68h1.56l-4.14,11A5.47,5.47,0,0,1,39.33,85a3.06,3.06,0,0,1-2,.68A5.87,5.87,0,0,1,36,85.54V84.37a5.09,5.09,0,0,0,1.08.11,2.23,2.23,0,0,0,2.14-1.69l.54-1.37Z"/><path class="cls-4" d="M51,71.58a3.58,3.58,0,0,1,2.95,1.3,6.94,6.94,0,0,1,0,7.36A3.56,3.56,0,0,1,51,81.54a4.17,4.17,0,0,1-1.72-.35,3.22,3.22,0,0,1-1.31-1.07h-.11l-.31,1.24h-1V67.69h1.46V71q0,1.12-.07,2h.07A3.46,3.46,0,0,1,51,71.58Zm-.21,1.22a2.55,2.55,0,0,0-2.15.86,4.84,4.84,0,0,0-.66,2.89,4.82,4.82,0,0,0,.68,2.91,2.57,2.57,0,0,0,2.17.87,2.25,2.25,0,0,0,2-1,5,5,0,0,0,.66-2.82,4.84,4.84,0,0,0-.66-2.8A2.34,2.34,0,0,0,50.74,72.8Z"/><path class="cls-4" d="M61.57,81.54a4.43,4.43,0,0,1-3.37-1.3A5,5,0,0,1,57,76.63a5.58,5.58,0,0,1,1.15-3.7,3.81,3.81,0,0,1,3.08-1.37,3.63,3.63,0,0,1,2.87,1.19,4.57,4.57,0,0,1,1.05,3.14v.92H58.48a3.82,3.82,0,0,0,.86,2.58,3,3,0,0,0,2.29.88,7.76,7.76,0,0,0,3.08-.65v1.3a7.79,7.79,0,0,1-1.46.48A8.3,8.3,0,0,1,61.57,81.54Zm-.4-8.76a2.38,2.38,0,0,0-1.85.76,3.48,3.48,0,0,0-.81,2.09h5a3.21,3.21,0,0,0-.62-2.11A2.17,2.17,0,0,0,61.18,72.78Z"/><path class="cls-4" d="M72,71.56a5.71,5.71,0,0,1,1.15.11L72.95,73a5,5,0,0,0-1.05-.13,2.57,2.57,0,0,0-2,.95,3.46,3.46,0,0,0-.83,2.36v5.17H67.6V71.73h1.2L69,73.52H69a4.23,4.23,0,0,1,1.29-1.45A2.91,2.91,0,0,1,72,71.56Z"/><path class="cls-4" d="M83.25,81.37l-1.6-4.09H76.5l-1.58,4.09H73.4l5.08-12.9h1.26l5.05,12.9Zm-2.07-5.43-1.49-4q-.29-.76-.6-1.85A16.65,16.65,0,0,1,78.54,72l-1.51,4Z"/><path class="cls-4" d="M90.73,71.56a5.71,5.71,0,0,1,1.15.11L91.68,73a5,5,0,0,0-1.05-.13,2.57,2.57,0,0,0-2,.95,3.46,3.46,0,0,0-.83,2.36v5.17H86.34V71.73h1.2l.17,1.78h.07a4.23,4.23,0,0,1,1.29-1.45A2.91,2.91,0,0,1,90.73,71.56Z"/><path class="cls-4" d="M95.13,76.44A17.16,17.16,0,0,1,96.28,75l3.11-3.3h1.73l-3.9,4.1,4.17,5.53H99.63l-3.4-4.55-1.1.95v3.6H93.69V67.69h1.44v7.25q0,.48-.07,1.49Z"/><path class="cls-4" d="M113.53,69.67a4.2,4.2,0,0,0-3.34,1.41A5.69,5.69,0,0,0,109,74.94a5.8,5.8,0,0,0,1.18,3.9,4.2,4.2,0,0,0,3.37,1.38,11.51,11.51,0,0,0,3.07-.48V81a9.45,9.45,0,0,1-3.3.5,5.58,5.58,0,0,1-4.38-1.72,7.09,7.09,0,0,1-1.54-4.9,7.73,7.73,0,0,1,.74-3.48,5.33,5.33,0,0,1,2.14-2.3,6.49,6.49,0,0,1,3.3-.81,8,8,0,0,1,3.53.74l-.63,1.28A6.81,6.81,0,0,0,113.53,69.67Z"/><path class="cls-4" d="M127.48,76.54a5.32,5.32,0,0,1-1.19,3.68A4.18,4.18,0,0,1,123,81.54a4.34,4.34,0,0,1-2.29-.61,4,4,0,0,1-1.55-1.74,6.06,6.06,0,0,1-.54-2.65,5.3,5.3,0,0,1,1.18-3.67,4.16,4.16,0,0,1,3.27-1.31,4.08,4.08,0,0,1,3.21,1.34A5.29,5.29,0,0,1,127.48,76.54Zm-7.34,0a4.57,4.57,0,0,0,.74,2.81,2.93,2.93,0,0,0,4.35,0,4.55,4.55,0,0,0,.74-2.82,4.47,4.47,0,0,0-.74-2.79,2.61,2.61,0,0,0-2.19-1,2.57,2.57,0,0,0-2.16.94A4.53,4.53,0,0,0,120.14,76.54Z"/><path class="cls-4" d="M136.63,81.37V75.14a2.51,2.51,0,0,0-.54-1.76,2.18,2.18,0,0,0-1.68-.58,2.77,2.77,0,0,0-2.21.82,4.13,4.13,0,0,0-.7,2.7v5.05H130V71.73h1.19l.24,1.32h.07a3,3,0,0,1,1.26-1.1,4.08,4.08,0,0,1,1.8-.39,3.66,3.66,0,0,1,2.62.84,3.57,3.57,0,0,1,.88,2.69v6.28Z"/><path class="cls-4" d="M139.92,85.69a3.51,3.51,0,0,1-1.35-.22V84.29a4.28,4.28,0,0,0,1.2.18,1.26,1.26,0,0,0,1-.37,1.72,1.72,0,0,0,.32-1.14V71.73h1.46V82.84Q142.55,85.69,139.92,85.69Zm1-16.57a1,1,0,0,1,.25-.73.91.91,0,0,1,1.22,0,1,1,0,0,1,.25.73,1,1,0,0,1-.25.73.89.89,0,0,1-1.22,0A1,1,0,0,1,141,69.12Z"/><path class="cls-4" d="M147,71.73V78a2.51,2.51,0,0,0,.54,1.76,2.18,2.18,0,0,0,1.68.58,2.74,2.74,0,0,0,2.21-.83,4.17,4.17,0,0,0,.7-2.7V71.73h1.46v9.63h-1.2l-.21-1.29h-.08a2.91,2.91,0,0,1-1.24,1.09,4.18,4.18,0,0,1-1.81.38,3.68,3.68,0,0,1-2.63-.83,3.55,3.55,0,0,1-.87-2.67v-6.3Z"/><path class="cls-4" d="M161.08,71.56a5.71,5.71,0,0,1,1.15.11L162,73a5,5,0,0,0-1.05-.13,2.57,2.57,0,0,0-2,.95,3.46,3.46,0,0,0-.83,2.36v5.17h-1.46V71.73h1.2l.17,1.78h.07a4.23,4.23,0,0,1,1.29-1.45A2.91,2.91,0,0,1,161.08,71.56Z"/><path class="cls-4" d="M177,76.54a5.32,5.32,0,0,1-1.19,3.68,4.18,4.18,0,0,1-3.28,1.32,4.34,4.34,0,0,1-2.29-.61,4,4,0,0,1-1.55-1.74,6.06,6.06,0,0,1-.54-2.65,5.3,5.3,0,0,1,1.18-3.67,4.16,4.16,0,0,1,3.27-1.31,4.07,4.07,0,0,1,3.21,1.34A5.29,5.29,0,0,1,177,76.54Zm-7.34,0a4.57,4.57,0,0,0,.74,2.81,2.93,2.93,0,0,0,4.35,0,4.55,4.55,0,0,0,.74-2.82,4.47,4.47,0,0,0-.74-2.79,2.61,2.61,0,0,0-2.19-1,2.57,2.57,0,0,0-2.16.94A4.53,4.53,0,0,0,169.69,76.54Z"/><path class="cls-4" d="M184.07,81.54a4.17,4.17,0,0,1-1.72-.35,3.22,3.22,0,0,1-1.3-1.07h-.11a12.92,12.92,0,0,1,.11,1.6v4h-1.46v-14h1.19l.2,1.32H181a3.39,3.39,0,0,1,1.31-1.14,4,4,0,0,1,1.71-.35,3.56,3.56,0,0,1,3,1.31,7,7,0,0,1,0,7.36A3.56,3.56,0,0,1,184.07,81.54Zm-.21-8.75a2.59,2.59,0,0,0-2.14.82,4.21,4.21,0,0,0-.68,2.6v.33a4.82,4.82,0,0,0,.68,2.91,2.57,2.57,0,0,0,2.17.87,2.26,2.26,0,0,0,2-1,4.79,4.79,0,0,0,.71-2.79,4.62,4.62,0,0,0-.71-2.76A2.33,2.33,0,0,0,183.86,72.8Z"/><path class="cls-4" d="M194.68,81.54a4.43,4.43,0,0,1-3.37-1.3,5,5,0,0,1-1.23-3.61,5.58,5.58,0,0,1,1.15-3.7,3.81,3.81,0,0,1,3.08-1.37,3.63,3.63,0,0,1,2.87,1.19,4.57,4.57,0,0,1,1.05,3.14v.92h-6.64a3.82,3.82,0,0,0,.86,2.58,3,3,0,0,0,2.29.88,7.76,7.76,0,0,0,3.08-.65v1.3a7.8,7.8,0,0,1-1.46.48A8.29,8.29,0,0,1,194.68,81.54Zm-.4-8.76a2.38,2.38,0,0,0-1.85.76,3.48,3.48,0,0,0-.81,2.09h5a3.21,3.21,0,0,0-.62-2.11A2.17,2.17,0,0,0,194.29,72.78Z"/><path class="cls-4" d="M207.3,81.37V75.14a2.51,2.51,0,0,0-.54-1.76,2.18,2.18,0,0,0-1.68-.58,2.77,2.77,0,0,0-2.21.82,4.13,4.13,0,0,0-.7,2.7v5.05h-1.46V71.73h1.19l.24,1.32h.07a3,3,0,0,1,1.26-1.1,4.08,4.08,0,0,1,1.8-.39,3.66,3.66,0,0,1,2.62.84,3.57,3.57,0,0,1,.88,2.69v6.28Z"/><path class="cls-4" d="M222.65,78.74a2.41,2.41,0,0,1-1,2.07,4.71,4.71,0,0,1-2.81.73,6.12,6.12,0,0,1-3-.61V79.58a7.22,7.22,0,0,0,1.49.55,6.22,6.22,0,0,0,1.53.2,3.48,3.48,0,0,0,1.76-.36,1.26,1.26,0,0,0,.13-2.07,7.66,7.66,0,0,0-1.9-.95,10.26,10.26,0,0,1-1.91-.87,2.6,2.6,0,0,1-.84-.85,2.21,2.21,0,0,1-.28-1.13,2.16,2.16,0,0,1,1-1.86,4.46,4.46,0,0,1,2.63-.68,7.69,7.69,0,0,1,3,.63l-.52,1.19a7,7,0,0,0-2.63-.6,3,3,0,0,0-1.56.33,1,1,0,0,0-.53.9,1.09,1.09,0,0,0,.2.66,2,2,0,0,0,.64.52,14.24,14.24,0,0,0,1.69.71A6.3,6.3,0,0,1,222,77.15,2.22,2.22,0,0,1,222.65,78.74Z"/><path class="cls-4" d="M233.34,76.54a5.32,5.32,0,0,1-1.19,3.68,4.18,4.18,0,0,1-3.28,1.32,4.34,4.34,0,0,1-2.29-.61A4,4,0,0,1,225,79.2a6.06,6.06,0,0,1-.54-2.65,5.3,5.3,0,0,1,1.18-3.67,4.16,4.16,0,0,1,3.27-1.31,4.07,4.07,0,0,1,3.21,1.34A5.29,5.29,0,0,1,233.34,76.54Zm-7.34,0a4.57,4.57,0,0,0,.74,2.81,2.93,2.93,0,0,0,4.35,0,4.55,4.55,0,0,0,.74-2.82,4.47,4.47,0,0,0-.74-2.79,2.61,2.61,0,0,0-2.19-1,2.57,2.57,0,0,0-2.16.94A4.53,4.53,0,0,0,226,76.54Z"/><path class="cls-4" d="M237.27,71.73V78a2.51,2.51,0,0,0,.54,1.76,2.18,2.18,0,0,0,1.68.58,2.74,2.74,0,0,0,2.21-.83,4.17,4.17,0,0,0,.7-2.7V71.73h1.46v9.63h-1.2l-.21-1.29h-.08a2.91,2.91,0,0,1-1.24,1.09,4.18,4.18,0,0,1-1.81.38,3.68,3.68,0,0,1-2.63-.83,3.55,3.55,0,0,1-.87-2.67v-6.3Z"/><path class="cls-4" d="M251.34,71.56a5.71,5.71,0,0,1,1.15.11l-.2,1.35a5,5,0,0,0-1.05-.13,2.57,2.57,0,0,0-2,.95,3.46,3.46,0,0,0-.83,2.36v5.17h-1.46V71.73h1.2l.17,1.78h.07a4.23,4.23,0,0,1,1.29-1.45A2.91,2.91,0,0,1,251.34,71.56Z"/><path class="cls-4" d="M258.14,81.54a4.11,4.11,0,0,1-3.24-1.29,5.3,5.3,0,0,1-1.15-3.64,5.46,5.46,0,0,1,1.16-3.74,4.19,4.19,0,0,1,3.32-1.32,6.58,6.58,0,0,1,1.39.15,4.57,4.57,0,0,1,1.09.35l-.45,1.24a6.75,6.75,0,0,0-1.05-.32,4.65,4.65,0,0,0-1-.13q-2.94,0-2.94,3.74a4.46,4.46,0,0,0,.72,2.72,2.49,2.49,0,0,0,2.12.95,6.49,6.49,0,0,0,2.47-.52V81A5.26,5.26,0,0,1,258.14,81.54Z"/><path class="cls-4" d="M266.93,81.54a4.43,4.43,0,0,1-3.37-1.3,5,5,0,0,1-1.23-3.61,5.58,5.58,0,0,1,1.15-3.7,3.81,3.81,0,0,1,3.08-1.37,3.63,3.63,0,0,1,2.87,1.19,4.57,4.57,0,0,1,1.05,3.14v.92h-6.64a3.82,3.82,0,0,0,.86,2.58,3,3,0,0,0,2.29.88,7.76,7.76,0,0,0,3.08-.65v1.3a7.8,7.8,0,0,1-1.46.48A8.29,8.29,0,0,1,266.93,81.54Zm-.4-8.76a2.38,2.38,0,0,0-1.85.76,3.48,3.48,0,0,0-.81,2.09h5a3.21,3.21,0,0,0-.62-2.11A2.17,2.17,0,0,0,266.53,72.78Z"/><path class="cls-4" d="M272.75,80.44a1.31,1.31,0,0,1,.27-.89,1,1,0,0,1,.77-.3,1,1,0,0,1,.79.3,1.26,1.26,0,0,1,.29.89,1.23,1.23,0,0,1-.29.88,1,1,0,0,1-.79.31,1,1,0,0,1-.74-.28A1.21,1.21,0,0,1,272.75,80.44Z"/></g></svg>