<svg xmlns="http://www.w3.org/2000/svg" xmlns:xlink="http://www.w3.org/1999/xlink" viewBox="0 0 300 173.79"><defs><style>.cls-1{fill:url(#linear-gradient);}.cls-2,.cls-4,.cls-5{fill:#fff;}.cls-2{opacity:0.15;}.cls-3{fill:none;}.cls-5{font-size:18px;font-family:OpenSans, Open Sans;}</style><linearGradient id="linear-gradient" x1="150" y1="172.28" x2="150" y2="-25.45" gradientUnits="userSpaceOnUse"><stop offset="0" stop-color="#3173b1"/><stop offset="0.24" stop-color="#397ab6"/><stop offset="0.62" stop-color="#4f8cc5"/><stop offset="1" stop-color="#6ca3d7"/></linearGradient></defs><title>cybr_webinar_cta</title><g id="Layer_1" data-name="Layer 1"><rect class="cls-1" width="300" height="174.1" rx="7" ry="7"/></g><g id="Layer_2" data-name="Layer 2"><path class="cls-2" d="M551.16,190.43,535,166.49a2.69,2.69,0,0,0,1-2.11h0a2.54,2.54,0,0,0-2.7-2.66A3,3,0,0,0,532,162l-30-47.21a2.69,2.69,0,0,0,1.07-1.93l47.86-.14v-.43l-47.85.14a2.52,2.52,0,0,0-1.12-2L532.14,59a2.66,2.66,0,0,0,3.34-.84l15.38,9.29.22-.37-15.38-9.29a2.68,2.68,0,0,0,.31-1.22h0a2.54,2.54,0,0,0-2.7-2.66,2.92,2.92,0,0,0-1.41.34L510.84,24.91h1.32V17.54l38.94-27-.24-.35L512.16,17V15.9h-9v4.37l-65,1.18V19.38h-.75V17.91a2.57,2.57,0,0,0-2.57-2.57h-.63l-1.83-25-.43,0,1.83,25a2.57,2.57,0,0,0-2.22,2.54h0v1.47h-.8v2.69L366.55,33a2.51,2.51,0,0,0-2.63-2,3.37,3.37,0,0,0-.45,0L353.15-9.66l-.41.11L363,31.06a2.4,2.4,0,0,0-1.72,1.74L284.22,15.05a2.67,2.67,0,0,0,0-.41h0a2.5,2.5,0,0,0-2.06-2.6l-.35-4.24h-.07V-9.6h-.43V12a2.48,2.48,0,0,0-2.46,2.29L183.64,8.56V4.5h-9V10L118.75,35.48A2.53,2.53,0,0,0,116.3,34l.21,0L111.1-9.63l-.42.05L116.09,34a2.48,2.48,0,0,0-2.25,1.47L49,13a2.69,2.69,0,0,0,.2-1h0a2.5,2.5,0,0,0-2.34-2.63l1-18.92-.43,0-1,18.92A2.53,2.53,0,0,0,43.77,12a2.66,2.66,0,0,0,0,.37L-52.42,20a2.61,2.61,0,0,0-.52-1.28L-16.82-9.44l-.26-.34L-53.23,18.38a2.73,2.73,0,0,0-1.86-.65,2.79,2.79,0,0,0-1.72.54l-31.08-28-.29.32,31,28A2.59,2.59,0,0,0-57.77,20l-60.81-4V11.39h-6.2l-9-21.08-.39.17,9,20.91h-2.34v5.17l-73.22,14.27v-.51h-.75V28.85a2.57,2.57,0,0,0-2.3-2.55l-.44-35.91h-.43l.44,35.87h-.55a2.57,2.57,0,0,0-2.57,2.57h0v1.47h-.8v3.34l-51.21,27.08a2.69,2.69,0,0,0-2-.78,3.35,3.35,0,0,0-.37,0l-14-48.62a2.7,2.7,0,0,0,1.76-2.52h0a2.85,2.85,0,0,0-.32-1.33l25.11-16.95-.24-.35-25.1,16.94a2.61,2.61,0,0,0-2.15-1,2.54,2.54,0,0,0-2.7,2.66h0L-351,14.24A2.51,2.51,0,0,0-353.69,12a2.8,2.8,0,0,0-1.69.52L-375.77-9.75l-.31.29,20.38,22.23a2.68,2.68,0,0,0-.69,1.86,2.7,2.7,0,0,0,2.71,2.7,2.69,2.69,0,0,0,1.49-.46l26.91,33.76v4.3l-50.66,2,0,.43,50.64-2v4.14h0L-346.32,97a3.1,3.1,0,0,0-1.15-.21,2.54,2.54,0,0,0-2.7,2.66,2.68,2.68,0,0,0,.37,1.34L-376,118.57l.24.35,26.25-17.81a2.69,2.69,0,0,0,2.09,1,2.69,2.69,0,0,0,.42,0l13.53,55.16h-3.18v7.22L-376,190.37l.23.36L-336.7,165v1.28h6.93l14.48,24.41.37-.22-14.35-24.19h1.59v-4.19l73.3,1.66a2.7,2.7,0,0,0,2.69,2.53,2.7,2.7,0,0,0,2.24-1.19l46.36,25.68.21-.37-46.36-25.68a2.68,2.68,0,0,0,.26-1.13h0a3.17,3.17,0,0,0,0-.5l74-15.89v2.54h5.68l25.72,41,.36-.23-25.57-40.73h1.22v-2l60.35,21a3.09,3.09,0,0,0-.08.67,2.7,2.7,0,0,0,2.71,2.7h.12l2.37,18.43.42-.05-2.37-18.42a2.7,2.7,0,0,0,2.11-2.25l79,4.75a2.7,2.7,0,0,0,2.7,2.63,2.68,2.68,0,0,0,1.21-.3l8.46,13.73.36-.22-8.46-13.72a2.69,2.69,0,0,0,1.12-2.18h0a3,3,0,0,0-.11-.79L60,142.46a2.69,2.69,0,0,0,2.2,1.46l.15,46.62h.43l-.15-46.62a2.69,2.69,0,0,0,2.31-1.76l88.25,23.46a2.63,2.63,0,0,0,0,.3h0a2.86,2.86,0,0,0,.3,1.28l-41.71,23.15.21.37,41.73-23.16a2.6,2.6,0,0,0,2.19,1,2.51,2.51,0,0,0,2.68-2.42l84.91-5.2a2.57,2.57,0,0,0,.7,1.55L219.78,190.4l.32.28,24.36-27.89a2.84,2.84,0,0,0,1.64.47,2.52,2.52,0,0,0,2.69-2.5l86-1v3.77h3.5l-4.71,26.94.42.07,4.72-27h5.08V160l50.15,6.18s0,.06,0,.1a2.69,2.69,0,0,0,4.49,2L422,190.7l.29-.31L398.7,167.93a2.68,2.68,0,0,0,.61-1.53l72.94-1.57v3.94h6l16,21.91.35-.25-15.85-21.65h.88v-6.08h-.78v-1.47a2.55,2.55,0,0,0-.6-1.63l21.21-44.43a2.6,2.6,0,0,0,2.2-.14l30,47.19a2.57,2.57,0,0,0-1.06,2.18,2.7,2.7,0,0,0,2.71,2.7,2.68,2.68,0,0,0,1.31-.35l16.18,23.94ZM419.67,118.87a2.57,2.57,0,0,0-.66-1.46L461.17,71.3a2.66,2.66,0,0,0,3.23,0l34.08,39.36a2.66,2.66,0,0,0-.74,1.92v0Zm-84.91,35.68V155l-40.57-33.77v-4.72h-.29l45.93-29.2a2.69,2.69,0,0,0,1.83,1l-2.44,66.18Zm-45.35-36.12A1.16,1.16,0,1,1,291,120v1a.53.53,0,0,1-1,0v-1A1.16,1.16,0,0,1,289.41,118.43Zm-.79-1.89v-1.47a1.5,1.5,0,0,1,1.5-1.5h.71a1.5,1.5,0,0,1,1.5,1.5v1.47Zm-40.7,42.07a2.68,2.68,0,0,0-1.69-.69l-2.7-79.39a2.69,2.69,0,0,0,1.56-.72l42.46,37.31v1.43h-.77v6Zm-89.39,7.12a2.68,2.68,0,0,0-.53-1.42l38.67-37.59a2.74,2.74,0,0,0,1.81.62,2.65,2.65,0,0,0,2.06-.86l43.3,32.66a2.69,2.69,0,0,0-.43,1.39Zm-2.69-2.51a2.68,2.68,0,0,0-1.57.51l-38.87-50.1a2.69,2.69,0,0,0,.9-2h0a2.9,2.9,0,0,0-.25-1.2l55.21-33a2.69,2.69,0,0,0,3.22.92l22.6,44a2.69,2.69,0,0,0-1.3,2.29h0a2.71,2.71,0,0,0,.59,1.74L157.72,164A2.69,2.69,0,0,0,155.84,163.23ZM62.38,138.59a2.88,2.88,0,0,0-1.54.41L39.39,117.91a2.69,2.69,0,0,0,.87-2h0a2.56,2.56,0,0,0-1.15-2.24L60,66.54h6.71l44.75,43.37a2.75,2.75,0,0,0-.31,2.91L64.65,139.71A2.59,2.59,0,0,0,62.38,138.59Zm-165.09,28.93L-57.77,127a2.69,2.69,0,0,0,1.56.5,2.68,2.68,0,0,0,.73-.11l34.06,44.7a2.45,2.45,0,0,0-1.52,2.09l-79-4.75A2.64,2.64,0,0,0-102.71,167.51Zm-65.69-23.89v-1.47a2.57,2.57,0,0,0-2.57-2.57h-.71a2.57,2.57,0,0,0-2.57,2.57h0v1.2l-38.21-32.79a2.68,2.68,0,0,0,.54-1.6h0a2.93,2.93,0,0,0-.22-1.14L-164.63,81a2.7,2.7,0,0,0,2.44,1.54,2.69,2.69,0,0,0,2.06-1l53,29a3,3,0,0,0-.21,1.1,2.69,2.69,0,0,0,.22,1.06l-60.49,31v-.13Zm-83.29,17.27a2.84,2.84,0,0,0-1.64.47l-38.37-44v-3.53l74.66-3.7a2.7,2.7,0,0,0,1.12,1.16l-34.41,49.89A2.94,2.94,0,0,0-251.7,160.89Zm-44.79-47.17a1.16,1.16,0,0,1,1.55-.53,1.16,1.16,0,0,1,.53,1.55,1.16,1.16,0,0,1-.53.53v1a.53.53,0,0,1-.63.39.53.53,0,0,1-.39-.39v-1A1.16,1.16,0,0,1-296.48,113.72Zm-.79-1.89v-1.47a1.49,1.49,0,0,1,1.49-1.5h.71a1.5,1.5,0,0,1,1.5,1.5v1.47Zm2.22-4h-.71a2.55,2.55,0,0,0-1.65.61l-19.32-48.88h.46V55.91l52.13,6.6s0,.07,0,.11a2.7,2.7,0,0,0,2.71,2.7,2.69,2.69,0,0,0,2-.92L-217,107.67a2.86,2.86,0,0,0-.3,1.29,2.68,2.68,0,0,0,.13.77l-74.49,3.69v-1.6h-.78v-1.47A2.57,2.57,0,0,0-295.06,107.79ZM-119.7,20.41-93.23,53A2.63,2.63,0,0,0-94,55a2.67,2.67,0,0,0,.11.7l-65.76,23.06a2.43,2.43,0,0,0-.5-.8l34.65-57.55Zm62.83,2a2.68,2.68,0,0,0,1.79.68,2.69,2.69,0,0,0,2-.9l38.22,34.33h-.48v5.65l-39.29,60.4a2.87,2.87,0,0,0-1.57-.43,2.79,2.79,0,0,0-1.71.53L-89.35,56.82A2.68,2.68,0,0,0-88.63,55h0a2.71,2.71,0,0,0-.57-1.72ZM46.48,14.66a2.7,2.7,0,0,0,.5-.05L60.71,57.53H57.87v9h1.64l-20.79,47a3.06,3.06,0,0,0-1.18-.22,2.78,2.78,0,0,0-1.74.55L-7.95,62V56.51H-8.7V56.4L44.52,13.81A2.69,2.69,0,0,0,46.48,14.66ZM59.37,65V59h6v6ZM-53.51,124.8h0a2.64,2.64,0,0,0-.8-2l39.15-60.24H-8L35.5,114.12a2.58,2.58,0,0,0-.62,1.42ZM-12.7,58.4a1.16,1.16,0,0,1,1.55-.53,1.16,1.16,0,0,1,.53,1.55,1.16,1.16,0,0,1-.53.53v1a.53.53,0,0,1-.63.39.52.52,0,0,1-.39-.39v-1A1.16,1.16,0,0,1-12.7,58.4Zm-.79-1.89V55A1.5,1.5,0,0,1-12,53.55h.71A1.5,1.5,0,0,1-9.79,55v1.47Zm-1.06,0h0ZM-104.64,109a2.58,2.58,0,0,0-2.31,1.17l-52.93-28.95a2.68,2.68,0,0,0,.39-1.37h0a3.08,3.08,0,0,0-.08-.67L-93.79,56.1a2.7,2.7,0,0,0,2.46,1.59,2.68,2.68,0,0,0,1.66-.59L-58.24,123a2.68,2.68,0,0,0-.67,1.84,2.58,2.58,0,0,0,0,.27L-102,111A2.51,2.51,0,0,0-104.64,109Zm84.39,62.89A3.25,3.25,0,0,0-21,172l-34.07-44.73a2.7,2.7,0,0,0,1.52-2L34.85,116a2.69,2.69,0,0,0,.82,1.9l-54.32,54.44A2.87,2.87,0,0,0-20.26,171.87Zm137-132.54a2.69,2.69,0,0,0,1.78-1.08l52.59,36.25a2.84,2.84,0,0,0-.33,1.36,2.68,2.68,0,0,0,.3,1.21l-55.2,33a2.52,2.52,0,0,0-1.93-1.06ZM240.55,76.1a2.68,2.68,0,0,0,.72,1.61l-41.15,44.84a2.66,2.66,0,0,0-2.67-.37l-22.6-44a2.69,2.69,0,0,0,1.27-2.06Zm41-58.76a2.69,2.69,0,0,0,.64-.09l7.92,95.25a2.57,2.57,0,0,0-2.52,2.09L245.38,77.49a2.68,2.68,0,0,0,.56-1.62h0a2.57,2.57,0,0,0-1.07-2.19L280.32,17A2.67,2.67,0,0,0,281.56,17.34ZM244.11,158.81,200.8,126.14a2.82,2.82,0,0,0,.39-1.46,2.69,2.69,0,0,0-.74-1.84L241.59,78a2.68,2.68,0,0,0,1.52.56l2.7,79.39A2.68,2.68,0,0,0,244.11,158.81Zm46.73-46.31h-.28l-7.93-95.38a2.71,2.71,0,0,0,.87-.6L340,83.76a2.64,2.64,0,0,0-.77,1.94A2.67,2.67,0,0,0,339.6,87l-46.19,29.37v-1.27A2.57,2.57,0,0,0,290.83,112.5Zm73.08-76.2a2.69,2.69,0,0,0,2.06-1L408.68,65a2.84,2.84,0,0,0-.34,1.36c0,.08,0,.15,0,.23l-63.85,18.2a2.38,2.38,0,0,0-1.3-1.47l19.86-47.16A2.68,2.68,0,0,0,363.92,36.29Zm71.54-14a1.16,1.16,0,0,1-.53.53v1a.53.53,0,0,1-1,0v-1a1.16,1.16,0,1,1,1.55-.53Zm1,3.17L461.22,67a2.57,2.57,0,0,0-1.11,2.22,2.69,2.69,0,0,0,.74,1.85l-42.16,46.12a2.8,2.8,0,0,0-1.69-.51h-.08L411.6,69a2.71,2.71,0,0,0,2.16-2.64h0a2.54,2.54,0,0,0-1.26-2.3l20.05-38.59ZM344.63,85.19,408.44,67a2.7,2.7,0,0,0,2.62,2h.11l5.32,47.63a2.44,2.44,0,0,0-1.89,1.33L344.5,86.63a2.68,2.68,0,0,0,.17-.92h0A3.19,3.19,0,0,0,344.63,85.19Zm157,25a3.06,3.06,0,0,0-1.19-.23,2.84,2.84,0,0,0-1.63.47L464.73,71.08a2.69,2.69,0,0,0,.79-1.9h0c0-.08,0-.16,0-.24l65.21-11.67a2.7,2.7,0,0,0,1.06,1.51Zm3-92.81h6v6h-6Zm-1.5,3.31v4.21h7.17l21.22,29.56a2.6,2.6,0,0,0-.94,2.08,2.69,2.69,0,0,0,0,.28L465.44,68.51a2.5,2.5,0,0,0-2.63-2,3,3,0,0,0-1.21.24L436.91,25.47h1.22V21.88Zm-70.56-2.79a1.5,1.5,0,0,1,1.5-1.5h.71a1.5,1.5,0,0,1,1.49,1.5v1.47h-3.71Zm-1.86,4.6v3h1.34l-20,38.41a3.11,3.11,0,0,0-1.06-.18,2.62,2.62,0,0,0-2.13.94L366.23,35a2.68,2.68,0,0,0,.39-1.37h0c0-.08,0-.15,0-.22ZM361.24,33.22a3.14,3.14,0,0,0,0,.38A2.69,2.69,0,0,0,362.68,36L342.81,83.17a3.18,3.18,0,0,0-.85-.12,2.86,2.86,0,0,0-1.6.44l-56.6-67.31a2.68,2.68,0,0,0,.35-.72ZM278.86,14.71A2.69,2.69,0,0,0,280,16.8L244.49,73.47a3,3,0,0,0-1.26-.26,2.7,2.7,0,0,0-2,.73L183.64,12.1V9ZM176.12,6h6v6h-6Zm-1.5,4.48v3h9v-.79L241,74.27a2.71,2.71,0,0,0-.46,1.4H176.13a2.52,2.52,0,0,0-2.69-2.47,2.62,2.62,0,0,0-2.14.95L118.7,37.89a2.67,2.67,0,0,0,.3-1.21h0a3,3,0,0,0-.11-.79ZM113.7,35.91a3,3,0,0,0-.1.76,2.7,2.7,0,0,0,2.68,2.7L113.49,109a2.71,2.71,0,0,0-1.71.61L66.89,66.11V57.53H61.16l-13.77-43a2.7,2.7,0,0,0,1.39-1.13ZM44.25,13.49-8.7,55.85V55a2.57,2.57,0,0,0-2.57-2.57H-12A2.57,2.57,0,0,0-14.55,55h0v1.18L-52.83,21.85a2.69,2.69,0,0,0,.44-1.44l96.3-7.65A2.69,2.69,0,0,0,44.25,13.49Zm-102,7a2.68,2.68,0,0,0,.62,1.65L-89.5,53a2.73,2.73,0,0,0-1.83-.63,2.87,2.87,0,0,0-1.56.42l-26.26-32.35h.57v-4Zm-68.31-7.55h6v6h-6Zm-1.5,4.11v3.41H-126l-34.48,57.27a2.81,2.81,0,0,0-1.67-.5,2.64,2.64,0,0,0-2.09.89l-36.53-43V31.27Zm-78.77,11.85a1.49,1.49,0,0,1,1.49-1.5h.71a1.5,1.5,0,0,1,1.5,1.5v1.47h-3.71Zm.79,3.36a1.16,1.16,0,0,1,1.55-.53,1.16,1.16,0,0,1,.53,1.55,1.16,1.16,0,0,1-.53.53v1a.53.53,0,0,1-.63.39.53.53,0,0,1-.39-.39v-1A1.16,1.16,0,0,1-205.57,32.2Zm-2.65,1.93V36.4h7.4v-.63l36.27,42.66a2.83,2.83,0,0,0-.36,1.4,2.67,2.67,0,0,0,.12.75l-47.56,26.86a2.58,2.58,0,0,0-2.29-1.14,2.61,2.61,0,0,0-2.17,1l-42.36-43.24a2.68,2.68,0,0,0,.43-1.44h0a2.79,2.79,0,0,0-.43-1.54Zm-54,25.92a2.43,2.43,0,0,0-1.87,2l-52.16-6.61V50.59l37.78-39.64a2.68,2.68,0,0,0,1.69.6,2.71,2.71,0,0,0,.53-.05ZM-351,14.67l71.53-5.38a2.68,2.68,0,0,0,.66,1.37l-38,39.85h-8.07l-27-33.89A2.69,2.69,0,0,0-351,14.67ZM-317.76,52v6h-6V52Zm-11.42,112.75h-6v-6h6Zm-3.9-7.52L-346.62,102a2.7,2.7,0,0,0,1.86-2.55h0a2.55,2.55,0,0,0-1.18-2.26l21.18-37.64h7.58l19.45,49.21a2.55,2.55,0,0,0-.6,1.63v1.47h-.77v6.08h7.3l38.15,43.72a2.6,2.6,0,0,0-.71,1.66l-73.3-1.66v-4.39Zm83.94,5.4a2.4,2.4,0,0,0-.83-1.2l34.44-49.93a2.68,2.68,0,0,0,.9.16,2.69,2.69,0,0,0,1.88-.77l38.14,32.73H-175v3.11Zm75.94-20.49a1.5,1.5,0,0,1,1.5-1.5h.71a1.49,1.49,0,0,1,1.49,1.5v1.47h-3.71Zm2.87,4.38a1.16,1.16,0,0,1-.53.53v1a.53.53,0,0,1-.63.39.53.53,0,0,1-.39-.39v-1a1.16,1.16,0,0,1-.53-1.55,1.16,1.16,0,0,1,1.55-.53A1.16,1.16,0,0,1-170.32,146.53Zm2.7.77v-3.07l60.7-31.15a2.7,2.7,0,0,0,2.29,1.27,2.7,2.7,0,0,0,2.7-2.7h0c0-.08,0-.15,0-.23l43.15,14.07a2.7,2.7,0,0,0,.72,1.24L-103,167.24a2.86,2.86,0,0,0-1.6-.44,2.52,2.52,0,0,0-2.51,1.58Zm149.81,26a2.38,2.38,0,0,0-.52-.75L36,118.14a2.69,2.69,0,0,0,3.06,0L60.5,139.26a2.63,2.63,0,0,0-.82,2,2.68,2.68,0,0,0,.14.82ZM65,141.75a2.69,2.69,0,0,0,.05-.5h0a2.91,2.91,0,0,0-.24-1.16l46.53-26.9a2.69,2.69,0,0,0,3.68.72L153.94,164a2.69,2.69,0,0,0-.69,1.19Zm183.75,18.59a2.68,2.68,0,0,0-.58-1.42l39.07-36.3h6.91v-.81l40.57,33.77v3.78Zm93.49,1.73h-6v-6h6Zm1.5-2.55v-5h-4.13l2.44-66.16A2.69,2.69,0,0,0,344.32,87l70.11,31.37a3,3,0,0,0-.14.89,2.69,2.69,0,0,0,1.46,2.38l-18.07,42.08a3.11,3.11,0,0,0-1.06-.18A2.51,2.51,0,0,0,394,165.7ZM399.3,166a2.48,2.48,0,0,0-1.24-2l18.08-42.1a2.63,2.63,0,0,0,2.83-.72l53.69,41.58h-.42v1.72Zm78.48-4.76v1.47h-3.71v-1.47a1.5,1.5,0,0,1,1.5-1.5h.71A1.49,1.49,0,0,1,477.78,161.21Zm-.82,4.38a1.16,1.16,0,0,1-.53.53v1a.53.53,0,0,1-1,0v-1a1.16,1.16,0,1,1,1.55-.53Zm1-6.33a2.55,2.55,0,0,0-1.66-.62h-.71a2.57,2.57,0,0,0-2.57,2.57h0v1.2l-53.78-41.64a2.69,2.69,0,0,0,.45-1.47l78.08-6.22A2.69,2.69,0,0,0,499.1,115Z"/><rect class="cls-3" width="300" height="173.52" rx="6.99" ry="6.99"/><path class="cls-4" d="M119.2,152.27a4.52,4.52,0,0,1-3.24,1.28,4.23,4.23,0,0,1-4.55-4.43A4.32,4.32,0,0,1,116,144.6a4.41,4.41,0,0,1,3.16,1.31l-.93.89a3.17,3.17,0,0,0-2.23-.89,3,3,0,0,0-3.18,3.21,3,3,0,0,0,3.18,3.14,3.35,3.35,0,0,0,2.29-.94Z"/><polygon class="cls-4" points="124.27 148.56 126.72 144.75 128.38 144.75 128.38 144.81 124.96 149.84 124.96 153.38 123.58 153.38 123.58 149.84 120.25 144.81 120.25 144.75 121.89 144.75 124.27 148.56"/><path class="cls-4" d="M134.17,144.75c1.64,0,2.94.75,2.94,2.47a1.79,1.79,0,0,1-1.2,1.71,2.13,2.13,0,0,1,1.47,2c0,1.89-1.5,2.47-3.21,2.47h-4v-8.63Zm-2.59,3.58h2.6c1,0,1.55-.41,1.55-1.08s-.53-1.25-1.57-1.25h-2.59Zm0,3.77h2.59c.76,0,1.83-.25,1.83-1.2s-1-1.34-1.81-1.34h-2.6Z"/><polygon class="cls-4" points="146.03 153.38 139.66 153.38 139.66 144.75 145.99 144.75 145.99 146.1 141.04 146.1 141.04 148.43 145.8 148.43 145.8 149.71 141.04 149.71 141.04 152.03 146.03 152.03 146.03 153.38"/><path class="cls-4" d="M155.87,153.38h-1.62l-2.63-3H149.8v3h-1.38v-8.64h4a2.81,2.81,0,0,1,3,2.82,2.55,2.55,0,0,1-2.34,2.69l2.58,2.87ZM149.8,146v3.13h2.63a1.49,1.49,0,0,0,1.65-1.54,1.54,1.54,0,0,0-1.64-1.59Z"/><path class="cls-4" d="M163.68,152h-3.86l-.57,1.42h-2.59l3.87-8.63H163l3.86,8.63h-2.61Zm-1.92-4.8-1.11,2.75h2.21Z"/><path class="cls-4" d="M176.16,153.38h-2.69l-2-2.8h-.85v2.8h-2.44v-8.63h4.22a3,3,0,0,1,3.35,3,2.59,2.59,0,0,1-1.83,2.6l2.24,2.91Zm-5.55-6.68v2.07h1.8a.9.9,0,0,0,.92-1,1,1,0,0,0-.95-1.07Z"/><path class="cls-4" d="M185.5,144.9,182,149c1.21,1.33,2.6,2.89,3.8,4.25v.15h-3l-2.47-2.87v2.87h-2.44v-8.63h2.44v2.84c.74-.91,1.54-1.92,2.27-2.84h2.92Z"/><path class="cls-4" d="M187.59,145.12a1,1,0,1,1,1-1,1,1,0,0,1-1,1m0-1.87a.86.86,0,1,0,.83.86.84.84,0,0,0-.83-.86m.37,1.42h-.1a0,0,0,0,1,0,0l-.08-.14a1.83,1.83,0,0,0-.2-.28.08.08,0,0,0-.07,0h0v.42a.06.06,0,0,1-.05.06h-.07a.06.06,0,0,1-.06-.06v-1a.06.06,0,0,1,.06-.05h.29c.25,0,.37.14.37.31a.29.29,0,0,1-.29.31,1.58,1.58,0,0,1,.31.44,0,0,0,0,1,0,.06m-.41-1h-.11v.36h.11c.19,0,.25-.06.25-.19s-.09-.17-.24-.17"/><polygon class="cls-4" points="148.71 101.64 133.41 110.48 141.46 115.11 148.71 110.91 148.71 101.64"/><polygon class="cls-4" points="133.27 128.42 141.3 123.78 141.3 115.4 133.25 110.77 133.27 128.42"/><polygon class="cls-4" points="156.63 123.87 156.63 115.11 156.47 115.2 156.3 115.11 156.3 123.69 149.04 119.48 149.04 110.91 148.71 110.91 148.71 119.48 141.3 123.78 141.46 124.06 148.88 119.76 156.3 124.06 156.63 123.87"/><polygon class="cls-4" points="149.04 101.64 149.04 110.91 156.47 115.2 164.49 110.56 149.04 101.64"/><polygon class="cls-4" points="149.06 128.24 149.06 137.52 164.51 128.59 164.51 119.31 149.06 128.24"/><polygon class="cls-4" points="141.46 124.06 133.44 128.71 148.73 137.5 148.73 128.24 141.46 124.06"/><text class="cls-5" transform="translate(40.42 38.17)">Join us on Tuesday 9/19 at <tspan x="-22.57" y="21.6">11am ET for an online review of </tspan><tspan x="-15.92" y="43.2">CyberArk Conjur open source. </tspan></text></g></svg>