<svg xmlns="http://www.w3.org/2000/svg" viewBox="0 0 120.38 105.21"><defs><style>.cls-1{fill:#fff;}.cls-2{fill:#2f73b0;}.cls-3{fill:#4d8fcc;}.cls-4{fill:#808184;}.cls-5{fill:#58595b;}</style></defs><title>Conjur_Vert_4C_KO</title><g id="Layer_2" data-name="Layer 2"><g id="Layer_1-2" data-name="Layer 1"><path class="cls-1" d="M12.15,79.34a7.06,7.06,0,0,1-5.05,2C2.21,81.34,0,78,0,74.43a6.74,6.74,0,0,1,7.1-7.05,6.88,6.88,0,0,1,4.92,2L10.58,70.8A5,5,0,0,0,7.1,69.42a4.72,4.72,0,0,0-5,5,4.65,4.65,0,0,0,5,4.9,5.21,5.21,0,0,0,3.57-1.46Z"/><path class="cls-1" d="M20.06,73.55l3.82-5.94h2.6v.09l-5.34,7.85v5.52H19V75.55L13.79,67.7v-.09h2.56Z"/><path class="cls-1" d="M35.5,67.61c2.56,0,4.58,1.17,4.58,3.84a2.81,2.81,0,0,1-1.87,2.68,3.32,3.32,0,0,1,2.29,3.09c0,3-2.35,3.85-5,3.85H29.33V67.61Zm-4,5.57h4.06c1.62,0,2.42-.63,2.42-1.69s-.82-1.94-2.44-1.94h-4Zm0,5.89h4c1.19,0,2.85-.39,2.85-1.87s-1.6-2.09-2.83-2.09H31.46Z"/><path class="cls-1" d="M54,81.07H44.06V67.61h9.88V69.7H46.21v3.64h7.42v2H46.21V79H54Z"/><path class="cls-1" d="M69.35,81.07H66.83l-4.1-4.65H59.89v4.65H57.73V67.59l6.27,0A4.38,4.38,0,0,1,68.75,72,4,4,0,0,1,65.1,76.2l4,4.48Zm-9.46-11.5v4.88H64a2.32,2.32,0,0,0,2.58-2.4A2.4,2.4,0,0,0,64,69.57Z"/><path class="cls-2" d="M81.52,78.86h-6l-.88,2.21h-4l6-13.46h3.84l6,13.46H82.4Zm-3-7.48-1.73,4.29h3.44Z"/><path class="cls-2" d="M101,81.07H96.79L93.66,76.7H92.33v4.37H88.52V67.61H95.1c3.44,0,5.23,2.21,5.23,4.63,0,1.66-.58,3.06-2.85,4.06l3.5,4.54ZM92.33,70.65v3.23h2.81a1.41,1.41,0,0,0,1.44-1.56,1.51,1.51,0,0,0-1.48-1.67Z"/><path class="cls-2" d="M115.56,67.84,110.1,74.2c1.88,2.08,4.05,4.5,5.92,6.64v.23h-4.71l-3.85-4.48v4.48h-3.81V67.61h3.81V72c1.16-1.42,2.41-3,3.54-4.42h4.56Z"/><path class="cls-2" d="M118.81,68.19a1.58,1.58,0,1,1,1.57-1.57A1.57,1.57,0,0,1,118.81,68.19Zm0-2.92a1.35,1.35,0,1,0,1.29,1.35A1.31,1.31,0,0,0,118.81,65.27Zm.57,2.22h-.16a.08.08,0,0,1-.07,0l-.12-.22a2.69,2.69,0,0,0-.31-.44.11.11,0,0,0-.1-.05h-.05v.65a.09.09,0,0,1-.09.09h-.1a.09.09,0,0,1-.09-.09V65.82a.09.09,0,0,1,.09-.09h.44c.39,0,.58.23.58.49a.44.44,0,0,1-.45.48,2.52,2.52,0,0,1,.49.69A.06.06,0,0,1,119.38,67.49ZM118.74,66h-.17v.56h.16c.3,0,.39-.08.39-.29S119,66,118.74,66Z"/><polygon class="cls-3" points="46.04 21.3 57.86 14.46 57.86 0 33.49 14.09 46.04 21.3"/><polygon class="cls-2" points="57.89 41.78 69.73 34.95 69.73 34.95 82.25 27.71 82.25 42.17 57.91 56.24 57.89 41.78"/><polygon class="cls-2" points="57.86 14.46 69.7 21.29 82.22 14.06 57.86 0 57.86 14.46"/><polygon class="cls-3" points="57.89 41.78 46.04 34.96 33.53 42.2 57.91 56.24 57.89 41.78"/><polygon class="cls-2" points="46.04 34.96 46.04 21.3 33.49 14.09 33.53 42.2 46.04 34.96"/><polygon class="cls-4" points="57.86 14.46 69.7 21.29 69.7 34.96 57.86 28.13 57.86 14.46"/><polyline class="cls-5" points="57.86 14.46 57.86 28.13 46.04 34.96 46.04 21.3 57.86 14.46"/><path class="cls-1" d="M26.41,91.75a6.6,6.6,0,0,1,4.53,1.74l-1,1a5.66,5.66,0,0,0-3.57-1.4,5.38,5.38,0,0,0,0,10.75,5.49,5.49,0,0,0,3.57-1.4l1,1a6.43,6.43,0,0,1-4.55,1.81,6.73,6.73,0,1,1,0-13.46Z"/><path class="cls-1" d="M39.44,91.75a6.73,6.73,0,1,1-6.71,6.75A6.72,6.72,0,0,1,39.44,91.75Zm0,12.15A5.42,5.42,0,1,0,34,98.5,5.43,5.43,0,0,0,39.44,103.9Z"/><path class="cls-1" d="M58.3,91.75v10.51h0L50.38,91.75H49v13.46h1.37V94.5h0l7.88,10.71h1.4V91.75s0,0,0,0H58.32S58.3,91.73,58.3,91.75Z"/><path class="cls-1" d="M67.55,91.75v9.41c0,2-1.16,2.8-2.28,2.8a2.63,2.63,0,0,1-1.81-1c-.19-.21-.34-.34-.64-.06l-.39.45a.41.41,0,0,0,0,.47,3.61,3.61,0,0,0,2.85,1.38c2.18,0,3.75-1.49,3.75-4.09V91.75s0,0,0,0H67.57S67.55,91.73,67.55,91.75Z"/><path class="cls-1" d="M81.32,91.75v8.38a3.54,3.54,0,1,1-7.07,0V91.75s0,0,0,0H72.84s0,0,0,0v8.45a5,5,0,1,0,9.91,0V91.75s0,0,0,0H81.33S81.32,91.73,81.32,91.75Z"/><path class="cls-1" d="M93.08,99.74a4.19,4.19,0,0,0,2.76-3.82,4,4,0,0,0-4.07-4,47.47,47.47,0,0,0-5.2,0v13H88V99.9h3.57l2.67,5.31H96Zm-5-1.07V93.3h3.62a2.69,2.69,0,1,1,0,5.37Z"/></g></g></svg>