<svg id="Layer_1" data-name="Layer 1" xmlns="http://www.w3.org/2000/svg" viewBox="0 0 358.03 47.76"><defs><style>.cls-1{fill:#4d8fcc;}.cls-2{fill:#2f73b0;}.cls-3{fill:#808184;}.cls-4{fill:#58595b;}.cls-5{fill:#fff;}</style></defs><title>cyberark_conjur_logo_horiz_dark</title><polygon class="cls-1" points="10.88 17.97 20.69 12.29 20.69 0.29 0.47 11.98 10.88 17.97"/><polygon class="cls-2" points="20.71 34.95 30.53 29.28 30.53 29.28 40.91 23.28 40.91 35.28 20.72 46.95 20.71 34.95"/><polygon class="cls-2" points="20.69 12.29 30.51 17.96 40.89 11.96 20.69 0.29 20.69 12.29"/><polygon class="cls-1" points="20.71 34.95 10.88 29.3 0.5 35.31 20.72 46.95 20.71 34.95"/><polygon class="cls-2" points="10.88 29.3 10.88 17.97 0.47 11.98 0.5 35.31 10.88 29.3"/><polygon class="cls-3" points="20.69 12.28 30.51 17.95 30.51 29.3 20.69 23.63 20.69 12.28"/><polyline class="cls-4" points="20.69 12.28 10.88 17.97 10.88 29.3 20.69 23.63 20.69 12.29"/><path class="cls-5" d="M69.06,30.79a10.69,10.69,0,0,1-7.69,3c-7.42,0-10.75-5.11-10.78-10.49s3.47-10.73,10.78-10.73a10.46,10.46,0,0,1,7.49,3.1l-2.2,2.1a7.52,7.52,0,0,0-5.29-2.1c-5.2,0-7.57,3.83-7.54,7.6s2.25,7.45,7.54,7.45a7.94,7.94,0,0,0,5.44-2.22Z"/><path class="cls-5" d="M81.08,22l5.81-9h4v.14L82.71,25v8.39H79.44V25L71.55,13.1V13h3.88Z"/><path class="cls-5" d="M104.55,13c3.89,0,7,1.78,7,5.84a4.26,4.26,0,0,1-2.84,4.07,5.06,5.06,0,0,1,3.48,4.7c0,4.48-3.57,5.85-7.6,5.85H95.16V13Zm-6.14,8.48h6.17c2.45,0,3.68-1,3.68-2.58,0-1.43-1.26-2.95-3.71-2.95H98.41Zm0,8.94h6.14c1.81,0,4.32-.58,4.32-2.83s-2.42-3.19-4.29-3.19H98.41Z"/><path class="cls-5" d="M132.67,33.42H117.56V13h15v3.18H120.83v5.53h11.28v3H120.83v5.5h11.84Z"/><path class="cls-5" d="M156,33.42h-3.83l-6.23-7.07h-4.33v7.07h-3.27V12.93c3.19,0,6.34,0,9.53,0,4.73,0,7.22,3.24,7.22,6.69A6,6,0,0,1,149.54,26l6.1,6.81ZM141.61,15.94v7.43h6.23c2.72,0,3.92-1.73,3.92-3.66a3.65,3.65,0,0,0-3.89-3.77Z"/><path class="cls-2" d="M174.5,30.06h-9.15L164,33.42h-6.14L167.05,13h5.84L182,33.42h-6.2Zm-4.56-11.37-2.63,6.52h5.23Z"/><path class="cls-2" d="M204.08,33.42h-6.37L193,26.79h-2v6.63h-5.79V13h10c5.23,0,8,3.36,8,7,0,2.52-.88,4.65-4.33,6.17l5.32,6.9ZM190.93,17.58v4.91h4.27a2.14,2.14,0,0,0,2.19-2.37,2.3,2.3,0,0,0-2.25-2.54Z"/><path class="cls-2" d="M226.24,13.31,217.94,23c2.86,3.15,6.17,6.84,9,10.08v.35h-7.16l-5.85-6.81v6.81h-5.79V13h5.79v6.72c1.76-2.16,3.66-4.56,5.38-6.72h6.93Z"/><path class="cls-2" d="M231.18,13.84a2.39,2.39,0,1,1,2.39-2.39A2.37,2.37,0,0,1,231.18,13.84Zm0-4.43a2,2,0,0,0-2,2,2,2,0,1,0,3.94,0A2,2,0,0,0,231.18,9.41Zm.87,3.36h-.24c-.05,0-.08,0-.1,0s-.12-.2-.19-.33a4.12,4.12,0,0,0-.47-.67.19.19,0,0,0-.15-.08h-.09v1a.13.13,0,0,1-.12.14h-.16a.14.14,0,0,1-.14-.14v-2.4a.13.13,0,0,1,.14-.12h.67c.6,0,.89.34.89.74a.69.69,0,0,1-.69.73,3.64,3.64,0,0,1,.74,1C232.18,12.69,232.16,12.77,232.05,12.77Zm-1-2.32h-.26v.85h.26c.45,0,.58-.14.58-.45S231.44,10.45,231.07,10.45Z"/><path class="cls-5" d="M250.56,13a10,10,0,0,1,6.87,2.64L256,17.14A8.63,8.63,0,0,0,250.53,15a8.06,8.06,0,0,0-7.93,8.19,8.06,8.06,0,0,0,7.93,8.16A8.32,8.32,0,0,0,256,29.22l1.5,1.44a9.74,9.74,0,0,1-6.9,2.76,10.23,10.23,0,1,1,0-20.46Z"/><path class="cls-5" d="M270.35,13a10.23,10.23,0,1,1-10.2,10.26A10.2,10.2,0,0,1,270.35,13Zm0,18.47a8.24,8.24,0,1,0-8.21-8.21A8.25,8.25,0,0,0,270.35,31.43Z"/><path class="cls-5" d="M299,13v16H299L287,13H284.9V33.42H287V17.14h0l12,16.28h2.13V13s0,0,0,0h-2S299,12.92,299,13Z"/><path class="cls-5" d="M313.09,13V27.25c0,3-1.76,4.27-3.47,4.27A4.06,4.06,0,0,1,306.86,30c-.28-.31-.51-.51-1-.08l-.6.68a.6.6,0,0,0-.06.71,5.46,5.46,0,0,0,4.33,2.1c3.32,0,5.71-2.27,5.71-6.22V13s0,0,0,0h-2.15S313.09,12.92,313.09,13Z"/><path class="cls-5" d="M334,13V25.69c0,3.24-2.05,5.71-5.4,5.71s-5.35-2.53-5.35-5.77V13s0,0,0,0h-2.11s0,0,0,0V25.81a7.54,7.54,0,1,0,15.07,0V13s0,0,0,0H334S334,12.92,334,13Z"/><path class="cls-5" d="M351.89,25.09a6.33,6.33,0,0,0,4.2-5.79,6.1,6.1,0,0,0-6.19-6.06S342,13,342,13.24V33.07h2.19V25.35h5.43l4.05,8.07h2.72Zm-7.65-1.62V15.32h5.51a4.08,4.08,0,1,1,0,8.15Z"/></svg>