<svg id="Layer_1" data-name="Layer 1" xmlns="http://www.w3.org/2000/svg" viewBox="0 0 40.45 46.66"><defs><style>.cls-1{fill:#4d8fcc;}.cls-2{fill:#2f73b0;}.cls-3{fill:#808184;}.cls-4{fill:#58595b;}</style></defs><title>cybr_c_icon</title><polygon class="cls-1" points="10.41 17.68 20.22 11.99 20.22 0 0 11.69 10.41 17.68"/><polygon class="cls-2" points="20.24 34.66 30.06 28.99 30.06 28.99 40.45 22.99 40.45 34.99 20.25 46.66 20.24 34.66"/><polygon class="cls-2" points="20.22 11.99 30.04 17.66 40.42 11.66 20.22 0 20.22 11.99"/><polygon class="cls-1" points="20.24 34.66 10.41 29 0.03 35.02 20.26 46.66 20.24 34.66"/><polygon class="cls-2" points="10.41 29 10.41 17.68 0 11.69 0.03 35.02 10.41 29"/><polygon class="cls-3" points="20.22 11.99 30.04 17.66 30.04 29 20.22 23.34 20.22 11.99"/><polyline class="cls-4" points="20.22 11.99 10.41 17.68 10.41 29 20.22 23.34 20.22 11.99"/></svg>