<?xml version="1.0" encoding="utf-8"?>
<!-- Generator: Adobe Illustrator 16.0.0, SVG Export Plug-In . SVG Version: 6.00 Build 0)  -->
<!DOCTYPE svg PUBLIC "-//W3C//DTD SVG 1.1//EN" "http://www.w3.org/Graphics/SVG/1.1/DTD/svg11.dtd">
<svg version="1.1" id="Layer_1" xmlns="http://www.w3.org/2000/svg" xmlns:xlink="http://www.w3.org/1999/xlink" x="0px" y="0px"
	 width="250px" height="90px" viewBox="0 0 250 90" enable-background="new 0 0 250 90" xml:space="preserve">
<g>
	<path fill="#4A5960" d="M169.224,25.53v22.315c0,5.294,1.304,9.041,7.412,9.041s7.411-3.747,7.411-9.041V25.53h14.823v25.167
		c0,13.764-9.691,17.998-22.234,17.998c-12.544,0-22.235-4.234-22.235-17.998V25.53H169.224z"/>
	<path fill="#4A5960" d="M104.551,24.146c-5.783,0-9.937,1.71-13.357,6.76H91.03V25.53H76.207v3.954
		c4.955,3.801,8.145,9.547,8.145,16.977c0,7.389-3.189,13.115-8.145,16.906v3.944H91.03V45.646c0-5.212,1.711-9.691,7.737-9.691
		c7.33,0,6.68,7.004,6.68,10.995v20.361h14.822V41.493C120.27,31.231,115.79,24.146,104.551,24.146"/>
	<path fill="#00B49D" d="M49.655,46.461c0,5.295,3.502,9.366,9.529,9.366c6.026,0,9.528-4.071,9.528-9.366
		c0-5.131-3.502-9.448-9.528-9.448C53.157,37.013,49.655,41.33,49.655,46.461"/>
	<rect x="207.206" y="25.53" fill="#4A5960" width="14.823" height="41.781"/>
	<path fill="#4A5960" d="M240.723,32.23c0,4.561-3.746,8.307-8.308,8.307c-4.561,0-8.308-3.747-8.308-8.307
		c0-4.562,3.747-8.308,8.308-8.308C236.977,23.922,240.723,27.669,240.723,32.23"/>
	<path fill="#4A5960" d="M137.5,21.938c-4.533,0-8.408-3.118-8.408-7.936c0-4.913,3.875-8.03,8.408-8.03
		c4.535,0,8.408,3.117,8.408,8.03C145.908,18.82,142.035,21.938,137.5,21.938 M144.869,67.096c0,10.676-5.573,16.912-16.155,16.912
		c-2.173,0-4.062-0.191-5.384-0.662V72.198c0.566,0.095,1.322,0.188,2.172,0.188c3.023,0,4.535-1.228,4.535-4.724V25.527h14.832
		V67.096z"/>
	<path fill="#4A5960" d="M36.386,56.574c-0.382,0.043-0.763,0.066-1.138,0.066c-6.108,0-10.425-4.234-10.425-10.262
		c0-5.782,4.479-10.18,10.181-10.18c0.469,0,0.93,0.038,1.385,0.104c1.932-3.711,4.934-6.627,8.596-8.672
		c-4.544-2.772-8.781-3.486-12.098-3.486c-13.113,0-23.375,9.284-23.375,22.724c0,12.623,10.344,21.826,22.723,21.826
		c3.454,0,9.07-0.968,12.408-3.672C41.138,62.998,38.259,60.161,36.386,56.574"/>
</g>
</svg>
