<svg xmlns="http://www.w3.org/2000/svg" viewBox="0 0 355.91 46.66"><defs><style>.cls-1{fill:#4d8fcc;}.cls-2{fill:#2f73b0;}.cls-3{fill:#808184;}.cls-4{fill:#58595b;}.cls-5{fill:#fff;}</style></defs><title>Conjur_4C_KO</title><g id="Layer_2" data-name="Layer 2"><g id="Layer_1-2" data-name="Layer 1"><polygon class="cls-1" points="10.41 17.68 20.22 11.99 20.22 0 0 11.69 10.41 17.68"/><polygon class="cls-2" points="20.24 34.66 30.06 28.99 30.06 28.99 40.45 22.99 40.45 34.99 20.25 46.66 20.24 34.66"/><polygon class="cls-2" points="20.22 11.99 30.04 17.66 40.42 11.66 20.22 0 20.22 11.99"/><polygon class="cls-1" points="20.24 34.66 10.41 29 0.03 35.02 20.26 46.66 20.24 34.66"/><polygon class="cls-2" points="10.41 29 10.41 17.68 0 11.69 0.03 35.02 10.41 29"/><polygon class="cls-3" points="20.22 11.99 30.04 17.66 30.04 29 20.22 23.34 20.22 11.99"/><polyline class="cls-4" points="20.22 11.99 10.41 17.68 10.41 29 20.22 23.34 20.22 11.99"/><path class="cls-5" d="M68.59,30.5a10.69,10.69,0,0,1-7.68,3c-7.43,0-10.76-5.12-10.79-10.49S53.6,12.32,60.91,12.32a10.44,10.44,0,0,1,7.48,3.1l-2.19,2.1a7.52,7.52,0,0,0-5.29-2.1c-5.21,0-7.57,3.82-7.55,7.6s2.26,7.45,7.55,7.45a7.92,7.92,0,0,0,5.43-2.22Z"/><path class="cls-5" d="M80.61,21.7l5.82-9h3.94v.14L82.25,24.74v8.39H79V24.74L71.08,12.81v-.14H75Z"/><path class="cls-5" d="M104.08,12.67c3.89,0,7,1.78,7,5.84a4.26,4.26,0,0,1-2.84,4.07,5,5,0,0,1,3.48,4.7c0,4.48-3.56,5.85-7.6,5.85H94.7V12.67Zm-6.14,8.47h6.17c2.46,0,3.68-1,3.68-2.57,0-1.43-1.25-3-3.71-3H97.94Zm0,9h6.14c1.81,0,4.33-.58,4.33-2.84s-2.43-3.18-4.3-3.18H97.94Z"/><path class="cls-5" d="M132.2,33.13H117.09V12.67h15v3.18H120.36v5.53h11.29v3H120.36v5.49H132.2Z"/><path class="cls-5" d="M155.53,33.13H151.7l-6.23-7.07h-4.32v7.07h-3.28V12.64c3.19,0,6.35,0,9.53,0,4.74,0,7.22,3.24,7.22,6.69a6,6,0,0,1-5.55,6.37l6.11,6.82ZM141.15,15.65v7.42h6.22c2.72,0,3.92-1.72,3.92-3.65a3.65,3.65,0,0,0-3.89-3.77Z"/><path class="cls-2" d="M174,29.77h-9.15l-1.34,3.36H157.4l9.18-20.46h5.85l9.15,20.46h-6.2ZM169.47,18.4l-2.63,6.52h5.24Z"/><path class="cls-2" d="M203.62,33.13h-6.38l-4.76-6.64h-2v6.64h-5.79V12.67h10c5.23,0,8,3.36,8,7,0,2.52-.87,4.65-4.32,6.17l5.32,6.9ZM190.46,17.29V22.2h4.27a2.14,2.14,0,0,0,2.19-2.37,2.3,2.3,0,0,0-2.25-2.54Z"/><path class="cls-2" d="M225.77,13l-8.3,9.67c2.87,3.16,6.17,6.84,9,10.09v.35h-7.17l-5.84-6.81v6.81h-5.79V12.67h5.79v6.72c1.75-2.16,3.65-4.56,5.38-6.72h6.92Z"/><path class="cls-2" d="M230.71,13.55a2.39,2.39,0,1,1,2.39-2.39A2.37,2.37,0,0,1,230.71,13.55Zm0-4.44a2,2,0,0,0-2,2.05,2,2,0,1,0,3.94,0A2,2,0,0,0,230.71,9.11Zm.87,3.37h-.23s-.09,0-.11-.05l-.19-.34a4.5,4.5,0,0,0-.46-.66.19.19,0,0,0-.16-.08h-.08v1a.13.13,0,0,1-.13.13h-.16a.13.13,0,0,1-.13-.13V9.94a.12.12,0,0,1,.13-.12h.67c.6,0,.89.34.89.74a.68.68,0,0,1-.69.73,3.8,3.8,0,0,1,.75,1C231.71,12.4,231.69,12.48,231.58,12.48Zm-1-2.33h-.26V11h.25c.46,0,.58-.14.58-.45S231,10.15,230.61,10.15Z"/><path class="cls-5" d="M250.09,12.67A10,10,0,0,1,257,15.31l-1.48,1.53a8.67,8.67,0,0,0-5.43-2.13,8.06,8.06,0,0,0-7.93,8.19,8.06,8.06,0,0,0,7.93,8.16,8.28,8.28,0,0,0,5.43-2.14L257,30.37a9.76,9.76,0,0,1-6.91,2.76,10.23,10.23,0,1,1,0-20.46Z"/><path class="cls-5" d="M269.89,12.67a10.23,10.23,0,1,1-10.21,10.26A10.21,10.21,0,0,1,269.89,12.67Zm0,18.47a8.24,8.24,0,1,0-8.22-8.21A8.26,8.26,0,0,0,269.89,31.14Z"/><path class="cls-5" d="M298.56,12.67v16h-.05l-12-16h-2.07V33.13h2.07V16.84h0l12,16.29h2.13V12.67s0,0,0,0h-2S298.56,12.63,298.56,12.67Z"/><path class="cls-5" d="M312.62,12.67V27c0,3-1.76,4.27-3.46,4.27a4,4,0,0,1-2.76-1.51c-.29-.31-.51-.51-1-.08l-.59.68a.59.59,0,0,0-.06.71,5.47,5.47,0,0,0,4.32,2.1c3.32,0,5.71-2.27,5.71-6.22V12.67s0,0,0,0h-2.14S312.62,12.63,312.62,12.67Z"/><path class="cls-5" d="M333.54,12.67V25.4c0,3.24-2,5.71-5.4,5.71s-5.34-2.53-5.34-5.77V12.67s0,0,0,0h-2.12s0,0,0,0V25.51a7.53,7.53,0,1,0,15.06,0V12.67s0,0,0,0h-2.12S333.54,12.63,333.54,12.67Z"/><path class="cls-5" d="M351.42,24.8A6.34,6.34,0,0,0,355.63,19a6.11,6.11,0,0,0-6.2-6.06s-7.9-.28-7.9,0V32.78h2.19V25.06h5.43l4.05,8.07h2.71Zm-7.65-1.62V15h5.52a4.08,4.08,0,1,1,0,8.15Z"/></g></g></svg>