<svg xmlns="http://www.w3.org/2000/svg" xmlns:xlink="http://www.w3.org/1999/xlink" viewBox="0 0 1617.01 543.99"><defs><style>.cls-1{fill:none;}.cls-2{clip-path:url(#clip-path);}.cls-3{fill:url(#linear-gradient);}.cls-4{fill:#fff;opacity:0.08;}</style><clipPath id="clip-path"><rect class="cls-1" x="-4.48" y="-3.01" width="1625.83" height="552.95"/></clipPath><linearGradient id="linear-gradient" x1="-4.48" y1="664.54" x2="1619.13" y2="664.54" gradientTransform="matrix(1, 0, 0, -1, 0, 938.03)" gradientUnits="userSpaceOnUse"><stop offset="0" stop-color="#0071c7"/><stop offset="1" stop-color="#35b89f"/></linearGradient></defs><title>conjur-hero-bg4</title><g id="dots_2_copy" data-name="dots 2 copy"><g class="cls-2"><rect class="cls-3" x="-4.48" y="-2.99" width="1626.71" height="552.95"/><path class="cls-4" d="M1594.58,452.16l27.65-37.8v-1.65l-28.45,38.86a4.81,4.81,0,0,0-4.93,0l-38.22-52.31h2.77v-11.9l.46.2L1590,307.15a4.82,4.82,0,0,0,1.53.27,4.88,4.88,0,0,0,4.85-4.41h25.82v-1h-25.82a4.85,4.85,0,0,0-7.07-3.85l-53.22-82.34a4.85,4.85,0,0,0,1.79-3.31l84.32,0v-1l-84.32,0a4.84,4.84,0,0,0-1.94-3.42l53.29-89.88a4.9,4.9,0,1,0,2-9.35,4.82,4.82,0,0,0-2.46.69l-38.22-52.31h2.77V45.33l.29.41,68.54-48.26V-3h-1.07L1553.4,44.72V41.8H1538V49L1425.65,50.8V46.41h-1.45v-2a5.09,5.09,0,0,0-4.6-5L1424.71-3h-1l-5.08,42.27.5.06h-2.35a5.1,5.1,0,0,0-5.09,5.09v2h-1.45V51.1L1299.37,72.67a4.9,4.9,0,0,0-4.17-3.44V-3h-1V69.23a4.89,4.89,0,0,0-4.1,3.2L1154.29,38.74a4.88,4.88,0,0,0-4.77-4.3V-3h-1V34.53a4.87,4.87,0,0,0-3.55,2.83L977.15,30V22.63h-7.22V-3h-1V22.63h-7.21v7.69l-96.6,46A4.88,4.88,0,0,0,861,73.93l-.14,0L850.71-3h-1l10.12,77a4.85,4.85,0,0,0-3.29,2.67L741.8,36.39a4.68,4.68,0,0,0,.15-1.14,4.89,4.89,0,0,0-4.23-4.83L738.91-3h-1l-1.19,33.34a4.88,4.88,0,0,0-4.57,4.79l-168,14.27a4.92,4.92,0,0,0-4.82-4,4.81,4.81,0,0,0-2.07.48L527.86-3H526.7l29.66,49.43a4.89,4.89,0,0,0-1.9,3.21l-106.93-10,0,.5V32.44h-8.09L420.05-3h-1.13l19.33,35.43h-6.2V42.66L304.47,67.49V63.77H303v-2a5.1,5.1,0,0,0-5.09-5.09h-.72V-3h-1V56.7h-.63a5.1,5.1,0,0,0-5.09,5.09v2H289v9.55l-88.39,47.87a4.9,4.9,0,0,0-4.05-2.14,5,5,0,0,0-.88.09l-24.53-84a4.89,4.89,0,0,0,3.06-4.54,4.94,4.94,0,0,0-.6-2.32L219.54-3h-1.85L173.08,27.42a4.88,4.88,0,0,0-8.63,3.14l0-.5-124.69,9,0,.5a4.9,4.9,0,0,0-4.9-4.9,4.78,4.78,0,0,0-2.92,1L-3.6-3h-.88v.55L31.19,36.33a4.89,4.89,0,0,0,3.66,8.14,4.93,4.93,0,0,0,2.87-.94l53,59.42H85.05v7.21l-89.53,0v1l89.53,0v7.22h6.08L47.6,184.48a4.84,4.84,0,0,0-2.25-.57,4.91,4.91,0,0,0,0,9.81,4.65,4.65,0,0,0,.75-.08L71.61,291H64.48v7.72l-.15-.48L-4.48,319.84v1.05l69-21.62v7.2h6.9L36.55,377a4.81,4.81,0,0,0-1.7-.33,4.91,4.91,0,1,0,2.66,9L85.05,445v8.27l-89.53-1.08v1L85,454.27v6.14h.56l-38.25,66a4.85,4.85,0,0,0-2-.45,4.89,4.89,0,0,0-.5,9.76V550h1V535.69a4.87,4.87,0,0,0,2.37-8.81l38.55-66.47h5.71l47,89.55h1.13l-47-89.55h6.87v-6.07l91.23,11.53s0,.07,0,.11a4.9,4.9,0,0,0,4.9,4.9,4.6,4.6,0,0,0,1.18-.16l77.15,73.76a4.86,4.86,0,0,0-1.05,3,4.77,4.77,0,0,0,.7,2.48H283a4.87,4.87,0,0,0,.7-2.48,4.93,4.93,0,0,0-.4-1.93l83.31-46.36a4.89,4.89,0,0,0,8.06,0L468.29,550h2.1l-95.25-51.69a4.94,4.94,0,0,0,.38-1.89,4.61,4.61,0,0,0-.1-.91l115.26-40.35a4.86,4.86,0,0,0,7,2.06L570.89,550h1.27l-73.65-93.4a4.82,4.82,0,0,0,1.41-2.71l127,7.95v7.4h6.63L601.3,550h1.07l32.28-80.76h7.74V468l70.07,82h1.32l-71.39-83.5V456.39l91.22-75.62a4.84,4.84,0,0,0,4.53,1.28L764,458h-6.93v15.43h7L726.24,550h1.12l37.8-76.58h7.35v-1.69L851.65,550h1.43l-80.22-79.33-.35.36V458h-7.44l-26-76.23a5,5,0,0,0,2.38-2.36l114.72,40.36a4.75,4.75,0,0,0-.15,1.14,4.89,4.89,0,0,0,4.21,4.83l-5,124.27h1l5-124.23a4.86,4.86,0,0,0,3.4-1.69l91,63.21a4.74,4.74,0,0,0-.16,4.42L857.89,550h2L956,492.53a4.87,4.87,0,0,0,3.92,2,4.94,4.94,0,0,0,1.81-.35L990.9,550H992L962.65,493.7a4.9,4.9,0,0,0,2.15-3.6l112-.23A4.86,4.86,0,0,0,1085,493l63.62,57h1.5l-64.45-57.73a4.82,4.82,0,0,0,.95-2.87,4.88,4.88,0,0,0-1.9-3.85l62.59-99.77a4.79,4.79,0,0,0,2.06.51L1163,550h1l-13.67-163.79a4.85,4.85,0,0,0,1.86-.76l99.58,118a4.83,4.83,0,0,0-.85,5.58l-64.56,41h1.87l63.23-40.14a4.89,4.89,0,0,0,8.73-3,4.71,4.71,0,0,0-.08-.85l112.71-32.17a4.88,4.88,0,0,0,4.86,4.49h.14l7.25,71.71h1l-7.26-71.84a4.89,4.89,0,0,0,.85-9.24l31.12-65H1423l42.59,70.49a4.9,4.9,0,0,0-2,3.9,4.84,4.84,0,0,0,1.23,3.22L1401.28,550h1.37l63-67.8a4.8,4.8,0,0,0,2.94,1,4.93,4.93,0,0,0,2.78-.87L1528.93,550h1.32l-58.15-68.31a4.89,4.89,0,0,0,1.36-3.39c0-.13,0-.25,0-.38l113.19-20.72a5,5,0,0,0,1.78,2.56L1534.9,550h1.16l53.2-89.73a4.89,4.89,0,0,0,5.32-8.07ZM770.51,460v11.43H759.08V460Zm780.89-62.69h-2.23l0,0,0,0H1540V385.83h11.44Zm37.11-98.55a4.85,4.85,0,0,0,.6,8l-35.71,79.4v-2.31h-8l-48.33-72.21h.56V296.18h-1.46v-2a5.13,5.13,0,0,0-.62-2.4l35.88-75.18a4.7,4.7,0,0,0,3.86-.25ZM1487,302.41a2.92,2.92,0,1,1,4.11,2.66v2.05a1.19,1.19,0,0,1-2.38,0v-2.05A2.91,2.91,0,0,1,1487,302.41Zm-1.25-6.23v-2a3,3,0,0,1,3-3h2.34a3,3,0,0,1,3,3v2Zm5.34-7.07h-2.34a5.1,5.1,0,0,0-5.09,5.09v2h-1.46l.31-.4-91.12-69.4a4.81,4.81,0,0,0,.72-2.44l136.16-11a4.87,4.87,0,0,0,2.27,3.28l-35.64,74.67A5.05,5.05,0,0,0,1491.07,289.11Zm-238.66-4.9,3.33-114.59a4.87,4.87,0,0,0,3.8-2.41l123,55.1a4.82,4.82,0,0,0-.27,1.53,4.9,4.9,0,0,0,.37,1.83l-124.53,65.7v-7.16ZM1161.75,221a2.92,2.92,0,1,1,4.11,2.66v2.05a1.19,1.19,0,1,1-2.38,0v-2.05A2.91,2.91,0,0,1,1161.75,221Zm-1.25-6.23v-2a3,3,0,0,1,3-3h2.34a3,3,0,0,1,3,3v2Zm11.89,15.44v-1.77l70.3,56.82v7.42L1092,296.22a5.08,5.08,0,0,0-.53-1.68l65.66-64.35Zm0-3.05V218l79.09-50.22a4.87,4.87,0,0,0,3.26,1.82l-3.33,114.6H1243Zm72.3,59.07h11.44v11.44h-11.44Zm15.44-122.3,112.71-32.16a4.88,4.88,0,0,0,4.86,4.49l.14,0,8.37,82.81a4.91,4.91,0,0,0-3.24,2.36l-123-55.1a4.6,4.6,0,0,0,.18-2.38Zm123,62.64a4.87,4.87,0,0,0,1.68,1.54l-32,73.28a4.62,4.62,0,0,0-1.49-.26,4.89,4.89,0,0,0-4.74,3.72L1258.5,292.3Zm2.59,1.93a4.62,4.62,0,0,0,1.49.26,4.91,4.91,0,0,0,3.57-1.56l91.11,69.4.3-.4v9.33h-126a4.87,4.87,0,0,0-2.45-3.75Zm5.16-7.86,74.75-80.48a4.85,4.85,0,0,0,5.72.13l58.18,68.36a4.94,4.94,0,0,0-1.35,3.28l-136.16,11A4.83,4.83,0,0,0,1390.87,220.62Zm144.24-13.05a4.84,4.84,0,0,0-4.83.41l-58.18-68.36a4.88,4.88,0,0,0,1.36-3.38c0-.13,0-.26,0-.38l113.19-20.73a4.91,4.91,0,0,0,1.78,2.56ZM1540,43.8h11.44V55.24h-2.23l0,0,0,0H1540Zm-114.31,18v-10L1538,50v7.22h11.43l38.65,52.9a4.87,4.87,0,0,0-1.63,3.62c0,.14,0,.26,0,.39l-113.2,20.72a4.86,4.86,0,0,0-6.78-3.05l-42.27-70Zm-11.88-17.41a3,3,0,0,1,3-3h2.35a3,3,0,0,1,3,3v2h-8.33Zm1.24,8.21a2.92,2.92,0,1,1,4.11,2.66v2.05a1.19,1.19,0,0,1-2.38,0V55.3A2.94,2.94,0,0,1,1415,52.64Zm-4.21,9.2H1423l42.59,70.5a4.85,4.85,0,0,0-.73,7.12l-74.75,80.47a4.85,4.85,0,0,0-2.94-1l-8.37-82.84a4.89,4.89,0,0,0,.85-9.23ZM1299.6,74.09c0-.15,0-.29,0-.44l110.66-21.53v8.63l-31.5,65.79a4.9,4.9,0,0,0-1-.11,4.85,4.85,0,0,0-2.83.91l-75.86-51A4.93,4.93,0,0,0,1299.6,74.09Zm-4.9,4.9a4.87,4.87,0,0,0,3.75-1.78L1374.1,128a4.8,4.8,0,0,0-1.24,2.67l-113,32.25a5,5,0,0,0-1.86-2.28l35.24-81.93A4.71,4.71,0,0,0,1294.7,79ZM1154.31,39.78,1289.86,73.4a5.2,5.2,0,0,0-.07.69,4.88,4.88,0,0,0,2.53,4.26l-35.21,81.86a4.89,4.89,0,0,0-1.8-.35,5.51,5.51,0,0,0-.71.07L1153,42.69A4.94,4.94,0,0,0,1154.31,39.78Zm-5,4.45L1163,207.72l1-.08L1150.35,44.15a4.79,4.79,0,0,0,1.91-.81l101.26,116.87a4.86,4.86,0,0,0-2.58,6.74l-78.55,49.87v-2.07h-1.46v-2a5.1,5.1,0,0,0-5.09-5.09h-2.34a5.1,5.1,0,0,0-5.09,5.09v2H1157V229l-66,64.7a4.86,4.86,0,0,0-3.42-1.74l-5.14-139.79A4.84,4.84,0,0,0,1085,151l71.64,64.17.33-.37.34-.37-71.64-64.17a4.83,4.83,0,0,0-1-6.72l62.59-99.77A4.79,4.79,0,0,0,1149.35,44.23ZM1002.52,368.74l-69.46-60.65a4.91,4.91,0,0,0,.9-2.83,4.85,4.85,0,0,0-.72-2.53l68.81-65.52a4.85,4.85,0,0,0,6.06-.82L1083,294.26a4.93,4.93,0,0,0-.75,2.58,4.86,4.86,0,0,0,.89,2.8l-80.2,69.1Zm5.94,2v11.43H997V370.74ZM769.26,260.33l81.59-47.11a4.89,4.89,0,0,0,4,2,4.43,4.43,0,0,0,.9-.09l69.61,87a4.51,4.51,0,0,0-.78,1.23l-154.92-40.3a4.41,4.41,0,0,0,.08-.73A4.84,4.84,0,0,0,769.26,260.33Zm-9.18,3.28-136.34,54-.15-.18,95.13-95.55a4.8,4.8,0,0,0,6,.12l35.49,38.66a5,5,0,0,0-.31,1.68A4.88,4.88,0,0,0,760.08,263.61ZM441.25,374.46l30.35-57.72-.44-.23A4.88,4.88,0,0,0,476,312.4l138.95,8.32a4.88,4.88,0,0,0,4.26,4.64l-57,63.07a4.82,4.82,0,0,0-2.89-1,4.89,4.89,0,0,0-4.83,4.2l-106.93-10,0,.51v-7.73ZM303,405.79v-2a5.1,5.1,0,0,0-5.09-5.09h-.25l55-118.78h8.44l77.39,94.52h-6.48v10.23L304.47,409.51v-3.72ZM293.84,412a2.92,2.92,0,1,1,4.11,2.66v2.05a1.2,1.2,0,0,1-2.39,0v-2.05A2.91,2.91,0,0,1,293.84,412Zm-1.25-6.23v-2a3,3,0,0,1,3-3h2.35a3,3,0,0,1,3,3v2ZM133.09,212.4a2.92,2.92,0,0,1,5.84,0,2.94,2.94,0,0,1-1.73,2.67v2a1.2,1.2,0,1,1-2.39,0v-2A2.93,2.93,0,0,1,133.09,212.4ZM193.82,128,143.4,206.18h-1.13v-2a5.11,5.11,0,0,0-5.09-5.1h-1.72L94.25,118.38h6.23v-7.11l91.23,12.52c0,.06,0,.11,0,.16A4.9,4.9,0,0,0,193.82,128ZM137.18,201.2a3,3,0,0,1,3,3v2h-8.33v-2a3,3,0,0,1,3-3ZM136,221.61h7.76v-1.06l66.58,77.64A4.87,4.87,0,0,0,209,301L80.87,298.27ZM209,302a4.83,4.83,0,0,0,1.86,3.45L171.51,368.2a4.8,4.8,0,0,0-5.88,1.23l-91.78-63h6.06v-7.22ZM143.72,219V213.6L274,206.23a4.84,4.84,0,0,0,1.69,3l-59.5,88.06a4.79,4.79,0,0,0-5.09.28ZM283.2,203.36l82.63-50.07a5.31,5.31,0,0,0-.12,1.07,4.9,4.9,0,0,0,4.9,4.9,4.83,4.83,0,0,0,3.61-1.61l93.57,50.06a4.77,4.77,0,0,0-.45,4.4l-104.2,52.77v-.37h-1.46v-2a5.1,5.1,0,0,0-5.09-5.09h-2.34a5.1,5.1,0,0,0-5.09,5.09v2H347.7v1.11L282.76,208.3a4.83,4.83,0,0,0,.93-2.85A4.9,4.9,0,0,0,283.2,203.36ZM631.75,118a2.92,2.92,0,1,1,4.11,2.66v2.05a1.19,1.19,0,0,1-2.38,0v-2.05A2.91,2.91,0,0,1,631.75,118Zm-1.25-6.23v-2a3,3,0,0,1,3-3h2.34a3,3,0,0,1,3,3v2Zm11.89,15.44V126l75.86,88.73A4.86,4.86,0,0,0,716.9,218L561.37,232.56a4.83,4.83,0,0,0-1.72-2.82l67.56-102.56ZM470.62,316.46l-30.5,58h-.29l-77.4-94.52h.71v-5.19l103.25,35.74a5.12,5.12,0,0,0-.14,1.12A4.89,4.89,0,0,0,470.62,316.46Zm-3.9-6.92L363.14,273.69V266l104.65-53a4.88,4.88,0,0,0,8.82-1.34l75.13,21a5.56,5.56,0,0,0-.08.82,4.86,4.86,0,0,0,1,2.92L474.41,308a4.86,4.86,0,0,0-7.69,1.58Zm86.59-72.38a4.79,4.79,0,0,0,5.7.58l57.54,79.14a4.86,4.86,0,0,0-1.56,2.85L476,311.4a4.8,4.8,0,0,0-1-2.7Zm-1.3-5.44-75.23-21.05a3,3,0,0,0,0-.31,4.9,4.9,0,0,0-8.39-3.45l-93.6-50.07a4.87,4.87,0,0,0,.7-2.48,5.14,5.14,0,0,0-.28-1.58l115.42-39.7a4.9,4.9,0,0,0,4.44,2.84,4.85,4.85,0,0,0,1.74-.33l57.09,113.8A4.89,4.89,0,0,0,552,231.72ZM490.2,111a4.56,4.56,0,0,0,.14,1.11L374.82,151.87a4.85,4.85,0,0,0-1.15-1.32L439.83,48.2l51.7,59.48A4.85,4.85,0,0,0,490.2,111Zm-136,164.42v-2.05a2.92,2.92,0,1,1,2.38,0v2.05a1.19,1.19,0,0,1-1.19,1.19,1.16,1.16,0,0,1-.95-.51l.22-.47Zm-3-10.93v-2a3,3,0,0,1,3-3h2.34a3,3,0,0,1,3,3v2ZM347.7,267v2.78L218.47,300a4.92,4.92,0,0,0-1.49-2.15l59.5-88.06a4.83,4.83,0,0,0,2.3.6,4.93,4.93,0,0,0,3.32-1.31Zm-128.95,34.6a4.34,4.34,0,0,0-.06-.62l129-30.17v9.17h3.9l-55,118.78h-.85l-78.82-93.35A4.86,4.86,0,0,0,218.75,301.56Zm215.3,83.76h0v-8.86h11.43V387.9H434.05Zm183.31-69-57.54-79.14a4.86,4.86,0,0,0,1.64-3.59L717,219a4.75,4.75,0,0,0,1,2.13l-95.13,95.55a4.78,4.78,0,0,0-5.52-.43Zm108.09-95a4.87,4.87,0,0,0-1.05-7.39l40.76-82.58h7.35v-1.7L851,207.3a4.83,4.83,0,0,0-1.1,3.06,5,5,0,0,0,.43,2l-81.58,47.11a4.88,4.88,0,0,0-8.09.23Zm33.63-92V117.92h11.43v11.44Zm97.66,85.5a4.89,4.89,0,0,0,3-4.5,4.8,4.8,0,0,0-.47-2.07L956,150.51a4.89,4.89,0,0,0,3.92,2,4.75,4.75,0,0,0,1.81-.36l40.1,76.8a4.89,4.89,0,0,0-2.2,4.08,4.85,4.85,0,0,0,1.58,3.59l-68.61,65.32a4.89,4.89,0,0,0-3.57-1.56,4.83,4.83,0,0,0-3,1.07Zm105.91-63.19a4.88,4.88,0,0,0,2.15-3.59l112-.23a4.78,4.78,0,0,0,1.25,2.79L1008,229.57a4.86,4.86,0,0,0-3.48-1.46,4.75,4.75,0,0,0-1.81.36Zm46.07,83.92a4.88,4.88,0,0,0,0-5.23l70.16-79.05a4.92,4.92,0,0,0,2.54.9L1086.52,292a4.93,4.93,0,0,0-2.87,1.46ZM977.15,31l167.49,7.4a5.36,5.36,0,0,0-.1,1,4.86,4.86,0,0,0,1.9,3.84L1083.86,143a4.91,4.91,0,0,0-2.16-.52,4.85,4.85,0,0,0-3.12,1.15L971.08,38.07h6.07Zm-13.43-6.32h11.43V36.07H963.72ZM865.55,77.2l96.17-45.77v6.64h7.93l108.23,106.22a4.9,4.9,0,0,0-1,2.56l-112,.23a4.87,4.87,0,0,0-8.56-2.68l-91-63.21a4.8,4.8,0,0,0,.63-2.35A4.92,4.92,0,0,0,865.55,77.2Zm-4.3,6.51a4.9,4.9,0,0,0,3.4-1.69l91,63.21a4.74,4.74,0,0,0-.16,4.42l-96.78,57.79a4.84,4.84,0,0,0-2.38-1.71ZM741.47,37.34,856.19,77.69a4.83,4.83,0,0,0-.15,1.15,4.89,4.89,0,0,0,4.21,4.83l-4.89,121.84a4.28,4.28,0,0,0-3.65,1.08l-78.85-78-.35.35v-13h-7.44l-26-76.22A5,5,0,0,0,741.47,37.34Zm-7.86,1.41A4.76,4.76,0,0,0,738.14,40L764,115.92h-6.93v15.44h7L723.5,213.5a5,5,0,0,0-1.71-.32,4.86,4.86,0,0,0-2.78.88l-76.62-89.62V114.37ZM564.19,50.43l168-14.27A5,5,0,0,0,733,38l-90.58,75.09v-1.33h-1.46v-2a5.1,5.1,0,0,0-5.09-5.09H633.5a5.1,5.1,0,0,0-5.09,5.09v2h-1.09L562,54.44A4.91,4.91,0,0,0,564.19,50.43Zm-8.08,3.62a4.85,4.85,0,0,0,3.18,1.2,4.75,4.75,0,0,0,1.73-.33L627,112.75v13L558.82,229.18a4.92,4.92,0,0,0-2.26-.57,5,5,0,0,0-1.73.33l-57.1-113.79a4.87,4.87,0,0,0,1.25-7.1ZM447.48,40.66l106.94,10a4.79,4.79,0,0,0,1,2.67l-57.13,54a4.85,4.85,0,0,0-6-.3L440.87,47.87h6.61Zm-13.43,2.63h0V34.44h11.43V45.87H434.05ZM304.47,68.51,432.05,43.68v4.19h6.8L372.83,150a4.75,4.75,0,0,0-5.05.36L304.47,78.21Zm-11.88-6.72a3,3,0,0,1,3-3h2.35a3,3,0,0,1,3,3v2h-8.33ZM293.84,70a2.92,2.92,0,0,1,5.84,0A2.94,2.94,0,0,1,298,72.66v2a1.2,1.2,0,0,1-2.39,0v-2A2.93,2.93,0,0,1,293.84,70ZM201.5,124a4.92,4.92,0,0,0-.37-1.88L289,74.46V79.2h15L367,151a4.81,4.81,0,0,0-.9,1.36l-.2-.33-83.25,50.45a4.83,4.83,0,0,0-7-.83L200.4,127A4.86,4.86,0,0,0,201.5,124Zm-4.9,4.91a4.86,4.86,0,0,0,3.09-1.13L275,202.39a4.89,4.89,0,0,0-1.08,2.84L143.72,212.6v-5.08l51-79.05A4.87,4.87,0,0,0,196.6,128.86ZM166.22,34.31a4.86,4.86,0,0,0,3.13,1.16,5,5,0,0,0,.88-.09l24.52,84a4.87,4.87,0,0,0-2.9,3.38l-91.37-12.54V103H95.8ZM38.46,42.86a4.85,4.85,0,0,0,1.29-3.3l0,.5,124.69-9,0-.49a4.88,4.88,0,0,0,1.07,3L94.37,103H92.1Zm48.59,73.52V105H98.48v11.43Zm5.28,2h.79l41.24,80.77a5.1,5.1,0,0,0-4.62,5v2h-1.45v6.59L50.16,189.71a4.43,4.43,0,0,0,.09-.9A4.87,4.87,0,0,0,48.44,185Zm-45.26,75a4.89,4.89,0,0,0,2.81-2.72l78.41,23.14v7.8h6.44L79.91,297.89V291H72.65ZM66.48,304.47V293H77.91v11.44Zm-29,73,34.94-70.77,92.67,63.57a4.88,4.88,0,0,0-.61,2.34l0-.5-124.69,9A4.87,4.87,0,0,0,37.45,377.45Zm61,81H87.05V447H98.48Zm93.35,6.46-91.35-11.54V445H86.31l-48-59.89a4.89,4.89,0,0,0,1.46-3.49l0,.5,124.69-9,0-.49a4.84,4.84,0,0,0,1.19,3.16l-65.52,68.87.73.69,65.51-68.87a4.88,4.88,0,0,0,3,1,4.34,4.34,0,0,0,1-.1l25.78,83.74A4.89,4.89,0,0,0,191.83,464.87Zm4.77-3.79.48-.15L171.26,377.1a4.88,4.88,0,0,0,1.09-8.36L211.69,306a4.91,4.91,0,0,0,2.16.52,4.78,4.78,0,0,0,2.22-.56l78.45,92.93a5.11,5.11,0,0,0-4,5v2H289v9.56l-88.39,47.87A4.9,4.9,0,0,0,196.6,461.08Zm169.11,35.3a4.84,4.84,0,0,0,.4,1.94L282.8,544.67a4.91,4.91,0,0,0-4-2.09,4.83,4.83,0,0,0-3.16,1.18l-76.8-73.43a4.89,4.89,0,0,0,2.31-6.23L289,416.48v4.75h15l63,71.83A4.86,4.86,0,0,0,365.71,496.38Zm4.9-4.9a4.85,4.85,0,0,0-2.83.91l-63.31-72.15v-9.71l127.58-24.82v4.19h6.8L372.83,492A4.86,4.86,0,0,0,370.61,491.48ZM490.2,453a5.31,5.31,0,0,0,.14,1.14l-115.2,40.33a4.84,4.84,0,0,0-1.47-1.93l66.16-102.36,51.7,59.48A4.89,4.89,0,0,0,490.2,453Zm8.09-3.69a4.84,4.84,0,0,0-6-.31L440.87,389.9h6.61v-7.22l106.94,10a4.82,4.82,0,0,0,1,2.67ZM627,460.8l-127-7.95a4.89,4.89,0,0,0-1-2.78l57.13-54a4.86,4.86,0,0,0,3.18,1.21A5,5,0,0,0,561,397L627,454.77Zm8.91,1.86v2a1.19,1.19,0,1,1-2.38,0v-2a2.92,2.92,0,1,1,2.38,0Zm3-8.89H630.5v-2a3,3,0,0,1,3-3h2.34a3,3,0,0,1,3,3Zm3.55,1.32v-1.32h-1.46v-2a5.11,5.11,0,0,0-5.09-5.1H633.5a5.11,5.11,0,0,0-5.09,5.1v2h-1.09L562,396.47a4.92,4.92,0,0,0,2.2-4l168-14.27A5,5,0,0,0,733,380Zm95.33-82.65a4.75,4.75,0,0,0-5.57,4.75l-168,14.27a4.91,4.91,0,0,0-1.19-2.36l57.26-63.35-.37-.33a4.9,4.9,0,0,0,4.9-4.91,4.79,4.79,0,0,0-.45-2l136.18-53.94a4.89,4.89,0,0,0,3.3,2.58Zm1,.24,26-105.45h0a4.87,4.87,0,0,0,4.58-3.2l154.88,40.29a4.64,4.64,0,0,0,.09,2.19L741.67,375.73A4.85,4.85,0,0,0,738.69,372.68ZM861,416a4.88,4.88,0,0,0-4.42,2.81L741.8,378.42a4.82,4.82,0,0,0,.15-1.14,5.23,5.23,0,0,0-.06-.57L924.7,307.45a4.76,4.76,0,0,0,1.46,1.75L863,416.41A5,5,0,0,0,861,416Zm2.9,1L927,309.71a4.8,4.8,0,0,0,2,.46,4.89,4.89,0,0,0,3.34-1.33l68.6,59.9h-6v7.59L865.42,418.87A5,5,0,0,0,863.85,416.92Zm213,71.95-112,.23a4.87,4.87,0,0,0-8.56-2.67l-91-63.21a4.83,4.83,0,0,0,.63-2.36,4.42,4.42,0,0,0-.12-1L995,377.38v6.79h8.21l75.16,101.58A4.93,4.93,0,0,0,1076.84,488.87Zm7-3.89a4.76,4.76,0,0,0-4.65.18l-74.73-101h6v-7.58l134.18,3.85a4.71,4.71,0,0,0-.1.92,4.88,4.88,0,0,0,1.9,3.85Zm61.07-105.53-134.47-3.86v-6.85h-6l79.33-68.35a4.86,4.86,0,0,0,7.25-.6l55.43,77.66A4.87,4.87,0,0,0,1144.93,379.45Zm7.22-2.18a4.9,4.9,0,0,0-2.7-.81,4.8,4.8,0,0,0-2.07.47l-55.73-78.07a4.77,4.77,0,0,0,.41-1.64l150.63-3.56v6h6Zm98.14-77.62h.35l41.89,112.08a4.89,4.89,0,0,0-2.43,2.72l-135.81-33.68a4.86,4.86,0,0,0-1.35-2.85Zm5,202.24a4.87,4.87,0,0,0-2.76.85l-99.58-118a4.92,4.92,0,0,0,1.34-3l135.55,33.63a5.05,5.05,0,0,0-.07.68,4.88,4.88,0,0,0,2.51,4.25l-35.51,81.78A4.84,4.84,0,0,0,1255.31,501.89Zm117.55-29.16-113,32.24a4.88,4.88,0,0,0-2.16-2.43l35.52-81.78a4.75,4.75,0,0,0,5.23-1.53l75.65,50.82A4.83,4.83,0,0,0,1372.86,472.73Zm37.36-70-31.5,65.79a4.87,4.87,0,0,0-3.85.79l-75.86-51a4.9,4.9,0,0,0,.59-2.29c0-.15,0-.29,0-.44l110.66-21.53Zm1.45-16.33v2h-1.45v4.7l-110.85,21.56a4.88,4.88,0,0,0-4.67-3.48,5.08,5.08,0,0,0-1.24.17L1251.7,299.65h6.43v-6.39l88.3,12.57a1.1,1.1,0,0,0,0,.18,4.9,4.9,0,0,0,4.9,4.91,4.85,4.85,0,0,0,2.83-.91l62.46,71.37A5.1,5.1,0,0,0,1411.67,386.45Zm7.45,10.87v2.05a1.19,1.19,0,1,1-2.38,0v-2.05a2.92,2.92,0,1,1,2.38,0Zm3-8.89h-8.33v-2a3,3,0,0,1,3-3h2.35a3,3,0,0,1,3,3Zm-3-7.07h-1.2l-63-72a4.85,4.85,0,0,0,1.27-2.84h126v5.11h13.67l48.33,72.21H1538v7.22l-112.31,1.78v-4.4h-1.45v-2A5.1,5.1,0,0,0,1419.11,381.36Zm167.3,74.43c0,.13,0,.25,0,.38l-113.2,20.73a4.86,4.86,0,0,0-6.78-3.06l-42.27-70h1.45v-10L1538,392.05v7.21h11.43l38.65,52.9A4.89,4.89,0,0,0,1586.41,455.79Z"/></g></g></svg>