<svg xmlns="http://www.w3.org/2000/svg" xmlns:xlink="http://www.w3.org/1999/xlink" viewBox="0 0 1626.71 553"><defs><style>.cls-1{fill:url(#linear-gradient);}.cls-2{fill:#fff;opacity:0.08;}</style><linearGradient id="linear-gradient" x1="-0.28" y1="667.55" x2="1623.33" y2="667.55" gradientTransform="matrix(1, 0, 0, -1, 0, 944)" gradientUnits="userSpaceOnUse"><stop offset="0" stop-color="#0071c7"/><stop offset="1" stop-color="#35b89f"/></linearGradient></defs><title>conjur-hero-bg2</title><g id="bg"><rect class="cls-1" x="-0.28" y="-0.05" width="1626.71" height="553"/></g><g id="dots_2_copy" data-name="dots 2 copy"><path class="cls-2" d="M1593.74,463.22a4.89,4.89,0,0,0,5.32-8.07l28.05-38.35-.81-.59-28.05,38.35a4.76,4.76,0,0,0-4.93,0l-38.22-52.31h2.77v-11.9l.46.21,36.17-80.41a4.82,4.82,0,0,0,6.39-4.13H1627v-1h-26.13a4.84,4.84,0,0,0-7.07-3.85l-53.23-82.34a4.86,4.86,0,0,0,1.8-3.31l84.32,0v-1l-84.32,0a4.87,4.87,0,0,0-1.94-3.43l53.29-89.88a4.91,4.91,0,1,0-.41-8.66l-38.22-52.31h2.77V48.32l.29.41L1626.79.41l-.58-.82L1557.88,47.7V44.79h-15.43V52l-112.31,1.78V49.39h-1.45v-2a5.09,5.09,0,0,0-4.59-5L1429.17.06l-1-.12-5.09,42.32.5.06h-2.35a5.11,5.11,0,0,0-5.09,5.09v2h-1.45v4.69L1303.85,75.65a4.87,4.87,0,0,0-4.17-3.43V0h-1V72.22a4.88,4.88,0,0,0-4.1,3.2L1158.77,41.73a4.88,4.88,0,0,0-4.77-4.3V.31h-1v37.2a4.9,4.9,0,0,0-3.55,2.83L981.63,32.93V25.62h-7.22V0h-1V25.62h-7.22V33.3l-96.59,46a4.88,4.88,0,0,0-4.17-2.36h-.14L855.23.2l-1,.13L864.3,77.06A4.89,4.89,0,0,0,861,79.73L746.28,39.38a4.83,4.83,0,0,0-4.08-6L743.37.31l-1,0-1.18,33.09a4.88,4.88,0,0,0-4.57,4.78l-168,14.27a4.87,4.87,0,0,0-6.89-3.52L532.81.75l-.86.51,28.89,48.16a4.87,4.87,0,0,0-1.9,3.21L452,42.64l0,.5V35.42h-8.1L424.66.22l-.88.48,18.95,34.73h-6.2V45.65L308.95,70.47V66.75H307.5v-2a5.11,5.11,0,0,0-5.09-5.09h-.71V.31h-1V59.68h-.63A5.11,5.11,0,0,0,295,64.77v2h-1.45v9.55l-88.39,47.87a4.82,4.82,0,0,0-4.93-2.05l-24.52-84a4.9,4.9,0,0,0,3.06-4.54,4.85,4.85,0,0,0-.61-2.32L222.49,1l-.56-.83L177.56,30.4a4.88,4.88,0,0,0-8.64,3.14l0-.5L44.19,42l.07,1L169,34l0-.49a4.86,4.86,0,0,0,1.08,3L98.85,105.93H96.58L42.94,45.84a4.88,4.88,0,0,0-6.53-7.21L1.49.67l-.74.68,34.92,38a4.88,4.88,0,0,0,6.52,7.2l53,59.42H89.53v7.22H-.28v1h89.8v7.22h6.08l-43.53,66.1a4.85,4.85,0,0,0-2.25-.57,4.9,4.9,0,1,0,.75,9.73L76.09,294H69v7.72l-.15-.48L1,322.52l.3,1L69,302.26v7.19h6.9L41,380a4.9,4.9,0,1,0,1,8.69L89.53,448v8.27l-89.8-1.08v1l89.8,1.08v6.14h.56l-38.25,66a4.89,4.89,0,1,0-2.51,9.32V554h1V538.68a4.87,4.87,0,0,0,2.37-8.81l38.55-66.47H97l47.71,90.85.88-.46L98.09,463.39H105v-6.07l91.22,11.53s0,.07,0,.11a4.85,4.85,0,0,0,6.08,4.74l77.15,73.76a4.89,4.89,0,1,0,8.36,1.06l83.31-46.36a4.89,4.89,0,0,0,8.06,0L478,555.81l.48-.88-98.9-53.67a4.79,4.79,0,0,0,.29-2.8l115.25-40.34a4.87,4.87,0,0,0,7,2.05l74.25,94.16.79-.62L503,459.55a4.88,4.88,0,0,0,1.41-2.71l127,8v7.4h6.63l-32.63,81.64.93.37,32.78-82h7.73V471l79,92.43.38-.33.45.22,42.92-86.95H777v-1.69l81.95,81.05.35-.36.26.43.08,0-.05,1.26,1,0,.08-1.91,99.85-59.62a4.84,4.84,0,0,0,5.73,1.63l30,57.42.89-.46-30-57.42a4.88,4.88,0,0,0,2.16-3.6l112-.23a4.86,4.86,0,0,0,8.14,3.11l67.89,60.82.67-.74-67.89-60.82a4.84,4.84,0,0,0-1-6.72l62.59-99.77a4.85,4.85,0,0,0,2.07.51l13.71,164.23,1-.08-13.71-164.22a4.87,4.87,0,0,0,1.86-.76l99.58,118a4.82,4.82,0,0,0-.85,5.58l-65.57,41.63.54.84L1256,512.8a4.87,4.87,0,0,0,8.65-3.88l112.71-32.16a4.89,4.89,0,0,0,4.86,4.49h.14l8.37,82.81a4.94,4.94,0,1,0,4.66,1.58l74.75-80.48a4.85,4.85,0,0,0,5.72.13l61.34,72.07.38-.32v.5l89.17,0v-1l-88.3,0Zm-56.27,93-60.89-71.54a4.88,4.88,0,0,0,1.37-3.38c0-.13,0-.25,0-.38l113.2-20.73a4.89,4.89,0,0,0,1.78,2.56Zm55.05-101a4.87,4.87,0,0,0-1.63,3.63c0,.13,0,.25,0,.38l-113.2,20.72a4.85,4.85,0,0,0-6.77-3.05l-42.27-70h1.45v-10L1542.44,395v7.21h11.43Zm-173-57.5a2.92,2.92,0,1,1,4.11,2.66v2a1.19,1.19,0,0,1-2.38,0v-2A2.92,2.92,0,0,1,1419.49,397.65Zm-1.25-6.23v-2a3,3,0,0,1,3-3h2.34a3,3,0,0,1,3,3v2Zm-35,80.13a4.84,4.84,0,0,0-3.85.8l-75.86-51a4.85,4.85,0,0,0,.59-2.29c0-.15,0-.29,0-.44l110.66-21.53v8.63Zm-123.41,33.32a4.88,4.88,0,0,0-2.76.86l-99.58-118a4.87,4.87,0,0,0,1.34-3l135.56,33.62a4.65,4.65,0,0,0,2.44,4.94l-35.52,81.77A4.85,4.85,0,0,0,1259.79,504.87ZM1009,371.72l79.33-68.35a4.86,4.86,0,0,0,7.25-.6L1151,380.43a4.91,4.91,0,0,0-1.59,2l-134.47-3.86v-6.85Zm72.33,120.13-112,.23a4.86,4.86,0,0,0-8.56-2.67l-91-63.21a4.85,4.85,0,0,0,.63-2.36,4.91,4.91,0,0,0-.12-1l129.29-42.43v6.79h8.21l75.16,101.58A4.86,4.86,0,0,0,1081.32,491.86Zm-438-35.1H635v-2a3,3,0,0,1,3-3h2.34a3,3,0,0,1,3,3Zm2.1,0v-2a5.11,5.11,0,0,0-5.09-5.09H638a5.11,5.11,0,0,0-5.09,5.09v2H631.8l-65.34-57.3a4.89,4.89,0,0,0,2.2-4l168-14.27a4.87,4.87,0,0,0,.74,1.82l-90.58,75.09v-1.33Zm-142.64-4.42a4.84,4.84,0,0,0-6-.3l-51.42-59.14H452v-7.21l106.94,10a4.85,4.85,0,0,0,1,2.67ZM375.09,494.46a4.87,4.87,0,0,0-2.83.91l-63.31-72.16v-9.71l127.58-24.82v4.19h6.8L377.31,495A4.85,4.85,0,0,0,375.09,494.46ZM298.31,415a2.92,2.92,0,1,1,4.11,2.66v2a1.19,1.19,0,1,1-2.38,0v-2A2.92,2.92,0,0,1,298.31,415Zm-1.25-6.23v-2a3,3,0,0,1,3-3h2.34a3,3,0,0,1,3,3v2Zm-96,55.28.48-.15-25.81-83.83a4.88,4.88,0,0,0,1.09-8.37l39.34-62.79a4.73,4.73,0,0,0,4.37,0L299,401.82a5.11,5.11,0,0,0-4,5v2h-1.45v9.55L205.13,466.2A4.9,4.9,0,0,0,201.08,464.06ZM137.56,215.39a2.92,2.92,0,1,1,4.11,2.66v2a1.19,1.19,0,1,1-2.38,0v-2A2.92,2.92,0,0,1,137.56,215.39Zm-32.6-94v-7.11l91.23,12.52c0,.06,0,.11,0,.17a4.89,4.89,0,0,0,2.12,4l-50.42,78.19h-1.13v-2a5.11,5.11,0,0,0-5.09-5.09h-1.72L98.72,121.37Zm270.13,40.88a4.87,4.87,0,0,0,3.61-1.61l93.57,50.06a4.8,4.8,0,0,0-.45,4.4l-104.2,52.77v-.37h-1.45v-2a5.11,5.11,0,0,0-5.09-5.09h-2.34a5.11,5.11,0,0,0-5.09,5.09v2h-1.45v1.12l-64.94-57.32a4.81,4.81,0,0,0,.44-4.94l82.63-50.07a4.88,4.88,0,0,0,4.78,6ZM777,134.34v-1.69l78.5,77.64a4.81,4.81,0,0,0-.66,5.06l-81.59,47.11a4.88,4.88,0,0,0-8.08.23l-35.22-38.37a4.86,4.86,0,0,0-1.05-7.38l40.76-82.59Zm88.74-47.65a4.86,4.86,0,0,0,3.4-1.69l91,63.21a4.75,4.75,0,0,0-.16,4.42l-96.78,57.79a4.89,4.89,0,0,0-2.38-1.71Zm215.59,64.14a4.86,4.86,0,0,0,1.25,2.79l-70.05,78.93a4.86,4.86,0,0,0-5.29-1.1l-40.1-76.79a4.89,4.89,0,0,0,2.15-3.6Zm72.51-103.62,13.65,163.49,1-.08L1154.83,47.13a4.86,4.86,0,0,0,1.91-.8L1258,163.2a4.85,4.85,0,0,0-2.58,6.74l-78.55,49.88v-2.07h-1.45v-2a5.11,5.11,0,0,0-5.09-5.09H1168a5.11,5.11,0,0,0-5.09,5.09v2h-1.45V232l-66,64.71a4.86,4.86,0,0,0-3.42-1.74l-5.14-139.79a4.86,4.86,0,0,0,2.61-1.22l71.64,64.17.33-.37.33-.37-71.63-64.17a4.84,4.84,0,0,0-1-6.72l62.59-99.77A4.85,4.85,0,0,0,1153.83,47.21ZM1299.18,82a4.87,4.87,0,0,0,3.75-1.78L1378.58,131a4.86,4.86,0,0,0-1.24,2.67l-113,32.25a4.91,4.91,0,0,0-1.86-2.28l35.24-81.93A4.85,4.85,0,0,0,1299.18,82Zm116.11-17.15h12.23l42.59,70.49a4.84,4.84,0,0,0-.73,7.12l-74.75,80.48a4.86,4.86,0,0,0-2.93-1l-8.37-82.84a4.89,4.89,0,0,0,.85-9.24Zm4.21-9.21a2.92,2.92,0,1,1,4.11,2.66v2a1.19,1.19,0,0,1-2.38,0v-2A2.92,2.92,0,0,1,1419.49,55.62Zm123,331.19V394l-112.31,1.78v-4.39h-1.45v-2a5.11,5.11,0,0,0-5.09-5.09h-1.19l-63-72a4.87,4.87,0,0,0,1.27-2.83h126v5.1h13.67l48.33,72.21Zm-126.29,2.63v2h-1.45v4.69l-110.85,21.57a4.8,4.8,0,0,0-5.9-3.31l-41.76-111.73h6.42v-6.39l88.3,12.57c0,.06,0,.12,0,.19a4.89,4.89,0,0,0,7.73,4l62.46,71.37A5.1,5.1,0,0,0,1416.15,389.44Zm-257.38-5.68a4.88,4.88,0,0,0-1.35-2.85l97.35-78.27h.34L1297,414.72a4.89,4.89,0,0,0-2.43,2.72Zm-159.26-12v7.59L869.9,421.85a4.9,4.9,0,0,0-1.57-1.94L931.5,312.7a4.83,4.83,0,0,0,5.38-.87l68.6,59.9ZM568.58,394.45a4.87,4.87,0,0,0-1.18-2.36l57.26-63.35-.37-.34a4.88,4.88,0,0,0,4.45-6.94l136.18-53.94a4.89,4.89,0,0,0,3.3,2.58l-26,105.32a4.76,4.76,0,0,0-5.57,4.75ZM452,384.67l0,.5v-7.72h-6.24l30.35-57.72-.44-.23a4.89,4.89,0,0,0,4.82-4.11l138.95,8.33a4.88,4.88,0,0,0,4.26,4.63l-57,63.07a4.87,4.87,0,0,0-7.72,3.24Zm-13.48,6.22V388.3h0v-8.85H450v11.43Zm-131,17.9v-2a5.11,5.11,0,0,0-5.09-5.09h-.25l55-118.78h8.44L443,377.45h-6.48v10.23L308.95,412.5v-3.72ZM148.2,216.59l130.23-7.37a4.86,4.86,0,0,0,1.69,3l-59.5,88.06a4.81,4.81,0,0,0-5.1.28L148.2,222Zm204,53.36v2.78L222.94,303a4.88,4.88,0,0,0-1.48-2.15L281,212.74a4.8,4.8,0,0,0,5.62-.71Zm11.88-2.45h-8.33v-2a3,3,0,0,1,3-3h2.34a3,3,0,0,1,3,3Zm15.65-111.72,115.43-39.71a4.84,4.84,0,0,0,6.17,2.52l57.1,113.8a4.9,4.9,0,0,0-1.92,2.33l-75.23-21c0-.11,0-.21,0-.31a4.9,4.9,0,0,0-8.39-3.45l-93.6-50.07a4.68,4.68,0,0,0,.42-4.06Zm252-25.61h15.18V129l75.87,88.73a4.88,4.88,0,0,0-1.36,3.33L565.85,235.55a4.88,4.88,0,0,0-1.72-2.83Zm11.63-15.43H635v-2a3,3,0,0,1,3-3h2.34a3,3,0,0,1,3,3ZM636.23,121a2.92,2.92,0,1,1,4.11,2.66v2a1.19,1.19,0,1,1-2.38,0v-2A2.92,2.92,0,0,1,636.23,121Zm328.2,34.52a4.87,4.87,0,0,0,1.81-.35l40.1,76.79a4.88,4.88,0,0,0-.62,7.68l-68.61,65.32a4.84,4.84,0,0,0-6.6-.49l-69.29-86.57a4.87,4.87,0,0,0,2.5-6.57l96.79-57.79A4.88,4.88,0,0,0,964.43,155.47Zm118.89-1.18a4.86,4.86,0,0,0,2.53.9L1091,295a4.87,4.87,0,0,0-2.87,1.46l-74.93-57.87a4.83,4.83,0,0,0,0-5.23Zm78.33,78.88h15.22v-1.76l70.3,56.82v7.42l-150.65,3.56a4.84,4.84,0,0,0-.53-1.68Zm11.67-15.43H1165v-2a3,3,0,0,1,3-3h2.34a3,3,0,0,1,3,3Zm204-83a4.89,4.89,0,0,0,4.86,4.49h.14l8.37,82.81a4.89,4.89,0,0,0-3.24,2.36l-123-55.1a4.43,4.43,0,0,0,.18-2.38ZM1355.79,304.1a4.89,4.89,0,0,0-4.74,3.72L1263,295.29l124.62-65.75a4.91,4.91,0,0,0,1.68,1.53l-32,73.28A4.85,4.85,0,0,0,1355.79,304.1Zm-106.62-3.46V289.2h11.43v11.43Zm7.72-13.43,3.33-114.59a4.87,4.87,0,0,0,3.8-2.42l123,55.1a4.68,4.68,0,0,0,.09,3.36l-124.53,65.7V287.2Zm2.33-114.6-3.33,114.6h-8.4l-70.62-57.08V221L1256,170.77A4.87,4.87,0,0,0,1259.22,172.6Zm-93,51.37a2.92,2.92,0,1,1,4.11,2.66v2a1.19,1.19,0,0,1-2.38,0v-2A2.92,2.92,0,0,1,1166.23,224Zm-306.94-5.72a4.91,4.91,0,0,0,.9-.09l69.61,87a4.88,4.88,0,0,0-.78,1.23L774.1,266.06a4.46,4.46,0,0,0-.36-2.74l81.59-47.11A4.89,4.89,0,0,0,859.29,218.25Zm-94.73,48.34-136.34,54-.15-.18,95.13-95.55a4.81,4.81,0,0,0,6,.13l35.49,38.66a4.53,4.53,0,0,0-.12,2.94Zm-284,47.79a4.86,4.86,0,0,0-1-2.7l78.23-71.53a4.8,4.8,0,0,0,5.7.57L621,319.86a4.87,4.87,0,0,0-1.56,2.85ZM444.3,377.45l-77.4-94.52h.71v-5.19l103.26,35.74a4.84,4.84,0,0,0,4.23,6l-30.51,58ZM721.46,222a4.85,4.85,0,0,0,1,2.14l-95.13,95.55a4.79,4.79,0,0,0-5.52-.43L564.3,240.14a4.87,4.87,0,0,0,1.64-3.59Zm-245.08-3.78a4.89,4.89,0,0,0,4.71-3.6l75.13,21a4.67,4.67,0,0,0,.89,3.74l-78.23,71.53a4.86,4.86,0,0,0-7.68,1.58L367.62,276.68V269l104.65-53A4.89,4.89,0,0,0,476.39,218.25ZM358.71,278.43v-2a2.92,2.92,0,1,1,2.38,0v2a1.19,1.19,0,0,1-1.19,1.19,1.17,1.17,0,0,1-1-.51l.22-.47ZM223.23,304.55a4.79,4.79,0,0,0-.06-.62l129-30.18v9.17h3.89l-55,118.78h-.85l-78.82-93.35A4.87,4.87,0,0,0,223.23,304.55Zm519.94,71.12,26-105.45h.06a4.89,4.89,0,0,0,4.58-3.2l154.88,40.28a4.53,4.53,0,0,0,.09,2.19L746.15,378.71A4.88,4.88,0,0,0,743.17,375.66ZM1007,371.72l-69.46-60.65a4.83,4.83,0,0,0,.18-5.36l68.82-65.52a4.84,4.84,0,0,0,6.05-.82l74.93,57.87a4.84,4.84,0,0,0,.14,5.38l-80.2,69.1Zm89.54-71.52,150.63-3.56v6h6l-96.55,77.62a4.83,4.83,0,0,0-4.76-.34l-55.73-78.07A4.88,4.88,0,0,0,1096.54,300.21Zm394.92,5.19a2.92,2.92,0,1,1,4.11,2.66v2a1.19,1.19,0,1,1-2.38,0v-2A2.92,2.92,0,0,1,1491.46,305.39Zm-1.25-6.23v-2a3,3,0,0,1,3-3h2.34a3,3,0,0,1,3,3v2Zm5.34-7.07h-2.34a5.11,5.11,0,0,0-5.09,5.09v2h-1.45v9.33h-126a4.87,4.87,0,0,0-2.45-3.75l32-73.28a4.75,4.75,0,0,0,5.05-1.3l91.12,69.4.61-.8-91.12-69.4a4.86,4.86,0,0,0,.72-2.44l136.16-11a4.89,4.89,0,0,0,2.27,3.28l-35.64,74.67A5.06,5.06,0,0,0,1495.55,292.09Zm37.1-77.2-136.16,11a4.86,4.86,0,0,0-1.14-2.33l74.75-80.48a4.85,4.85,0,0,0,5.72.13L1534,211.62A4.87,4.87,0,0,0,1532.65,214.89ZM775,132.34H763.55V120.91H775Zm-13.43-13.43v15.43h7L728,216.49a4.8,4.8,0,0,0-4.49.55l-76.62-89.62V117.35l91.23-75.62A4.82,4.82,0,0,0,742.62,43l25.87,75.9ZM737.45,41l-90.58,75.09v-1.33h-1.45v-2a5.11,5.11,0,0,0-5.09-5.09H638a5.11,5.11,0,0,0-5.09,5.09v2H631.8l-65.34-57.3a4.89,4.89,0,0,0,2.2-4l168-14.27A4.87,4.87,0,0,0,737.45,41ZM560.59,57a4.78,4.78,0,0,0,4.91.88l65.93,57.82v13L563.29,232.17a4.72,4.72,0,0,0-4-.24l-57.1-113.8a4.85,4.85,0,0,0,1.24-7.1Zm-65.77,58.08L379.29,154.86a4.88,4.88,0,0,0-1.15-1.32L444.3,51.18,496,110.66a4.78,4.78,0,0,0-1.2,4.45Zm-216.43,93.1L148.2,215.58V210.5l51-79a4.85,4.85,0,0,0,5-.74l75.29,74.66A4.85,4.85,0,0,0,278.38,208.22Zm-136.72-4a3,3,0,0,1,3,3v2h-8.33v-2a3,3,0,0,1,3-3Zm6.54,20.41v-1.06l66.58,77.64a4.87,4.87,0,0,0-1.29,2.77L85.35,301.25l55.09-76.66ZM84.39,309.45v-7.22l129.07,2.71a4.87,4.87,0,0,0,1.86,3.45L176,371.19a4.81,4.81,0,0,0-5.88,1.22l-91.78-63Zm662,70.25,182.8-69.26a4.91,4.91,0,0,0,1.47,1.75L867.46,419.4a4.85,4.85,0,0,0-6.46,2.36L746.28,381.4a3.77,3.77,0,0,0,.09-1.71Zm255.14,5.46V373.72h11.43v11.43Zm554.37,15.09h-2.23l0,0,0,0h-9.16V388.81h11.43ZM1593,301.69a4.86,4.86,0,0,0,.61,8l-35.71,79.4v-2.31h-8l-48.33-72.21h.56V299.17h-1.45v-2a5,5,0,0,0-.63-2.4l35.88-75.19a4.67,4.67,0,0,0,3.86-.25Zm-53.39-91.13a4.84,4.84,0,0,0-4.83.4l-58.19-68.36a4.88,4.88,0,0,0,1.37-3.38c0-.13,0-.25,0-.38l113.2-20.72a4.89,4.89,0,0,0,1.78,2.56Zm4.85-163.77h11.43V58.22h-2.23l0,0,0,0h-9.16Zm-2,6.22v7.21h11.43l38.65,52.9a4.87,4.87,0,0,0-1.63,3.63c0,.13,0,.25,0,.38l-113.2,20.72a4.85,4.85,0,0,0-6.77-3.05l-42.27-70h1.45v-10Zm-124.2-5.6a3,3,0,0,1,3-3h2.34a3,3,0,0,1,3,3v2h-8.33Zm-3.55,7.69v8.63l-31.5,65.79a4.84,4.84,0,0,0-3.85.8l-75.86-51a4.85,4.85,0,0,0,.59-2.29c0-.15,0-.29,0-.44ZM1296.8,81.33l-35.21,81.86a4.37,4.37,0,0,0-2.51-.28L1157.49,45.67a4.87,4.87,0,0,0,1.29-2.91l135.56,33.62a4.66,4.66,0,0,0,2.46,4.95Zm-147.67-40a4.87,4.87,0,0,0,1.8,4.84l-62.59,99.77a4.78,4.78,0,0,0-5.27.62L975.56,41.05h6.07V33.93ZM968.19,27.62h11.43V39.05H968.19Zm-2,6.79v6.64h7.93l108.23,106.23a4.84,4.84,0,0,0-1,2.55l-112,.23a4.86,4.86,0,0,0-8.56-2.67l-91-63.21a4.68,4.68,0,0,0,.33-4ZM860.67,80.68a4.83,4.83,0,0,0,4.06,6L859.84,208.5a4.37,4.37,0,0,0-3.65,1.08l-78.85-78-.35.36v-13h-7.44l-26-76.23a4.9,4.9,0,0,0,2.38-2.36Zm-301.77-27a4.85,4.85,0,0,0,1,2.67l-57.13,54a4.84,4.84,0,0,0-6-.3L445.35,50.86H452V43.64ZM450,37.42V48.86H438.53V46.28h0V37.42Zm-13.43,9.24v4.19h6.8L377.31,153a4.8,4.8,0,0,0-5.05.36L308.95,81.2V71.49ZM297.07,64.77a3,3,0,0,1,3-3h2.34a3,3,0,0,1,3,3v2h-8.33ZM298.31,73a2.92,2.92,0,1,1,4.11,2.66v2a1.19,1.19,0,1,1-2.38,0v-2A2.92,2.92,0,0,1,298.31,73Zm-4.8,4.46v4.75h15l63,71.83a4.9,4.9,0,0,0-.9,1.36l-.2-.33-83.25,50.45a4.84,4.84,0,0,0-7-.83L204.88,130a4.83,4.83,0,0,0,.73-4.95ZM170.7,37.3a4.73,4.73,0,0,0,4,1.07l24.52,84a4.9,4.9,0,0,0-2.91,3.38L105,113.24v-7.31h-4.68ZM91.53,107.93H103v11.43H91.53Zm5.28,13.43h.8l41.24,80.77a5.09,5.09,0,0,0-4.62,5v2h-1.45v6.59L54.64,192.7A4.78,4.78,0,0,0,52.92,188Zm-45.26,75a4.9,4.9,0,0,0,2.82-2.72l78.41,23.14v7.8h6.44L84.39,300.88V294H77.12ZM71,296H82.39v11.43H71Zm32,165.37H91.53V450H103Zm2-5.07V448H90.79l-48-59.89a4.88,4.88,0,0,0-.84-7.63l34.94-70.77,92.67,63.58a4.85,4.85,0,0,0-.62,2.33l0-.5-124.69,9,.07,1,124.69-9,0-.49a4.86,4.86,0,0,0,1.19,3.17L104.6,447.61l.72.69,65.52-68.86a4.86,4.86,0,0,0,3,1,4.92,4.92,0,0,0,1-.1l25.79,83.73a4.88,4.88,0,0,0-4.26,3.75Zm182.31,91.34a4.86,4.86,0,0,0-7.18-.91l-76.8-73.43a4.87,4.87,0,0,0,2.31-6.23l87.91-47.61v4.75h15l63,71.83a4.86,4.86,0,0,0-.92,5.26Zm92.35-50.17a4.89,4.89,0,0,0-1.47-1.93L444.3,393.21,496,452.69a4.77,4.77,0,0,0-1.19,4.48Zm124.84-41.66a4.85,4.85,0,0,0-1-2.78l57.13-54a4.78,4.78,0,0,0,4.91.88l65.93,57.82v6Zm135.88,9.81v2a1.19,1.19,0,0,1-2.38,0v-2a2.92,2.92,0,1,1,2.38,0Zm85.82,96.55-79.3-92.75V459.38l91.23-75.62a4.82,4.82,0,0,0,4.53,1.27l25.87,75.9h-6.94v15.43h7ZM775,474.37H763.55V462.93H775Zm84.38,80.37-82-81.13L777,474v-13h-7.44l-26-76.23a4.9,4.9,0,0,0,2.38-2.36L860.67,422.7a4.83,4.83,0,0,0,4.06,6l-5.05,125.88Zm1.34-.8,5-125.22a4.86,4.86,0,0,0,3.4-1.69l91,63.21a4.75,4.75,0,0,0-.16,4.42Zm227.63-66a4.75,4.75,0,0,0-4.65.18l-74.73-101h6v-7.58l134.17,3.85a4.81,4.81,0,0,0,1.81,4.76Zm173.85,17.56,35.52-81.77a4.74,4.74,0,0,0,5.23-1.53L1378.58,473a4.87,4.87,0,0,0-1.24,2.68l-113,32.25A4.9,4.9,0,0,0,1262.18,505.52Zm122-33.65,31.12-65h12.23l42.59,70.49a4.84,4.84,0,0,0-.73,7.12l-74.75,80.48a4.86,4.86,0,0,0-2.94-1l-8.37-82.84a4.89,4.89,0,0,0,.85-9.24Z"/></g></svg>