<svg id="Layer_1" data-name="Layer 1" xmlns="http://www.w3.org/2000/svg" viewBox="0 0 264.46 115.14"><defs><style>.cls-1{fill:#fff;}</style></defs><title>conjur-ce-logo</title><path class="cls-1" d="M167.93,18.56V36.94c0,4.36,1.07,7.45,6.11,7.45s6.11-3.09,6.11-7.45V18.56h12.21V39.29c0,11.34-8,14.83-18.32,14.83s-18.32-3.49-18.32-14.83V18.56Z"/><path class="cls-1" d="M114.65,17.42c-4.76,0-8.19,1.41-11,5.57h-.14V18.56H91.3v3.26A17,17,0,0,1,98,35.8,17,17,0,0,1,91.3,49.73V53h12.21V35.13c0-4.29,1.41-8,6.37-8,6,0,5.5,5.77,5.5,9.06V53H127.6V31.71c0-8.45-3.69-14.29-12.95-14.29"/><path class="cls-1" d="M69.43,35.8c0,4.36,2.89,7.72,7.85,7.72s7.85-3.35,7.85-7.72a7.85,7.85,0,0,0-15.7,0"/><rect class="cls-1" x="199.21" y="18.56" width="12.21" height="34.42"/><path class="cls-1" d="M226.82,24.08A6.84,6.84,0,1,1,220,17.24a6.87,6.87,0,0,1,6.84,6.84"/><path class="cls-1" d="M141.79,15.6c-3.73,0-6.93-2.57-6.93-6.54s3.19-6.61,6.93-6.61,6.93,2.57,6.93,6.61-3.19,6.54-6.93,6.54m6.07,37.2c0,8.79-4.59,13.93-13.31,13.93a14.07,14.07,0,0,1-4.44-.55V57a10.9,10.9,0,0,0,1.79.15c2.49,0,3.74-1,3.74-3.89V18.56h12.22Z"/><path class="cls-1" d="M58.5,44.13a8.4,8.4,0,0,1-.94.05A8.17,8.17,0,0,1,49,35.73a8.26,8.26,0,0,1,8.39-8.39,8,8,0,0,1,1.14.09,17.42,17.42,0,0,1,7.08-7.14,18.85,18.85,0,0,0-10-2.87c-10.8,0-19.26,7.65-19.26,18.72,0,10.4,8.52,18,18.72,18,2.85,0,7.47-.8,10.22-3a17.27,17.27,0,0,1-6.8-7"/><path class="cls-1" d="M13.38,84.25a8.34,8.34,0,0,0-6.54,2.66,10.5,10.5,0,0,0-2.39,7.28q0,4.73,2.25,7.34a8,8,0,0,0,6.43,2.61,17.41,17.41,0,0,0,5.1-.71v1.36a16.67,16.67,0,0,1-5.47.77,9.3,9.3,0,0,1-7.32-3q-2.67-3-2.67-8.39a13.16,13.16,0,0,1,1.28-5.93,9.24,9.24,0,0,1,3.67-4,10.84,10.84,0,0,1,5.56-1.4,13.36,13.36,0,0,1,5.78,1.21l-.62,1.39A11.21,11.21,0,0,0,13.38,84.25Z"/><path class="cls-1" d="M36.36,97a9.3,9.3,0,0,1-1.95,6.27A6.72,6.72,0,0,1,29,105.56a7,7,0,0,1-3.8-1,6.66,6.66,0,0,1-2.52-3,10.87,10.87,0,0,1-.88-4.5,9.24,9.24,0,0,1,1.95-6.26,6.71,6.71,0,0,1,5.34-2.24,6.58,6.58,0,0,1,5.31,2.27A9.33,9.33,0,0,1,36.36,97Zm-13,0a8.35,8.35,0,0,0,1.49,5.28,5,5,0,0,0,4.2,1.9,5,5,0,0,0,4.21-1.9A8.35,8.35,0,0,0,34.79,97a8.22,8.22,0,0,0-1.5-5.27,5.1,5.1,0,0,0-4.22-1.87,5,5,0,0,0-4.19,1.87A8.33,8.33,0,0,0,23.41,97Z"/><path class="cls-1" d="M61.41,105.25V94.49a5.36,5.36,0,0,0-.94-3.5,3.56,3.56,0,0,0-2.87-1.1,4.68,4.68,0,0,0-3.73,1.39,6.54,6.54,0,0,0-1.21,4.36v9.62H51.14V94q0-4.15-3.8-4.15a4.48,4.48,0,0,0-3.76,1.5A7.82,7.82,0,0,0,42.4,96.2v9.06H40.91V88.84h1.24l.32,2.25h.09a4.71,4.71,0,0,1,1.93-1.89,5.75,5.75,0,0,1,2.76-.67q3.88,0,5,2.91h.06a5.57,5.57,0,0,1,2.15-2.16,6.2,6.2,0,0,1,3.07-.75,5.27,5.27,0,0,1,4,1.43,6.51,6.51,0,0,1,1.34,4.56v10.73Z"/><path class="cls-1" d="M88.71,105.25V94.49a5.36,5.36,0,0,0-.94-3.5,3.56,3.56,0,0,0-2.87-1.1,4.68,4.68,0,0,0-3.73,1.39A6.54,6.54,0,0,0,80,95.64v9.62H78.44V94q0-4.15-3.8-4.15a4.48,4.48,0,0,0-3.76,1.5A7.82,7.82,0,0,0,69.7,96.2v9.06H68.21V88.84h1.24l.32,2.25h.09a4.71,4.71,0,0,1,1.93-1.89,5.75,5.75,0,0,1,2.76-.67q3.88,0,5,2.91h.06a5.57,5.57,0,0,1,2.15-2.16,6.2,6.2,0,0,1,3.07-.75,5.27,5.27,0,0,1,4,1.43,6.51,6.51,0,0,1,1.34,4.56v10.73Z"/><path class="cls-1" d="M96.8,88.84V99.47a5.19,5.19,0,0,0,1,3.6,4.2,4.2,0,0,0,3.23,1.13,5.64,5.64,0,0,0,4.31-1.48q1.38-1.48,1.38-4.82V88.84h1.48v16.41H107l-.27-2.26h-.09q-1.6,2.57-5.69,2.57-5.6,0-5.6-6V88.84Z"/><path class="cls-1" d="M125.19,105.25V94.61a5.19,5.19,0,0,0-1-3.6,4.2,4.2,0,0,0-3.23-1.12,5.59,5.59,0,0,0-4.31,1.49q-1.37,1.49-1.37,4.82v9.06h-1.49V88.84H115l.29,2.25h.09q1.6-2.57,5.69-2.57,5.59,0,5.59,6v10.73Z"/><path class="cls-1" d="M131.77,84.28q0-1.45,1-1.45a.85.85,0,0,1,.73.38,1.86,1.86,0,0,1,.26,1.07,1.9,1.9,0,0,1-.26,1.07.84.84,0,0,1-.73.39Q131.77,85.75,131.77,84.28Zm1.71,21H132V88.84h1.49Z"/><path class="cls-1" d="M143.3,104.23a11.2,11.2,0,0,0,2.48-.24v1.21a7.9,7.9,0,0,1-2.51.36,4.08,4.08,0,0,1-3.21-1.16,5.4,5.4,0,0,1-1-3.65V90.14H136.6v-.88l2.43-.68.75-3.71h.77v4h4.82v1.3h-4.82v10.39a4.74,4.74,0,0,0,.66,2.79A2.41,2.41,0,0,0,143.3,104.23Z"/><path class="cls-1" d="M146.58,88.84h1.54l3.47,9.21q1.58,4.24,2,5.72h.09q.63-1.95,2.07-5.81l3.47-9.12h1.54l-7.35,19.07a15,15,0,0,1-1.5,3.14,4,4,0,0,1-1.41,1.22,4.3,4.3,0,0,1-2,.41,6.74,6.74,0,0,1-1.92-.32v-1.3a7.06,7.06,0,0,0,1.89.24,2.54,2.54,0,0,0,1.36-.36,3.41,3.41,0,0,0,1.06-1.12,14.89,14.89,0,0,0,1.1-2.42l.81-2.15Z"/><path class="cls-1" d="M184,105.25H171.93V83.18H184V84.6H173.47V93h9.93v1.42h-9.93v9.47H184Z"/><path class="cls-1" d="M194.62,88.53a6.82,6.82,0,0,1,3.08.65A6.13,6.13,0,0,1,200,91.39h.09q-.09-1.9-.09-3.73v-5.9h1.48v23.49h-1l-.38-2.51H200a6.07,6.07,0,0,1-5.37,2.81,6.44,6.44,0,0,1-5.19-2.11q-1.8-2.11-1.8-6.16,0-4.26,1.78-6.51A6.21,6.21,0,0,1,194.62,88.53Zm0,1.36a4.65,4.65,0,0,0-4,1.89,9.35,9.35,0,0,0-1.35,5.48q0,7,5.42,7a4.92,4.92,0,0,0,4.08-1.62Q200,101,200,97.28V97q0-3.8-1.28-5.47A4.87,4.87,0,0,0,194.62,89.88Z"/><path class="cls-1" d="M206.81,84.28q0-1.45,1-1.45a.84.84,0,0,1,.73.38,1.86,1.86,0,0,1,.26,1.07,1.9,1.9,0,0,1-.26,1.07.83.83,0,0,1-.73.39Q206.81,85.75,206.81,84.28Zm1.71,21H207V88.84h1.49Z"/><path class="cls-1" d="M218.34,104.23a11.19,11.19,0,0,0,2.48-.24v1.21a7.9,7.9,0,0,1-2.51.36,4.08,4.08,0,0,1-3.21-1.16,5.4,5.4,0,0,1-1-3.65V90.14h-2.43v-.88l2.43-.68.75-3.71h.77v4h4.82v1.3h-4.82v10.39a4.74,4.74,0,0,0,.66,2.79A2.41,2.41,0,0,0,218.34,104.23Z"/><path class="cls-1" d="M224.15,84.28q0-1.45,1-1.45a.84.84,0,0,1,.73.38,1.86,1.86,0,0,1,.26,1.07,1.9,1.9,0,0,1-.26,1.07.83.83,0,0,1-.73.39Q224.15,85.75,224.15,84.28Zm1.71,21h-1.49V88.84h1.49Z"/><path class="cls-1" d="M244.93,97A9.29,9.29,0,0,1,243,103.3a6.72,6.72,0,0,1-5.37,2.26,7,7,0,0,1-3.8-1,6.66,6.66,0,0,1-2.52-3,10.88,10.88,0,0,1-.87-4.5,9.24,9.24,0,0,1,1.95-6.26,6.71,6.71,0,0,1,5.34-2.24A6.59,6.59,0,0,1,243,90.8,9.33,9.33,0,0,1,244.93,97Zm-13,0a8.34,8.34,0,0,0,1.49,5.28,5.61,5.61,0,0,0,8.41,0A8.35,8.35,0,0,0,243.36,97a8.23,8.23,0,0,0-1.5-5.27,5.11,5.11,0,0,0-4.22-1.87,5,5,0,0,0-4.19,1.87A8.33,8.33,0,0,0,232,97Z"/><path class="cls-1" d="M260.92,105.25V94.61a5.19,5.19,0,0,0-1-3.6,4.2,4.2,0,0,0-3.23-1.12,5.59,5.59,0,0,0-4.31,1.49Q251,92.86,251,96.2v9.06h-1.49V88.84h1.27l.29,2.25h.09q1.6-2.57,5.69-2.57,5.59,0,5.59,6v10.73Z"/></svg>