<svg xmlns="http://www.w3.org/2000/svg" xmlns:xlink="http://www.w3.org/1999/xlink" viewBox="0 0 1626.71 553"><defs><style>.cls-1{fill:url(#linear-gradient);}.cls-2{fill:#fff;opacity:0.08;}</style><linearGradient id="linear-gradient" y1="667.51" x2="1623.33" y2="667.51" gradientTransform="matrix(1, 0, 0, -1, 0, 944)" gradientUnits="userSpaceOnUse"><stop offset="0" stop-color="#0071c7"/><stop offset="1" stop-color="#35b89f"/></linearGradient></defs><title>conjur-hero-bg2</title><g id="bg"><rect class="cls-1" width="1626.43" height="552.97"/></g><g id="dots_2_copy" data-name="dots 2 copy"><path class="cls-2" d="M1599.06,455.15l28.05-38.35-.81-.59-28.05,38.35a4.76,4.76,0,0,0-4.93,0l-38.22-52.31h2.77v-11.9l.46.21,36.17-80.41a4.82,4.82,0,0,0,6.39-4.13H1627v-1h-26.13a4.84,4.84,0,0,0-7.07-3.85l-53.23-82.34a4.86,4.86,0,0,0,1.8-3.31l84.32,0v-1l-84.32,0a4.87,4.87,0,0,0-1.94-3.43l53.29-89.88a4.91,4.91,0,1,0-.41-8.66l-38.22-52.31h2.77V48.32l.29.41L1626.71.46V0h-1.08l-67.76,47.7V44.79h-15.43V52l-112.31,1.78V49.39h-1.45v-2a5.09,5.09,0,0,0-4.59-5L1429.19,0h-1l-5.08,42.26.5.06h-2.34a5.11,5.11,0,0,0-5.09,5.09v2h-1.45v4.69L1303.85,75.65a4.87,4.87,0,0,0-4.17-3.43V0h-1V72.22a4.88,4.88,0,0,0-4.1,3.2L1158.77,41.73a4.88,4.88,0,0,0-4.77-4.3V0h-1V37.51a4.9,4.9,0,0,0-3.55,2.83L981.63,32.93V25.62h-7.22V0h-1V25.62h-7.22V33.3l-96.59,46a4.88,4.88,0,0,0-4.17-2.36h-.14L855.19,0h-1l10.11,77A4.89,4.89,0,0,0,861,79.73L746.28,39.38a4.83,4.83,0,0,0-4.08-6L743.39,0h-1l-1.2,33.34a4.88,4.88,0,0,0-4.57,4.78l-168,14.27a4.87,4.87,0,0,0-6.89-3.52L532.34,0h-1.17l29.67,49.42a4.87,4.87,0,0,0-1.9,3.21L452,42.64l0,.5V35.42h-8.1L424.53,0h-1.14l19.33,35.42h-6.2V45.65L308.95,70.47V66.75H307.5v-2a5.11,5.11,0,0,0-5.09-5.09h-.71V0h-1V59.68h-.63A5.11,5.11,0,0,0,295,64.77v2h-1.45v9.55l-88.39,47.87a4.82,4.82,0,0,0-4.93-2.05l-24.52-84a4.9,4.9,0,0,0,3.06-4.54,4.85,4.85,0,0,0-.61-2.32L224,0h-1.85L177.56,30.4a4.88,4.88,0,0,0-8.64,3.14l0-.5L44.19,42l0,.5a4.88,4.88,0,0,0-7.83-3.92L.88,0H0V.54L35.67,39.31a4.88,4.88,0,0,0,6.52,7.2l53,59.42H89.53v7.22H0v1H89.53v7.22h6.08l-43.53,66.1a4.85,4.85,0,0,0-2.25-.57,4.9,4.9,0,1,0,.75,9.73L76.09,294H69v7.72l-.15-.48L0,322.83v1l69-21.62v7.19h6.9L41,380a4.9,4.9,0,1,0,1,8.69L89.53,448v8.27l-89.8-1.08v1l89.8,1.08v6.14h.56l-38.25,66a4.89,4.89,0,1,0-2.51,9.32v14.27h1V538.68a4.87,4.87,0,0,0,2.37-8.81l38.55-66.47H97l47,89.56h1.13l-47-89.56H105v-6.07l91.22,11.53s0,.07,0,.11a4.85,4.85,0,0,0,6.08,4.74l77.15,73.76a4.79,4.79,0,0,0-.35,5.48h8.41a4.82,4.82,0,0,0,.3-4.42l83.31-46.36a4.89,4.89,0,0,0,8.06,0l93.63,50.81h2.1l-95.25-51.69a4.79,4.79,0,0,0,.29-2.8l115.25-40.34a4.87,4.87,0,0,0,7,2.05l73.16,92.79h1.27L503,459.55a4.88,4.88,0,0,0,1.41-2.71l127,8v7.4h6.63l-32.28,80.76h1.08l32.28-80.76h7.73V471l70.07,82h1.32l-71.39-83.5V459.38l91.23-75.62a4.82,4.82,0,0,0,4.53,1.27l25.87,75.9h-6.94v15.43h7l-37.8,76.58h1.12l37.8-76.58H777v-1.69l79.14,78.27h1.42l-80.21-79.33L777,474v-13h-7.44l-26-76.23a4.9,4.9,0,0,0,2.38-2.36L860.67,422.7a4.83,4.83,0,0,0,4.06,6l-5,124.27h1l5-124.23a4.86,4.86,0,0,0,3.4-1.69l91,63.21a4.75,4.75,0,0,0-.16,4.42l-97.62,58.29h2l96.19-57.43a4.84,4.84,0,0,0,5.73,1.63l29.14,55.8h1.13l-29.38-56.26a4.88,4.88,0,0,0,2.16-3.6l112-.23a4.86,4.86,0,0,0,8.14,3.11l63.62,57h1.5l-64.44-57.73a4.84,4.84,0,0,0-1-6.72l62.59-99.77a4.85,4.85,0,0,0,2.07.51l13.67,163.71h1l-13.67-163.79a4.87,4.87,0,0,0,1.86-.76l99.58,118a4.82,4.82,0,0,0-.85,5.58l-64.56,41h1.86L1256,512.8a4.87,4.87,0,0,0,8.65-3.88l112.71-32.16a4.89,4.89,0,0,0,4.86,4.49h.14l7.25,71.71h1l-7.26-71.84a4.89,4.89,0,0,0,.85-9.24l31.12-65h12.23l42.59,70.49a4.84,4.84,0,0,0-.73,7.12l-63.61,68.48h1.36l63-67.8a4.85,4.85,0,0,0,5.72.13l57.59,67.66h1.31l-58.15-68.32a4.88,4.88,0,0,0,1.37-3.38c0-.13,0-.25,0-.38l113.2-20.73a4.89,4.89,0,0,0,1.78,2.56l-53.5,90.25h1.16l53.2-89.73a4.89,4.89,0,0,0,5.32-8.07ZM775,462.93v11.43H763.55V462.93Zm780.89-62.69h-2.23l0,0,0,0h-9.16V388.81h11.43ZM1593,301.69a4.86,4.86,0,0,0,.61,8l-35.71,79.4v-2.31h-8l-48.33-72.21h.56V299.17h-1.45v-2a5,5,0,0,0-.63-2.4l35.88-75.19a4.67,4.67,0,0,0,3.86-.25Zm-101.52,3.7a2.92,2.92,0,1,1,4.11,2.66v2a1.19,1.19,0,1,1-2.38,0v-2A2.92,2.92,0,0,1,1491.46,305.39Zm-1.25-6.23v-2a3,3,0,0,1,3-3h2.34a3,3,0,0,1,3,3v2Zm5.34-7.07h-2.34a5.11,5.11,0,0,0-5.09,5.09v2h-1.45l.3-.4-91.12-69.4a4.86,4.86,0,0,0,.72-2.44l136.16-11a4.89,4.89,0,0,0,2.27,3.28l-35.64,74.67A5.06,5.06,0,0,0,1495.55,292.09Zm-238.66-4.89,3.33-114.59a4.87,4.87,0,0,0,3.8-2.42l123,55.1a4.68,4.68,0,0,0,.09,3.36l-124.53,65.7V287.2ZM1166.23,224a2.92,2.92,0,1,1,4.11,2.66v2a1.19,1.19,0,0,1-2.38,0v-2A2.92,2.92,0,0,1,1166.23,224Zm-1.25-6.23v-2a3,3,0,0,1,3-3h2.34a3,3,0,0,1,3,3v2Zm11.88,15.43v-1.76l70.3,56.82v7.42l-150.65,3.56a4.84,4.84,0,0,0-.53-1.68l65.66-64.36Zm0-3V221L1256,170.77a4.87,4.87,0,0,0,3.26,1.82l-3.33,114.6h-8.4Zm72.3,59.08h11.43v11.43h-11.43Zm15.44-122.3,112.71-32.16a4.89,4.89,0,0,0,4.86,4.49h.14l8.37,82.81a4.89,4.89,0,0,0-3.24,2.36l-123-55.1a4.43,4.43,0,0,0,.18-2.38Zm123,62.64a4.91,4.91,0,0,0,1.68,1.53l-32,73.28a4.81,4.81,0,0,0-6.23,3.47L1263,295.29Zm2.59,1.93a4.75,4.75,0,0,0,5.05-1.3l91.12,69.4.3-.4v9.33h-126a4.87,4.87,0,0,0-2.45-3.75Zm5.16-7.87,74.75-80.48a4.85,4.85,0,0,0,5.72.13L1534,211.62a4.87,4.87,0,0,0-1.36,3.28l-136.16,11A4.86,4.86,0,0,0,1395.35,223.6Zm144.24-13a4.84,4.84,0,0,0-4.83.4l-58.19-68.36a4.88,4.88,0,0,0,1.37-3.38c0-.13,0-.25,0-.38l113.2-20.72a4.89,4.89,0,0,0,1.78,2.56Zm4.85-163.77h11.43V58.22h-2.23l0,0,0,0h-9.16Zm-114.31,18v-10L1542.44,53v7.21h11.43l38.65,52.9a4.87,4.87,0,0,0-1.63,3.63c0,.13,0,.25,0,.38l-113.2,20.72a4.85,4.85,0,0,0-6.77-3.05l-42.27-70Zm-11.88-17.42a3,3,0,0,1,3-3h2.34a3,3,0,0,1,3,3v2h-8.33Zm1.25,8.21a2.92,2.92,0,1,1,4.11,2.66v2a1.19,1.19,0,0,1-2.38,0v-2A2.92,2.92,0,0,1,1419.49,55.62Zm-4.21,9.21h12.23l42.59,70.49a4.84,4.84,0,0,0-.73,7.12l-74.75,80.48a4.86,4.86,0,0,0-2.93-1l-8.37-82.84a4.89,4.89,0,0,0,.85-9.24Zm-111.2,12.24c0-.15,0-.29,0-.44L1414.69,55.1v8.63l-31.5,65.79a4.84,4.84,0,0,0-3.85.8l-75.86-51A4.85,4.85,0,0,0,1304.08,77.07Zm-4.9,4.9a4.87,4.87,0,0,0,3.75-1.78L1378.58,131a4.86,4.86,0,0,0-1.24,2.67l-113,32.25a4.91,4.91,0,0,0-1.86-2.28l35.24-81.93A4.85,4.85,0,0,0,1299.18,82ZM1158.78,42.76l135.56,33.62a4.66,4.66,0,0,0,2.46,4.95l-35.21,81.86a4.37,4.37,0,0,0-2.51-.28L1157.49,45.67A4.87,4.87,0,0,0,1158.78,42.76Zm-5,4.45,13.65,163.49,1-.08L1154.83,47.13a4.86,4.86,0,0,0,1.91-.8L1258,163.2a4.85,4.85,0,0,0-2.58,6.74l-78.55,49.88v-2.07h-1.45v-2a5.11,5.11,0,0,0-5.09-5.09H1168a5.11,5.11,0,0,0-5.09,5.09v2h-1.45V232l-66,64.71a4.86,4.86,0,0,0-3.42-1.74l-5.14-139.79a4.86,4.86,0,0,0,2.61-1.22l71.64,64.17.33-.37.33-.37-71.63-64.17a4.84,4.84,0,0,0-1-6.72l62.59-99.77A4.85,4.85,0,0,0,1153.83,47.21ZM1007,371.72l-69.46-60.65a4.83,4.83,0,0,0,.18-5.36l68.82-65.52a4.84,4.84,0,0,0,6.05-.82l74.93,57.87a4.84,4.84,0,0,0,.14,5.38l-80.2,69.1Zm5.94,2v11.43h-11.43V373.72ZM773.74,263.32l81.59-47.11a4.81,4.81,0,0,0,4.86,1.95l69.61,87a4.88,4.88,0,0,0-.78,1.23L774.1,266.06a4.46,4.46,0,0,0-.36-2.74Zm-9.18,3.27-136.34,54-.15-.18,95.13-95.55a4.81,4.81,0,0,0,6,.13l35.49,38.66a4.53,4.53,0,0,0-.12,2.94ZM445.72,377.45l30.35-57.72-.44-.23a4.89,4.89,0,0,0,4.82-4.11l138.95,8.33a4.88,4.88,0,0,0,4.26,4.63l-57,63.07a4.87,4.87,0,0,0-7.72,3.24L452,384.67l0,.5v-7.72ZM307.5,408.78v-2a5.11,5.11,0,0,0-5.09-5.09h-.25l55-118.78h8.44L443,377.45h-6.48v10.23L308.95,412.5v-3.72ZM298.31,415a2.92,2.92,0,1,1,4.11,2.66v2a1.19,1.19,0,1,1-2.38,0v-2A2.92,2.92,0,0,1,298.31,415Zm-1.25-6.23v-2a3,3,0,0,1,3-3h2.34a3,3,0,0,1,3,3v2ZM137.56,215.39a2.92,2.92,0,1,1,4.11,2.66v2a1.19,1.19,0,1,1-2.38,0v-2A2.92,2.92,0,0,1,137.56,215.39ZM198.29,131l-50.42,78.19h-1.13v-2a5.11,5.11,0,0,0-5.09-5.09h-1.72L98.72,121.37H105v-7.11l91.23,12.52c0,.06,0,.11,0,.17A4.89,4.89,0,0,0,198.29,131Zm-56.64,73.21a3,3,0,0,1,3,3v2h-8.33v-2a3,3,0,0,1,3-3Zm-1.22,20.41h7.76v-1.06l66.58,77.64a4.87,4.87,0,0,0-1.29,2.77L85.35,301.25Zm73,80.35a4.87,4.87,0,0,0,1.86,3.45L176,371.19a4.81,4.81,0,0,0-5.88,1.22l-91.78-63h6.06v-7.22ZM148.2,222v-5.41l130.23-7.37a4.86,4.86,0,0,0,1.69,3l-59.5,88.06a4.81,4.81,0,0,0-5.1.28Zm139.48-15.65,82.63-50.07a4.89,4.89,0,0,0,8.39,4.37l93.57,50.06a4.8,4.8,0,0,0-.45,4.4l-104.2,52.77v-.37h-1.45v-2a5.11,5.11,0,0,0-5.09-5.09h-2.34a5.11,5.11,0,0,0-5.09,5.09v2h-1.45v1.12l-64.94-57.32a4.81,4.81,0,0,0,.44-4.94ZM636.23,121a2.92,2.92,0,1,1,4.11,2.66v2a1.19,1.19,0,1,1-2.38,0v-2A2.92,2.92,0,0,1,636.23,121ZM635,114.73v-2a3,3,0,0,1,3-3h2.34a3,3,0,0,1,3,3v2Zm11.88,15.43V129l75.87,88.73a4.88,4.88,0,0,0-1.36,3.33L565.85,235.55a4.88,4.88,0,0,0-1.72-2.83l67.56-102.56ZM475.1,319.44l-30.51,58h-.29l-77.4-94.52h.71v-5.19l103.26,35.74a4.84,4.84,0,0,0,4.23,6Zm-3.9-6.91L367.62,276.68V269l104.65-53a4.88,4.88,0,0,0,8.82-1.34l75.13,21a4.67,4.67,0,0,0,.89,3.74l-78.23,71.53a4.86,4.86,0,0,0-7.68,1.58Zm86.59-72.38a4.8,4.8,0,0,0,5.7.57L621,319.86a4.87,4.87,0,0,0-1.56,2.85l-138.95-8.33a4.86,4.86,0,0,0-1-2.7Zm-1.31-5.44-75.23-21c0-.11,0-.21,0-.31a4.9,4.9,0,0,0-8.39-3.45l-93.6-50.07a4.68,4.68,0,0,0,.42-4.06l115.43-39.71a4.84,4.84,0,0,0,6.17,2.52l57.1,113.8A4.9,4.9,0,0,0,556.49,234.71ZM494.68,114a4.87,4.87,0,0,0,.14,1.11L379.29,154.86a4.88,4.88,0,0,0-1.15-1.32L444.3,51.18,496,110.66A4.87,4.87,0,0,0,494.68,114Zm-136,164.42v-2a2.92,2.92,0,1,1,2.38,0v2a1.19,1.19,0,0,1-1.19,1.19,1.17,1.17,0,0,1-1-.51l.22-.47Zm-3-10.94v-2a3,3,0,0,1,3-3h2.34a3,3,0,0,1,3,3v2Zm-3.55,2.45v2.78L222.94,303a4.88,4.88,0,0,0-1.48-2.15L281,212.74a4.8,4.8,0,0,0,5.62-.71Zm-129,34.61a4.79,4.79,0,0,0-.06-.62l129-30.18v9.17h3.89l-55,118.78h-.85l-78.82-93.35A4.87,4.87,0,0,0,223.23,304.55Zm215.3,83.76h0v-8.85H450v11.43H438.53Zm183.31-69L564.3,240.14a4.87,4.87,0,0,0,1.64-3.59L721.46,222a4.85,4.85,0,0,0,1,2.14l-95.13,95.55a4.79,4.79,0,0,0-5.52-.43Zm108.09-95a4.86,4.86,0,0,0-1.05-7.38l40.76-82.59H777v-1.69l78.5,77.64a4.81,4.81,0,0,0-.66,5.06l-81.59,47.11a4.88,4.88,0,0,0-8.08.23Zm33.63-92V120.91H775v11.43Zm97.67,85.51a4.87,4.87,0,0,0,2.5-6.57l96.79-57.79a4.84,4.84,0,0,0,5.73,1.63l40.1,76.79a4.88,4.88,0,0,0-.62,7.68l-68.61,65.32a4.84,4.84,0,0,0-6.6-.49Zm105.9-63.19a4.89,4.89,0,0,0,2.15-3.6l112-.23a4.86,4.86,0,0,0,1.25,2.79l-70.05,78.93a4.86,4.86,0,0,0-5.29-1.1Zm46.07,83.92a4.83,4.83,0,0,0,0-5.23l70.17-79.06a4.86,4.86,0,0,0,2.53.9L1091,295a4.87,4.87,0,0,0-2.87,1.46ZM981.63,33.93l167.49,7.4a4.87,4.87,0,0,0,1.8,4.84l-62.59,99.77a4.78,4.78,0,0,0-5.27.62L975.56,41.05h6.07Zm-13.43-6.32h11.43V39.05H968.19ZM870,80.18l96.17-45.77v6.64h7.93l108.23,106.23a4.84,4.84,0,0,0-1,2.55l-112,.23a4.86,4.86,0,0,0-8.56-2.67l-91-63.21a4.68,4.68,0,0,0,.33-4Zm-4.3,6.51a4.86,4.86,0,0,0,3.4-1.69l91,63.21a4.75,4.75,0,0,0-.16,4.42l-96.78,57.79a4.89,4.89,0,0,0-2.38-1.71ZM745.94,40.32,860.67,80.68a4.83,4.83,0,0,0,4.06,6L859.84,208.5a4.37,4.37,0,0,0-3.65,1.08l-78.85-78-.35.36v-13h-7.44l-26-76.23A4.9,4.9,0,0,0,745.94,40.32Zm-7.86,1.41A4.82,4.82,0,0,0,742.62,43l25.87,75.9h-6.94v15.43h7L728,216.49a4.8,4.8,0,0,0-4.49.55l-76.62-89.62V117.35ZM568.67,53.42l168-14.27a4.87,4.87,0,0,0,.74,1.82l-90.58,75.09v-1.33h-1.45v-2a5.11,5.11,0,0,0-5.09-5.09H638a5.11,5.11,0,0,0-5.09,5.09v2H631.8l-65.34-57.3A4.89,4.89,0,0,0,568.67,53.42ZM560.59,57a4.78,4.78,0,0,0,4.91.88l65.93,57.82v13L563.29,232.17a4.72,4.72,0,0,0-4-.24l-57.1-113.8a4.85,4.85,0,0,0,1.24-7.1ZM452,43.64l106.94,10a4.85,4.85,0,0,0,1,2.67l-57.13,54a4.84,4.84,0,0,0-6-.3L445.35,50.86H452Zm-13.43,2.64h0V37.42H450V48.86H438.53ZM308.95,71.49,436.53,46.67v4.19h6.8L377.31,153a4.8,4.8,0,0,0-5.05.36L308.95,81.2Zm-11.88-6.72a3,3,0,0,1,3-3h2.34a3,3,0,0,1,3,3v2h-8.33ZM298.31,73a2.92,2.92,0,1,1,4.11,2.66v2a1.19,1.19,0,1,1-2.38,0v-2A2.92,2.92,0,0,1,298.31,73Zm-92.33,54a4.88,4.88,0,0,0-.38-1.88l87.91-47.61v4.75h15l63,71.83a4.9,4.9,0,0,0-.9,1.36l-.2-.33-83.25,50.45a4.84,4.84,0,0,0-7-.83L204.88,130A4.86,4.86,0,0,0,206,126.94Zm-4.9,4.9a4.86,4.86,0,0,0,3.1-1.13l75.29,74.66a4.85,4.85,0,0,0-1.08,2.84L148.2,215.58V210.5l51-79A4.89,4.89,0,0,0,201.08,131.84ZM170.7,37.3a4.73,4.73,0,0,0,4,1.07l24.52,84a4.9,4.9,0,0,0-2.91,3.38L105,113.24v-7.31h-4.68ZM42.94,45.84a4.87,4.87,0,0,0,1.29-3.29l0,.5L169,34l0-.49a4.86,4.86,0,0,0,1.08,3L98.85,105.93H96.58Zm48.59,73.53V107.93H103v11.43Zm5.28,2h.8l41.24,80.77a5.09,5.09,0,0,0-4.62,5v2h-1.45v6.59L54.64,192.7A4.78,4.78,0,0,0,52.92,188Zm-45.26,75a4.9,4.9,0,0,0,2.82-2.72l78.41,23.14v7.8h6.44L84.39,300.88V294H77.12ZM71,307.45V296H82.39v11.43Zm-29,73,34.94-70.77,92.67,63.58a4.85,4.85,0,0,0-.62,2.33l0-.5-124.69,9A4.89,4.89,0,0,0,41.93,380.43Zm61,81H91.53V450H103Zm93.35,6.47L105,456.32V448H90.79l-48-59.89a4.88,4.88,0,0,0,1.46-3.49l0,.5,124.69-9,0-.49a4.86,4.86,0,0,0,1.19,3.17L104.6,447.61l.72.69,65.52-68.86a4.86,4.86,0,0,0,3,1,4.92,4.92,0,0,0,1-.1l25.79,83.73A4.88,4.88,0,0,0,196.31,467.86Zm4.77-3.8.48-.15-25.81-83.83a4.88,4.88,0,0,0,1.09-8.37l39.34-62.79a4.73,4.73,0,0,0,4.37,0L299,401.82a5.11,5.11,0,0,0-4,5v2h-1.45v9.55L205.13,466.2A4.9,4.9,0,0,0,201.08,464.06Zm169.11,35.31a4.88,4.88,0,0,0,.4,1.93l-83.31,46.36a4.86,4.86,0,0,0-7.18-.91l-76.8-73.43a4.87,4.87,0,0,0,2.31-6.23l87.91-47.61v4.75h15l63,71.83A4.87,4.87,0,0,0,370.19,499.37Zm4.9-4.9a4.87,4.87,0,0,0-2.83.91l-63.31-72.16v-9.71l127.58-24.82v4.19h6.8L377.31,495A4.85,4.85,0,0,0,375.09,494.46ZM494.68,456a4.87,4.87,0,0,0,.15,1.14l-115.2,40.33a4.89,4.89,0,0,0-1.47-1.93L444.3,393.21,496,452.69A4.87,4.87,0,0,0,494.68,456Zm8.09-3.7a4.84,4.84,0,0,0-6-.3l-51.42-59.14H452v-7.21l106.94,10a4.85,4.85,0,0,0,1,2.67Zm128.66,11.45-127-7.95a4.85,4.85,0,0,0-1-2.78l57.13-54a4.78,4.78,0,0,0,4.91.88l65.93,57.82Zm8.91,1.86v2a1.19,1.19,0,0,1-2.38,0v-2a2.92,2.92,0,1,1,2.38,0Zm3-8.89H635v-2a3,3,0,0,1,3-3h2.34a3,3,0,0,1,3,3Zm3.55,1.33v-1.33h-1.45v-2a5.11,5.11,0,0,0-5.09-5.09H638a5.11,5.11,0,0,0-5.09,5.09v2H631.8l-65.34-57.3a4.89,4.89,0,0,0,2.2-4l168-14.27a4.87,4.87,0,0,0,.74,1.82Zm95.34-82.65a4.76,4.76,0,0,0-5.57,4.75l-168,14.27a4.87,4.87,0,0,0-1.18-2.36l57.26-63.35-.37-.34a4.88,4.88,0,0,0,4.45-6.94l136.18-53.94a4.89,4.89,0,0,0,3.3,2.58Zm1,.24,26-105.45h.06a4.89,4.89,0,0,0,4.58-3.2l154.88,40.28a4.53,4.53,0,0,0,.09,2.19L746.15,378.71A4.88,4.88,0,0,0,743.17,375.66Zm122.25,43.28a4.89,4.89,0,0,0-4.42,2.82L746.28,381.4a3.77,3.77,0,0,0,.09-1.71l182.8-69.26a4.91,4.91,0,0,0,1.47,1.75L867.46,419.4A4.86,4.86,0,0,0,865.43,418.94Zm2.9,1L931.5,312.7a4.83,4.83,0,0,0,5.38-.87l68.6,59.9h-6v7.59L869.9,421.85A4.9,4.9,0,0,0,868.32,419.91Zm213,71.95-112,.23a4.86,4.86,0,0,0-8.56-2.67l-91-63.21a4.85,4.85,0,0,0,.63-2.36,4.91,4.91,0,0,0-.12-1l129.29-42.43v6.79h8.21l75.16,101.58A4.86,4.86,0,0,0,1081.32,491.86Zm7-3.89a4.75,4.75,0,0,0-4.65.18l-74.73-101h6v-7.58l134.17,3.85a4.81,4.81,0,0,0,1.81,4.76Zm61.07-105.53-134.47-3.86v-6.85h-6l79.33-68.35a4.86,4.86,0,0,0,7.25-.6L1151,380.43A4.91,4.91,0,0,0,1149.41,382.44Zm7.22-2.18a4.83,4.83,0,0,0-4.76-.34l-55.73-78.07a4.88,4.88,0,0,0,.41-1.64l150.63-3.56v6h6Zm98.15-77.62h.34L1297,414.72a4.89,4.89,0,0,0-2.43,2.72l-135.81-33.69a4.88,4.88,0,0,0-1.35-2.85Zm5,202.24a4.88,4.88,0,0,0-2.76.86l-99.58-118a4.87,4.87,0,0,0,1.34-3l135.56,33.62a4.65,4.65,0,0,0,2.44,4.94l-35.52,81.77A4.85,4.85,0,0,0,1259.79,504.87Zm117.55-29.16-113,32.25a4.9,4.9,0,0,0-2.15-2.44l35.52-81.77a4.74,4.74,0,0,0,5.23-1.53L1378.58,473A4.87,4.87,0,0,0,1377.34,475.71Zm37.36-69.95-31.5,65.79a4.84,4.84,0,0,0-3.85.8l-75.86-51a4.85,4.85,0,0,0,.59-2.29c0-.15,0-.29,0-.44l110.66-21.53Zm1.45-16.33v2h-1.45v4.69l-110.85,21.57a4.8,4.8,0,0,0-5.9-3.31l-41.76-111.73h6.42v-6.39l88.3,12.57c0,.06,0,.12,0,.19a4.89,4.89,0,0,0,7.73,4l62.46,71.37A5.1,5.1,0,0,0,1416.15,389.44Zm7.45,10.87v2a1.19,1.19,0,0,1-2.38,0v-2a2.92,2.92,0,1,1,2.38,0Zm3-8.89h-8.33v-2a3,3,0,0,1,3-3h2.34a3,3,0,0,1,3,3Zm-3-7.07h-1.19l-63-72a4.87,4.87,0,0,0,1.27-2.83h126v5.1h13.67l48.33,72.21h-6.22V394l-112.31,1.78v-4.39h-1.45v-2A5.11,5.11,0,0,0,1423.58,384.35Zm167.3,74.43c0,.13,0,.25,0,.38l-113.2,20.72a4.85,4.85,0,0,0-6.77-3.05l-42.27-70h1.45v-10L1542.44,395v7.21h11.43l38.65,52.9A4.87,4.87,0,0,0,1590.89,458.77Z"/></g></svg>