<svg id="Layer_1" data-name="Layer 1" xmlns="http://www.w3.org/2000/svg" xmlns:xlink="http://www.w3.org/1999/xlink" viewBox="0 0 530 211.13"><defs><style>.cls-1{fill:url(#linear-gradient);}.cls-2{isolation:isolate;}.cls-3{fill:#374850;}.cls-4{fill:#b9b9ba;}.cls-5{fill:url(#linear-gradient-2);}.cls-6{fill:#fff;}.cls-7{fill:#24b7a0;}.cls-8{fill:#26b9a1;}</style><linearGradient id="linear-gradient" x1="349.6" y1="101.31" x2="526.24" y2="101.31" gradientUnits="userSpaceOnUse"><stop offset="0" stop-color="#b9b9ba"/><stop offset="0.01" stop-color="#bbbbbc"/><stop offset="0.16" stop-color="#cecece"/><stop offset="0.34" stop-color="#dbdbda"/><stop offset="0.56" stop-color="#e3e3e2"/><stop offset="1" stop-color="#e5e5e4"/></linearGradient><linearGradient id="linear-gradient-2" x1="181.09" y1="101.31" x2="4.45" y2="101.31" xlink:href="#linear-gradient"/></defs><title>conjur_docs_graphic</title><circle class="cls-1" cx="437.92" cy="101.31" r="88.32"/><g class="cls-2"><path class="cls-3" d="M391.72,129.32a4.38,4.38,0,0,1-1.14,3.27,4.59,4.59,0,0,1-3.34,1.11h-2.06v-8.6h2.32a3.77,3.77,0,0,1,4.21,4.22Zm-.65,0a3.3,3.3,0,0,0-3.7-3.71h-1.58v7.54h1.42Q391.07,133.18,391.07,129.34Z"/><path class="cls-3" d="M396.14,133.82A2.79,2.79,0,0,1,394,133a3.45,3.45,0,0,1-.78-2.41,3.75,3.75,0,0,1,.75-2.45,2.48,2.48,0,0,1,2-.92,2.19,2.19,0,0,1,1.78.79,3.26,3.26,0,0,1,.65,2.14v.47H393.8a3,3,0,0,0,.61,2,2.16,2.16,0,0,0,1.73.69,5.33,5.33,0,0,0,1-.08,5.85,5.85,0,0,0,1.05-.33v.53a4.64,4.64,0,0,1-1,.32A5.53,5.53,0,0,1,396.14,133.82ZM396,127.7a1.92,1.92,0,0,0-1.48.61,2.87,2.87,0,0,0-.65,1.76h4a2.79,2.79,0,0,0-.48-1.74A1.59,1.59,0,0,0,396,127.7Z"/><path class="cls-3" d="M402.91,133.82a2.34,2.34,0,0,1-2.15-1.11h0l0,.49c0,.29,0,.61,0,1v2.44h-.58v-9.29h.49l.11.91h0a2.31,2.31,0,0,1,2.11-1,2.38,2.38,0,0,1,2,.85,3.89,3.89,0,0,1,.68,2.47,3.75,3.75,0,0,1-.71,2.45A2.39,2.39,0,0,1,402.91,133.82Zm0-.52a1.78,1.78,0,0,0,1.52-.73,3.38,3.38,0,0,0,.54-2q0-2.82-2-2.82a2,2,0,0,0-1.64.62,3.08,3.08,0,0,0-.52,2v.19a3.52,3.52,0,0,0,.5,2.14A2,2,0,0,0,402.89,133.3Z"/><path class="cls-3" d="M407.92,133.7h-.58v-9.16h.58Z"/><path class="cls-3" d="M415.36,130.5a3.63,3.63,0,0,1-.76,2.45,2.62,2.62,0,0,1-2.1.88,2.71,2.71,0,0,1-1.48-.41,2.6,2.6,0,0,1-1-1.17,4.23,4.23,0,0,1-.34-1.75,3.6,3.6,0,0,1,.76-2.44,2.61,2.61,0,0,1,2.08-.87,2.56,2.56,0,0,1,2.07.89A3.64,3.64,0,0,1,415.36,130.5Zm-5,0a3.26,3.26,0,0,0,.58,2.06,2.19,2.19,0,0,0,3.28,0,3.26,3.26,0,0,0,.58-2.06,3.2,3.2,0,0,0-.59-2.05,2,2,0,0,0-1.65-.73,2,2,0,0,0-1.63.73A3.25,3.25,0,0,0,410.31,130.5Z"/><path class="cls-3" d="M416.06,127.31h.6L418,130.9q.62,1.65.78,2.23h0q.25-.76.81-2.27l1.35-3.55h.6l-2.87,7.43a5.79,5.79,0,0,1-.58,1.22,1.55,1.55,0,0,1-.55.48,1.68,1.68,0,0,1-.76.16,2.63,2.63,0,0,1-.75-.12V136a2.75,2.75,0,0,0,.74.09,1,1,0,0,0,.53-.14,1.32,1.32,0,0,0,.41-.44,5.84,5.84,0,0,0,.43-.94l.31-.84Z"/><path class="cls-3" d="M427.48,133.3a4.36,4.36,0,0,0,1-.09v.47a3.09,3.09,0,0,1-1,.14,1.59,1.59,0,0,1-1.25-.45,2.1,2.1,0,0,1-.4-1.42v-4.13h-.95v-.34l.95-.26.29-1.45h.3v1.55h1.88v.51h-1.88v4a1.84,1.84,0,0,0,.26,1.09A.94.94,0,0,0,427.48,133.3Z"/><path class="cls-3" d="M435.12,130.5a3.63,3.63,0,0,1-.76,2.45,2.62,2.62,0,0,1-2.1.88,2.71,2.71,0,0,1-1.48-.41,2.6,2.6,0,0,1-1-1.17,4.23,4.23,0,0,1-.34-1.75,3.6,3.6,0,0,1,.76-2.44,2.61,2.61,0,0,1,2.08-.87,2.56,2.56,0,0,1,2.07.89A3.64,3.64,0,0,1,435.12,130.5Zm-5,0a3.26,3.26,0,0,0,.58,2.06,2.19,2.19,0,0,0,3.28,0,3.26,3.26,0,0,0,.58-2.06,3.2,3.2,0,0,0-.59-2.05,2,2,0,0,0-1.65-.73,2,2,0,0,0-1.63.73A3.25,3.25,0,0,0,430.07,130.5Z"/><path class="cls-3" d="M443.91,133.7l-.15-1h0a3.05,3.05,0,0,1-1,.87,2.66,2.66,0,0,1-1.2.26,2.08,2.08,0,0,1-1.46-.48,1.72,1.72,0,0,1-.52-1.34,1.65,1.65,0,0,1,.78-1.45,4.23,4.23,0,0,1,2.26-.55l1.22,0v-.42a2.18,2.18,0,0,0-.37-1.38,1.44,1.44,0,0,0-1.19-.46,4,4,0,0,0-1.84.49l-.22-.51a4.87,4.87,0,0,1,2.08-.49,2.08,2.08,0,0,1,1.57.55,2.41,2.41,0,0,1,.52,1.71v4.25Zm-2.35-.41a2,2,0,0,0,2.21-2.21v-.63l-1.12,0a4.21,4.21,0,0,0-1.92.42,1.21,1.21,0,0,0-.57,1.11,1.19,1.19,0,0,0,.37.93A1.49,1.49,0,0,0,441.55,133.29Z"/><path class="cls-3" d="M450.87,133.7v-4.15a2,2,0,0,0-.41-1.4,1.64,1.64,0,0,0-1.26-.44,2.18,2.18,0,0,0-1.68.58,2.73,2.73,0,0,0-.53,1.88v3.53h-.58v-6.4h.49l.11.88h0a2.41,2.41,0,0,1,2.22-1q2.18,0,2.18,2.34v4.18Z"/><path class="cls-3" d="M452.45,127.31h.6l1.35,3.59q.62,1.65.78,2.23h0q.25-.76.81-2.27l1.35-3.55h.6l-2.87,7.43a5.81,5.81,0,0,1-.58,1.22,1.57,1.57,0,0,1-.55.48,1.68,1.68,0,0,1-.76.16,2.62,2.62,0,0,1-.75-.12V136a2.74,2.74,0,0,0,.73.09,1,1,0,0,0,.53-.14,1.32,1.32,0,0,0,.42-.44,5.76,5.76,0,0,0,.43-.94l.32-.84Z"/><path class="cls-3" d="M464.73,133.82a2.74,2.74,0,0,1-2.15-.87,3.48,3.48,0,0,1-.78-2.41,3.54,3.54,0,0,1,.81-2.47,2.83,2.83,0,0,1,2.21-.89,4.43,4.43,0,0,1,1.59.29l-.16.52a4.67,4.67,0,0,0-1.44-.28,2.19,2.19,0,0,0-1.78.73,3.19,3.19,0,0,0-.61,2.09,3.09,3.09,0,0,0,.61,2,2.07,2.07,0,0,0,1.69.73,4.16,4.16,0,0,0,1.62-.31v.54A3.66,3.66,0,0,1,464.73,133.82Z"/><path class="cls-3" d="M468.49,133.7h-.58v-9.16h.58Z"/><path class="cls-3" d="M475.92,130.5a3.63,3.63,0,0,1-.76,2.45,2.62,2.62,0,0,1-2.1.88,2.71,2.71,0,0,1-1.48-.41,2.6,2.6,0,0,1-1-1.17,4.25,4.25,0,0,1-.34-1.75,3.6,3.6,0,0,1,.76-2.44,2.61,2.61,0,0,1,2.08-.87,2.56,2.56,0,0,1,2.07.89A3.64,3.64,0,0,1,475.92,130.5Zm-5,0a3.26,3.26,0,0,0,.58,2.06,2.19,2.19,0,0,0,3.28,0,3.26,3.26,0,0,0,.58-2.06,3.21,3.21,0,0,0-.59-2.05,2,2,0,0,0-1.64-.73,2,2,0,0,0-1.63.73A3.25,3.25,0,0,0,470.87,130.5Z"/><path class="cls-3" d="M478.2,127.31v4.14a2,2,0,0,0,.41,1.4,1.64,1.64,0,0,0,1.26.44,2.2,2.2,0,0,0,1.68-.58,2.7,2.7,0,0,0,.54-1.88v-3.53h.58v6.4h-.49l-.11-.88h0a2.41,2.41,0,0,1-2.22,1q-2.18,0-2.18-2.34v-4.18Z"/><path class="cls-3" d="M487.14,127.18a2.66,2.66,0,0,1,1.2.25,2.4,2.4,0,0,1,.91.87h0q0-.74,0-1.45v-2.3h.58v9.16h-.38l-.15-1h0a2.37,2.37,0,0,1-2.1,1.09,2.51,2.51,0,0,1-2-.82,3.61,3.61,0,0,1-.7-2.4,4,4,0,0,1,.69-2.54A2.42,2.42,0,0,1,487.14,127.18Zm0,.53a1.81,1.81,0,0,0-1.57.74,3.65,3.65,0,0,0-.53,2.14q0,2.72,2.11,2.72a1.92,1.92,0,0,0,1.59-.63,3.34,3.34,0,0,0,.51-2.08v-.1a3.56,3.56,0,0,0-.5-2.13A1.9,1.9,0,0,0,487.14,127.71Z"/><path class="cls-3" d="M405.3,145a3.63,3.63,0,0,1-.76,2.45,2.62,2.62,0,0,1-2.1.88,2.71,2.71,0,0,1-1.48-.41,2.6,2.6,0,0,1-1-1.17,4.23,4.23,0,0,1-.34-1.75,3.6,3.6,0,0,1,.76-2.44,2.61,2.61,0,0,1,2.08-.87,2.56,2.56,0,0,1,2.07.89A3.63,3.63,0,0,1,405.3,145Zm-5,0a3.26,3.26,0,0,0,.58,2.06,2.19,2.19,0,0,0,3.28,0,3.26,3.26,0,0,0,.58-2.06,3.2,3.2,0,0,0-.59-2.05,2,2,0,0,0-1.64-.73,2,2,0,0,0-1.63.73A3.25,3.25,0,0,0,400.25,145Z"/><path class="cls-3" d="M409.59,141.65a5,5,0,0,1,.87.08l-.11.56a3.42,3.42,0,0,0-.83-.1,1.61,1.61,0,0,0-1.34.69,2.83,2.83,0,0,0-.52,1.75v3.53h-.58v-6.4h.49l.06,1.15h0a2.72,2.72,0,0,1,.84-1A2,2,0,0,1,409.59,141.65Z"/><path class="cls-3" d="M420.18,145a3.63,3.63,0,0,1-.76,2.45,2.62,2.62,0,0,1-2.1.88,2.71,2.71,0,0,1-1.48-.41,2.59,2.59,0,0,1-1-1.17,4.25,4.25,0,0,1-.34-1.75,3.6,3.6,0,0,1,.76-2.44,2.61,2.61,0,0,1,2.08-.87,2.57,2.57,0,0,1,2.07.89A3.64,3.64,0,0,1,420.18,145Zm-5,0a3.26,3.26,0,0,0,.58,2.06,2.19,2.19,0,0,0,3.28,0,3.26,3.26,0,0,0,.58-2.06,3.21,3.21,0,0,0-.59-2.05,2,2,0,0,0-1.65-.73,2,2,0,0,0-1.63.73A3.26,3.26,0,0,0,415.13,145Z"/><path class="cls-3" d="M426.41,148.17V144a2,2,0,0,0-.41-1.4,1.64,1.64,0,0,0-1.26-.44,2.18,2.18,0,0,0-1.68.58,2.73,2.73,0,0,0-.53,1.88v3.53H422v-6.4h.49l.11.88h0a2.4,2.4,0,0,1,2.22-1q2.18,0,2.18,2.34v4.18Z"/><path class="cls-3" d="M428.53,145.15v-.48h2.8v.48Z"/><path class="cls-3" d="M435.68,148.29a2.34,2.34,0,0,1-2.15-1.11h0l0,.49q0,.44,0,1v2.44h-.58v-9.29h.49l.11.91h0a2.31,2.31,0,0,1,2.11-1,2.38,2.38,0,0,1,2,.85,3.89,3.89,0,0,1,.68,2.47,3.75,3.75,0,0,1-.71,2.45A2.4,2.4,0,0,1,435.68,148.29Zm0-.52a1.78,1.78,0,0,0,1.52-.73,3.38,3.38,0,0,0,.54-2q0-2.82-2-2.82a2,2,0,0,0-1.64.62,3.07,3.07,0,0,0-.52,2V145a3.52,3.52,0,0,0,.5,2.14A2,2,0,0,0,435.66,147.77Z"/><path class="cls-3" d="M442.63,141.65a5,5,0,0,1,.87.08l-.11.56a3.42,3.42,0,0,0-.83-.1,1.61,1.61,0,0,0-1.34.69,2.83,2.83,0,0,0-.52,1.75v3.53h-.58v-6.4h.49l.06,1.15h0a2.7,2.7,0,0,1,.84-1A2,2,0,0,1,442.63,141.65Z"/><path class="cls-3" d="M447.39,148.29a2.79,2.79,0,0,1-2.17-.86,3.45,3.45,0,0,1-.78-2.41,3.75,3.75,0,0,1,.75-2.45,2.49,2.49,0,0,1,2-.92,2.19,2.19,0,0,1,1.78.79,3.26,3.26,0,0,1,.65,2.14V145H445a3,3,0,0,0,.61,2,2.17,2.17,0,0,0,1.73.69,5.34,5.34,0,0,0,1-.08,5.87,5.87,0,0,0,1.05-.33v.53a4.63,4.63,0,0,1-1,.32A5.52,5.52,0,0,1,447.39,148.29Zm-.17-6.12a1.92,1.92,0,0,0-1.48.61,2.87,2.87,0,0,0-.65,1.76h4a2.78,2.78,0,0,0-.48-1.74A1.59,1.59,0,0,0,447.22,142.16Z"/><path class="cls-3" d="M459.41,148.17V144a2.09,2.09,0,0,0-.36-1.37,1.39,1.39,0,0,0-1.12-.43,1.83,1.83,0,0,0-1.45.54,2.55,2.55,0,0,0-.47,1.7v3.75h-.59V143.8q0-1.62-1.48-1.62a1.75,1.75,0,0,0-1.47.59,3.05,3.05,0,0,0-.46,1.87v3.53h-.58v-6.4h.48l.12.88h0a1.83,1.83,0,0,1,.75-.74,2.24,2.24,0,0,1,1.08-.26,1.84,1.84,0,0,1,1.94,1.14h0a2.18,2.18,0,0,1,.84-.84,2.41,2.41,0,0,1,1.2-.29,2.05,2.05,0,0,1,1.57.56A2.54,2.54,0,0,1,460,144v4.18Z"/><path class="cls-3" d="M462,140q0-.56.37-.56a.33.33,0,0,1,.29.15.72.72,0,0,1,.1.42.74.74,0,0,1-.1.42.32.32,0,0,1-.29.15Q462,140.56,462,140Zm.67,8.17h-.58v-6.4h.58Z"/><path class="cls-3" d="M468.75,146.5a1.52,1.52,0,0,1-.65,1.32,3.18,3.18,0,0,1-1.85.46,4.42,4.42,0,0,1-2-.39v-.63a4.49,4.49,0,0,0,2,.48,2.69,2.69,0,0,0,1.44-.31,1,1,0,0,0,.49-.84,1,1,0,0,0-.39-.81,4.31,4.31,0,0,0-1.29-.65,7.39,7.39,0,0,1-1.35-.6,1.88,1.88,0,0,1-.59-.56,1.42,1.42,0,0,1-.2-.77,1.31,1.31,0,0,1,.6-1.14,2.93,2.93,0,0,1,1.69-.42,5,5,0,0,1,2,.39l-.22.53a4.61,4.61,0,0,0-1.75-.39,2.53,2.53,0,0,0-1.24.26.79.79,0,0,0-.46.72,1,1,0,0,0,.36.8,5,5,0,0,0,1.39.67,6.86,6.86,0,0,1,1.26.56,1.83,1.83,0,0,1,.59.57A1.38,1.38,0,0,1,468.75,146.5Z"/><path class="cls-3" d="M473,148.29a2.79,2.79,0,0,1-2.17-.86A3.45,3.45,0,0,1,470,145a3.75,3.75,0,0,1,.75-2.45,2.49,2.49,0,0,1,2-.92,2.19,2.19,0,0,1,1.78.79,3.26,3.26,0,0,1,.65,2.14V145h-4.61a3,3,0,0,0,.62,2,2.16,2.16,0,0,0,1.73.69,5.32,5.32,0,0,0,1-.08,5.83,5.83,0,0,0,1.05-.33v.53a4.65,4.65,0,0,1-1,.32A5.53,5.53,0,0,1,473,148.29Zm-.17-6.12a1.92,1.92,0,0,0-1.48.61,2.87,2.87,0,0,0-.65,1.76h4a2.79,2.79,0,0,0-.48-1.74A1.59,1.59,0,0,0,472.81,142.16Z"/><path class="cls-3" d="M425,161a1.52,1.52,0,0,1-.65,1.32,3.18,3.18,0,0,1-1.85.46,4.42,4.42,0,0,1-2-.39v-.63a4.49,4.49,0,0,0,2,.48,2.69,2.69,0,0,0,1.44-.31,1,1,0,0,0,.49-.84,1,1,0,0,0-.39-.81,4.32,4.32,0,0,0-1.29-.65,7.38,7.38,0,0,1-1.35-.6,1.87,1.87,0,0,1-.59-.56,1.42,1.42,0,0,1-.2-.77,1.31,1.31,0,0,1,.6-1.14,2.93,2.93,0,0,1,1.69-.42,5,5,0,0,1,2,.39l-.22.53a4.61,4.61,0,0,0-1.75-.39,2.53,2.53,0,0,0-1.24.26.79.79,0,0,0-.46.72,1,1,0,0,0,.36.8,5,5,0,0,0,1.39.67,6.84,6.84,0,0,1,1.26.56,1.83,1.83,0,0,1,.59.57A1.39,1.39,0,0,1,425,161Z"/><path class="cls-3" d="M425.59,156.23h.6l1.35,3.59q.62,1.65.78,2.23h0q.25-.76.81-2.27l1.35-3.55h.6l-2.87,7.43a5.79,5.79,0,0,1-.58,1.22,1.55,1.55,0,0,1-.55.48,1.68,1.68,0,0,1-.76.16,2.63,2.63,0,0,1-.75-.12v-.51a2.75,2.75,0,0,0,.74.09,1,1,0,0,0,.53-.14,1.32,1.32,0,0,0,.41-.44,5.84,5.84,0,0,0,.43-.94l.31-.84Z"/><path class="cls-3" d="M436.16,161a1.52,1.52,0,0,1-.65,1.32,3.18,3.18,0,0,1-1.85.46,4.42,4.42,0,0,1-2-.39v-.63a4.49,4.49,0,0,0,2,.48,2.69,2.69,0,0,0,1.44-.31,1,1,0,0,0,.49-.84,1,1,0,0,0-.39-.81,4.32,4.32,0,0,0-1.29-.65,7.38,7.38,0,0,1-1.35-.6,1.87,1.87,0,0,1-.59-.56,1.42,1.42,0,0,1-.2-.77,1.31,1.31,0,0,1,.6-1.14,2.93,2.93,0,0,1,1.69-.42,5,5,0,0,1,2,.39l-.22.53a4.61,4.61,0,0,0-1.75-.39,2.53,2.53,0,0,0-1.24.26.79.79,0,0,0-.46.72,1,1,0,0,0,.36.8,5,5,0,0,0,1.39.67,6.84,6.84,0,0,1,1.26.56,1.83,1.83,0,0,1,.59.57A1.39,1.39,0,0,1,436.16,161Z"/><path class="cls-3" d="M439.5,162.23a4.36,4.36,0,0,0,1-.09v.47a3.09,3.09,0,0,1-1,.14,1.59,1.59,0,0,1-1.25-.45,2.1,2.1,0,0,1-.4-1.42v-4.13h-.95v-.34l.95-.26.29-1.45h.3v1.55h1.88v.51h-1.88v4a1.84,1.84,0,0,0,.26,1.09A.94.94,0,0,0,439.5,162.23Z"/><path class="cls-3" d="M444.43,162.75a2.79,2.79,0,0,1-2.17-.86,3.45,3.45,0,0,1-.78-2.41,3.75,3.75,0,0,1,.75-2.45,2.48,2.48,0,0,1,2-.92,2.19,2.19,0,0,1,1.78.79,3.26,3.26,0,0,1,.65,2.14v.47h-4.61a3,3,0,0,0,.61,2,2.16,2.16,0,0,0,1.73.69,5.33,5.33,0,0,0,1-.08,5.85,5.85,0,0,0,1.05-.33v.53a4.65,4.65,0,0,1-1,.32A5.53,5.53,0,0,1,444.43,162.75Zm-.17-6.12a1.92,1.92,0,0,0-1.48.61,2.87,2.87,0,0,0-.65,1.76h4a2.79,2.79,0,0,0-.48-1.74A1.59,1.59,0,0,0,444.26,156.63Z"/><path class="cls-3" d="M456.45,162.63v-4.2a2.09,2.09,0,0,0-.36-1.37,1.38,1.38,0,0,0-1.12-.43,1.82,1.82,0,0,0-1.45.54,2.55,2.55,0,0,0-.47,1.7v3.75h-.6v-4.37q0-1.62-1.48-1.62a1.75,1.75,0,0,0-1.46.59,3.05,3.05,0,0,0-.46,1.87v3.53h-.58v-6.4h.48l.12.88h0a1.83,1.83,0,0,1,.75-.74,2.24,2.24,0,0,1,1.08-.26,1.84,1.84,0,0,1,1.94,1.14h0a2.18,2.18,0,0,1,.84-.84,2.42,2.42,0,0,1,1.2-.29,2.06,2.06,0,0,1,1.57.56,2.54,2.54,0,0,1,.52,1.78v4.18Z"/></g><path class="cls-4" d="M451.17,44.51,440.39,33.74l-.11-.11h0l-.13-.1h0a3.36,3.36,0,0,0-4,0h-.11l-.23.21L425.09,44.51a3.41,3.41,0,0,0,4.82,4.82h0l5-5V60.39a3.38,3.38,0,1,0,6.75,0V44.31l4.66,5a3.41,3.41,0,1,0,4.82-4.82Z"/><path class="cls-4" d="M451.17,95.71a3.38,3.38,0,0,0-4.77,0l0,0-5,5V84.65a3.38,3.38,0,1,0-6.75,0v16.08l-5-5a3.41,3.41,0,0,0-4.82,4.82l10.77,10.77.11.11h0l.13.1h0a3.36,3.36,0,0,0,2,.64h0a3.36,3.36,0,0,0,2-.64h.11l.23-.21,10.77-10.77a3.38,3.38,0,0,0,.41-4.76Z"/><circle class="cls-4" cx="438.03" cy="72.45" r="5.71"/><path class="cls-4" d="M425.89,69H409.82l5-5A3.41,3.41,0,0,0,410,59.2L399.24,70l-.11.11h0l-.1.13h0a3.36,3.36,0,0,0,0,4v.11h0l.21.24L410,85.3a3.41,3.41,0,1,0,4.82-4.82l-5-5h16.08a3.38,3.38,0,1,0,0-6.75h0Z"/><path class="cls-4" d="M477.13,70.47v-.1h0l-.21-.24L466.15,59.36a3.41,3.41,0,1,0-4.82,4.82L466.25,69H450.17a3.38,3.38,0,1,0,0,6.75h16.09l-5,5a3.41,3.41,0,0,0,4.82,4.82l10.77-10.77.11-.11h0l.1-.13h0a3.34,3.34,0,0,0,0-4Z"/><circle class="cls-5" cx="92.77" cy="101.31" r="88.32"/><g class="cls-2"><path class="cls-3" d="M31.11,133.7h-.61v-4.23h-5v4.23h-.6v-8.6h.6v3.82h5V125.1h.61Z"/><path class="cls-3" d="M38.69,130.5a3.63,3.63,0,0,1-.76,2.45,2.62,2.62,0,0,1-2.1.88,2.71,2.71,0,0,1-1.48-.41,2.59,2.59,0,0,1-1-1.17A4.25,4.25,0,0,1,33,130.5a3.6,3.6,0,0,1,.76-2.44,2.61,2.61,0,0,1,2.08-.87,2.57,2.57,0,0,1,2.07.89A3.64,3.64,0,0,1,38.69,130.5Zm-5,0a3.26,3.26,0,0,0,.58,2.06,2.19,2.19,0,0,0,3.28,0,3.26,3.26,0,0,0,.58-2.06,3.21,3.21,0,0,0-.59-2.05,2,2,0,0,0-1.65-.73,2,2,0,0,0-1.63.73A3.26,3.26,0,0,0,33.65,130.5Z"/><path class="cls-3" d="M45.76,130.5a3.63,3.63,0,0,1-.76,2.45,2.62,2.62,0,0,1-2.1.88,2.71,2.71,0,0,1-1.48-.41,2.59,2.59,0,0,1-1-1.17,4.25,4.25,0,0,1-.34-1.75,3.6,3.6,0,0,1,.76-2.44,2.61,2.61,0,0,1,2.08-.87,2.57,2.57,0,0,1,2.07.89A3.64,3.64,0,0,1,45.76,130.5Zm-5,0a3.26,3.26,0,0,0,.58,2.06,2.19,2.19,0,0,0,3.28,0,3.26,3.26,0,0,0,.58-2.06,3.21,3.21,0,0,0-.59-2.05,2,2,0,0,0-1.65-.73,2,2,0,0,0-1.63.73A3.26,3.26,0,0,0,40.71,130.5Z"/><path class="cls-3" d="M48.1,130.9l3.27-3.59h.71L49.55,130l2.74,3.67h-.7l-2.43-3.23-1,1v2.28h-.58v-9.16h.58v4.59l0,1.76Z"/><path class="cls-3" d="M57,127.31v4.14a2,2,0,0,0,.41,1.4,1.64,1.64,0,0,0,1.26.44,2.2,2.2,0,0,0,1.68-.58,2.7,2.7,0,0,0,.54-1.88v-3.53h.58v6.4H61l-.11-.88h0a2.4,2.4,0,0,1-2.22,1q-2.18,0-2.18-2.34v-4.18Z"/><path class="cls-3" d="M66.34,133.82a2.34,2.34,0,0,1-2.15-1.11h0l0,.49q0,.44,0,1v2.44H63.6v-9.29h.49l.11.91h0a2.31,2.31,0,0,1,2.11-1,2.38,2.38,0,0,1,2,.85,3.89,3.89,0,0,1,.68,2.47,3.75,3.75,0,0,1-.71,2.45A2.4,2.4,0,0,1,66.34,133.82Zm0-.52a1.78,1.78,0,0,0,1.52-.73,3.38,3.38,0,0,0,.54-2q0-2.82-2-2.82a2,2,0,0,0-1.64.62,3.07,3.07,0,0,0-.52,2v.19a3.52,3.52,0,0,0,.5,2.14A2,2,0,0,0,66.32,133.3Z"/><path class="cls-3" d="M75.59,133.3a4.35,4.35,0,0,0,1-.09v.47a3.09,3.09,0,0,1-1,.14,1.59,1.59,0,0,1-1.25-.45,2.11,2.11,0,0,1-.4-1.42v-4.13H73v-.34l.95-.26.29-1.45h.3v1.55H76.4v.51H74.52v4a1.84,1.84,0,0,0,.26,1.09A.94.94,0,0,0,75.59,133.3Z"/><path class="cls-3" d="M83.23,130.5a3.63,3.63,0,0,1-.76,2.45,2.62,2.62,0,0,1-2.1.88,2.71,2.71,0,0,1-1.48-.41,2.59,2.59,0,0,1-1-1.17,4.25,4.25,0,0,1-.34-1.75,3.6,3.6,0,0,1,.76-2.44,2.61,2.61,0,0,1,2.08-.87,2.57,2.57,0,0,1,2.07.89A3.64,3.64,0,0,1,83.23,130.5Zm-5,0a3.26,3.26,0,0,0,.58,2.06,2.19,2.19,0,0,0,3.28,0,3.26,3.26,0,0,0,.58-2.06,3.21,3.21,0,0,0-.59-2.05,2,2,0,0,0-1.65-.73,2,2,0,0,0-1.63.73A3.26,3.26,0,0,0,78.18,130.5Z"/><path class="cls-3" d="M87.06,127.31h.6L89,130.9q.62,1.65.78,2.23h0q.25-.76.81-2.27L92,127.31h.6l-2.87,7.43a5.8,5.8,0,0,1-.58,1.22,1.56,1.56,0,0,1-.55.48,1.67,1.67,0,0,1-.76.16,2.63,2.63,0,0,1-.75-.12V136a2.75,2.75,0,0,0,.74.09,1,1,0,0,0,.53-.14,1.33,1.33,0,0,0,.42-.44,5.85,5.85,0,0,0,.43-.94l.32-.84Z"/><path class="cls-3" d="M99,130.5a3.63,3.63,0,0,1-.76,2.45,2.62,2.62,0,0,1-2.1.88,2.71,2.71,0,0,1-1.48-.41,2.59,2.59,0,0,1-1-1.17,4.25,4.25,0,0,1-.34-1.75,3.6,3.6,0,0,1,.76-2.44,2.61,2.61,0,0,1,2.08-.87,2.57,2.57,0,0,1,2.07.89A3.64,3.64,0,0,1,99,130.5Zm-5,0a3.26,3.26,0,0,0,.58,2.06,2.19,2.19,0,0,0,3.28,0,3.26,3.26,0,0,0,.58-2.06,3.21,3.21,0,0,0-.59-2.05,2,2,0,0,0-1.65-.73,2,2,0,0,0-1.63.73A3.26,3.26,0,0,0,93.91,130.5Z"/><path class="cls-3" d="M101.23,127.31v4.14a2,2,0,0,0,.41,1.4,1.64,1.64,0,0,0,1.26.44,2.2,2.2,0,0,0,1.68-.58,2.7,2.7,0,0,0,.54-1.88v-3.53h.58v6.4h-.49l-.11-.88h0a2.41,2.41,0,0,1-2.22,1q-2.18,0-2.18-2.34v-4.18Z"/><path class="cls-3" d="M110.36,127.18a5,5,0,0,1,.87.08l-.11.56a3.42,3.42,0,0,0-.83-.1,1.61,1.61,0,0,0-1.34.69,2.83,2.83,0,0,0-.52,1.75v3.53h-.58v-6.4h.49l.06,1.15h0a2.7,2.7,0,0,1,.84-1A2,2,0,0,1,110.36,127.18Z"/><path class="cls-3" d="M123.65,133.7v-4.2a2.09,2.09,0,0,0-.36-1.37,1.39,1.39,0,0,0-1.12-.43,1.83,1.83,0,0,0-1.45.54,2.55,2.55,0,0,0-.47,1.7v3.75h-.59v-4.37q0-1.62-1.48-1.62a1.75,1.75,0,0,0-1.47.59,3.05,3.05,0,0,0-.46,1.87v3.53h-.58v-6.4h.48l.12.88h0a1.83,1.83,0,0,1,.75-.74,2.24,2.24,0,0,1,1.08-.26,1.84,1.84,0,0,1,1.94,1.14h0a2.18,2.18,0,0,1,.84-.84,2.41,2.41,0,0,1,1.2-.29,2.05,2.05,0,0,1,1.57.56,2.54,2.54,0,0,1,.52,1.78v4.18Z"/><path class="cls-3" d="M131.59,130.5a3.63,3.63,0,0,1-.76,2.45,2.62,2.62,0,0,1-2.1.88,2.71,2.71,0,0,1-1.48-.41,2.6,2.6,0,0,1-1-1.17,4.23,4.23,0,0,1-.34-1.75,3.6,3.6,0,0,1,.76-2.44,2.61,2.61,0,0,1,2.08-.87,2.56,2.56,0,0,1,2.07.89A3.63,3.63,0,0,1,131.59,130.5Zm-5,0a3.26,3.26,0,0,0,.58,2.06,2.19,2.19,0,0,0,3.28,0,3.26,3.26,0,0,0,.58-2.06,3.2,3.2,0,0,0-.59-2.05,2,2,0,0,0-1.64-.73,2,2,0,0,0-1.63.73A3.25,3.25,0,0,0,126.54,130.5Z"/><path class="cls-3" d="M135.7,127.18a2.66,2.66,0,0,1,1.2.25,2.39,2.39,0,0,1,.91.87h0q0-.74,0-1.45v-2.3h.58v9.16H138l-.15-1h0a2.37,2.37,0,0,1-2.1,1.09,2.51,2.51,0,0,1-2-.82,3.61,3.61,0,0,1-.7-2.4,4,4,0,0,1,.69-2.54A2.42,2.42,0,0,1,135.7,127.18Zm0,.53a1.81,1.81,0,0,0-1.57.74,3.64,3.64,0,0,0-.53,2.14q0,2.72,2.11,2.72a1.92,1.92,0,0,0,1.59-.63,3.34,3.34,0,0,0,.51-2.08v-.1a3.55,3.55,0,0,0-.5-2.13A1.9,1.9,0,0,0,135.7,127.71Z"/><path class="cls-3" d="M143.12,133.82a2.79,2.79,0,0,1-2.17-.86,3.45,3.45,0,0,1-.78-2.41,3.75,3.75,0,0,1,.75-2.45,2.49,2.49,0,0,1,2-.92,2.19,2.19,0,0,1,1.78.79,3.26,3.26,0,0,1,.65,2.14v.47h-4.61a3,3,0,0,0,.62,2,2.16,2.16,0,0,0,1.73.69,5.32,5.32,0,0,0,1-.08,5.83,5.83,0,0,0,1.05-.33v.53a4.64,4.64,0,0,1-1,.32A5.53,5.53,0,0,1,143.12,133.82Zm-.17-6.12a1.92,1.92,0,0,0-1.48.61,2.87,2.87,0,0,0-.65,1.76h4a2.79,2.79,0,0,0-.48-1.74A1.59,1.59,0,0,0,142.95,127.7Z"/><path class="cls-3" d="M149.67,127.18a5,5,0,0,1,.87.08l-.11.56a3.42,3.42,0,0,0-.83-.1,1.61,1.61,0,0,0-1.34.69,2.83,2.83,0,0,0-.52,1.75v3.53h-.58v-6.4h.49l.06,1.15h0a2.7,2.7,0,0,1,.84-1A2,2,0,0,1,149.67,127.18Z"/><path class="cls-3" d="M156.3,133.7v-4.15a2,2,0,0,0-.41-1.4,1.64,1.64,0,0,0-1.26-.44,2.18,2.18,0,0,0-1.68.58,2.73,2.73,0,0,0-.53,1.88v3.53h-.58v-6.4h.49l.11.88h0a2.41,2.41,0,0,1,2.22-1q2.18,0,2.18,2.34v4.18Z"/><path class="cls-3" d="M45.29,141.65a2.66,2.66,0,0,1,1.2.25,2.39,2.39,0,0,1,.91.87h0q0-.74,0-1.45V139H48v9.16h-.38l-.15-1h0a2.37,2.37,0,0,1-2.1,1.09,2.51,2.51,0,0,1-2-.82,3.61,3.61,0,0,1-.7-2.4,4,4,0,0,1,.69-2.54A2.42,2.42,0,0,1,45.29,141.65Zm0,.53a1.81,1.81,0,0,0-1.57.74,3.64,3.64,0,0,0-.53,2.14q0,2.72,2.11,2.72a1.92,1.92,0,0,0,1.59-.63,3.34,3.34,0,0,0,.51-2.08V145a3.55,3.55,0,0,0-.5-2.13A1.9,1.9,0,0,0,45.29,142.18Z"/><path class="cls-3" d="M52.7,148.29a2.79,2.79,0,0,1-2.17-.86,3.45,3.45,0,0,1-.78-2.41,3.75,3.75,0,0,1,.75-2.45,2.49,2.49,0,0,1,2-.92,2.19,2.19,0,0,1,1.78.79,3.26,3.26,0,0,1,.65,2.14V145H50.36a3,3,0,0,0,.62,2,2.16,2.16,0,0,0,1.73.69,5.32,5.32,0,0,0,1-.08,5.83,5.83,0,0,0,1.05-.33v.53a4.64,4.64,0,0,1-1,.32A5.53,5.53,0,0,1,52.7,148.29Zm-.17-6.12a1.92,1.92,0,0,0-1.48.61,2.87,2.87,0,0,0-.65,1.76h4a2.79,2.79,0,0,0-.48-1.74A1.59,1.59,0,0,0,52.53,142.16Z"/><path class="cls-3" d="M58.13,148.17l-2.47-6.4h.6l1.65,4.35a13.16,13.16,0,0,1,.49,1.46h0q.24-.8.49-1.47l1.65-4.34h.6l-2.47,6.4Z"/><path class="cls-3" d="M64.85,148.29a2.79,2.79,0,0,1-2.17-.86,3.45,3.45,0,0,1-.78-2.41,3.75,3.75,0,0,1,.75-2.45,2.49,2.49,0,0,1,2-.92,2.19,2.19,0,0,1,1.78.79,3.26,3.26,0,0,1,.65,2.14V145H62.51a3,3,0,0,0,.62,2,2.16,2.16,0,0,0,1.73.69,5.32,5.32,0,0,0,1-.08,5.83,5.83,0,0,0,1.05-.33v.53a4.64,4.64,0,0,1-1,.32A5.53,5.53,0,0,1,64.85,148.29Zm-.17-6.12a1.92,1.92,0,0,0-1.48.61,2.87,2.87,0,0,0-.65,1.76h4a2.79,2.79,0,0,0-.48-1.74A1.59,1.59,0,0,0,64.68,142.16Z"/><path class="cls-3" d="M69.46,148.17h-.58V139h.58Z"/><path class="cls-3" d="M76.89,145a3.63,3.63,0,0,1-.76,2.45,2.62,2.62,0,0,1-2.1.88,2.71,2.71,0,0,1-1.48-.41,2.6,2.6,0,0,1-1-1.17,4.23,4.23,0,0,1-.34-1.75,3.6,3.6,0,0,1,.76-2.44,2.61,2.61,0,0,1,2.08-.87,2.56,2.56,0,0,1,2.07.89A3.63,3.63,0,0,1,76.89,145Zm-5,0a3.26,3.26,0,0,0,.58,2.06,2.19,2.19,0,0,0,3.28,0,3.26,3.26,0,0,0,.58-2.06,3.2,3.2,0,0,0-.59-2.05,2,2,0,0,0-1.64-.73,2,2,0,0,0-1.63.73A3.25,3.25,0,0,0,71.84,145Z"/><path class="cls-3" d="M81.4,148.29a2.34,2.34,0,0,1-2.15-1.11h0l0,.49q0,.44,0,1v2.44h-.58v-9.29h.49l.11.91h0a2.31,2.31,0,0,1,2.11-1,2.38,2.38,0,0,1,2,.85,3.89,3.89,0,0,1,.68,2.47,3.75,3.75,0,0,1-.71,2.45A2.4,2.4,0,0,1,81.4,148.29Zm0-.52a1.78,1.78,0,0,0,1.52-.73,3.38,3.38,0,0,0,.54-2q0-2.82-2-2.82a2,2,0,0,0-1.64.62,3.07,3.07,0,0,0-.52,2V145a3.52,3.52,0,0,0,.5,2.14A2,2,0,0,0,81.39,147.77Z"/><path class="cls-3" d="M93.83,148.17V144a2.09,2.09,0,0,0-.36-1.37,1.39,1.39,0,0,0-1.12-.43,1.83,1.83,0,0,0-1.45.54,2.55,2.55,0,0,0-.47,1.7v3.75h-.59V143.8q0-1.62-1.48-1.62a1.75,1.75,0,0,0-1.47.59,3.05,3.05,0,0,0-.46,1.87v3.53h-.58v-6.4h.48l.12.88h0a1.83,1.83,0,0,1,.75-.74,2.24,2.24,0,0,1,1.08-.26,1.84,1.84,0,0,1,1.94,1.14h0a2.17,2.17,0,0,1,.84-.84,2.42,2.42,0,0,1,1.2-.29,2.05,2.05,0,0,1,1.57.56,2.54,2.54,0,0,1,.52,1.78v4.18Z"/><path class="cls-3" d="M99.06,148.29a2.79,2.79,0,0,1-2.17-.86,3.45,3.45,0,0,1-.78-2.41,3.75,3.75,0,0,1,.75-2.45,2.49,2.49,0,0,1,2-.92,2.19,2.19,0,0,1,1.78.79,3.26,3.26,0,0,1,.65,2.14V145H96.72a3,3,0,0,0,.62,2,2.16,2.16,0,0,0,1.73.69,5.32,5.32,0,0,0,1-.08,5.83,5.83,0,0,0,1.05-.33v.53a4.64,4.64,0,0,1-1,.32A5.53,5.53,0,0,1,99.06,148.29Zm-.17-6.12a1.92,1.92,0,0,0-1.48.61,2.87,2.87,0,0,0-.65,1.76h4a2.79,2.79,0,0,0-.48-1.74A1.59,1.59,0,0,0,98.89,142.16Z"/><path class="cls-3" d="M107.56,148.17V144a2,2,0,0,0-.41-1.4,1.64,1.64,0,0,0-1.26-.44,2.18,2.18,0,0,0-1.68.58,2.73,2.73,0,0,0-.53,1.88v3.53h-.58v-6.4h.49l.11.88h0a2.4,2.4,0,0,1,2.22-1q2.18,0,2.18,2.34v4.18Z"/><path class="cls-3" d="M111.89,147.77a4.35,4.35,0,0,0,1-.09v.47a3.09,3.09,0,0,1-1,.14,1.59,1.59,0,0,1-1.25-.45,2.11,2.11,0,0,1-.4-1.42v-4.13h-.95v-.34l.95-.26.29-1.45h.3v1.55h1.88v.51h-1.88v4a1.84,1.84,0,0,0,.26,1.09A.94.94,0,0,0,111.89,147.77Z"/><path class="cls-3" d="M119.06,147.77a4.35,4.35,0,0,0,1-.09v.47a3.09,3.09,0,0,1-1,.14,1.59,1.59,0,0,1-1.25-.45,2.11,2.11,0,0,1-.4-1.42v-4.13h-.95v-.34l.95-.26.29-1.45h.3v1.55h1.88v.51H118v4a1.84,1.84,0,0,0,.26,1.09A.94.94,0,0,0,119.06,147.77Z"/><path class="cls-3" d="M126.7,145a3.63,3.63,0,0,1-.76,2.45,2.62,2.62,0,0,1-2.1.88,2.71,2.71,0,0,1-1.48-.41,2.59,2.59,0,0,1-1-1.17A4.25,4.25,0,0,1,121,145a3.6,3.6,0,0,1,.76-2.44,2.61,2.61,0,0,1,2.08-.87,2.57,2.57,0,0,1,2.07.89A3.64,3.64,0,0,1,126.7,145Zm-5,0a3.26,3.26,0,0,0,.58,2.06,2.19,2.19,0,0,0,3.28,0,3.26,3.26,0,0,0,.58-2.06,3.21,3.21,0,0,0-.59-2.05,2,2,0,0,0-1.65-.73,2,2,0,0,0-1.63.73A3.26,3.26,0,0,0,121.65,145Z"/><path class="cls-3" d="M133.76,145a3.63,3.63,0,0,1-.76,2.45,2.62,2.62,0,0,1-2.1.88,2.71,2.71,0,0,1-1.48-.41,2.59,2.59,0,0,1-1-1.17,4.25,4.25,0,0,1-.34-1.75,3.6,3.6,0,0,1,.76-2.44,2.61,2.61,0,0,1,2.08-.87,2.57,2.57,0,0,1,2.07.89A3.64,3.64,0,0,1,133.76,145Zm-5,0a3.26,3.26,0,0,0,.58,2.06,2.19,2.19,0,0,0,3.28,0,3.26,3.26,0,0,0,.58-2.06,3.21,3.21,0,0,0-.59-2.05,2,2,0,0,0-1.65-.73,2,2,0,0,0-1.63.73A3.26,3.26,0,0,0,128.71,145Z"/><path class="cls-3" d="M136.12,148.17h-.58V139h.58Z"/><path class="cls-3" d="M142.22,146.5a1.52,1.52,0,0,1-.65,1.32,3.18,3.18,0,0,1-1.85.46,4.42,4.42,0,0,1-2-.39v-.63a4.49,4.49,0,0,0,2,.48,2.69,2.69,0,0,0,1.44-.31,1,1,0,0,0,.49-.84,1,1,0,0,0-.39-.81,4.31,4.31,0,0,0-1.29-.65,7.36,7.36,0,0,1-1.35-.6A1.87,1.87,0,0,1,138,144a1.42,1.42,0,0,1-.2-.77,1.31,1.31,0,0,1,.6-1.14,2.94,2.94,0,0,1,1.69-.42,5,5,0,0,1,2,.39l-.22.53a4.61,4.61,0,0,0-1.75-.39,2.54,2.54,0,0,0-1.24.26.79.79,0,0,0-.46.72,1,1,0,0,0,.36.8,5,5,0,0,0,1.39.67,6.84,6.84,0,0,1,1.26.56,1.85,1.85,0,0,1,.59.57A1.39,1.39,0,0,1,142.22,146.5Z"/></g><path class="cls-4" d="M129.07,55.4,112.68,39a6.7,6.7,0,0,0-9.33,0L87.6,54.76,113.3,80.47l15.75-15.75A6.7,6.7,0,0,0,129.07,55.4Z"/><path class="cls-4" d="M98.76,77.57l-8.21,8.21L82.3,77.54l8.21-8.21a2.92,2.92,0,0,0-4.12-4.11l-8.21,8.21-4.61-4.61L57.78,84.55a6.7,6.7,0,0,0,0,9.33l16.39,16.39a6.7,6.7,0,0,0,9.33,0L99.26,94.52l-4.61-4.63,8.21-8.21a2.92,2.92,0,0,0-4-4.22l-.1.1Z"/><circle class="cls-3" cx="265.35" cy="101.31" r="98.89"/><path class="cls-6" d="M281.11,147.76v8c0,1.89.46,3.23,2.65,3.23s2.65-1.33,2.65-3.23v-8h5.29v9c0,4.92-3.44,6.43-7.95,6.43s-7.95-1.52-7.95-6.43v-9Z"/><path class="cls-6" d="M258,147.27a5.17,5.17,0,0,0-4.76,2.44h-.06V147.8h-5.29v1.41a7.75,7.75,0,0,1,0,12.1v1.41h5.29V155c0-1.86.61-3.44,2.76-3.44,2.58,0,2.38,2.51,2.38,3.93v7.27h5.29v-9.26c0-3.67-1.6-6.2-5.61-6.2"/><path class="cls-7" d="M238.39,155.24a3.44,3.44,0,1,0,2.89-2.89,3.44,3.44,0,0,0-2.89,2.89"/><rect class="cls-6" x="294.69" y="147.76" width="5.29" height="14.93"/><path class="cls-6" d="M306.62,150.16a3,3,0,1,1-3-3,3,3,0,0,1,3,3"/><path class="cls-6" d="M269.78,146.48a2.85,2.85,0,1,1,.14,0h-.14m2.63,16.15c0,3.81-2,6-5.77,6a6.1,6.1,0,0,1-1.92-.23v-4a4.73,4.73,0,0,0,.77.07c1.08,0,1.62-.44,1.62-1.72v-15h5.3Z"/><path class="cls-6" d="M233.65,158.85h-.4a3.55,3.55,0,0,1-3.73-3.36q0-.15,0-.31a3.58,3.58,0,0,1,3.53-3.63h.11a3.44,3.44,0,0,1,.49,0,7.55,7.55,0,0,1,3.07-3.1,8.17,8.17,0,0,0-4.3-1.25,8,8,0,0,0-8.35,8.12,7.87,7.87,0,0,0,7.93,7.8h.19a7.75,7.75,0,0,0,4.43-1.31,7.49,7.49,0,0,1-3-3"/><g class="cls-2"><path class="cls-6" d="M194.87,125.52a3.25,3.25,0,0,0-2.55,1,4.09,4.09,0,0,0-.93,2.84,4.25,4.25,0,0,0,.88,2.86,3.13,3.13,0,0,0,2.51,1,6.8,6.8,0,0,0,2-.28v.53a6.49,6.49,0,0,1-2.13.3,3.62,3.62,0,0,1-2.85-1.17,4.76,4.76,0,0,1-1-3.27,5.12,5.12,0,0,1,.5-2.31,3.6,3.6,0,0,1,1.43-1.55,4.23,4.23,0,0,1,2.17-.54,5.21,5.21,0,0,1,2.25.47l-.24.54A4.37,4.37,0,0,0,194.87,125.52Z"/><path class="cls-6" d="M201.05,127.18a5,5,0,0,1,.87.08l-.11.56a3.42,3.42,0,0,0-.83-.1,1.61,1.61,0,0,0-1.34.69,2.83,2.83,0,0,0-.52,1.75v3.53h-.58v-6.4H199l.06,1.15h0a2.72,2.72,0,0,1,.84-1A2,2,0,0,1,201.05,127.18Z"/><path class="cls-6" d="M205.81,133.82a2.79,2.79,0,0,1-2.17-.86,3.45,3.45,0,0,1-.78-2.41,3.75,3.75,0,0,1,.75-2.45,2.49,2.49,0,0,1,2-.92,2.19,2.19,0,0,1,1.78.79,3.26,3.26,0,0,1,.65,2.14v.47h-4.61a3,3,0,0,0,.62,2,2.16,2.16,0,0,0,1.73.69,5.34,5.34,0,0,0,1-.08,5.84,5.84,0,0,0,1.05-.33v.53a4.63,4.63,0,0,1-1,.32A5.52,5.52,0,0,1,205.81,133.82Zm-.17-6.12a1.92,1.92,0,0,0-1.48.61,2.88,2.88,0,0,0-.65,1.76h4a2.78,2.78,0,0,0-.48-1.74A1.59,1.59,0,0,0,205.64,127.7Z"/><path class="cls-6" d="M213.72,133.7l-.15-1h0a3,3,0,0,1-1,.87,2.66,2.66,0,0,1-1.2.26,2.08,2.08,0,0,1-1.47-.48,1.73,1.73,0,0,1-.52-1.34,1.65,1.65,0,0,1,.78-1.45,4.23,4.23,0,0,1,2.26-.55l1.22,0v-.42a2.18,2.18,0,0,0-.37-1.38,1.44,1.44,0,0,0-1.19-.46,4,4,0,0,0-1.84.49l-.22-.51a4.88,4.88,0,0,1,2.08-.49,2.08,2.08,0,0,1,1.57.55,2.41,2.41,0,0,1,.52,1.71v4.25Zm-2.35-.41a2,2,0,0,0,2.21-2.21v-.63l-1.12,0a4.21,4.21,0,0,0-1.92.42A1.21,1.21,0,0,0,210,132a1.19,1.19,0,0,0,.37.93A1.49,1.49,0,0,0,211.37,133.29Z"/><path class="cls-6" d="M217.91,133.3a4.35,4.35,0,0,0,1-.09v.47a3.09,3.09,0,0,1-1,.14,1.59,1.59,0,0,1-1.25-.45,2.1,2.1,0,0,1-.4-1.42v-4.13h-.95v-.34l.95-.26.29-1.45h.3v1.55h1.88v.51h-1.88v4a1.85,1.85,0,0,0,.26,1.09A.94.94,0,0,0,217.91,133.3Z"/><path class="cls-6" d="M222.84,133.82a2.79,2.79,0,0,1-2.17-.86,3.45,3.45,0,0,1-.78-2.41,3.75,3.75,0,0,1,.75-2.45,2.49,2.49,0,0,1,2-.92,2.19,2.19,0,0,1,1.78.79,3.26,3.26,0,0,1,.65,2.14v.47H220.5a3,3,0,0,0,.62,2,2.16,2.16,0,0,0,1.73.69,5.34,5.34,0,0,0,1-.08,5.84,5.84,0,0,0,1.05-.33v.53a4.63,4.63,0,0,1-1,.32A5.52,5.52,0,0,1,222.84,133.82Zm-.17-6.12a1.92,1.92,0,0,0-1.48.61,2.88,2.88,0,0,0-.65,1.76h4a2.78,2.78,0,0,0-.48-1.74A1.59,1.59,0,0,0,222.67,127.7Z"/><path class="cls-6" d="M238,133.7v-4.2a2.09,2.09,0,0,0-.36-1.37,1.38,1.38,0,0,0-1.12-.43,1.83,1.83,0,0,0-1.45.54,2.55,2.55,0,0,0-.47,1.7v3.75H234v-4.37q0-1.62-1.48-1.62a1.75,1.75,0,0,0-1.47.59,3.05,3.05,0,0,0-.46,1.87v3.53H230v-6.4h.48l.12.88h0a1.83,1.83,0,0,1,.75-.74,2.24,2.24,0,0,1,1.08-.26,1.84,1.84,0,0,1,1.94,1.14h0a2.18,2.18,0,0,1,.84-.84,2.41,2.41,0,0,1,1.2-.29,2.05,2.05,0,0,1,1.57.56,2.54,2.54,0,0,1,.52,1.78v4.18Z"/><path class="cls-6" d="M244.53,133.7l-.15-1h0a3,3,0,0,1-1,.87,2.66,2.66,0,0,1-1.2.26,2.08,2.08,0,0,1-1.47-.48,1.73,1.73,0,0,1-.52-1.34,1.65,1.65,0,0,1,.78-1.45,4.23,4.23,0,0,1,2.26-.55l1.22,0v-.42a2.18,2.18,0,0,0-.37-1.38,1.44,1.44,0,0,0-1.19-.46,4,4,0,0,0-1.84.49l-.22-.51a4.88,4.88,0,0,1,2.08-.49,2.08,2.08,0,0,1,1.57.55,2.41,2.41,0,0,1,.52,1.71v4.25Zm-2.35-.41a2,2,0,0,0,2.21-2.21v-.63l-1.12,0a4.21,4.21,0,0,0-1.92.42,1.21,1.21,0,0,0-.57,1.11,1.19,1.19,0,0,0,.37.93A1.49,1.49,0,0,0,242.18,133.29Z"/><path class="cls-6" d="M249.59,133.82a2.74,2.74,0,0,1-2.15-.87,3.48,3.48,0,0,1-.78-2.41,3.54,3.54,0,0,1,.81-2.47,2.83,2.83,0,0,1,2.21-.89,4.43,4.43,0,0,1,1.59.29l-.16.52a4.67,4.67,0,0,0-1.44-.28,2.19,2.19,0,0,0-1.78.73,3.19,3.19,0,0,0-.61,2.09,3.09,3.09,0,0,0,.61,2,2.08,2.08,0,0,0,1.69.73,4.16,4.16,0,0,0,1.62-.31v.54A3.67,3.67,0,0,1,249.59,133.82Z"/><path class="cls-6" d="M257.22,133.7v-4.15a2,2,0,0,0-.41-1.4,1.64,1.64,0,0,0-1.26-.44,2.18,2.18,0,0,0-1.68.58,2.73,2.73,0,0,0-.53,1.88v3.53h-.58v-9.16h.58v2.91l0,.82h0a2.15,2.15,0,0,1,.91-.84,3.17,3.17,0,0,1,1.36-.26q2.18,0,2.18,2.34v4.18Z"/><path class="cls-6" d="M259.78,125.53q0-.56.37-.56a.33.33,0,0,1,.29.15.73.73,0,0,1,.1.42.74.74,0,0,1-.1.42.33.33,0,0,1-.29.15Q259.78,126.1,259.78,125.53Zm.67,8.17h-.58v-6.4h.58Z"/><path class="cls-6" d="M267.05,133.7v-4.15a2,2,0,0,0-.41-1.4,1.64,1.64,0,0,0-1.26-.44,2.18,2.18,0,0,0-1.68.58,2.73,2.73,0,0,0-.53,1.88v3.53h-.58v-6.4h.49l.11.88h0a2.41,2.41,0,0,1,2.22-1q2.18,0,2.18,2.34v4.18Z"/><path class="cls-6" d="M272.28,133.82a2.79,2.79,0,0,1-2.17-.86,3.45,3.45,0,0,1-.78-2.41,3.75,3.75,0,0,1,.75-2.45,2.49,2.49,0,0,1,2-.92,2.19,2.19,0,0,1,1.78.79,3.26,3.26,0,0,1,.65,2.14v.47h-4.61a3,3,0,0,0,.62,2,2.16,2.16,0,0,0,1.73.69,5.34,5.34,0,0,0,1-.08,5.84,5.84,0,0,0,1.05-.33v.53a4.63,4.63,0,0,1-1,.32A5.52,5.52,0,0,1,272.28,133.82Zm-.17-6.12a1.92,1.92,0,0,0-1.48.61,2.88,2.88,0,0,0-.65,1.76h4a2.78,2.78,0,0,0-.48-1.74A1.59,1.59,0,0,0,272.11,127.7Z"/><path class="cls-6" d="M279.36,125.53q0-.56.37-.56a.33.33,0,0,1,.29.15.73.73,0,0,1,.1.42.74.74,0,0,1-.1.42.33.33,0,0,1-.29.15Q279.36,126.1,279.36,125.53Zm.67,8.17h-.58v-6.4H280Z"/><path class="cls-6" d="M284.51,127.18a2.65,2.65,0,0,1,1.2.25,2.39,2.39,0,0,1,.91.87h0q0-.74,0-1.45v-2.3h.58v9.16h-.38l-.15-1h0a2.37,2.37,0,0,1-2.1,1.09,2.51,2.51,0,0,1-2-.82,3.62,3.62,0,0,1-.7-2.4,4,4,0,0,1,.69-2.54A2.42,2.42,0,0,1,284.51,127.18Zm0,.53a1.81,1.81,0,0,0-1.57.74,3.64,3.64,0,0,0-.53,2.14q0,2.72,2.11,2.72a1.92,1.92,0,0,0,1.59-.63,3.34,3.34,0,0,0,.51-2.08v-.1a3.56,3.56,0,0,0-.5-2.13A1.9,1.9,0,0,0,284.51,127.71Z"/><path class="cls-6" d="M291.93,133.82a2.79,2.79,0,0,1-2.17-.86,3.45,3.45,0,0,1-.78-2.41,3.75,3.75,0,0,1,.75-2.45,2.49,2.49,0,0,1,2-.92,2.19,2.19,0,0,1,1.78.79,3.26,3.26,0,0,1,.65,2.14v.47h-4.61a3,3,0,0,0,.62,2,2.16,2.16,0,0,0,1.73.69,5.34,5.34,0,0,0,1-.08,5.84,5.84,0,0,0,1.05-.33v.53a4.63,4.63,0,0,1-1,.32A5.52,5.52,0,0,1,291.93,133.82Zm-.17-6.12a1.92,1.92,0,0,0-1.48.61,2.88,2.88,0,0,0-.65,1.76h4a2.78,2.78,0,0,0-.48-1.74A1.59,1.59,0,0,0,291.76,127.7Z"/><path class="cls-6" d="M300.42,133.7v-4.15a2,2,0,0,0-.41-1.4,1.64,1.64,0,0,0-1.26-.44,2.18,2.18,0,0,0-1.68.58,2.73,2.73,0,0,0-.53,1.88v3.53H296v-6.4h.49l.11.88h0a2.41,2.41,0,0,1,2.22-1q2.18,0,2.18,2.34v4.18Z"/><path class="cls-6" d="M304.76,133.3a4.35,4.35,0,0,0,1-.09v.47a3.09,3.09,0,0,1-1,.14,1.59,1.59,0,0,1-1.25-.45,2.1,2.1,0,0,1-.4-1.42v-4.13h-.95v-.34l.95-.26.29-1.45h.3v1.55h1.88v.51h-1.88v4a1.85,1.85,0,0,0,.26,1.09A.94.94,0,0,0,304.76,133.3Z"/><path class="cls-6" d="M307,125.53q0-.56.37-.56a.33.33,0,0,1,.29.15.73.73,0,0,1,.1.42.74.74,0,0,1-.1.42.33.33,0,0,1-.29.15Q307,126.1,307,125.53Zm.67,8.17h-.58v-6.4h.58Z"/><path class="cls-6" d="M311.52,133.3a4.35,4.35,0,0,0,1-.09v.47a3.09,3.09,0,0,1-1,.14,1.59,1.59,0,0,1-1.25-.45,2.1,2.1,0,0,1-.4-1.42v-4.13h-.95v-.34l.95-.26.29-1.45h.3v1.55h1.88v.51h-1.88v4a1.85,1.85,0,0,0,.26,1.09A.94.94,0,0,0,311.52,133.3Z"/><path class="cls-6" d="M313.78,125.53q0-.56.37-.56a.33.33,0,0,1,.29.15.73.73,0,0,1,.1.42.74.74,0,0,1-.1.42.33.33,0,0,1-.29.15Q313.78,126.1,313.78,125.53Zm.67,8.17h-.58v-6.4h.58Z"/><path class="cls-6" d="M319.18,133.82A2.79,2.79,0,0,1,317,133a3.45,3.45,0,0,1-.78-2.41,3.75,3.75,0,0,1,.75-2.45,2.49,2.49,0,0,1,2-.92,2.19,2.19,0,0,1,1.78.79,3.26,3.26,0,0,1,.65,2.14v.47h-4.61a3,3,0,0,0,.62,2,2.16,2.16,0,0,0,1.73.69,5.34,5.34,0,0,0,1-.08,5.84,5.84,0,0,0,1.05-.33v.53a4.63,4.63,0,0,1-1,.32A5.52,5.52,0,0,1,319.18,133.82ZM319,127.7a1.92,1.92,0,0,0-1.48.61,2.88,2.88,0,0,0-.65,1.76h4a2.78,2.78,0,0,0-.48-1.74A1.59,1.59,0,0,0,319,127.7Z"/><path class="cls-6" d="M327.17,132a1.52,1.52,0,0,1-.65,1.32,3.18,3.18,0,0,1-1.85.46,4.42,4.42,0,0,1-2-.39v-.63a4.49,4.49,0,0,0,2,.48,2.69,2.69,0,0,0,1.44-.31,1,1,0,0,0,.49-.84,1,1,0,0,0-.39-.81,4.31,4.31,0,0,0-1.29-.65,7.39,7.39,0,0,1-1.35-.6,1.87,1.87,0,0,1-.59-.56,1.42,1.42,0,0,1-.2-.77,1.31,1.31,0,0,1,.6-1.14,2.93,2.93,0,0,1,1.69-.42,5,5,0,0,1,2,.39l-.22.53a4.61,4.61,0,0,0-1.75-.39,2.54,2.54,0,0,0-1.24.26.79.79,0,0,0-.46.72,1,1,0,0,0,.36.8,5,5,0,0,0,1.39.67,6.84,6.84,0,0,1,1.26.56,1.84,1.84,0,0,1,.59.57A1.39,1.39,0,0,1,327.17,132Z"/><path class="cls-6" d="M331.87,125.53q0-.56.37-.56a.33.33,0,0,1,.29.15.73.73,0,0,1,.1.42.74.74,0,0,1-.1.42.33.33,0,0,1-.29.15Q331.87,126.1,331.87,125.53Zm.67,8.17H332v-6.4h.58Z"/><path class="cls-6" d="M339.14,133.7v-4.15a2,2,0,0,0-.41-1.4,1.64,1.64,0,0,0-1.26-.44,2.18,2.18,0,0,0-1.68.58,2.73,2.73,0,0,0-.53,1.88v3.53h-.58v-6.4h.49l.11.88h0a2.41,2.41,0,0,1,2.22-1q2.18,0,2.18,2.34v4.18Z"/></g><polygon class="cls-8" points="237.63 44.97 265.35 44.97 265.35 38.04 237.63 38.04 230.71 38.04 230.71 72.68 237.63 72.68 237.63 44.97"/><polygon class="cls-8" points="237.63 79.61 230.71 79.61 230.71 107.31 237.63 107.31 286.13 107.31 286.13 100.39 237.63 100.39 237.63 79.61"/><polygon class="cls-8" points="293.06 38.04 272.27 38.04 272.27 44.97 293.06 44.97 293.06 93.46 299.98 93.46 299.98 38.04 293.06 38.04"/><polygon class="cls-8" points="244.56 58.82 244.56 86.53 244.56 93.46 265.35 93.46 265.35 86.53 251.49 86.53 251.49 58.82 279.2 58.82 279.2 86.53 272.27 86.53 272.27 93.46 286.13 93.46 286.13 86.53 286.13 58.82 286.13 51.89 244.56 51.89 244.56 58.82"/><polygon class="cls-8" points="272.27 65.75 265.35 65.75 265.35 72.68 258.42 72.68 258.42 79.61 272.27 79.61 272.27 65.75"/></svg>