<svg id="Layer_1" data-name="Layer 1" xmlns="http://www.w3.org/2000/svg" viewBox="0 0 1307.66 798.6"><defs><style>.cls-1{fill:#dcdfe0;opacity:0.3;}.cls-2{fill:#1b1918;}.cls-3{fill:#fff;}.cls-4{fill:#20b9a2;}.cls-5{fill:#babebf;}.cls-6{fill:#6d6e71;}.cls-7,.cls-9{fill:none;stroke:#d1d3d4;stroke-miterlimit:10;stroke-width:5.67px;}.cls-8{fill:#d1d3d4;}.cls-9{stroke-linecap:round;}.cls-10{fill:#3074b1;}</style></defs><title>conjur_ansible_map</title><rect class="cls-1" width="386.92" height="798.6" rx="6.4" ry="6.4"/><rect class="cls-1" x="920.74" width="386.92" height="798.6" rx="6.4" ry="6.4"/><path class="cls-2" d="M615.7,265.6a1.12,1.12,0,0,1-1-.43L603.81,250.8v14.66h-2.49v-18a1.3,1.3,0,0,1,1.27-1.29,1.14,1.14,0,0,1,1,.46l10.9,14.34v-14.6H617v18a1.25,1.25,0,0,1-1.27,1.26m20.61.17a21.62,21.62,0,0,1-7.53-1.44l.59-2.07a23.33,23.33,0,0,0,6.93,1.24c3.14,0,4.78-1.12,4.78-2.7s-1.27-2.16-5.66-4.22-6.11-3.39-6.11-6c0-3.25,2.49-4.57,7.19-4.57a28,28,0,0,1,6.68.92l-.4,2.13a28.46,28.46,0,0,0-6.23-.78c-3.31,0-4.67.63-4.67,2.21s1,2.21,5.63,4.37c4.9,2.27,6.14,3.42,6.14,5.78,0,3.42-3.23,5.12-7.36,5.12m19.16-19.45H658v19.14h-2.58ZM680,256.78h-6.4v6.49H680a3.26,3.26,0,1,0,0-6.49m-1.25-8.28h-5.15v6.12h5.15a3.27,3.27,0,0,0,3.57-3.16c0-1.81-1.3-3-3.57-3m1.27,17h-7.7a1.28,1.28,0,0,1-1.3-1.27s0,0,0,0V247.61a1.3,1.3,0,0,1,1.3-1.29h6.37c3.91,0,6.23,1.93,6.23,4.94a4.83,4.83,0,0,1-2.43,4.05,4.89,4.89,0,0,1,3.65,4.66c0,3-2.52,5.49-6.11,5.49m18.48,0a1.3,1.3,0,0,1-1.27-1.29V246.32h2.57v16.81H710v2.33H698.46Zm29.11.32c-5.26,0-8.43-2-8.43-5.89a4.78,4.78,0,0,1,3.09-4.48,4.83,4.83,0,0,1-2.49-4.11c0-3.56,2.75-5.26,7.9-5.26a30.55,30.55,0,0,1,6.2.66l-.28,2.13a38.55,38.55,0,0,0-6.11-.55c-3.34,0-5.12.92-5.12,3.13,0,1.75,1.64,3.13,3.82,3.13h4.42a1.11,1.11,0,0,1,0,2.21h-4.75c-2.49,0-4.08,1.23-4.08,3.13,0,2.79,2.58,3.62,5.8,3.62a28.34,28.34,0,0,0,6.06-.69l.37,2.1a25.08,25.08,0,0,1-6.37.86M582.15,249.91l4.51,11.3-6.81-5.45Zm8,13.91-6.94-17a1.12,1.12,0,0,0-1.08-.75,1.16,1.16,0,0,0-1.1.75l-7.62,18.59H576l3-7.67,9,7.38a1.45,1.45,0,0,0,1,.43,1.25,1.25,0,0,0,1.27-1.26,1.69,1.69,0,0,0-.12-.52Z"/><path class="cls-2" d="M734.08,148.71A80.17,80.17,0,1,1,653.9,68.54a80.17,80.17,0,0,1,80.17,80.17"/><path class="cls-3" d="M655.25,117.51,676,168.72,644.66,144l10.59-26.52Zm36.86,63-31.91-76.8a5.15,5.15,0,0,0-4.94-3.39,5.32,5.32,0,0,0-5.08,3.39l-35,84.24h12L641,153.22l41.38,33.43c1.66,1.35,2.86,2,4.43,2a5.72,5.72,0,0,0,5.86-5.73,7.59,7.59,0,0,0-.55-2.36Z"/><rect class="cls-4" x="110.54" y="119.58" width="165.84" height="165.84"/><path class="cls-3" d="M168.9,210.49l-1.47-4.82h-7.38l-1.47,4.82H154l7.14-20.32h5.25l7.17,20.32Zm-2.49-8.42q-2-6.55-2.29-7.41t-.37-1.36q-.46,1.77-2.62,8.76Z"/><path class="cls-3" d="M184.24,210.77a5.13,5.13,0,0,1-4.28-2h-.22q.22,1.94.22,2.24v6.27h-4.22V195h3.43l.6,2H180a4.88,4.88,0,0,1,4.39-2.3,5,5,0,0,1,4.29,2.12,9.8,9.8,0,0,1,1.55,5.88,11.61,11.61,0,0,1-.73,4.31,6,6,0,0,1-2.07,2.78A5.3,5.3,0,0,1,184.24,210.77ZM183,198.1a2.67,2.67,0,0,0-2.28,1,5.52,5.52,0,0,0-.75,3.18v.46a6.52,6.52,0,0,0,.74,3.57,2.64,2.64,0,0,0,2.35,1.08q2.84,0,2.84-4.68a6.68,6.68,0,0,0-.7-3.43A2.39,2.39,0,0,0,183,198.1Z"/><path class="cls-3" d="M202.18,210.77a5.13,5.13,0,0,1-4.28-2h-.22q.22,1.94.22,2.24v6.27h-4.22V195h3.43l.6,2h.19a4.88,4.88,0,0,1,4.39-2.3,5,5,0,0,1,4.29,2.12,9.8,9.8,0,0,1,1.55,5.88,11.61,11.61,0,0,1-.73,4.31,6,6,0,0,1-2.07,2.78A5.3,5.3,0,0,1,202.18,210.77Zm-1.25-12.67a2.67,2.67,0,0,0-2.28,1,5.52,5.52,0,0,0-.75,3.18v.46a6.52,6.52,0,0,0,.74,3.57,2.64,2.64,0,0,0,2.35,1.08q2.84,0,2.84-4.68a6.68,6.68,0,0,0-.7-3.43A2.39,2.39,0,0,0,200.93,198.1Z"/><path class="cls-3" d="M228.48,210.49H224.2V198.78l0-1.92.07-2.1q-1.07,1.07-1.48,1.4L220.51,198l-2.06-2.57,6.52-5.19h3.52Z"/><rect class="cls-4" x="110.54" y="343.47" width="165.84" height="165.84"/><path class="cls-3" d="M168.9,434.38l-1.47-4.82h-7.38l-1.47,4.82H154l7.14-20.32h5.25l7.17,20.32ZM166.41,426q-2-6.55-2.29-7.41t-.37-1.36q-.46,1.77-2.62,8.76Z"/><path class="cls-3" d="M184.24,434.65a5.13,5.13,0,0,1-4.28-2h-.22q.22,1.94.22,2.24v6.27h-4.22V418.9h3.43l.6,2H180a4.88,4.88,0,0,1,4.39-2.3,5,5,0,0,1,4.29,2.12,9.8,9.8,0,0,1,1.55,5.88,11.61,11.61,0,0,1-.73,4.31,6,6,0,0,1-2.07,2.78A5.3,5.3,0,0,1,184.24,434.65ZM183,422a2.67,2.67,0,0,0-2.28,1,5.52,5.52,0,0,0-.75,3.18v.46a6.52,6.52,0,0,0,.74,3.57,2.64,2.64,0,0,0,2.35,1.08q2.84,0,2.84-4.68a6.68,6.68,0,0,0-.7-3.43A2.39,2.39,0,0,0,183,422Z"/><path class="cls-3" d="M202.18,434.65a5.13,5.13,0,0,1-4.28-2h-.22q.22,1.94.22,2.24v6.27h-4.22V418.9h3.43l.6,2h.19a4.88,4.88,0,0,1,4.39-2.3,5,5,0,0,1,4.29,2.12,9.8,9.8,0,0,1,1.55,5.88,11.61,11.61,0,0,1-.73,4.31,6,6,0,0,1-2.07,2.78A5.3,5.3,0,0,1,202.18,434.65ZM200.93,422a2.67,2.67,0,0,0-2.28,1,5.52,5.52,0,0,0-.75,3.18v.46a6.52,6.52,0,0,0,.74,3.57,2.64,2.64,0,0,0,2.35,1.08q2.84,0,2.84-4.68a6.68,6.68,0,0,0-.7-3.43A2.39,2.39,0,0,0,200.93,422Z"/><path class="cls-3" d="M232.05,434.38H217.9v-3l5.08-5.14q2.26-2.31,2.95-3.2a7,7,0,0,0,1-1.65,4.22,4.22,0,0,0,.3-1.58,2.3,2.3,0,0,0-.67-1.81,2.61,2.61,0,0,0-1.79-.6,5.16,5.16,0,0,0-2.28.54,11.79,11.79,0,0,0-2.31,1.54l-2.33-2.75a15.13,15.13,0,0,1,2.48-1.8,9.1,9.1,0,0,1,2.15-.81,11,11,0,0,1,2.6-.28,7.7,7.7,0,0,1,3.35.69,5.34,5.34,0,0,1,2.26,1.94,5.15,5.15,0,0,1,.8,2.85A7,7,0,0,1,231,422a10.08,10.08,0,0,1-1.52,2.51,37.23,37.23,0,0,1-3.63,3.67l-2.6,2.45v.19h8.82Z"/><rect class="cls-4" x="110.54" y="567.35" width="165.84" height="165.84"/><path class="cls-3" d="M168.9,658.26l-1.47-4.82h-7.38l-1.47,4.82H154l7.14-20.32h5.25l7.17,20.32Zm-2.49-8.42q-2-6.55-2.29-7.41t-.37-1.36q-.46,1.77-2.62,8.76Z"/><path class="cls-3" d="M184.24,658.54a5.13,5.13,0,0,1-4.28-2h-.22q.22,1.94.22,2.24v6.27h-4.22V642.79h3.43l.6,2H180a4.88,4.88,0,0,1,4.39-2.3,5,5,0,0,1,4.29,2.12,9.8,9.8,0,0,1,1.55,5.88,11.61,11.61,0,0,1-.73,4.31,6,6,0,0,1-2.07,2.78A5.3,5.3,0,0,1,184.24,658.54ZM183,645.88a2.67,2.67,0,0,0-2.28,1A5.52,5.52,0,0,0,180,650v.46a6.52,6.52,0,0,0,.74,3.57,2.64,2.64,0,0,0,2.35,1.08q2.84,0,2.84-4.68a6.68,6.68,0,0,0-.7-3.43A2.39,2.39,0,0,0,183,645.88Z"/><path class="cls-3" d="M202.18,658.54a5.13,5.13,0,0,1-4.28-2h-.22q.22,1.94.22,2.24v6.27h-4.22V642.79h3.43l.6,2h.19a4.88,4.88,0,0,1,4.39-2.3,5,5,0,0,1,4.29,2.12,9.8,9.8,0,0,1,1.55,5.88,11.61,11.61,0,0,1-.73,4.31,6,6,0,0,1-2.07,2.78A5.3,5.3,0,0,1,202.18,658.54Zm-1.25-12.67a2.67,2.67,0,0,0-2.28,1,5.52,5.52,0,0,0-.75,3.18v.46a6.52,6.52,0,0,0,.74,3.57,2.64,2.64,0,0,0,2.35,1.08q2.84,0,2.84-4.68a6.68,6.68,0,0,0-.7-3.43A2.39,2.39,0,0,0,200.93,645.88Z"/><path class="cls-3" d="M231.26,642.55a4.76,4.76,0,0,1-1.15,3.23,6,6,0,0,1-3.23,1.83v.08a6.45,6.45,0,0,1,3.71,1.49,4.17,4.17,0,0,1,1.26,3.19,5.41,5.41,0,0,1-2.12,4.55,9.76,9.76,0,0,1-6,1.63,14.68,14.68,0,0,1-5.84-1.09v-3.64a13.19,13.19,0,0,0,2.59,1,10.9,10.9,0,0,0,2.8.37,5.44,5.44,0,0,0,3.13-.72,2.64,2.64,0,0,0,1-2.31,2.09,2.09,0,0,0-1.16-2,8.61,8.61,0,0,0-3.71-.6H221v-3.28h1.56a7.27,7.27,0,0,0,3.44-.62,2.22,2.22,0,0,0,1.09-2.11q0-2.3-2.88-2.3a6.59,6.59,0,0,0-2,.33,9.89,9.89,0,0,0-2.29,1.15l-2-2.95a11,11,0,0,1,6.6-2,8.53,8.53,0,0,1,5,1.27A4.08,4.08,0,0,1,231.26,642.55Z"/><rect class="cls-5" x="1031.28" y="119.58" width="165.84" height="165.84"/><path class="cls-3" d="M1089.65,210.49l-1.47-4.82h-7.38l-1.47,4.82h-4.62l7.14-20.32h5.25l7.17,20.32Zm-2.49-8.42q-2-6.55-2.29-7.41t-.37-1.36q-.46,1.77-2.62,8.76Z"/><path class="cls-3" d="M1105,210.77a5.13,5.13,0,0,1-4.28-2h-.22q.22,1.94.22,2.24v6.27h-4.22V195h3.43l.6,2h.19a4.88,4.88,0,0,1,4.39-2.3,5,5,0,0,1,4.29,2.12,9.79,9.79,0,0,1,1.55,5.88,11.62,11.62,0,0,1-.73,4.31,6,6,0,0,1-2.07,2.78A5.3,5.3,0,0,1,1105,210.77Zm-1.25-12.67a2.67,2.67,0,0,0-2.28,1,5.53,5.53,0,0,0-.75,3.18v.46a6.52,6.52,0,0,0,.74,3.57,2.64,2.64,0,0,0,2.35,1.08q2.84,0,2.84-4.68a6.68,6.68,0,0,0-.7-3.43A2.39,2.39,0,0,0,1103.74,198.1Z"/><path class="cls-3" d="M1122.92,210.77a5.13,5.13,0,0,1-4.28-2h-.22q.22,1.94.22,2.24v6.27h-4.22V195h3.43l.6,2h.19a4.88,4.88,0,0,1,4.39-2.3,5,5,0,0,1,4.29,2.12,9.79,9.79,0,0,1,1.55,5.88,11.62,11.62,0,0,1-.73,4.31,6,6,0,0,1-2.07,2.78A5.3,5.3,0,0,1,1122.92,210.77Zm-1.25-12.67a2.67,2.67,0,0,0-2.28,1,5.53,5.53,0,0,0-.75,3.18v.46a6.52,6.52,0,0,0,.74,3.57,2.64,2.64,0,0,0,2.35,1.08q2.84,0,2.84-4.68a6.68,6.68,0,0,0-.7-3.43A2.39,2.39,0,0,0,1121.68,198.1Z"/><path class="cls-3" d="M1149.22,210.49h-4.28V198.78l0-1.92.07-2.1q-1.07,1.07-1.48,1.4l-2.33,1.87-2.06-2.57,6.52-5.19h3.52Z"/><rect class="cls-5" x="1031.28" y="343.47" width="165.84" height="165.84"/><path class="cls-3" d="M1089.65,434.38l-1.47-4.82h-7.38l-1.47,4.82h-4.62l7.14-20.32h5.25l7.17,20.32Zm-2.49-8.42q-2-6.55-2.29-7.41t-.37-1.36q-.46,1.77-2.62,8.76Z"/><path class="cls-3" d="M1105,434.65a5.13,5.13,0,0,1-4.28-2h-.22q.22,1.94.22,2.24v6.27h-4.22V418.9h3.43l.6,2h.19a4.88,4.88,0,0,1,4.39-2.3,5,5,0,0,1,4.29,2.12,9.79,9.79,0,0,1,1.55,5.88,11.62,11.62,0,0,1-.73,4.31,6,6,0,0,1-2.07,2.78A5.3,5.3,0,0,1,1105,434.65ZM1103.74,422a2.67,2.67,0,0,0-2.28,1,5.53,5.53,0,0,0-.75,3.18v.46a6.52,6.52,0,0,0,.74,3.57,2.64,2.64,0,0,0,2.35,1.08q2.84,0,2.84-4.68a6.68,6.68,0,0,0-.7-3.43A2.39,2.39,0,0,0,1103.74,422Z"/><path class="cls-3" d="M1122.92,434.65a5.13,5.13,0,0,1-4.28-2h-.22q.22,1.94.22,2.24v6.27h-4.22V418.9h3.43l.6,2h.19a4.88,4.88,0,0,1,4.39-2.3,5,5,0,0,1,4.29,2.12,9.79,9.79,0,0,1,1.55,5.88,11.62,11.62,0,0,1-.73,4.31,6,6,0,0,1-2.07,2.78A5.3,5.3,0,0,1,1122.92,434.65ZM1121.68,422a2.67,2.67,0,0,0-2.28,1,5.53,5.53,0,0,0-.75,3.18v.46a6.52,6.52,0,0,0,.74,3.57,2.64,2.64,0,0,0,2.35,1.08q2.84,0,2.84-4.68a6.68,6.68,0,0,0-.7-3.43A2.39,2.39,0,0,0,1121.68,422Z"/><path class="cls-3" d="M1152.79,434.38h-14.15v-3l5.08-5.14q2.26-2.31,2.95-3.2a7,7,0,0,0,1-1.65,4.21,4.21,0,0,0,.3-1.58,2.3,2.3,0,0,0-.67-1.81,2.6,2.6,0,0,0-1.79-.6,5.15,5.15,0,0,0-2.28.54,11.79,11.79,0,0,0-2.31,1.54l-2.33-2.75a15.13,15.13,0,0,1,2.48-1.8,9.11,9.11,0,0,1,2.15-.81,11,11,0,0,1,2.6-.28,7.71,7.71,0,0,1,3.35.69,5.34,5.34,0,0,1,2.26,1.94,5.15,5.15,0,0,1,.8,2.85,7,7,0,0,1-.49,2.62,10,10,0,0,1-1.52,2.51,37.17,37.17,0,0,1-3.63,3.67l-2.6,2.45v.19h8.82Z"/><rect class="cls-5" x="1031.28" y="567.35" width="165.84" height="165.84"/><path class="cls-3" d="M1089.65,658.26l-1.47-4.82h-7.38l-1.47,4.82h-4.62l7.14-20.32h5.25l7.17,20.32Zm-2.49-8.42q-2-6.55-2.29-7.41t-.37-1.36q-.46,1.77-2.62,8.76Z"/><path class="cls-3" d="M1105,658.54a5.13,5.13,0,0,1-4.28-2h-.22q.22,1.94.22,2.24v6.27h-4.22V642.79h3.43l.6,2h.19a4.88,4.88,0,0,1,4.39-2.3,5,5,0,0,1,4.29,2.12,9.79,9.79,0,0,1,1.55,5.88,11.62,11.62,0,0,1-.73,4.31,6,6,0,0,1-2.07,2.78A5.3,5.3,0,0,1,1105,658.54Zm-1.25-12.67a2.67,2.67,0,0,0-2.28,1,5.53,5.53,0,0,0-.75,3.18v.46a6.52,6.52,0,0,0,.74,3.57,2.64,2.64,0,0,0,2.35,1.08q2.84,0,2.84-4.68a6.68,6.68,0,0,0-.7-3.43A2.39,2.39,0,0,0,1103.74,645.88Z"/><path class="cls-3" d="M1122.92,658.54a5.13,5.13,0,0,1-4.28-2h-.22q.22,1.94.22,2.24v6.27h-4.22V642.79h3.43l.6,2h.19a4.88,4.88,0,0,1,4.39-2.3,5,5,0,0,1,4.29,2.12,9.79,9.79,0,0,1,1.55,5.88,11.62,11.62,0,0,1-.73,4.31,6,6,0,0,1-2.07,2.78A5.3,5.3,0,0,1,1122.92,658.54Zm-1.25-12.67a2.67,2.67,0,0,0-2.28,1,5.53,5.53,0,0,0-.75,3.18v.46a6.52,6.52,0,0,0,.74,3.57,2.64,2.64,0,0,0,2.35,1.08q2.84,0,2.84-4.68a6.68,6.68,0,0,0-.7-3.43A2.39,2.39,0,0,0,1121.68,645.88Z"/><path class="cls-3" d="M1152,642.55a4.76,4.76,0,0,1-1.15,3.23,6,6,0,0,1-3.23,1.83v.08a6.45,6.45,0,0,1,3.71,1.49,4.17,4.17,0,0,1,1.26,3.19,5.41,5.41,0,0,1-2.12,4.55,9.76,9.76,0,0,1-6,1.63,14.67,14.67,0,0,1-5.84-1.09v-3.64a13.17,13.17,0,0,0,2.59,1,10.9,10.9,0,0,0,2.8.37,5.44,5.44,0,0,0,3.13-.72,2.64,2.64,0,0,0,1-2.31,2.09,2.09,0,0,0-1.16-2,8.61,8.61,0,0,0-3.71-.6h-1.54v-3.28h1.56a7.27,7.27,0,0,0,3.44-.62,2.22,2.22,0,0,0,1.09-2.11q0-2.3-2.88-2.3a6.58,6.58,0,0,0-2,.33,9.9,9.9,0,0,0-2.29,1.15l-2-2.95a11,11,0,0,1,6.6-2,8.53,8.53,0,0,1,5,1.27A4.09,4.09,0,0,1,1152,642.55Z"/><path class="cls-6" d="M1072.81,50.79v6.07h-28.35V50.79Zm0,8.1V65h-28.35V58.89Zm0,8.1v6.07h-28.35V67Zm-26.32-12.15h16.2v-2h-16.2Zm0,8.1h16.2v-2h-16.2Zm0,8.1h16.2V69h-16.2Zm24.36-16.14a1.53,1.53,0,1,0-1.08.44A1.47,1.47,0,0,0,1070.85,54.9Zm0,8.1a1.53,1.53,0,1,0-1.08.44A1.47,1.47,0,0,0,1070.85,63Zm0,8.1a1.53,1.53,0,1,0-1.08.44A1.47,1.47,0,0,0,1070.85,71.1Z"/><path class="cls-6" d="M1101.18,67.68a5,5,0,0,1-1.94,4.17,8.4,8.4,0,0,1-5.26,1.5,13.18,13.18,0,0,1-5.54-.93V70.14a14.53,14.53,0,0,0,2.71.83,14.25,14.25,0,0,0,2.91.3,5.87,5.87,0,0,0,3.54-.89,2.93,2.93,0,0,0,1.19-2.48,3.19,3.19,0,0,0-.42-1.72,3.94,3.94,0,0,0-1.41-1.24,19.86,19.86,0,0,0-3-1.29,9.61,9.61,0,0,1-4-2.39,5.29,5.29,0,0,1-1.21-3.61,4.49,4.49,0,0,1,1.76-3.72,7.3,7.3,0,0,1,4.65-1.38,13.71,13.71,0,0,1,5.55,1.11l-.73,2a12.54,12.54,0,0,0-4.87-1.05,4.72,4.72,0,0,0-2.92.8,2.65,2.65,0,0,0-1.05,2.23,3.41,3.41,0,0,0,.39,1.72,3.65,3.65,0,0,0,1.31,1.23,16.25,16.25,0,0,0,2.82,1.24A11.16,11.16,0,0,1,1100,64.3,4.79,4.79,0,0,1,1101.18,67.68Z"/><path class="cls-6" d="M1109.88,71.44a8.17,8.17,0,0,0,2.08-.28v1.76a4.23,4.23,0,0,1-1.1.3,8.31,8.31,0,0,1-1.31.12q-4.4,0-4.4-4.64v-9H1103V58.57l2.17-1,1-3.24h1.33v3.52h4.4v1.79h-4.4v8.93a3.07,3.07,0,0,0,.65,2.1A2.26,2.26,0,0,0,1109.88,71.44Z"/><path class="cls-6" d="M1124.31,73.06l-.46-2.16h-.11a6.38,6.38,0,0,1-2.26,1.93,6.9,6.9,0,0,1-2.82.51,5.07,5.07,0,0,1-3.54-1.16,4.24,4.24,0,0,1-1.28-3.31q0-4.6,7.35-4.82l2.57-.08V63a3.85,3.85,0,0,0-.77-2.64,3.16,3.16,0,0,0-2.46-.85,10,10,0,0,0-4.29,1.16l-.71-1.76a10.81,10.81,0,0,1,2.46-1,10.65,10.65,0,0,1,2.68-.35,5.78,5.78,0,0,1,4,1.2,5,5,0,0,1,1.31,3.86V73.06Zm-5.19-1.62a4.66,4.66,0,0,0,3.37-1.18,4.35,4.35,0,0,0,1.23-3.29V65.6l-2.3.1a8.36,8.36,0,0,0-4,.85,2.57,2.57,0,0,0-1.21,2.35,2.37,2.37,0,0,0,.75,1.9A3.13,3.13,0,0,0,1119.12,71.44Z"/><path class="cls-6" d="M1143.17,57.89v1.45l-2.81.33a4.94,4.94,0,0,1,1,3,4.49,4.49,0,0,1-1.52,3.56,6.14,6.14,0,0,1-4.18,1.33,7,7,0,0,1-1.27-.11,2.26,2.26,0,0,0-1.47,2,1,1,0,0,0,.51.92,3.75,3.75,0,0,0,1.76.3h2.69a6,6,0,0,1,3.79,1,3.61,3.61,0,0,1,1.32,3,4.31,4.31,0,0,1-2,3.84,10.82,10.82,0,0,1-5.9,1.32,8.06,8.06,0,0,1-4.59-1.11,3.58,3.58,0,0,1-1.61-3.13,3.51,3.51,0,0,1,.89-2.39,4.51,4.51,0,0,1,2.49-1.37,2.4,2.4,0,0,1-1-.82,2.16,2.16,0,0,1-.39-1.29,2.44,2.44,0,0,1,.44-1.45,4.65,4.65,0,0,1,1.4-1.2,4.1,4.1,0,0,1-1.92-1.65,4.84,4.84,0,0,1-.74-2.66,4.91,4.91,0,0,1,1.5-3.84,6.1,6.1,0,0,1,4.24-1.35,7.7,7.7,0,0,1,2.15.28Zm-12.1,17.72a2.06,2.06,0,0,0,1,1.87,5.73,5.73,0,0,0,3,.64,8.31,8.31,0,0,0,4.28-.87,2.65,2.65,0,0,0,1.39-2.35,1.86,1.86,0,0,0-.76-1.71,5.91,5.91,0,0,0-2.87-.48h-2.75a3.63,3.63,0,0,0-2.44.75A2.67,2.67,0,0,0,1131.07,75.61Zm1.25-12.86a3.09,3.09,0,0,0,.9,2.41,3.59,3.59,0,0,0,2.5.82q3.36,0,3.36-3.27,0-3.42-3.41-3.42a3.37,3.37,0,0,0-2.49.87A3.51,3.51,0,0,0,1132.31,62.75Z"/><path class="cls-6" d="M1146.09,53.78a1.52,1.52,0,0,1,.39-1.16,1.43,1.43,0,0,1,1.92,0,1.5,1.5,0,0,1,.4,1.15,1.52,1.52,0,0,1-.4,1.16,1.41,1.41,0,0,1-1.92,0A1.55,1.55,0,0,1,1146.09,53.78Zm2.49,19.28h-2.3V57.89h2.3Z"/><path class="cls-6" d="M1163.83,73.06V63.25a4,4,0,0,0-.84-2.77,3.44,3.44,0,0,0-2.64-.91,4.36,4.36,0,0,0-3.49,1.29,6.49,6.49,0,0,0-1.11,4.25v8h-2.3V57.89h1.87l.37,2.08h.11a4.69,4.69,0,0,1,2-1.74,6.43,6.43,0,0,1,2.84-.62,5.76,5.76,0,0,1,4.13,1.32,5.63,5.63,0,0,1,1.38,4.23v9.9Z"/><path class="cls-6" d="M1183.27,57.89v1.45l-2.81.33a4.94,4.94,0,0,1,1,3,4.49,4.49,0,0,1-1.52,3.56,6.14,6.14,0,0,1-4.18,1.33,7,7,0,0,1-1.27-.11,2.26,2.26,0,0,0-1.47,2,1,1,0,0,0,.51.92,3.75,3.75,0,0,0,1.76.3H1178a6,6,0,0,1,3.79,1,3.61,3.61,0,0,1,1.32,3,4.31,4.31,0,0,1-2,3.84,10.82,10.82,0,0,1-5.9,1.32,8.06,8.06,0,0,1-4.59-1.11,3.58,3.58,0,0,1-1.61-3.13,3.51,3.51,0,0,1,.89-2.39,4.51,4.51,0,0,1,2.49-1.37,2.4,2.4,0,0,1-1-.82,2.16,2.16,0,0,1-.39-1.29,2.44,2.44,0,0,1,.44-1.45,4.65,4.65,0,0,1,1.4-1.2,4.1,4.1,0,0,1-1.92-1.65,4.84,4.84,0,0,1-.74-2.66,4.91,4.91,0,0,1,1.5-3.84,6.1,6.1,0,0,1,4.24-1.35,7.7,7.7,0,0,1,2.15.28Zm-12.1,17.72a2.06,2.06,0,0,0,1,1.87,5.73,5.73,0,0,0,3,.64,8.31,8.31,0,0,0,4.28-.87,2.65,2.65,0,0,0,1.39-2.35,1.86,1.86,0,0,0-.76-1.71,5.91,5.91,0,0,0-2.87-.48h-2.75a3.63,3.63,0,0,0-2.44.75A2.67,2.67,0,0,0,1171.17,75.61Zm1.25-12.86a3.09,3.09,0,0,0,.9,2.41,3.59,3.59,0,0,0,2.5.82q3.36,0,3.36-3.27,0-3.42-3.41-3.42a3.37,3.37,0,0,0-2.49.87A3.51,3.51,0,0,0,1172.42,62.75Z"/><path class="cls-6" d="M127.68,50.79v6.07H99.33V50.79Zm0,8.1V65H99.33V58.89Zm0,8.1v6.07H99.33V67ZM101.36,54.84h16.2v-2h-16.2Zm0,8.1h16.2v-2h-16.2Zm0,8.1h16.2V69h-16.2ZM125.72,54.9a1.53,1.53,0,1,0-1.08.44A1.46,1.46,0,0,0,125.72,54.9Zm0,8.1a1.53,1.53,0,1,0-1.08.44A1.46,1.46,0,0,0,125.72,63Zm0,8.1a1.53,1.53,0,1,0-1.08.44A1.46,1.46,0,0,0,125.72,71.1Z"/><path class="cls-6" d="M157.47,58.72a5.67,5.67,0,0,1-2.1,4.73,9.5,9.5,0,0,1-6,1.65H147v8h-2.35V52.83h5.25Q157.47,52.83,157.47,58.72ZM147,63.08h2.12a7.87,7.87,0,0,0,4.53-1,3.72,3.72,0,0,0,1.4-3.24,3.49,3.49,0,0,0-1.31-3,6.87,6.87,0,0,0-4.1-1H147Z"/><path class="cls-6" d="M168.28,57.62a9,9,0,0,1,1.81.17l-.32,2.13a7.81,7.81,0,0,0-1.66-.21A4,4,0,0,0,165,61.2a5.45,5.45,0,0,0-1.31,3.72v8.14h-2.3V57.89h1.9l.26,2.81h.11a6.67,6.67,0,0,1,2-2.28A4.58,4.58,0,0,1,168.28,57.62Z"/><path class="cls-6" d="M186,65.46a8.37,8.37,0,0,1-1.87,5.79A6.58,6.58,0,0,1,179,73.34a6.84,6.84,0,0,1-3.61-1,6.3,6.3,0,0,1-2.44-2.74,9.55,9.55,0,0,1-.86-4.18,8.36,8.36,0,0,1,1.85-5.78,6.56,6.56,0,0,1,5.15-2.07,6.42,6.42,0,0,1,5.06,2.12A8.33,8.33,0,0,1,186,65.46Zm-11.56,0a7.2,7.2,0,0,0,1.16,4.43,4.61,4.61,0,0,0,6.85,0,7.16,7.16,0,0,0,1.17-4.44,7,7,0,0,0-1.17-4.4,4.11,4.11,0,0,0-3.45-1.5A4,4,0,0,0,175.62,61,7.13,7.13,0,0,0,174.47,65.46Z"/><path class="cls-6" d="M200.38,71h-.12a5.4,5.4,0,0,1-4.76,2.31,5.63,5.63,0,0,1-4.63-2,9,9,0,0,1-1.65-5.79,9.11,9.11,0,0,1,1.66-5.83,5.59,5.59,0,0,1,4.62-2.08,5.52,5.52,0,0,1,4.73,2.24h.18l-.1-1.09-.06-1.07V51.53h2.3V73.06h-1.87Zm-4.6.39a4.18,4.18,0,0,0,3.41-1.28A6.47,6.47,0,0,0,200.26,66v-.48q0-3.22-1.07-4.6a4.07,4.07,0,0,0-3.43-1.38,3.52,3.52,0,0,0-3.09,1.57,7.81,7.81,0,0,0-1.07,4.44,7.49,7.49,0,0,0,1.07,4.39A3.61,3.61,0,0,0,195.78,71.42Z"/><path class="cls-6" d="M209.59,57.89v9.84a4,4,0,0,0,.84,2.77,3.44,3.44,0,0,0,2.64.91,4.31,4.31,0,0,0,3.48-1.3,6.56,6.56,0,0,0,1.1-4.25v-8H220V73.06h-1.9l-.33-2h-.12a4.58,4.58,0,0,1-2,1.72,6.59,6.59,0,0,1-2.86.6A5.8,5.8,0,0,1,208.64,72a5.6,5.6,0,0,1-1.38-4.21V57.89Z"/><path class="cls-6" d="M230.89,73.34a6.47,6.47,0,0,1-5.1-2A8.34,8.34,0,0,1,224,65.57a8.6,8.6,0,0,1,1.83-5.88A6.6,6.6,0,0,1,231,57.62a10.38,10.38,0,0,1,2.19.24,7.21,7.21,0,0,1,1.72.55l-.71,2a10.84,10.84,0,0,0-1.66-.51,7.45,7.45,0,0,0-1.59-.2q-4.62,0-4.62,5.9a7,7,0,0,0,1.13,4.29,3.93,3.93,0,0,0,3.34,1.49,10.22,10.22,0,0,0,3.89-.82v2A8.29,8.29,0,0,1,230.89,73.34Z"/><path class="cls-6" d="M243.22,71.44a8.16,8.16,0,0,0,2.08-.28v1.76a4.22,4.22,0,0,1-1.1.3,8.3,8.3,0,0,1-1.31.12q-4.4,0-4.4-4.64v-9h-2.17V58.57l2.17-1,1-3.24h1.33v3.52h4.4v1.79h-4.4v8.93a3.07,3.07,0,0,0,.65,2.1A2.26,2.26,0,0,0,243.22,71.44Z"/><path class="cls-6" d="M248.14,53.78a1.53,1.53,0,0,1,.39-1.16,1.43,1.43,0,0,1,1.92,0,1.5,1.5,0,0,1,.4,1.15,1.52,1.52,0,0,1-.4,1.16,1.34,1.34,0,0,1-1,.38,1.33,1.33,0,0,1-1-.38A1.56,1.56,0,0,1,248.14,53.78Zm2.49,19.28h-2.3V57.89h2.3Z"/><path class="cls-6" d="M268.59,65.46a8.37,8.37,0,0,1-1.87,5.79,6.58,6.58,0,0,1-5.16,2.08,6.84,6.84,0,0,1-3.61-1,6.3,6.3,0,0,1-2.44-2.74,9.55,9.55,0,0,1-.86-4.18,8.36,8.36,0,0,1,1.85-5.78,6.56,6.56,0,0,1,5.15-2.07,6.42,6.42,0,0,1,5.06,2.12A8.33,8.33,0,0,1,268.59,65.46Zm-11.56,0a7.2,7.2,0,0,0,1.16,4.43,4.61,4.61,0,0,0,6.85,0,7.16,7.16,0,0,0,1.17-4.44,7,7,0,0,0-1.17-4.4,4.11,4.11,0,0,0-3.45-1.5A4,4,0,0,0,258.18,61,7.13,7.13,0,0,0,257,65.46Z"/><path class="cls-6" d="M283,73.06V63.25a4,4,0,0,0-.84-2.77,3.44,3.44,0,0,0-2.64-.91A4.36,4.36,0,0,0,276,60.85a6.5,6.5,0,0,0-1.11,4.25v8h-2.3V57.89h1.87l.37,2.08H275a4.69,4.69,0,0,1,2-1.74,6.43,6.43,0,0,1,2.84-.62,5.76,5.76,0,0,1,4.13,1.32,5.63,5.63,0,0,1,1.38,4.23v9.9Z"/><line class="cls-7" x1="648.77" y1="322.69" x2="648.77" y2="458.18"/><polygon class="cls-8" points="636.17 332.24 648.76 326.89 661.36 332.24 648.76 302.38 636.17 332.24"/><polygon class="cls-8" points="636.17 448.63 648.76 453.98 661.36 448.63 648.76 478.49 636.17 448.63"/><line class="cls-9" x1="332.83" y1="650.27" x2="535.73" y2="650.27"/><polygon class="cls-8" points="342.38 662.87 337.03 650.27 342.38 637.67 312.52 650.27 342.38 662.87"/><polyline class="cls-9" points="318.58 202.5 447.86 202.5 447.86 526.71 535.73 526.71"/><polygon class="cls-8" points="328.13 215.09 322.78 202.5 328.13 189.9 298.27 202.5 328.13 215.09"/><polyline class="cls-9" points="318.58 426.38 382.39 426.38 382.39 587.72 535.73 587.72"/><polygon class="cls-8" points="328.13 438.98 322.78 426.38 328.13 413.79 298.27 426.38 328.13 438.98"/><line class="cls-9" x1="973.21" y1="650.27" x2="770.31" y2="650.27"/><polygon class="cls-8" points="963.65 637.67 969 650.27 963.65 662.87 993.51 650.27 963.65 637.67"/><polyline class="cls-9" points="987.46 202.5 858.17 202.5 858.17 526.71 770.31 526.71"/><polygon class="cls-8" points="977.9 189.9 983.26 202.5 977.9 215.09 1007.77 202.5 977.9 189.9"/><polyline class="cls-9" points="987.46 426.38 923.65 426.38 923.65 587.72 770.31 587.72"/><polygon class="cls-8" points="977.9 413.79 983.26 426.38 977.9 438.98 1007.77 426.38 977.9 413.79"/><rect class="cls-10" x="568.52" y="503.87" width="170.4" height="170.4" transform="translate(-1.23 1.36) rotate(-0.12)"/><polygon class="cls-3" points="617.17 552.67 653.64 552.6 653.62 543.48 617.15 543.56 608.04 543.58 608.13 589.16 617.25 589.14 617.17 552.67"/><polygon class="cls-3" points="617.27 598.26 608.15 598.28 608.23 634.75 617.34 634.73 681.16 634.6 681.14 625.48 617.32 625.61 617.27 598.26"/><polygon class="cls-3" points="690.09 543.41 662.74 543.46 662.76 552.58 690.11 552.52 690.24 616.34 699.36 616.33 699.21 543.39 690.09 543.41"/><polygon class="cls-3" points="626.33 570.89 626.4 607.36 626.42 616.48 653.77 616.42 653.75 607.3 635.52 607.34 635.45 570.87 671.91 570.8 671.99 607.26 662.87 607.28 662.89 616.4 681.13 616.36 681.11 607.25 681.03 570.78 681.01 561.66 626.31 561.77 626.33 570.89"/><polygon class="cls-3" points="662.82 579.93 653.7 579.95 653.72 589.07 644.6 589.09 644.62 598.2 662.85 598.17 662.82 579.93"/><path class="cls-6" d="M621.14,693.56a6.62,6.62,0,0,0-5.27,2.22,9,9,0,0,0-1.93,6.08A9.14,9.14,0,0,0,615.8,708a6.62,6.62,0,0,0,5.31,2.17,18.12,18.12,0,0,0,4.83-.76v2.06a14.9,14.9,0,0,1-5.19.79,8.78,8.78,0,0,1-6.9-2.71q-2.43-2.71-2.43-7.71a12.17,12.17,0,0,1,1.17-5.48,8.39,8.39,0,0,1,3.38-3.63,10.22,10.22,0,0,1,5.2-1.27,12.56,12.56,0,0,1,5.57,1.16l-1,2A10.73,10.73,0,0,0,621.14,693.56Z"/><path class="cls-6" d="M643.1,704.39a8.37,8.37,0,0,1-1.87,5.79,6.58,6.58,0,0,1-5.16,2.08,6.84,6.84,0,0,1-3.61-1,6.3,6.3,0,0,1-2.44-2.74,9.55,9.55,0,0,1-.86-4.18,8.36,8.36,0,0,1,1.85-5.78,6.56,6.56,0,0,1,5.15-2.07,6.42,6.42,0,0,1,5.06,2.12A8.34,8.34,0,0,1,643.1,704.39Zm-11.56,0a7.2,7.2,0,0,0,1.16,4.43,4.61,4.61,0,0,0,6.84,0,7.16,7.16,0,0,0,1.17-4.44,7.06,7.06,0,0,0-1.17-4.4,4.11,4.11,0,0,0-3.45-1.5,4,4,0,0,0-3.41,1.48A7.13,7.13,0,0,0,631.55,704.39Z"/><path class="cls-6" d="M657.51,712v-9.81a4,4,0,0,0-.84-2.77,3.44,3.44,0,0,0-2.64-.91,4.36,4.36,0,0,0-3.49,1.29,6.49,6.49,0,0,0-1.11,4.25v8h-2.3V696.81H649l.37,2.08h.11a4.69,4.69,0,0,1,2-1.74,6.43,6.43,0,0,1,2.84-.62,5.76,5.76,0,0,1,4.13,1.32,5.63,5.63,0,0,1,1.38,4.23V712Z"/><path class="cls-6" d="M662.69,718.79a5.53,5.53,0,0,1-2.13-.35v-1.87a6.74,6.74,0,0,0,1.88.28,2,2,0,0,0,1.58-.59,2.7,2.7,0,0,0,.51-1.79V696.81h2.3v17.5Q666.83,718.79,662.69,718.79Zm1.65-26.09a1.52,1.52,0,0,1,.39-1.16,1.43,1.43,0,0,1,1.92,0,1.5,1.5,0,0,1,.4,1.15,1.52,1.52,0,0,1-.4,1.16,1.41,1.41,0,0,1-1.92,0A1.55,1.55,0,0,1,664.34,692.7Z"/><path class="cls-6" d="M673.86,696.81v9.84a4,4,0,0,0,.84,2.77,3.44,3.44,0,0,0,2.64.91,4.32,4.32,0,0,0,3.48-1.3,6.56,6.56,0,0,0,1.1-4.25v-8h2.3V712h-1.9l-.33-2h-.12a4.58,4.58,0,0,1-2,1.72,6.59,6.59,0,0,1-2.86.6,5.8,5.8,0,0,1-4.15-1.32,5.6,5.6,0,0,1-1.38-4.21v-9.92Z"/><path class="cls-6" d="M696,696.54a9,9,0,0,1,1.81.17l-.32,2.13a7.82,7.82,0,0,0-1.66-.21,4,4,0,0,0-3.15,1.5,5.45,5.45,0,0,0-1.31,3.72V712h-2.3V696.81H691l.26,2.81h.11a6.67,6.67,0,0,1,2-2.28A4.58,4.58,0,0,1,696,696.54Z"/></svg>