<svg id="Layer_1" data-name="Layer 1" xmlns="http://www.w3.org/2000/svg" viewBox="0 0 1004.93 456.35"><defs><style>.cls-1,.cls-12,.cls-14,.cls-2,.cls-20{fill:none;stroke-miterlimit:10;}.cls-1{stroke:#d0d2d3;stroke-linecap:round;stroke-width:3.87px;}.cls-12,.cls-14,.cls-2,.cls-20{stroke:#2e73af;}.cls-2{stroke-width:3.69px;}.cls-3{fill:#2e73af;}.cls-15,.cls-4,.cls-5{font-size:12px;}.cls-4{fill:#6d6e70;}.cls-15,.cls-4{font-family:OpenSans-Semibold, Open Sans;}.cls-13,.cls-15,.cls-4,.cls-5{font-weight:700;}.cls-10,.cls-13,.cls-15,.cls-5,.cls-7{fill:#fff;}.cls-13,.cls-5{font-family:OpenSans-Extrabold, Open Sans;}.cls-6{fill:#f1f1f2;}.cls-10,.cls-8{font-size:16px;font-family:OpenSans, Open Sans;}.cls-8,.cls-9{fill:#2f73b0;}.cls-11{fill:#0b1117;}.cls-12{stroke-width:3.75px;}.cls-13{font-size:11.07px;}.cls-14{stroke-width:3.71px;}.cls-16{fill:#4d90cd;}.cls-17{fill:#3074b1;}.cls-18{fill:#999b9d;}.cls-19{fill:#5d5e60;}.cls-20{stroke-width:4px;}</style></defs><title>conjur_pcf_tile_updated</title><rect class="cls-1" x="361.72" y="9.01" width="630.4" height="436.33" rx="8.02" ry="8.02"/><line class="cls-2" x1="377.48" y1="403.82" x2="173.35" y2="403.82"/><polygon class="cls-3" points="373.33 398.35 375.66 403.82 373.33 409.29 386.3 403.82 373.33 398.35"/><rect class="cls-3" x="386.26" y="346.45" width="287.46" height="77.85" rx="3.51" ry="3.51" transform="translate(-0.8 1.1) rotate(-0.12)"/><text class="cls-4" transform="translate(842.75 290.79)">Start/Restage the <tspan x="0" y="16">application to install </tspan><tspan x="0" y="32">Summon for secret </tspan><tspan x="0" y="48">retrieval</tspan></text><circle class="cls-3" cx="820.94" cy="295.34" r="14.16"/><text class="cls-5" transform="translate(817.21 299.78)">7</text><text class="cls-4" transform="translate(627.54 237.34)">Bind Application <tspan x="0" y="16">to Service</tspan></text><circle class="cls-3" cx="608.74" cy="238.87" r="14.16"/><text class="cls-5" transform="translate(605.01 243.32)">2</text><text class="cls-4" transform="translate(474.46 241.82)">Pass credentials</text><circle class="cls-3" cx="454.18" cy="238.87" r="14.16"/><text class="cls-5" transform="translate(450.45 243.32)">5</text><rect class="cls-6" x="383.61" y="54.37" width="587.77" height="153.23" rx="9.36" ry="9.36"/><path class="cls-7" d="M962,56.94a6.79,6.79,0,0,1,6.78,6.78V198.23A6.79,6.79,0,0,1,962,205H393a6.79,6.79,0,0,1-6.78-6.79V63.72A6.79,6.79,0,0,1,393,56.94H962m0-5.15H393A11.94,11.94,0,0,0,381,63.72V198.23A12,12,0,0,0,393,210.17H962A12,12,0,0,0,974,198.23V63.72A11.94,11.94,0,0,0,962,51.79Z"/><text class="cls-8" transform="translate(395.84 40.52)">Pivotal Cloud Foundry</text><text class="cls-8" transform="translate(396.52 88.59)">CyberArk Conjur Tile</text><text class="cls-4" transform="translate(725.02 82.99)">Install and configure the service <tspan x="0" y="16">with the Conjur tile</tspan></text><circle class="cls-9" cx="701.05" cy="85.19" r="14.16"/><text class="cls-5" transform="translate(697.32 89.63)">1</text><rect class="cls-3" x="402.87" y="114.96" width="265.38" height="67.93" rx="3.15" ry="3.15" transform="matrix(1, 0, 0, 1, -0.31, 1.12)"/><text class="cls-10" transform="translate(473.17 145.61)">CyberArk Conjur <tspan x="9.62" y="19.2">Service Broker</tspan></text><rect class="cls-3" x="683.26" y="115.38" width="265.38" height="67.93" rx="3.15" ry="3.15" transform="matrix(1, 0, 0, 1, -0.31, 1.7)"/><text class="cls-10" transform="translate(717.12 154.68)">CyberArk Conjur Buildpack</text><path class="cls-11" d="M389.76,281.59H670a3.56,3.56,0,0,1,3.56,3.56v76.34a0,0,0,0,1,0,0H386.2a0,0,0,0,1,0,0V285.14a3.56,3.56,0,0,1,3.56-3.56Z" transform="matrix(1, 0, 0, 1, -0.67, 1.1)"/><text class="cls-10" transform="translate(488.15 327.99)">Application</text><text class="cls-10" transform="translate(459.64 399.7)">CyberArk Summon</text><line class="cls-12" x1="181.85" y1="135.07" x2="442.71" y2="135.07"/><polygon class="cls-3" points="186.06 140.63 183.7 135.07 186.06 129.51 172.89 135.07 186.06 140.63"/><text class="cls-4" transform="translate(238.81 107.46)">Create identity <tspan x="0" y="16">for Application</tspan></text><circle class="cls-3" cx="220" cy="102.4" r="14.16"/><text class="cls-5" transform="translate(216.28 106.85)">3</text><text class="cls-4" transform="translate(238.81 193.53)">Issue credentials</text><circle class="cls-3" cx="220" cy="190.13" r="14.16"/><text class="cls-5" transform="translate(216.28 194.58)">4</text><text class="cls-4" transform="translate(238.81 349.57)">Authenticate and <tspan x="0" y="16">request values</tspan></text><circle class="cls-3" cx="220" cy="351.1" r="14.16"/><text class="cls-13" transform="translate(216.28 354.38) scale(1.08 1)">8</text><text class="cls-4" transform="translate(238.81 431.46)">Inject secret values</text><circle class="cls-3" cx="220" cy="425.99" r="14.16"/><text class="cls-5" transform="translate(216.28 430.44)">9</text><line class="cls-12" x1="182.24" y1="379.71" x2="439.11" y2="379.71"/><polygon class="cls-3" points="186.46 385.26 184.1 379.71 186.46 374.15 173.29 379.71 186.46 385.26"/><line class="cls-14" x1="394.03" y1="164.06" x2="172.89" y2="164.06"/><polygon class="cls-3" points="389.86 158.56 392.2 164.06 389.86 169.56 402.9 164.06 389.86 158.56"/><rect class="cls-11" x="8.33" y="10.18" width="164.47" height="436.59" rx="6.29" ry="6.29" transform="translate(-0.48 0.19) rotate(-0.12)"/><text class="cls-15" transform="translate(29.92 378.71)">Update Conjur policy <tspan x="-2.12" y="16">to grant secret access </tspan><tspan x="2.98" y="32">to the app’s identity</tspan></text><circle class="cls-9" cx="90.54" cy="342.09" r="14.16"/><text class="cls-5" transform="translate(86.82 346.54)">6</text><text class="cls-10" transform="translate(29.21 160.77)">CyberArk Conjur<tspan x="29.89" y="19.2">Instance</tspan></text><polygon class="cls-16" points="71.54 80.59 91.27 69.16 91.27 45.04 50.6 68.54 71.54 80.59"/><polygon class="cls-17" points="91.31 114.76 111.07 103.36 111.07 103.35 131.97 91.28 131.97 115.42 91.35 138.88 91.31 114.76"/><polygon class="cls-17" points="91.27 69.16 111.03 80.57 131.92 68.5 91.27 45.04 91.27 69.16"/><polygon class="cls-16" points="91.32 114.76 71.54 103.38 50.67 115.47 91.35 138.88 91.32 114.76"/><polygon class="cls-17" points="71.54 103.38 71.54 80.59 50.6 68.54 50.67 115.47 71.54 103.38"/><polygon class="cls-18" points="91.27 69.16 111.03 80.56 111.03 103.38 91.27 91.97 91.27 69.16"/><polyline class="cls-19" points="91.27 69.16 71.54 80.59 71.54 103.38 91.27 91.97 91.27 69.16"/><line class="cls-20" x1="584.42" y1="193.05" x2="584.42" y2="281.18"/><polygon class="cls-3" points="578.49 197.54 584.42 195.02 590.34 197.54 584.42 183.5 578.49 197.54"/><line class="cls-20" x1="430.56" y1="271.62" x2="430.56" y2="174.33"/><polygon class="cls-3" points="436.49 267.13 430.56 269.65 424.64 267.13 430.56 281.18 436.49 267.13"/><path class="cls-20" d="M789.67,194V372.12c0,10.69-8.08,19.36-18,19.36H683.17"/><polygon class="cls-3" points="783.74 198.46 789.67 195.94 795.59 198.46 789.67 184.41 783.74 198.46"/><polygon class="cls-3" points="687.67 385.55 685.15 391.48 687.67 397.4 673.62 391.48 687.67 385.55"/></svg>