<svg xmlns="http://www.w3.org/2000/svg" xmlns:xlink="http://www.w3.org/1999/xlink" viewBox="0 0 1626.71 351.26"><defs><style>.cls-1,.cls-3,.cls-4,.cls-5,.cls-6,.cls-7{isolation:isolate;}.cls-2{fill:url(#linear-gradient);}.cls-3,.cls-4,.cls-5,.cls-6,.cls-7{opacity:0.12;mix-blend-mode:hard-light;}.cls-3{fill:url(#linear-gradient-2);}.cls-4{fill:url(#linear-gradient-3);}.cls-5{fill:url(#linear-gradient-4);}.cls-6{fill:url(#linear-gradient-5);}.cls-7{fill:url(#linear-gradient-6);}.cls-8{fill:#fff;opacity:0.2;}</style><linearGradient id="linear-gradient" y1="768.37" x2="1623.61" y2="768.37" gradientTransform="matrix(1, 0, 0, -1, 0, 944)" gradientUnits="userSpaceOnUse"><stop offset="0" stop-color="#0171c7"/><stop offset="0.22" stop-color="#0276c9"/><stop offset="0.49" stop-color="#0585cf"/><stop offset="0.78" stop-color="#0b9ed9"/><stop offset="1" stop-color="#10b5e3"/></linearGradient><linearGradient id="linear-gradient-2" x1="975.69" y1="266.31" x2="675.69" y2="342.98" gradientUnits="userSpaceOnUse"><stop offset="0" stop-color="#fff"/><stop offset="1"/></linearGradient><linearGradient id="linear-gradient-3" x1="-10136.87" y1="43.81" x2="-9350.9" y2="43.81" gradientTransform="matrix(-1, 0, 0, 1, -9186.27, 93.82)" xlink:href="#linear-gradient-2"/><linearGradient id="linear-gradient-4" x1="410.22" y1="469.24" x2="-7.08" y2="-149.07" xlink:href="#linear-gradient-2"/><linearGradient id="linear-gradient-5" x1="1194.75" y1="388.28" x2="1191" y2="-112.39" xlink:href="#linear-gradient-2"/><linearGradient id="linear-gradient-6" x1="1277.29" y1="57.53" x2="1732.79" y2="416.03" xlink:href="#linear-gradient-2"/></defs><title>conjur_docs_hero</title><g class="cls-1"><g id="bg"><rect class="cls-2" width="1626.71" height="351.26"/></g><g id="Layer_3" data-name="Layer 3"><polygon class="cls-3" points="769.79 265 769.13 351.26 857.29 350.5 934.79 308.13 769.79 265"/><polygon class="cls-4" points="477.1 213.5 560.73 236.6 725.04 220.5 765.07 133.64 762.52 131.76 762.79 119.75 766.3 117.82 741.3 38.65 563.49 52.11 499.29 114 375.09 156.5 477.1 213.5"/><polygon class="cls-5" points="-0.28 0.25 424.22 0.15 440.75 36.85 435.82 38.5 435.82 46.68 302.29 72.89 375.09 156.5 282.62 208.33 220.24 303.67 303.68 350.93 0.21 351.57 -0.28 0.25"/><polygon class="cls-6" points="1255.75 289.87 1260.29 167.33 1298.41 75.72 1154.29 41.65 1086.96 150 1091.62 298.67 1248.65 296.97 1248.29 289.33 1255.75 289.87"/><polygon class="cls-7" points="1626.52 135.2 1595.79 116 1470.29 139 1391.29 226.5 1354.79 308.13 1400.3 351.53 1626.4 351.47 1626.52 135.2"/></g><g id="dots"><path class="cls-8" d="M1627,351l-28.39-42a4.72,4.72,0,0,0,1.82-3.7h0a4.45,4.45,0,0,0-4.75-4.67,5.24,5.24,0,0,0-2.24.48l-52.62-82.85a4.71,4.71,0,0,0,1.88-3.39l84-.25v-.75l-84,.25a4.41,4.41,0,0,0-2-3.57l52.88-90.24a4.68,4.68,0,0,0,5.86-1.48l27,16.31.39-.64-27-16.31a4.7,4.7,0,0,0,.54-2.14h0a4.45,4.45,0,0,0-4.75-4.67,5.12,5.12,0,0,0-2.48.6l-36.95-51.47h2.31V47.64L1626.92.31l-.43-.62-67.91,47v-2h-15.82v7.68l-114.1,2.07V50.87h-1.32V48.29a4.52,4.52,0,0,0-4.52-4.52h-1.11L1418.5,0l-.75.05L1421,43.84a4.5,4.5,0,0,0-3.9,4.45h0v2.58h-1.4V55.6L1303,74.69a4.4,4.4,0,0,0-4.62-3.54,5.91,5.91,0,0,0-.79.07L1279.52-.09l-.73.18,18.1,71.28a4.21,4.21,0,0,0-3,3L1158.54,43.27a4.69,4.69,0,0,0,.07-.73h0A4.38,4.38,0,0,0,1155,38l-.62-7.44h-.13V0h-.75V37.91a4.35,4.35,0,0,0-4.32,4L982,31.88V24.76H966.21v9.66l-98.06,44.7a4.44,4.44,0,0,0-4.3-2.57l.37,0L854.73,0,854,0l9.49,76.54a4.36,4.36,0,0,0-4,2.59L745.7,39.63a4.72,4.72,0,0,0,.36-1.79h0A4.39,4.39,0,0,0,742,33.23L743.62,0l-.75,0-1.67,33.2a4.44,4.44,0,0,0-4.64,4.66,4.66,4.66,0,0,0,.07.65L567.74,51.91a4.59,4.59,0,0,0-.91-2.25L630.23.3l-.46-.59-63.45,49.4A4.78,4.78,0,0,0,563.06,48a4.89,4.89,0,0,0-3,.94L505.5-.28l-.5.56L559.48,49.4A4.54,4.54,0,0,0,558.37,52L451.64,44.91V36.85H440.75l-15.84-37-.69.29,15.72,36.7h-4.11v9.07L307.31,71v-.9H306V67.48A4.5,4.5,0,0,0,302,63l-.76-63h-.75l.76,63h-1a4.52,4.52,0,0,0-4.52,4.52h0v2.58h-1.4v5.86l-89.88,47.53a4.71,4.71,0,0,0-3.52-1.37,5.88,5.88,0,0,0-.65.06L175.62,36.82a4.74,4.74,0,0,0,3.09-4.42h0a5,5,0,0,0-.56-2.34L222.21.31l-.42-.62-44,29.74a4.59,4.59,0,0,0-3.78-1.7,4.45,4.45,0,0,0-4.75,4.67v0L43.71,41.85a4.4,4.4,0,0,0-4.69-4,4.92,4.92,0,0,0-3,.91L.28-.25-.28.25l35.76,39a4.7,4.7,0,0,0-1.21,3.27,4.74,4.74,0,0,0,7.38,3.94l47.23,59.25v7.55L0,116.88l0,.75L88.89,114v7.27h0L52,187a5.44,5.44,0,0,0-2-.36,4.45,4.45,0,0,0-4.75,4.67,4.7,4.7,0,0,0,.66,2.36L-.21,224.94l.42.62L46.29,194.3A4.52,4.52,0,0,0,50.7,196l23.74,96.81H68.85v12.67L-.21,350.95l.41.63,68.64-45.21v2.25H81l25.41,42.84.64-.38L81.89,308.61h2.78v-7.35l128.64,2.92a4.73,4.73,0,0,0,8.65,2.34l81.36,45.07.36-.66-81.36-45.07a4.71,4.71,0,0,0,.45-2h0a5.56,5.56,0,0,0-.07-.87l129.88-27.88v4.46h10l45.13,71.88.63-.4-44.88-71.48h2.14v-3.43l105.92,36.92a5.43,5.43,0,0,0-.14,1.17,4.75,4.75,0,0,0,4.76,4.74l.21,0,4.16,32.34.74-.1-4.16-32.32a4.74,4.74,0,0,0,3.71-3.94l138.69,8.34a4.7,4.7,0,0,0,6.87,4.08l14.85,24.1.64-.39L627,327a4.73,4.73,0,0,0,2-3.82h0a5.33,5.33,0,0,0-.2-1.39L765,266.88a4.72,4.72,0,0,0,3.85,2.56l.26,81.82h.75l-.26-81.82a4.72,4.72,0,0,0,4.06-3.09l154.89,41.18a4.61,4.61,0,0,0-.05.53h0a5,5,0,0,0,.52,2.25l-73.2,40.63.36.66,73.23-40.65a4.57,4.57,0,0,0,3.84,1.78,4.41,4.41,0,0,0,4.71-4.25l149-9.12a4.51,4.51,0,0,0,1.24,2.73L1045.47,351l.56.49,42.75-49a5,5,0,0,0,2.88.83,4.42,4.42,0,0,0,4.72-4.38l150.85-1.71v6.61h6.15l-8.26,47.28.74.13,8.28-47.41h8.91v-6.34l88,10.84c0,.06,0,.11,0,.17a4.73,4.73,0,0,0,7.87,3.54l41.35,39.42.52-.54-41.35-39.42a4.7,4.7,0,0,0,1.07-2.69l128-2.76V313h10.51l28.14,38.45.61-.44L1500,313h1.55V302.36h-1.37v-2.58a4.47,4.47,0,0,0-1-2.86l37.22-78a4.57,4.57,0,0,0,3.86-.24l52.6,82.82a4.52,4.52,0,0,0-1.85,3.82,4.75,4.75,0,0,0,4.76,4.74,4.7,4.7,0,0,0,2.3-.62l28.39,42ZM1396.26,225.48a4.51,4.51,0,0,0-1.15-2.56l74-80.93a4.67,4.67,0,0,0,5.66.08l59.81,69.08a4.66,4.66,0,0,0-1.3,3.37s0,0,0,0Zm-149,62.61v.84L1176,229.67v-8.28h-.51l80.61-51.25a4.71,4.71,0,0,0,3.21,1.82l-4.28,116.14Zm-79.59-63.4a2,2,0,1,1,2.73,2.72v1.69a.92.92,0,0,1-1.79,0v-1.69A2,2,0,0,1,1167.65,224.7Zm-1.38-3.31v-2.58a2.62,2.62,0,0,1,2.62-2.62h1.24a2.62,2.62,0,0,1,2.62,2.62l0,2.58Zm-71.43,73.83a4.71,4.71,0,0,0-3-1.22l-4.73-139.33a4.71,4.71,0,0,0,2.74-1.27l74.51,65.48v2.5H1163v10.46ZM938,307.72a4.7,4.7,0,0,0-.93-2.49l67.86-66a4.81,4.81,0,0,0,3.18,1.08,4.65,4.65,0,0,0,3.62-1.5l76,57.32a4.71,4.71,0,0,0-.76,2.44Zm-4.72-4.4a4.71,4.71,0,0,0-2.75.9l-68.22-87.92a4.72,4.72,0,0,0,1.58-3.5h0a5.09,5.09,0,0,0-.45-2.1l96.89-57.93a4.71,4.71,0,0,0,5.64,1.61l39.67,77.27a4.73,4.73,0,0,0-2.28,4h0a4.75,4.75,0,0,0,1,3l-67.82,65.94A4.73,4.73,0,0,0,933.24,303.32Zm-164-43.24a5,5,0,0,0-2.71.72l-37.64-37a4.72,4.72,0,0,0,1.52-3.46h0a4.49,4.49,0,0,0-2-3.93l36.68-82.76h11.78l78.54,76.11a4.82,4.82,0,0,0-.54,5.1L773.21,262A4.54,4.54,0,0,0,769.23,260.07ZM479.49,310.84l78.88-71.11a4.56,4.56,0,0,0,4,.67l59.77,78.45a4.3,4.3,0,0,0-2.66,3.67l-138.66-8.33A4.63,4.63,0,0,0,479.49,310.84ZM364.21,268.9v-2.58a4.52,4.52,0,0,0-4.52-4.52h-1.24a4.52,4.52,0,0,0-4.52,4.52h0v2.11l-67.06-57.55a4.71,4.71,0,0,0,.94-2.8h0a5.14,5.14,0,0,0-.39-2L370.82,159a4.71,4.71,0,0,0,7.89,1l93,50.86a5.17,5.17,0,0,0-.37,1.94,4.73,4.73,0,0,0,.38,1.86L365.57,269.14v-.23ZM218,299.21a5,5,0,0,0-2.88.83l-67.33-77.16v-6.2l131-6.5a4.74,4.74,0,0,0,2,2l-60.38,87.55A5.15,5.15,0,0,0,218,299.21Zm-78.61-82.78a2,2,0,1,1,2.73,2.72v1.69a.92.92,0,0,1-1.79,0v-1.69A2,2,0,0,1,139.42,216.43ZM138,213.12v-2.58a2.62,2.62,0,0,1,2.62-2.62h1.24a2.62,2.62,0,0,1,2.62,2.62l0,2.58Zm3.89-7.1h-1.24a4.48,4.48,0,0,0-2.89,1.07l-33.91-85.79h.81V115l91.49,11.58c0,.06,0,.12,0,.19a4.73,4.73,0,0,0,8.28,3.13l74.4,75.95a5,5,0,0,0-.53,2.26,4.7,4.7,0,0,0,.22,1.36l-130.74,6.48v-2.81h-1.37v-2.58A4.52,4.52,0,0,0,141.93,206ZM449.67,52.67l46.46,57.23a4.62,4.62,0,0,0-1.42,3.47,4.68,4.68,0,0,0,.19,1.24L379.49,155.06a4.26,4.26,0,0,0-.88-1.4l60.81-101Zm110.26,3.5a4.68,4.68,0,0,0,6.64-.38L633.65,116h-.84v9.92l-68.95,106a5,5,0,0,0-2.76-.75,4.89,4.89,0,0,0-3,.94L502.93,116.57a4.71,4.71,0,0,0,1.27-3.2h0a4.76,4.76,0,0,0-1-3ZM741.32,42.58a4.74,4.74,0,0,0,.87-.09l24.11,75.33h-5v15.82h2.88l-36.48,82.41a5.38,5.38,0,0,0-2.07-.39,4.87,4.87,0,0,0-3,1l-76.8-90.88V116h-1.32v-.2l93.4-74.74A4.72,4.72,0,0,0,741.32,42.58ZM763.94,131V120.44h10.57V131ZM565.85,235.88h0a4.62,4.62,0,0,0-1.4-3.45l68.71-105.71h12.53L722,217.14a4.53,4.53,0,0,0-1.09,2.5Zm71.61-116.54a2,2,0,1,1,2.72,2.72v1.69a.92.92,0,0,1-1.79,0v-1.69A2,2,0,0,1,637.46,119.34ZM636.08,116v-2.58a2.62,2.62,0,0,1,2.62-2.62h1.24a2.62,2.62,0,0,1,2.62,2.62l0,2.58Zm-1.86,0h0ZM476.1,208.12a4.52,4.52,0,0,0-4,2.06l-92.9-50.8a4.7,4.7,0,0,0,.68-2.41h0a5.41,5.41,0,0,0-.14-1.18l115.45-40.47a4.7,4.7,0,0,0,7.23,1.76l55.15,115.56a4.7,4.7,0,0,0-1.18,3.23,4.53,4.53,0,0,0,0,.47l-75.69-24.69A4.4,4.4,0,0,0,476.1,208.12Zm148.1,110.36a5.7,5.7,0,0,0-1.31.16l-59.79-78.5a4.73,4.73,0,0,0,2.67-3.52l155.14-16.24a4.73,4.73,0,0,0,1.43,3.33L627,319.26A5,5,0,0,0,624.19,318.49ZM864.56,85.88A4.72,4.72,0,0,0,867.68,84L960,147.62a5,5,0,0,0-.58,2.38,4.7,4.7,0,0,0,.53,2.12L863,210a4.41,4.41,0,0,0-3.38-1.86Zm217.35,64.52a4.71,4.71,0,0,0,1.26,2.83L1011,231.93a4.67,4.67,0,0,0-4.69-.64L966.6,154a4.72,4.72,0,0,0,2.23-3.62Zm72-103.13a4.72,4.72,0,0,0,1.12-.15l13.9,167.16a4.51,4.51,0,0,0-4.42,3.67l-74.1-65.12a4.7,4.7,0,0,0,1-2.85h0a4.52,4.52,0,0,0-1.88-3.84l62.22-99.41A4.69,4.69,0,0,0,1153.88,47.28Zm-65.73,248.28-76-57.33a4.94,4.94,0,0,0,.68-2.57,4.72,4.72,0,0,0-1.3-3.24l72.21-78.7a4.7,4.7,0,0,0,2.67,1L1091.13,294A4.71,4.71,0,0,0,1088.15,295.56Zm82-81.27h-.5L1155.74,46.9a4.75,4.75,0,0,0,1.52-1l99.25,118a4.64,4.64,0,0,0-1.36,3.41,4.69,4.69,0,0,0,.59,2.23L1174.68,221v-2.24A4.52,4.52,0,0,0,1170.16,214.29ZM1298.42,80.55a4.72,4.72,0,0,0,3.62-1.72L1377,130.91a5,5,0,0,0-.59,2.39c0,.14,0,.27,0,.4l-112.05,31.94a4.17,4.17,0,0,0-2.29-2.58l34.85-82.77A4.7,4.7,0,0,0,1298.42,80.55ZM1424,56a2,2,0,0,1-.93.93V58.6a.92.92,0,0,1-1.8,0V56.91A2,2,0,1,1,1424,56Zm1.67,5.57,43.54,72.81a4.5,4.5,0,0,0-2,3.9,4.72,4.72,0,0,0,1.31,3.24l-74,80.93a4.92,4.92,0,0,0-3-.9h-.15l-9.33-83.6a4.75,4.75,0,0,0,3.79-4.64h0a4.45,4.45,0,0,0-2.21-4l35.2-67.72ZM1264.57,166.37l112-31.92a4.74,4.74,0,0,0,4.6,3.59l.2,0,9.33,83.59a4.28,4.28,0,0,0-3.32,2.33l-123-55a4.7,4.7,0,0,0,.3-1.61h0A5.61,5.61,0,0,0,1264.57,166.37Zm275.54,43.89a5.36,5.36,0,0,0-2.09-.4,5,5,0,0,0-2.87.82l-59.81-69.08a4.73,4.73,0,0,0,1.39-3.34h0c0-.15,0-.28,0-.43l114.44-20.48A4.74,4.74,0,0,0,1593,120Zm5.28-162.87H1556V58h-10.57Zm-2.62,5.8v7.39h12.58l37.25,51.88a4.56,4.56,0,0,0-1.64,3.65,4.72,4.72,0,0,0,.05.49l-114.41,20.48a4.4,4.4,0,0,0-4.61-3.5,5.33,5.33,0,0,0-2.12.42l-43.34-72.46h2.14V55.26Zm-123.83-4.89a2.62,2.62,0,0,1,2.62-2.62h1.24a2.62,2.62,0,0,1,2.62,2.62l0,2.58h-6.51Zm-3.27,8.07v5.18H1418l-35,67.4a5.46,5.46,0,0,0-1.86-.32,4.6,4.6,0,0,0-3.74,1.65l-74.92-52.06a4.7,4.7,0,0,0,.68-2.4h0c0-.13,0-.25,0-.38ZM1293.72,75.15a5.51,5.51,0,0,0-.06.66,4.73,4.73,0,0,0,2.59,4.19l-34.87,82.81a5.59,5.59,0,0,0-1.48-.21,5,5,0,0,0-2.81.78L1157.75,45.26a4.71,4.71,0,0,0,.62-1.26ZM1149.14,42.67a4.72,4.72,0,0,0,1.93,3.68l-62.24,99.45a5.26,5.26,0,0,0-2.21-.46,4.74,4.74,0,0,0-3.42,1.28L982,38.09V32.64ZM968.84,27.38h10.57V38H968.84Zm-2.62,7.86v5.34H982V39.19l100.68,108a4.75,4.75,0,0,0-.81,2.46h-113a4.42,4.42,0,0,0-4.72-4.33,4.6,4.6,0,0,0-3.75,1.66L868.07,83.34a4.69,4.69,0,0,0,.53-2.13h0a5.32,5.32,0,0,0-.2-1.39ZM859.29,79.88a5.34,5.34,0,0,0-.18,1.34,4.74,4.74,0,0,0,4.71,4.73l-4.89,122.19a4.76,4.76,0,0,0-3,1.07l-78.78-76.34V117.82h-10L742.91,42.28a4.73,4.73,0,0,0,2.43-2ZM737.4,40.52l-92.92,74.35v-1.42a4.52,4.52,0,0,0-4.52-4.52h-1.24a4.52,4.52,0,0,0-4.52,4.52h0v2.08L567,55.19a4.71,4.71,0,0,0,.77-2.53l169-13.42A4.73,4.73,0,0,0,737.4,40.52ZM558.32,52.72a4.7,4.7,0,0,0,1.09,2.9l-56.74,54.19a4.8,4.8,0,0,0-3.22-1.11,5,5,0,0,0-2.74.74L450.64,52.67h1v-7ZM438.45,39.47H449V50H438.45Zm-2.62,7.21v6h2.71L378,153.17a4.94,4.94,0,0,0-2.93-.87,4.63,4.63,0,0,0-3.67,1.57l-64.1-75.4V71.73ZM297.59,67.48a2.62,2.62,0,0,1,2.62-2.62h1.24a2.62,2.62,0,0,1,2.62,2.62l0,2.58h-6.51ZM299,73.37a2,2,0,1,1,2.72,2.72v1.69a.92.92,0,0,1-1.79,0V76.1A2,2,0,0,1,299,73.37Zm-4.65,3.4v4h13V79.63L371,154.5a5,5,0,0,0-.63,2.46,4.69,4.69,0,0,0,.21,1.32l-83.47,47.14a5,5,0,0,0-7.83-.26l-74.34-75.89a4.71,4.71,0,0,0,.75-2.53h0a4.89,4.89,0,0,0-.76-2.7Zm-94.79,45.5a4.26,4.26,0,0,0-3.28,3.55L104.7,114.22v-8.57L171,36.07a4.7,4.7,0,0,0,3,1.06,4.76,4.76,0,0,0,.93-.1ZM43.76,42.6,169.3,33.16a4.71,4.71,0,0,0,1.16,2.4l-66.65,69.93H89.66L42.23,46A4.72,4.72,0,0,0,43.76,42.6Zm58.32,65.52v10.57H91.51V108.11ZM82,306H71.47V295.42H82Zm-6.84-13.19-23.78-97a4.73,4.73,0,0,0,3.27-4.48h0a4.48,4.48,0,0,0-2.07-4l37.16-66.06h13.29l34.14,86.37a4.47,4.47,0,0,0-1,2.86v2.58h-1.35V223.8h12.8l66.95,76.72a4.56,4.56,0,0,0-1.25,2.91L84.67,300.51v-7.71Zm147.31,9.48a4.22,4.22,0,0,0-1.46-2.11l60.44-87.63a4.64,4.64,0,0,0,4.89-1.07l66.93,57.44h-.75v5.45Zm133.28-36a2.62,2.62,0,0,1,2.62-2.62h1.24a2.62,2.62,0,0,1,2.62,2.62l0,2.58H355.8Zm5,7.68a2,2,0,0,1-.93.93v1.69a.92.92,0,0,1-1.79,0v-1.69a2,2,0,1,1,2.73-.93Zm4.74,1.35V270L472.09,215.3a4.74,4.74,0,0,0,8.75-2.52h0c0-.14,0-.27,0-.4l75.72,24.69a4.73,4.73,0,0,0,1.26,2.18l-78.88,71.11a5,5,0,0,0-2.81-.78,4.43,4.43,0,0,0-4.4,2.77Zm262.92,45.69a4.19,4.19,0,0,0-.91-1.31l95.34-95.55a4.72,4.72,0,0,0,5.37.07l37.63,37a4.61,4.61,0,0,0-1.44,3.48,4.7,4.7,0,0,0,.25,1.44Zm145.39-55.43a4.72,4.72,0,0,0,.09-.88h0a5.11,5.11,0,0,0-.41-2l81.67-47.21a4.72,4.72,0,0,0,6.46,1.26l68.23,87.94a4.73,4.73,0,0,0-1.21,2.09Zm322.48,32.63a4.7,4.7,0,0,0-1-2.48l68.57-63.71H1176v-1.42l71.2,59.26v6.64Zm164.07,3h-10.57V290.72h10.57Zm2.62-4.48v-8.72h-7.24L1260.1,172a4.72,4.72,0,0,0,3.92-2.42l123,55.06a5.27,5.27,0,0,0-.25,1.57,4.73,4.73,0,0,0,2.56,4.18l-31.72,73.85a5.46,5.46,0,0,0-1.85-.31,4.4,4.4,0,0,0-4.67,3.75Zm97.46,11.32a4.36,4.36,0,0,0-2.17-3.59l31.73-73.88a4.61,4.61,0,0,0,5-1.27l94.23,73h-.73v3Zm137.72-8.36,0,2.58h-6.51v-2.58a2.62,2.62,0,0,1,2.62-2.62h1.24A2.62,2.62,0,0,1,1498.25,299.78Zm-1.45,7.68a2,2,0,0,1-.93.93v1.69a.92.92,0,0,1-1.79,0v-1.69a2,2,0,1,1,2.73-.93Zm1.76-11.11a4.48,4.48,0,0,0-2.91-1.09h-1.24a4.52,4.52,0,0,0-4.52,4.52h0v2.11l-94.38-73.08a4.72,4.72,0,0,0,.79-2.59l137-10.92a4.72,4.72,0,0,0,2.31,3.31Z"/></g></g></svg>