<svg id="Layer_1" data-name="Layer 1" xmlns="http://www.w3.org/2000/svg" viewBox="0 0 69.1 100.24"><defs><style>.cls-1{fill:#444545;}</style></defs><title>copy-to-clipboard</title><rect class="cls-1" x="9.37" y="27" width="45.79" height="4"/><rect class="cls-1" x="9.37" y="36.5" width="45.79" height="4"/><rect class="cls-1" x="9.37" y="55.5" width="45.79" height="4"/><rect class="cls-1" x="9.37" y="65" width="30.79" height="4"/><rect class="cls-1" x="9.37" y="46" width="45.79" height="4"/><path class="cls-1" d="M46.21,5.49H40.85V3a3,3,0,0,0-3-3H27.37a3,3,0,0,0-3,3V5.49H19A3.91,3.91,0,0,0,15.13,9.4v7.1h35a0,0,0,0,0,0,0V9.4A3.91,3.91,0,0,0,46.21,5.49Z"/><path class="cls-1" d="M54.85,71.74A14.25,14.25,0,1,0,69.1,86,14.25,14.25,0,0,0,54.85,71.74Zm8.39,15.84H56.43v6.81H53.26V87.58H46.45V84.4h6.81V77.59h3.17V84.4h6.81Z"/><path class="cls-1" d="M37.11,89.75H3v-77H62.25v56a18.9,18.9,0,0,1,3,1.38V9.75H0v83H37.86A18.83,18.83,0,0,1,37.11,89.75Z"/></svg>