<svg id="Layer_1" data-name="Layer 1" xmlns="http://www.w3.org/2000/svg" viewBox="0 0 531.76 52.9"><defs><style>.cls-1{fill:#fff;}</style></defs><title>cyberark_open_source_logo_ko</title><path class="cls-1" d="M80.48,34.42a12.83,12.83,0,0,1-9.2,3.64c-8.88,0-12.86-6.12-12.9-12.55s4.16-12.83,12.9-12.83a12.51,12.51,0,0,1,9,3.71L77.61,18.9a9,9,0,0,0-6.33-2.52c-6.22,0-9.05,4.58-9,9.09s2.69,8.91,9,8.91a9.49,9.49,0,0,0,6.5-2.66Z"/><polygon class="cls-1" points="94.84 23.9 101.8 13.1 106.52 13.1 106.52 13.27 96.8 27.54 96.8 37.57 92.89 37.57 92.89 27.54 83.45 13.27 83.45 13.1 88.09 13.1 94.84 23.9"/><path class="cls-1" d="M122.92,13.1c4.65,0,8.32,2.13,8.32,7a5.09,5.09,0,0,1-3.39,4.86A6.05,6.05,0,0,1,132,30.58c0,5.35-4.27,7-9.09,7H111.69V13.1Zm-7.34,10.14H123c2.94,0,4.4-1.15,4.4-3.08,0-1.71-1.5-3.53-4.44-3.53h-7.34Zm0,10.7h7.34c2.17,0,5.18-.7,5.18-3.39s-2.9-3.81-5.14-3.81h-7.38Z"/><polygon class="cls-1" points="156.55 37.57 138.47 37.57 138.47 13.1 156.44 13.1 156.44 16.91 142.39 16.91 142.39 23.52 155.88 23.52 155.88 27.15 142.39 27.15 142.39 33.72 156.55 33.72 156.55 37.57"/><path class="cls-1" d="M184.45,37.57h-4.58l-7.45-8.46h-5.17v8.46h-3.92V13.06c3.81,0,7.59,0,11.4,0,5.66,0,8.63,3.88,8.63,8a7.22,7.22,0,0,1-6.64,7.62l7.3,8.15Zm-17.2-20.91v8.88h7.45c3.25,0,4.68-2.06,4.68-4.37a4.36,4.36,0,0,0-4.65-4.51Z"/><path class="cls-1" d="M206.58,33.55H195.63l-1.61,4h-7.34l11-24.47h7L215.6,37.57h-7.41Zm-5.45-13.6L198,27.75h6.26Z"/><path class="cls-1" d="M242,37.57h-7.62l-5.7-7.94h-2.41v7.94H219.3V13.1h12c6.26,0,9.51,4,9.51,8.42,0,3-1,5.56-5.17,7.38L242,37.15ZM226.22,18.62v5.87h5.1a2.57,2.57,0,0,0,2.62-2.83,2.76,2.76,0,0,0-2.69-3Z"/><path class="cls-1" d="M268.46,13.52l-9.93,11.57c3.43,3.78,7.38,8.18,10.77,12.06v.42h-8.57l-7-8.15v8.15h-6.92V13.1h6.92v8c2.1-2.59,4.37-5.45,6.43-8h8.29Z"/><path class="cls-1" d="M274.36,14.15a2.86,2.86,0,1,1,2.86-2.86,2.84,2.84,0,0,1-2.86,2.86m0-5.31A2.37,2.37,0,0,0,272,11.29a2.36,2.36,0,1,0,4.71,0,2.37,2.37,0,0,0-2.35-2.45m1,4h-.29a.13.13,0,0,1-.13-.06l-.23-.4a5.19,5.19,0,0,0-.55-.8.24.24,0,0,0-.19-.09h-.1v1.19a.16.16,0,0,1-.15.16h-.19a.17.17,0,0,1-.16-.16V9.84a.16.16,0,0,1,.16-.15h.81c.72,0,1.06.41,1.06.88a.81.81,0,0,1-.82.87,4.46,4.46,0,0,1,.89,1.25.11.11,0,0,1-.11.18m-1.17-2.78h-.31v1h.3c.54,0,.7-.16.7-.53s-.25-.49-.69-.49"/><polygon class="cls-1" points="22.8 0 0.24 13.04 12.11 19.86 22.8 13.67 22.8 0"/><polygon class="cls-1" points="0.04 39.48 11.86 32.63 11.86 20.28 0 13.46 0.04 39.48"/><polygon class="cls-1" points="34.48 32.77 34.48 19.85 34.23 19.99 33.99 19.85 33.99 32.5 23.29 26.3 23.29 13.67 22.8 13.67 22.8 26.3 11.86 32.63 12.11 33.05 23.04 26.72 33.98 33.06 34.48 32.77"/><polygon class="cls-1" points="23.29 0 23.29 13.67 34.23 19.99 46.07 13.15 23.29 0"/><polygon class="cls-1" points="23.31 39.22 23.31 52.9 46.1 39.73 46.1 26.06 23.31 39.22"/><polygon class="cls-1" points="12.11 33.05 0.28 39.9 22.82 52.88 22.82 39.22 12.11 33.05"/><rect class="cls-1" x="299.73" y="7.44" width="2" height="39.38"/><path class="cls-1" d="M352.65,25.4q0,5.83-2.95,9.16a10.36,10.36,0,0,1-8.19,3.34q-5.36,0-8.28-3.28t-2.91-9.25q0-5.93,2.92-9.19t8.3-3.26a10.34,10.34,0,0,1,8.17,3.32Q352.65,19.56,352.65,25.4Zm-19.34,0q0,4.93,2.1,7.48a8.58,8.58,0,0,0,12.19,0q2.06-2.54,2.06-7.49T347.61,18a7.35,7.35,0,0,0-6.07-2.53A7.49,7.49,0,0,0,335.41,18Q333.31,20.54,333.31,25.4Z"/><path class="cls-1" d="M366.11,37.9a7.87,7.87,0,0,1-3.25-.66,6.1,6.1,0,0,1-2.46-2h-.2a24.4,24.4,0,0,1,.2,3v7.49h-2.76V19.37h2.24l.38,2.49h.13a6.4,6.4,0,0,1,2.47-2.16,7.52,7.52,0,0,1,3.24-.66,6.72,6.72,0,0,1,5.59,2.47,10.89,10.89,0,0,1,2,6.94,10.82,10.82,0,0,1-2,7A6.73,6.73,0,0,1,366.11,37.9Zm-.4-16.52a4.88,4.88,0,0,0-4,1.54,8,8,0,0,0-1.28,4.91v.61q0,3.83,1.28,5.49a4.86,4.86,0,0,0,4.1,1.65,4.26,4.26,0,0,0,3.69-1.91,9,9,0,0,0,1.34-5.26,8.71,8.71,0,0,0-1.34-5.22A4.39,4.39,0,0,0,365.71,21.38Z"/><path class="cls-1" d="M386.16,37.9a8.36,8.36,0,0,1-6.37-2.46,9.51,9.51,0,0,1-2.33-6.82,10.54,10.54,0,0,1,2.17-7A7.19,7.19,0,0,1,385.45,19a6.86,6.86,0,0,1,5.41,2.25,8.62,8.62,0,0,1,2,5.94V29H380.32a7.22,7.22,0,0,0,1.62,4.86,5.6,5.6,0,0,0,4.33,1.66,14.65,14.65,0,0,0,5.81-1.23v2.46a14.62,14.62,0,0,1-2.76.91A15.6,15.6,0,0,1,386.16,37.9Zm-.75-16.55a4.5,4.5,0,0,0-3.49,1.43,6.58,6.58,0,0,0-1.54,4h9.51a6.06,6.06,0,0,0-1.16-4A4.09,4.09,0,0,0,385.42,21.35Z"/><path class="cls-1" d="M410,37.57V25.8a4.75,4.75,0,0,0-1-3.32,4.13,4.13,0,0,0-3.17-1.1,5.23,5.23,0,0,0-4.18,1.54q-1.33,1.54-1.33,5.1v9.55h-2.76V19.37h2.24l.45,2.49h.13a5.63,5.63,0,0,1,2.37-2.08,7.72,7.72,0,0,1,3.4-.74,6.91,6.91,0,0,1,4.95,1.59q1.66,1.59,1.66,5.07V37.57Z"/><path class="cls-1" d="M441.37,31.11a6,6,0,0,1-2.32,5,10.08,10.08,0,0,1-6.31,1.79,15.81,15.81,0,0,1-6.64-1.11V34.07a17.44,17.44,0,0,0,3.25,1,17.14,17.14,0,0,0,3.49.37,7,7,0,0,0,4.25-1.07,3.51,3.51,0,0,0,1.43-3,3.83,3.83,0,0,0-.51-2.07,4.72,4.72,0,0,0-1.69-1.49,23.65,23.65,0,0,0-3.61-1.54,11.53,11.53,0,0,1-4.84-2.87,6.34,6.34,0,0,1-1.45-4.33,5.39,5.39,0,0,1,2.11-4.47,8.76,8.76,0,0,1,5.58-1.66,16.44,16.44,0,0,1,6.66,1.33l-.88,2.46A15,15,0,0,0,434,15.47a5.66,5.66,0,0,0-3.5,1,3.17,3.17,0,0,0-1.26,2.67,4.1,4.1,0,0,0,.46,2.07,4.37,4.37,0,0,0,1.57,1.48,19.43,19.43,0,0,0,3.38,1.49,13.39,13.39,0,0,1,5.25,2.92A5.75,5.75,0,0,1,441.37,31.11Z"/><path class="cls-1" d="M461.62,28.46a10,10,0,0,1-2.24,6.95,7.9,7.9,0,0,1-6.19,2.5,8.2,8.2,0,0,1-4.33-1.15,7.56,7.56,0,0,1-2.92-3.29,11.45,11.45,0,0,1-1-5,10,10,0,0,1,2.22-6.93A7.87,7.87,0,0,1,453.3,19a7.69,7.69,0,0,1,6.07,2.54A10,10,0,0,1,461.62,28.46Zm-13.86,0a8.64,8.64,0,0,0,1.39,5.31,5.54,5.54,0,0,0,8.21,0,8.6,8.6,0,0,0,1.4-5.32,8.46,8.46,0,0,0-1.4-5.27,4.93,4.93,0,0,0-4.14-1.8,4.85,4.85,0,0,0-4.08,1.78A8.55,8.55,0,0,0,447.76,28.46Z"/><path class="cls-1" d="M469,19.37v11.8a4.75,4.75,0,0,0,1,3.32,4.13,4.13,0,0,0,3.17,1.1A5.18,5.18,0,0,0,477.4,34q1.32-1.56,1.32-5.1V19.37h2.76v18.2H479.2l-.4-2.44h-.15a5.49,5.49,0,0,1-2.35,2.06,7.9,7.9,0,0,1-3.43.71,7,7,0,0,1-5-1.58q-1.65-1.58-1.65-5V19.37Z"/><path class="cls-1" d="M495.62,19a10.78,10.78,0,0,1,2.17.2l-.38,2.56a9.39,9.39,0,0,0-2-.25,4.85,4.85,0,0,0-3.78,1.79,6.54,6.54,0,0,0-1.57,4.47v9.76h-2.76V19.37h2.27l.32,3.37H490A8,8,0,0,1,492.48,20,5.5,5.5,0,0,1,495.62,19Z"/><path class="cls-1" d="M508.47,37.9a7.76,7.76,0,0,1-6.12-2.43q-2.17-2.43-2.17-6.88t2.2-7.06A7.92,7.92,0,0,1,508.65,19a12.45,12.45,0,0,1,2.62.28,8.67,8.67,0,0,1,2.06.66l-.85,2.34a13,13,0,0,0-2-.61,8.92,8.92,0,0,0-1.91-.24q-5.54,0-5.54,7.07a8.43,8.43,0,0,0,1.35,5.15,4.71,4.71,0,0,0,4,1.79,12.25,12.25,0,0,0,4.67-1V37A9.94,9.94,0,0,1,508.47,37.9Z"/><path class="cls-1" d="M525.07,37.9a8.36,8.36,0,0,1-6.37-2.46,9.51,9.51,0,0,1-2.33-6.82,10.54,10.54,0,0,1,2.17-7A7.19,7.19,0,0,1,524.36,19a6.86,6.86,0,0,1,5.41,2.25,8.62,8.62,0,0,1,2,5.94V29H519.23a7.22,7.22,0,0,0,1.62,4.86,5.6,5.6,0,0,0,4.33,1.66A14.65,14.65,0,0,0,531,34.27v2.46a14.62,14.62,0,0,1-2.76.91A15.6,15.6,0,0,1,525.07,37.9Zm-.75-16.55a4.5,4.5,0,0,0-3.49,1.43,6.58,6.58,0,0,0-1.54,4h9.51a6.06,6.06,0,0,0-1.16-4A4.09,4.09,0,0,0,524.32,21.35Z"/></svg>