<svg id="Layer_1" data-name="Layer 1" xmlns="http://www.w3.org/2000/svg" viewBox="0 0 46.07 52.9"><defs><style>.cls-1{fill:#fff;}</style></defs><title>cyberark_icon_ko</title><polygon class="cls-1" points="22.8 0 0.24 13.04 12.11 19.86 22.8 13.67 22.8 0"/><polygon class="cls-1" points="0.04 39.48 11.86 32.63 11.86 20.28 0 13.46 0.04 39.48"/><polygon class="cls-1" points="34.48 32.77 34.48 19.85 34.23 19.99 33.99 19.85 33.99 32.5 23.29 26.3 23.29 13.67 22.8 13.67 22.8 26.3 11.86 32.63 12.11 33.05 23.04 26.72 33.98 33.06 34.48 32.77"/><polygon class="cls-1" points="23.29 0 23.29 13.67 34.23 19.99 46.07 13.15 23.29 0"/><polygon class="cls-1" points="23.31 39.22 23.31 52.9 46.1 39.73 46.1 26.06 23.31 39.22"/><polygon class="cls-1" points="12.11 33.05 0.28 39.9 22.82 52.88 22.82 39.22 12.11 33.05"/></svg>