<svg id="Layer_1" data-name="Layer 1" xmlns="http://www.w3.org/2000/svg" viewBox="0 0 330 70"><defs><style>.cls-1{fill:#fff;}</style></defs><title>cybr_logo_white_horiz</title><path class="cls-1" d="M99.5,44a14.41,14.41,0,0,1-10.4,4.1c-10,0-14.5-6.9-14.5-14.1s4.7-14.5,14.5-14.5a14.15,14.15,0,0,1,10.1,4.2l-3,2.8a10.31,10.31,0,0,0-7.1-2.8c-7,0-10.2,5.2-10.2,10.2s3,10,10.2,10a10.64,10.64,0,0,0,7.3-3Z"/><polygon class="cls-1" points="115.7 32.1 123.5 20 128.8 20 128.8 20.2 117.9 36.2 117.9 47.5 113.5 47.5 113.5 36.2 102.8 20.2 102.8 20 108.1 20 115.7 32.1"/><path class="cls-1" d="M147.3,20c5.2,0,9.4,2.4,9.4,7.9a5.8,5.8,0,0,1-3.8,5.5,6.89,6.89,0,0,1,4.7,6.3c0,6-4.8,7.9-10.2,7.9H134.8V20ZM139,31.4h8.3c3.3,0,5-1.3,5-3.5,0-1.9-1.7-4-5-4H139Zm0,12h8.3c2.4,0,5.8-.8,5.8-3.8s-3.3-4.3-5.8-4.3H139Z"/><polygon class="cls-1" points="185.2 47.5 164.8 47.5 164.8 20 185.1 20 185.1 24.2 169.3 24.2 169.3 31.7 184.5 31.7 184.5 35.8 169.3 35.8 169.3 43.2 185.2 43.2 185.2 47.5"/><path class="cls-1" d="M216.7,47.5h-5.2L203.1,38h-5.8v9.5h-4.4V19.9h12.8c6.4,0,9.7,4.4,9.7,9,0,3.9-2,7.8-7.5,8.6l8.2,9.2ZM197.3,24V34h8.4c3.7,0,5.3-2.3,5.3-4.9a4.89,4.89,0,0,0-5.2-5.1Z"/><path class="cls-1" d="M241.6,43H229.3l-1.8,4.5h-8.3L231.5,20h7.9l12.3,27.6h-8.4Zm-6.2-15.3-3.5,8.8H239Z"/><path class="cls-1" d="M281.5,47.5h-8.6l-6.4-8.9h-2.7v8.9H256V20h13.5c7.1,0,10.7,4.5,10.7,9.5,0,3.4-1.2,6.3-5.8,8.3l7.2,9.3v.4ZM263.7,26.2v6.6h5.8a2.94,2.94,0,0,0,3-3.2c0-1.7-1-3.4-3-3.4Z"/><path class="cls-1" d="M311.3,20.4l-11.2,13c3.9,4.3,8.3,9.2,12.1,13.6v.5h-9.7l-7.9-9.2v9.2h-7.8V20h7.8v9c2.4-2.9,4.9-6.1,7.2-9.1h9.3v.5Z"/><path class="cls-1" d="M318,21.1a3.16,3.16,0,0,1-3.2-3.2,3.22,3.22,0,0,1,3.2-3.2,3.2,3.2,0,1,1,0,6.4m0-5.9a2.8,2.8,0,1,0,2.7,2.8,2.84,2.84,0,0,0-2.7-2.8m1.1,4.5h-.3c-.1,0-.1,0-.1-.1s-.2-.3-.3-.5c-.3-.4-.4-.7-.6-.9,0-.1-.1-.1-.2-.1h-.1v1.3a.22.22,0,0,1-.2.2h-.2a.22.22,0,0,1-.2-.2V16.2a.22.22,0,0,1,.2-.2h.9a1.06,1.06,0,0,1,1.2,1,.92.92,0,0,1-.9,1,5,5,0,0,1,1,1.4c0,.2,0,.3-.2.3m-1.3-3.1h-.4v1.1h.3c.6,0,.8-.2.8-.6s-.2-.5-.7-.5"/><polygon class="cls-1" points="34.5 5.2 9.1 19.9 22.4 27.6 34.5 20.6 34.5 5.2"/><polygon class="cls-1" points="8.8 49.7 22.2 42 22.2 28 8.8 20.4 8.8 49.7"/><polygon class="cls-1" points="47.7 42.1 47.7 27.6 47.4 27.7 47.1 27.6 47.1 41.8 35 34.8 35 20.6 34.5 20.6 34.5 34.8 22.2 42 22.5 42.4 34.8 35.3 47.1 42.4 47.7 42.1"/><polygon class="cls-1" points="35 5.2 35 20.6 47.4 27.7 60.7 20 35 5.2"/><polygon class="cls-1" points="35.1 49.4 35.1 64.8 60.8 50 60.8 34.6 35.1 49.4"/><polygon class="cls-1" points="22.5 42.4 9.1 50.2 34.5 64.8 34.5 49.4 22.5 42.4"/></svg>