<svg id="Layer_1" data-name="Layer 1" xmlns="http://www.w3.org/2000/svg" viewBox="0 0 340.87 68.23"><defs><style>.cls-1{fill:#4d90cd;}.cls-2{fill:#3073b1;}.cls-3{fill:#6ba2d7;}.cls-4{fill:#265e92;}.cls-5{fill:#fff;}</style></defs><title>cybr_logo_horiz</title><polygon class="cls-1" points="15.22 25.85 29.57 17.54 29.57 0 0 17.09 15.22 25.85"/><polygon class="cls-2" points="29.6 50.69 43.96 42.4 43.96 42.4 59.15 33.62 59.15 51.17 29.62 68.22 29.6 50.69"/><polygon class="cls-2" points="29.57 17.54 43.93 25.83 59.11 17.06 29.57 0 29.57 17.54"/><polygon class="cls-1" points="29.6 50.69 15.22 42.41 0.05 51.2 29.62 68.22 29.6 50.69"/><polygon class="cls-2" points="15.22 42.41 15.22 25.85 0 17.09 0.05 51.2 15.22 42.41"/><polygon class="cls-3" points="29.57 17.54 43.93 25.83 43.93 42.41 29.57 34.12 29.57 17.54"/><polyline class="cls-4" points="29.57 17.54 15.22 25.85 15.22 42.41 29.57 34.12 29.57 17.54"/><path class="cls-5" d="M100.31,44.6A15.68,15.68,0,0,1,89.06,49C78.21,49,73.33,41.56,73.29,33.7S78.38,18,89.06,18A15.29,15.29,0,0,1,100,22.54L96.8,25.62a11,11,0,0,0-7.74-3.08c-7.61,0-11.07,5.6-11,11.11s3.29,10.9,11,10.9a11.6,11.6,0,0,0,8-3.25Z"/><path class="cls-5" d="M117.88,31.73l8.51-13.21h5.77v.21L120.27,36.18V48.45h-4.79V36.18L103.94,18.74v-.21h5.68Z"/><path class="cls-5" d="M152.2,18.52c5.69,0,10.17,2.61,10.17,8.55A6.22,6.22,0,0,1,158.23,33a7.4,7.4,0,0,1,5.09,6.88c0,6.54-5.22,8.55-11.11,8.55H138.48V18.52Zm-9,12.4h9c3.59,0,5.39-1.41,5.39-3.76,0-2.09-1.84-4.32-5.43-4.32h-9Zm0,13.08h9c2.65,0,6.33-.86,6.33-4.15S155,35.2,152.24,35.2h-9Z"/><path class="cls-5" d="M193.32,48.45h-22.1V18.52h22v4.66H176v8.08h16.5v4.45H176v8h17.31Z"/><path class="cls-5" d="M227.43,48.45h-5.6L212.73,38.1H206.4V48.45h-4.79v-30c4.66,0,9.28,0,13.94,0,6.92,0,10.56,4.74,10.56,9.79,0,4.27-2.22,8.46-8.12,9.32l8.93,10Zm-21-25.56V33.74h9.11c4,0,5.73-2.52,5.73-5.34a5.33,5.33,0,0,0-5.68-5.51Z"/><path class="cls-2" d="M254.49,43.53H241.11l-2,4.92h-9l13.42-29.92h8.55l13.38,29.92h-9.06ZM247.82,26.9,244,36.44h7.65Z"/><path class="cls-2" d="M297.75,48.45h-9.32l-7-9.7h-2.95v9.7h-8.47V18.52h14.62c7.65,0,11.63,4.92,11.63,10.3,0,3.68-1.28,6.8-6.33,9l7.78,10.09ZM278.52,25.28v7.18h6.24C287,32.46,288,30.79,288,29s-1.07-3.72-3.29-3.72Z"/><path class="cls-2" d="M330.15,19,318,33.19c4.19,4.62,9,10,13.16,14.75v.51H320.7l-8.55-10v10h-8.47V18.52h8.47v9.83c2.57-3.16,5.34-6.67,7.87-9.83h10.13Z"/><path class="cls-2" d="M337.37,19.81a3.5,3.5,0,1,1,3.5-3.5A3.47,3.47,0,0,1,337.37,19.81Zm0-6.49a2.9,2.9,0,0,0-2.88,3,2.88,2.88,0,1,0,5.76,0A2.9,2.9,0,0,0,337.37,13.33Zm1.27,4.92h-.35a.16.16,0,0,1-.15-.07l-.28-.49a6.25,6.25,0,0,0-.68-1,.29.29,0,0,0-.23-.11h-.12V18a.19.19,0,0,1-.19.2h-.24a.2.2,0,0,1-.2-.2V14.54a.19.19,0,0,1,.2-.18h1c.87,0,1.29.5,1.29,1.08a1,1,0,0,1-1,1.07A5.44,5.44,0,0,1,338.78,18,.14.14,0,0,1,338.65,18.25Zm-1.43-3.4h-.38v1.24h.37c.67,0,.85-.2.85-.65S337.75,14.85,337.22,14.85Z"/></svg>