<svg id="Layer_1" data-name="Layer 1" xmlns="http://www.w3.org/2000/svg" viewBox="0 0 323.18 77.85"><defs><style>.cls-1{fill:#fff;}</style></defs><title>cybr_conjur_logo_ko</title><path class="cls-1" d="M95.92,43.57a14.72,14.72,0,0,1-10.55,4.17c-10.19,0-14.76-7-14.8-14.4s4.77-14.72,14.8-14.72a14.35,14.35,0,0,1,10.27,4.25l-3,2.89a10.32,10.32,0,0,0-7.26-2.89C78.23,22.87,75,28.13,75,33.3s3.09,10.23,10.35,10.23a10.89,10.89,0,0,0,7.46-3Z"/><path class="cls-1" d="M112.41,31.5l8-12.4h5.42v.2L114.65,35.67V47.18h-4.49V35.67L99.33,19.3v-.2h5.33Z"/><path class="cls-1" d="M144.62,19.1c5.34,0,9.55,2.45,9.55,8a5.84,5.84,0,0,1-3.89,5.58A6.94,6.94,0,0,1,155,39.16c0,6.14-4.89,8-10.43,8H131.74V19.1ZM136.2,30.74h8.46c3.37,0,5.05-1.32,5.05-3.53,0-2-1.73-4.05-5.1-4.05H136.2Zm0,12.28h8.42c2.49,0,5.94-.8,5.94-3.89s-3.33-4.37-5.9-4.37H136.2Z"/><path class="cls-1" d="M183.21,47.18H162.47V19.1h20.62v4.37H167v7.58h15.48v4.17H167v7.54h16.25Z"/><path class="cls-1" d="M215.22,47.18H210l-8.54-9.71h-5.94v9.71H191V19.06c4.37,0,8.7,0,13.08,0,6.5,0,9.91,4.45,9.91,9.19,0,4-2.09,7.94-7.62,8.74l8.38,9.35Zm-19.74-24V33.38H204c3.73,0,5.37-2.37,5.37-5a5,5,0,0,0-5.33-5.18Z"/><path class="cls-1" d="M240.61,42.57H228.06l-1.85,4.61h-8.42l12.6-28.08h8L251,47.18h-8.5ZM234.36,27l-3.61,8.95h7.18Z"/><path class="cls-1" d="M281.21,47.18h-8.75l-6.54-9.11h-2.77v9.11h-7.94V19.1h13.72c7.18,0,10.91,4.61,10.91,9.67,0,3.45-1.2,6.38-5.94,8.47l7.3,9.47ZM263.16,25.44v6.74H269a2.94,2.94,0,0,0,3-3.25c0-1.76-1-3.49-3.09-3.49Z"/><path class="cls-1" d="M311.62,19.58,300.22,32.86c3.93,4.33,8.46,9.39,12.35,13.84v.48h-9.83l-8-9.35v9.35h-7.94V19.1h7.94v9.23c2.41-3,5-6.26,7.38-9.23h9.51Z"/><path class="cls-1" d="M318.39,20.31A3.28,3.28,0,1,1,321.67,17,3.25,3.25,0,0,1,318.39,20.31Zm0-6.09a2.72,2.72,0,0,0-2.7,2.81,2.7,2.7,0,1,0,5.4,0A2.72,2.72,0,0,0,318.39,14.23Zm1.2,4.62h-.33a.15.15,0,0,1-.14-.07l-.26-.46a5.86,5.86,0,0,0-.64-.92.27.27,0,0,0-.21-.11h-.12v1.36a.18.18,0,0,1-.17.18h-.22a.19.19,0,0,1-.18-.18V15.36a.18.18,0,0,1,.18-.17h.93c.82,0,1.22.47,1.22,1a.93.93,0,0,1-.95,1,5.1,5.1,0,0,1,1,1.44A.13.13,0,0,1,319.59,18.85Zm-1.34-3.19h-.36v1.17h.35c.63,0,.8-.18.8-.61S318.75,15.65,318.25,15.65Z"/><path class="cls-1" d="M134.43,65.22l0,1.23a13,13,0,0,0-2.24-.26c-1.5,0-2.11.56-2.11,2v4.71c0,1.42.59,2,2.11,2a13,13,0,0,0,2.24-.26l0,1.27a15,15,0,0,1-2.27.26c-2.6,0-3.51-1.12-3.51-3.32V68.29c0-2.24.94-3.32,3.51-3.32A15,15,0,0,1,134.43,65.22Z"/><path class="cls-1" d="M159,68.5v4.1c0,2.17-1,3.54-3.59,3.54s-3.59-1.37-3.59-3.54V68.5c0-2.17,1-3.54,3.59-3.54S159,66.33,159,68.5Zm-5.78-.16v4.41a2.19,2.19,0,0,0,4.38,0V68.35a2.19,2.19,0,0,0-4.38,0Z"/><path class="cls-1" d="M178.24,66.84v9.1h-1.38V65.16h2.24l3.49,9.1v-9.1H184V75.94h-2.17Z"/><path class="cls-1" d="M204.17,73.65c0,1.68-.76,2.48-2.52,2.48A5.06,5.06,0,0,1,200.6,76V74.85a8.13,8.13,0,0,0,1.12.08c.68,0,1.05-.31,1.05-1.17V65.16h1.4Z"/><path class="cls-1" d="M229.13,72.53c0,2.3-1.17,3.6-3.51,3.6s-3.51-1.2-3.51-3.57V65.16h1.4v7.59a2.11,2.11,0,1,0,4.21,0V65.16h1.4Z"/><path class="cls-1" d="M253.74,67.84v.41a2.73,2.73,0,0,1-2,2.72l2.8,5h-1.56l-2.62-4.67a14.34,14.34,0,0,1-1.83,0v4.71h-1.4V65C248,65,249,65,249.95,65,252.63,65,253.74,66.1,253.74,67.84Zm-5.25-1.65v3.87a13.91,13.91,0,0,0,1.48.08c1.68,0,2.37-.74,2.37-1.93v-.33c0-1.15-.69-1.74-2.42-1.74C249.56,66.15,248.95,66.16,248.49,66.19Z"/><polygon class="cls-1" points="29.1 1.72 1.8 17.5 16.16 25.76 29.1 18.26 29.1 1.72"/><polygon class="cls-1" points="1.55 49.51 15.86 41.22 15.86 26.27 1.5 18.01 1.55 49.51"/><polygon class="cls-1" points="43.23 41.38 43.23 25.74 42.94 25.91 42.65 25.74 42.65 41.06 29.69 33.55 29.69 18.26 29.1 18.26 29.1 33.55 15.86 41.22 16.16 41.72 29.39 34.06 42.64 41.73 43.23 41.38"/><polygon class="cls-1" points="29.69 1.72 29.69 18.26 42.94 25.91 57.26 17.64 29.69 1.72"/><polygon class="cls-1" points="29.71 49.19 29.71 65.74 57.3 49.81 57.3 33.26 29.71 49.19"/><polygon class="cls-1" points="16.16 41.72 1.84 50.02 29.13 65.72 29.13 49.19 16.16 41.72"/></svg>