<svg id="Layer_1" data-name="Layer 1" xmlns="http://www.w3.org/2000/svg" viewBox="0 0 340.87 68.23"><defs><style>.cls-1{fill:#4c8ecb;}.cls-2{fill:#2e73af;}.cls-3{fill:#808184;}.cls-4{fill:#58595b;}.cls-5{fill:#fff;}</style></defs><title>cybr_logo_horiz</title><polygon class="cls-1" points="15.15 25.89 29.43 17.62 29.43 0.17 0 17.17 15.15 25.89"/><polygon class="cls-2" points="29.45 50.61 43.75 42.36 43.75 42.36 58.87 33.62 58.87 51.09 29.48 68.06 29.45 50.61"/><polygon class="cls-2" points="29.43 17.62 43.72 25.87 58.83 17.14 29.43 0.17 29.43 17.62"/><polygon class="cls-1" points="29.46 50.61 15.15 42.38 0.05 51.12 29.48 68.06 29.46 50.61"/><polygon class="cls-2" points="15.15 42.38 15.15 25.89 0 17.17 0.05 51.12 15.15 42.38"/><polygon class="cls-3" points="29.43 17.62 43.72 25.87 43.72 42.38 29.43 34.13 29.43 17.62"/><polyline class="cls-4" points="29.43 17.62 15.15 25.89 15.15 42.38 29.43 34.13 29.43 17.62"/><path class="cls-5" d="M99.83,44.55A15.61,15.61,0,0,1,88.64,49C77.83,49,73,41.53,72.94,33.7S78,18.09,88.64,18.09A15.22,15.22,0,0,1,99.53,22.6l-3.19,3.06a11,11,0,0,0-7.7-3.06c-7.57,0-11,5.57-11,11.06s3.28,10.85,11,10.85a11.54,11.54,0,0,0,7.91-3.23Z"/><path class="cls-5" d="M117.31,31.75l8.47-13.15h5.74v.21L119.7,36.17V48.38h-4.77V36.17L103.44,18.81V18.6h5.66Z"/><path class="cls-5" d="M151.47,18.6c5.66,0,10.13,2.6,10.13,8.51A6.19,6.19,0,0,1,157.47,33a7.37,7.37,0,0,1,5.07,6.85c0,6.51-5.19,8.51-11.07,8.51H137.82V18.6Zm-8.93,12.34h9c3.57,0,5.36-1.41,5.36-3.75,0-2.08-1.83-4.29-5.41-4.29h-8.93Zm0,13h8.93c2.64,0,6.3-.86,6.3-4.13s-3.53-4.64-6.25-4.64h-9Z"/><path class="cls-5" d="M192.4,48.38h-22V18.6h21.86v4.64h-17.1v8h16.42V35.7H175.17v8H192.4Z"/><path class="cls-5" d="M226.35,48.38h-5.57l-9.07-10.3h-6.29v10.3h-4.77V18.56c4.64,0,9.23,0,13.87,0,6.89,0,10.51,4.72,10.51,9.74,0,4.26-2.21,8.43-8.08,9.28l8.89,9.91ZM205.42,22.94V33.75h9.06c4,0,5.7-2.51,5.7-5.32a5.3,5.3,0,0,0-5.66-5.49Z"/><path class="cls-2" d="M253.28,43.49H240l-2,4.89h-8.93L242.43,18.6h8.51l13.31,29.78h-9Zm-6.64-16.55-3.83,9.49h7.62Z"/><path class="cls-2" d="M296.33,48.38h-9.27l-6.94-9.66h-2.93v9.66h-8.43V18.6h14.55c7.62,0,11.58,4.89,11.58,10.25,0,3.66-1.28,6.77-6.3,9l7.74,10ZM277.19,25.32v7.15h6.21c2.21,0,3.19-1.66,3.19-3.45s-1.06-3.7-3.28-3.7Z"/><path class="cls-2" d="M328.58,19.11,316.5,33.19c4.17,4.6,9,10,13.1,14.68v.51H319.18l-8.51-9.91v9.91h-8.43V18.6h8.43v9.79c2.55-3.15,5.32-6.64,7.83-9.79h10.08Z"/><path class="cls-2" d="M335.77,19.88a3.48,3.48,0,1,1,3.47-3.47A3.44,3.44,0,0,1,335.77,19.88Zm0-6.45a2.89,2.89,0,0,0-2.87,3,2.87,2.87,0,1,0,5.73,0A2.89,2.89,0,0,0,335.77,13.43Zm1.26,4.9h-.34a.17.17,0,0,1-.16-.07l-.27-.49a5.8,5.8,0,0,0-.68-1,.26.26,0,0,0-.22-.12h-.13v1.44a.19.19,0,0,1-.18.2h-.24a.2.2,0,0,1-.19-.2V14.64a.19.19,0,0,1,.19-.19h1c.87,0,1.29.5,1.29,1.08a1,1,0,0,1-1,1.06,5.31,5.31,0,0,1,1.09,1.52A.14.14,0,0,1,337,18.33Zm-1.42-3.39h-.38v1.24h.37c.67,0,.85-.19.85-.64S336.14,14.94,335.61,14.94Z"/></svg>