<svg id="Layer_1" data-name="Layer 1" xmlns="http://www.w3.org/2000/svg" viewBox="0 0 59.15 68.26"><defs><style>.cls-1{fill:#4d90cd;}.cls-2{fill:#3073b1;}.cls-3{fill:#6ba2d7;}.cls-4{fill:#265e92;}</style></defs><title>cybr_icon_sq</title><polygon class="cls-1" points="15.22 25.88 29.57 17.57 29.57 0.03 0 17.12 15.22 25.88"/><polygon class="cls-2" points="29.6 50.72 43.96 42.43 43.96 42.43 59.15 33.65 59.15 51.2 29.62 68.26 29.6 50.72"/><polygon class="cls-2" points="29.57 17.57 43.93 25.86 59.11 17.09 29.57 0.03 29.57 17.57"/><polygon class="cls-1" points="29.6 50.72 15.22 42.45 0.05 51.24 29.62 68.26 29.6 50.72"/><polygon class="cls-2" points="15.22 42.45 15.22 25.88 0 17.12 0.05 51.24 15.22 42.45"/><polygon class="cls-3" points="29.57 17.57 43.93 25.86 43.93 42.45 29.57 34.16 29.57 17.57"/><polyline class="cls-4" points="29.57 17.57 15.22 25.88 15.22 42.45 29.57 34.16 29.57 17.57"/></svg>