<svg id="Layer_1" data-name="Layer 1" xmlns="http://www.w3.org/2000/svg" viewBox="0 0 323.18 77.85"><defs><style>.cls-1{fill:#3d7db7;}.cls-2{fill:#005dac;}.cls-3{fill:#999b9e;}.cls-4{fill:#5c5d60;}.cls-5{fill:#fff;}.cls-6{fill:#231f20;}</style></defs><title>cybr_conjur_logo_dark</title><polygon class="cls-1" points="15.93 25.97 29.39 18.18 29.39 1.72 1.65 17.75 15.93 25.97"/><polygon class="cls-2" points="29.42 49.29 42.9 41.51 42.9 41.5 57.15 33.27 57.15 49.73 29.44 65.74 29.42 49.29"/><polygon class="cls-2" points="29.39 18.18 42.87 25.96 57.12 17.73 29.39 1.72 29.39 18.18"/><polygon class="cls-1" points="29.42 49.28 15.93 41.52 1.69 49.77 29.45 65.74 29.42 49.28"/><polygon class="cls-2" points="15.93 41.52 15.93 25.97 1.65 17.75 1.69 49.77 15.93 41.52"/><polygon class="cls-3" points="29.39 18.18 42.87 25.96 42.87 41.52 29.39 33.74 29.39 18.18"/><polyline class="cls-4" points="29.39 18.18 15.93 25.97 15.93 41.52 29.39 33.74 29.39 18.18"/><path class="cls-5" d="M95.78,43.57a14.72,14.72,0,0,1-10.55,4.17c-10.19,0-14.76-7-14.8-14.4s4.77-14.72,14.8-14.72A14.35,14.35,0,0,1,95.5,22.87l-3,2.89a10.32,10.32,0,0,0-7.26-2.89c-7.14,0-10.39,5.26-10.35,10.43S78,43.53,85.23,43.53a10.89,10.89,0,0,0,7.46-3Z"/><path class="cls-5" d="M112.27,31.5l8-12.4h5.42v.2L114.51,35.67V47.18H110V35.67L99.19,19.3v-.2h5.33Z"/><path class="cls-5" d="M144.48,19.1c5.34,0,9.55,2.45,9.55,8a5.84,5.84,0,0,1-3.89,5.58,6.94,6.94,0,0,1,4.77,6.46c0,6.14-4.89,8-10.43,8H131.6V19.1Zm-8.42,11.63h8.46c3.37,0,5.05-1.32,5.05-3.53,0-2-1.73-4.05-5.1-4.05h-8.42Zm0,12.28h8.42c2.49,0,5.94-.8,5.94-3.89s-3.33-4.37-5.9-4.37h-8.46Z"/><path class="cls-5" d="M183.07,47.18H162.33V19.1h20.62v4.37H166.82v7.58H182.3v4.17H166.82v7.54h16.25Z"/><path class="cls-5" d="M215.08,47.18h-5.26l-8.54-9.71h-5.94v9.71h-4.49V19.06c4.37,0,8.7,0,13.08,0,6.5,0,9.91,4.45,9.91,9.19,0,4-2.09,7.94-7.62,8.74l8.38,9.35Zm-19.74-24V33.38h8.54c3.73,0,5.37-2.37,5.37-5a5,5,0,0,0-5.33-5.18Z"/><path class="cls-2" d="M240.47,42.57H227.92l-1.85,4.61h-8.42l12.6-28.08h8l12.55,28.08h-8.5ZM234.21,27l-3.61,8.95h7.18Z"/><path class="cls-2" d="M281.07,47.18h-8.75l-6.54-9.11H263v9.11h-7.94V19.1h13.72c7.18,0,10.91,4.61,10.91,9.67,0,3.45-1.2,6.38-5.94,8.47l7.3,9.47ZM263,25.44v6.74h5.86a2.94,2.94,0,0,0,3-3.25c0-1.76-1-3.49-3.09-3.49Z"/><path class="cls-2" d="M311.47,19.58,300.08,32.86c3.93,4.33,8.46,9.39,12.35,13.84v.48h-9.83l-8-9.35v9.35h-7.94V19.1h7.94v9.23c2.41-3,5-6.26,7.38-9.23h9.51Z"/><path class="cls-6" d="M318.25,20.31A3.28,3.28,0,1,1,321.53,17,3.25,3.25,0,0,1,318.25,20.31Zm0-6.09a2.72,2.72,0,0,0-2.7,2.81,2.7,2.7,0,1,0,5.4,0A2.72,2.72,0,0,0,318.25,14.23Zm1.2,4.62h-.33a.15.15,0,0,1-.14-.07l-.26-.46a5.86,5.86,0,0,0-.64-.92.27.27,0,0,0-.21-.11h-.12v1.36a.18.18,0,0,1-.17.18h-.22a.19.19,0,0,1-.18-.18V15.36a.18.18,0,0,1,.18-.17h.93c.82,0,1.22.47,1.22,1a.93.93,0,0,1-.95,1,5.1,5.1,0,0,1,1,1.44A.13.13,0,0,1,319.45,18.85Zm-1.34-3.19h-.36v1.17h.35c.63,0,.8-.18.8-.61S318.61,15.65,318.11,15.65Z"/><path class="cls-5" d="M134.29,65.22l0,1.23a13,13,0,0,0-2.24-.26c-1.5,0-2.11.56-2.11,2v4.71c0,1.42.59,2,2.11,2a13,13,0,0,0,2.24-.26l0,1.27a15,15,0,0,1-2.27.26c-2.6,0-3.51-1.12-3.51-3.32V68.29c0-2.24.94-3.32,3.51-3.32A15,15,0,0,1,134.29,65.22Z"/><path class="cls-5" d="M158.84,68.5v4.1c0,2.17-1,3.54-3.59,3.54s-3.59-1.37-3.59-3.54V68.5c0-2.17,1-3.54,3.59-3.54S158.84,66.33,158.84,68.5Zm-5.78-.16v4.41a2.19,2.19,0,0,0,4.38,0V68.35a2.19,2.19,0,0,0-4.38,0Z"/><path class="cls-5" d="M178.09,66.84v9.1h-1.38V65.16h2.24l3.49,9.1v-9.1h1.38V75.94h-2.17Z"/><path class="cls-5" d="M204,73.65c0,1.68-.76,2.48-2.52,2.48a5.06,5.06,0,0,1-1.05-.12V74.85a8.13,8.13,0,0,0,1.12.08c.68,0,1.05-.31,1.05-1.17V65.16H204Z"/><path class="cls-5" d="M229,72.53c0,2.3-1.17,3.6-3.51,3.6S222,74.94,222,72.56V65.16h1.4v7.59a2.11,2.11,0,1,0,4.21,0V65.16H229Z"/><path class="cls-5" d="M253.59,67.84v.41a2.73,2.73,0,0,1-2,2.72l2.8,5h-1.56l-2.62-4.67a14.34,14.34,0,0,1-1.83,0v4.71h-1.4V65c.92,0,1.93-.08,2.86-.08C252.49,65,253.59,66.1,253.59,67.84Zm-5.25-1.65v3.87a13.91,13.91,0,0,0,1.48.08c1.68,0,2.37-.74,2.37-1.93v-.33c0-1.15-.69-1.74-2.42-1.74C249.41,66.15,248.8,66.16,248.34,66.19Z"/></svg>