<svg id="Capa_1" data-name="Capa 1" xmlns="http://www.w3.org/2000/svg" viewBox="0 0 153.25 105.9"><defs><style>.cls-1{fill:#0c0c0c;fill-rule:evenodd;}</style></defs><title>docker_icon</title><path class="cls-1" d="M150.07,40.31c-3.44-2.3-11.34-3.14-17.42-2-.78-5.73-4-10.69-9.78-15.18l-3.34-2.23-2.23,3.34a25.92,25.92,0,0,0-3.81,16A20.3,20.3,0,0,0,116.44,49a24,24,0,0,1-11.53,2.54H1.37l-.2,1.19c-1,5.74-1,23.65,10.68,37.42,8.84,10.46,22.09,15.77,39.39,15.77,37.5,0,65.24-17.26,78.24-48.64,5.11.1,16.11,0,21.76-10.77.15-.25.49-.9,1.47-2.94l.54-1.12Zm-81.66-26H84.16V0H68.41Zm0,17.17H84.16V17.17H68.41Zm-18.6,0H65.55V17.17H49.81Zm-18.6,0H46.95V17.17H31.2ZM12.6,48.66H28.34V34.35H12.6Zm18.6,0H46.95V34.35H31.2Zm18.6,0H65.55V34.35H49.81Zm18.6,0H84.16V34.35H68.41Zm18.6,0h15.74V34.35H87Z"/></svg>