<?xml version="1.0" encoding="UTF-8" standalone="no"?>
<svg width="16px" height="16px" viewBox="0 0 16 16" version="1.1" xmlns="http://www.w3.org/2000/svg" xmlns:xlink="http://www.w3.org/1999/xlink">
    <!-- Generator: Sketch 47 (45396) - http://www.bohemiancoding.com/sketch -->
    <title>icon/docker-blue</title>
    <desc>Created with Sketch.</desc>
    <defs></defs>
    <g id="Symbols" stroke="none" stroke-width="1" fill="none" fill-rule="evenodd">
        <g id="icon/docker-blue" fill="#6BA3D7">
            <path d="M15.6663202,6.22975923 C15.3053583,5.98841847 14.4764053,5.90027662 13.8384262,6.0198977 C13.7565802,5.4186444 13.4187031,4.8981878 12.8122033,4.42704865 L12.4617345,4.19305304 L12.2277389,4.5435218 C11.9157472,5.04491095 11.7754175,5.63422196 11.8279527,6.22241408 C11.8590761,6.54853909 11.9650038,6.86309047 12.1374985,7.1416076 C11.7626991,7.32980541 11.3468322,7.42141876 10.9276467,7.40813175 L0.0631150447,7.40813175 L0.0421288912,7.53299937 C-0.0628018762,8.13530197 -0.0628018762,10.014612 1.16278949,11.4595087 C2.09037747,12.5570845 3.48071014,13.1142669 5.29601242,13.1142669 C9.23091619,13.1142669 12.1416957,11.3031618 13.5057957,8.01043436 C14.0419919,8.02092743 15.1962303,8.01043436 15.7890892,6.88032999 C15.8048288,6.8540973 15.8405052,6.7858923 15.9433374,6.57183354 L16,6.45431108 L15.6663202,6.22975923 Z M7.09767369,3.50155928 L8.75033328,3.50155928 L8.75033328,2 L7.09767369,2 L7.09767369,3.50155928 Z M7.09767369,5.30322056 L8.75033328,5.30322056 L8.75033328,3.80166128 L7.09767369,3.80166128 L7.09767369,5.30322056 Z M5.14596142,5.30322056 L6.7975717,5.30322056 L6.7975717,3.80166128 L5.14596142,3.80166128 L5.14596142,5.30322056 Z M3.19424914,5.30322056 L4.84585942,5.30322056 L4.84585942,3.80166128 L3.19319984,3.80166128 L3.19424914,5.30322056 Z M1.24148756,7.10593114 L2.89309784,7.10593114 L2.89309784,5.60437186 L1.24148756,5.60437186 L1.24148756,7.10593114 Z M3.19319984,7.10593114 L4.84585942,7.10593114 L4.84585942,5.60437186 L3.19319984,5.60437186 L3.19319984,7.10593114 Z M5.14491211,7.10593114 L6.7975717,7.10593114 L6.7975717,5.60437186 L5.14596142,5.60437186 L5.14491211,7.10593114 Z M7.09662438,7.10593114 L8.75033328,7.10593114 L8.75033328,5.60437186 L7.09767369,5.60437186 L7.09662438,7.10593114 Z M9.04833666,7.10593114 L10.6999469,7.10593114 L10.6999469,5.60437186 L9.04833666,5.60437186 L9.04833666,7.10593114 Z" id="Shape"></path>
        </g>
    </g>
</svg>