<?xml version="1.0" encoding="utf-8"?>
<!-- Generator: Adobe Illustrator 21.1.0, SVG Export Plug-In . SVG Version: 6.00 Build 0)  -->
<svg version="1.1" id="Layer_1" xmlns="http://www.w3.org/2000/svg" xmlns:xlink="http://www.w3.org/1999/xlink" x="0px" y="0px"
	 viewBox="0 0 173.7 173.7" style="enable-background:new 0 0 173.7 173.7;" xml:space="preserve">
<style type="text/css">
	.st0{fill:#11B4E2;}
</style>
<title>machine_identity_icon</title>
<polygon class="st0" points="17.4,17.4 86.8,17.4 86.8,0 17.4,0 0,0 0,86.8 17.4,86.8 "/>
<polygon class="st0" points="17.4,104.2 0,104.2 0,173.7 17.4,173.7 138.9,173.7 138.9,156.3 17.4,156.3 "/>
<polygon class="st0" points="156.3,0 104.2,0 104.2,17.4 156.3,17.4 156.3,138.9 173.7,138.9 173.7,0 "/>
<polygon class="st0" points="34.7,52.1 34.7,121.6 34.7,138.9 86.8,138.9 86.8,121.6 52.1,121.6 52.1,52.1 121.6,52.1 121.6,121.6 
	104.2,121.6 104.2,138.9 138.9,138.9 138.9,121.6 138.9,52.1 138.9,34.7 34.7,34.7 "/>
<polygon class="st0" points="104.2,69.5 86.8,69.5 86.8,86.8 69.5,86.8 69.5,104.2 104.2,104.2 "/>
</svg>
