<?xml version="1.0" encoding="UTF-8" standalone="no"?>
<svg width="68px" height="69px" viewBox="0 0 68 69" version="1.1" xmlns="http://www.w3.org/2000/svg" xmlns:xlink="http://www.w3.org/1999/xlink">
    <!-- Generator: Sketch 46.2 (44496) - http://www.bohemiancoding.com/sketch -->
    <title>Authorization icon</title>
    <desc>Created with Sketch.</desc>
    <defs></defs>
    <g id="conjur.org" stroke="none" stroke-width="1" fill="none" fill-rule="evenodd">
        <g id="01_conjur_org_cybr" transform="translate(-428.000000, -1351.000000)" fill="#35B89F">
            <g id="Features-Icons-Copy-3" transform="translate(425.000000, 914.000000)">
                <g id="Authorization-icon" transform="translate(3.000000, 437.000000)">
                    <g id="Page-1">
                        <path d="M61.4326,20.7783 C60.5496,20.7783 59.8346,20.0633 59.8346,19.1793 L59.8346,9.0573 C59.8346,8.7633 59.5956,8.5243 59.3016,8.5243 L30.5316,8.5243 C30.1076,8.5243 29.7016,8.3553 29.4016,8.0563 L24.5416,3.1963 L8.1546,3.1963 C7.8616,3.1963 7.6216,3.4353 7.6216,3.7293 L7.6216,19.1793 C7.6216,20.0633 6.9066,20.7783 6.0236,20.7783 C5.1406,20.7783 4.4256,20.0633 4.4256,19.1793 L4.4256,3.7293 C4.4256,1.6733 6.0986,0.0003 8.1546,0.0003 L25.2036,0.0003 C25.6276,0.0003 26.0346,0.1693 26.3336,0.4683 L31.1936,5.3283 L59.3016,5.3283 C61.3586,5.3283 63.0316,7.0013 63.0316,9.0573 L63.0316,19.1793 C63.0316,20.0633 62.3156,20.7783 61.4326,20.7783 Z" id="Fill-1"></path>
                        <path d="M11.884,18.6478 L55.572,18.6478 L55.572,13.3198 L11.884,13.3198 L11.884,18.6478 Z M56.105,19.7128 L11.352,19.7128 C11.058,19.7128 10.819,19.4748 10.819,19.1798 L10.819,12.7868 C10.819,12.4918 11.058,12.2538 11.352,12.2538 L56.105,12.2538 C56.399,12.2538 56.638,12.4918 56.638,12.7868 L56.638,19.1798 C56.638,19.4748 56.399,19.7128 56.105,19.7128 L56.105,19.7128 Z" id="Fill-3"></path>
                        <path d="M28.4003,49.5488 C28.4003,49.0098 28.4273,48.4788 28.4683,47.9498 L7.8393,47.9498 C7.5763,47.9498 7.3553,47.7618 7.3133,47.5018 L3.2033,21.9288 C3.1703,21.7168 3.2643,21.5688 3.3243,21.4978 C3.3833,21.4288 3.5153,21.3118 3.7303,21.3118 L63.7263,21.3118 C63.9413,21.3118 64.0733,21.4288 64.1323,21.4978 C64.1923,21.5688 64.2873,21.7168 64.2533,21.9288 L62.3893,33.5228 C63.4053,34.3608 64.3383,35.2938 65.1793,36.3078 L67.4093,22.4358 C67.5833,21.3558 67.2753,20.2578 66.5653,19.4248 C65.8553,18.5918 64.8213,18.1138 63.7263,18.1138 L3.7303,18.1138 C2.6353,18.1138 1.6003,18.5918 0.8913,19.4248 C0.1813,20.2578 -0.1257,21.3558 0.0473,22.4358 L4.1573,48.0098 C4.4493,49.8268 5.9983,51.1468 7.8393,51.1468 L28.4683,51.1468 C28.4273,50.6188 28.4003,50.0868 28.4003,49.5488" id="Fill-5"></path>
                        <path d="M49.1787,65.4336 C40.4197,65.4336 33.2947,58.3076 33.2947,49.5486 C33.2947,40.7896 40.4197,33.6636 49.1787,33.6636 C57.9377,33.6636 65.0637,40.7896 65.0637,49.5486 C65.0637,58.3076 57.9377,65.4336 49.1787,65.4336 M49.1787,30.9016 C38.8967,30.9016 30.5317,39.2666 30.5317,49.5486 C30.5317,59.8296 38.8967,68.1966 49.1787,68.1966 C59.4607,68.1966 67.8257,59.8296 67.8257,49.5486 C67.8257,39.2666 59.4607,30.9016 49.1787,30.9016" id="Fill-6"></path>
                        <path d="M58.0927,42.9551 C57.5527,42.4161 56.6787,42.4161 56.1387,42.9551 L45.8837,53.2111 L42.2187,49.5461 C41.6797,49.0071 40.8047,49.0071 40.2657,49.5461 C39.7267,50.0861 39.7267,50.9601 40.2657,51.5001 L45.8837,57.1171 L58.0927,44.9091 C58.6317,44.3691 58.6317,43.4951 58.0927,42.9551" id="Fill-7"></path>
                    </g>
                </g>
            </g>
        </g>
    </g>
</svg>