<?xml version="1.0" encoding="UTF-8" standalone="no"?>
<svg width="50px" height="50px" viewBox="0 0 50 50" version="1.1" xmlns="http://www.w3.org/2000/svg" xmlns:xlink="http://www.w3.org/1999/xlink">
    <!-- Generator: Sketch 47 (45396) - http://www.bohemiancoding.com/sketch -->
    <title>icon/authorization-teal</title>
    <desc>Created with Sketch.</desc>
    <defs></defs>
    <g id="Symbols" stroke="none" stroke-width="1" fill="none" fill-rule="evenodd">
        <g id="icon/authorization-teal">
            <path d="M46.8609286,20.9548006 C46.0109257,20.1705182 45.6960663,18.9626644 46.0549825,17.8629065 L46.9754763,15.0418394 C47.5176688,13.380453 46.5096489,11.6139081 44.803769,11.2349851 L41.9154041,10.5928722 C40.7834376,10.3414318 39.9023013,9.45081589 39.6620448,8.31580933 L39.0417248,5.37548435 C38.6816338,3.67003712 36.9322844,2.6437139 35.2675242,3.16128159 L32.4214539,4.04661021 C31.3176838,4.39028456 30.1152264,4.05953471 29.3421761,3.19946763 L27.3484583,0.981152521 C26.1830087,-0.315410361 24.1558077,-0.328922344 22.9733228,0.952366122 L20.9531709,3.14071988 C20.1689595,3.99021237 18.9623902,4.30510032 17.8633195,3.94732651 L15.033697,3.02674924 C13.3730488,2.4868574 11.6084264,3.49496882 11.2295378,5.1992411 L10.5868957,8.08963048 C10.3360656,9.22287462 9.44435561,10.1040909 8.30827717,10.3437817 L5.37820518,10.9606331 C3.67173782,11.3201694 2.64433287,13.0702649 3.16302845,14.7357636 L4.04768932,17.5797423 C4.39133249,18.6836126 4.06002523,19.8867665 3.20003618,20.6598869 L0.980747484,22.6549606 C-0.31511034,23.8199285 -0.329208521,25.8467259 0.950201424,27.0293182 L3.14305603,29.0555281 C3.9912966,29.8398106 4.30556855,31.045902 3.94841463,32.1444849 L3.02850831,34.9690768 C2.48807803,36.6298758 3.49551056,38.3952457 5.20021564,38.7741687 L8.09093021,39.4162816 C9.2234841,39.6683095 10.1046204,40.5583379 10.3442895,41.693932 L10.9587352,44.6042956 C11.3194137,46.3103303 13.068763,47.3366535 14.7335233,46.8184984 L17.5754816,45.9349322 C18.6816014,45.5906703 19.8858211,45.9231826 20.6588713,46.7861871 L22.6543514,49.0150768 C23.8180388,50.3145771 25.8481769,50.330439 27.0318367,49.0491505 L29.052576,46.8625592 C29.8373747,46.0136542 31.0445315,45.6993537 32.1436022,46.057715 L34.9655882,46.9782922 C36.6262364,47.520534 38.392621,46.51301 38.7720971,44.8069753 L39.4141518,41.9189359 C39.6649819,40.7856917 40.555517,39.9050629 41.691008,39.6653721 L44.6105064,39.0485207 C46.3134492,38.6889845 47.3396793,36.9447637 46.8274454,35.2822023 L45.9463091,32.4194244 C45.6073653,31.3179041 45.9386725,30.1188624 46.7963119,29.3480919 L49.0185377,27.3494934 C50.314983,26.1845255 50.3284937,24.1571406 49.0479089,22.9745483" id="Fill-1" fill="#35B89F"></path>
            <path d="M20.2083987,36.1152299 L11.1204464,27.1158046 C10.3270353,26.3301724 10.3270353,25.0566092 11.1204464,24.270977 C11.9138575,23.4859195 13.1994504,23.4853448 13.9928615,24.2715517 L20.2083987,30.4261494 L35.4103176,15.3727011 C36.2043091,14.5876437 37.4893217,14.5876437 38.2833131,15.3727011 C39.0767242,16.1583333 39.0767242,17.4318966 38.2833131,18.2175287 L20.2083987,36.1152299 Z" id="Fill-4" fill="#FEFEFE"></path>
        </g>
    </g>
</svg>