<?xml version="1.0" encoding="UTF-8" standalone="no"?>
<svg width="105px" height="64px" viewBox="0 0 105 64" version="1.1" xmlns="http://www.w3.org/2000/svg" xmlns:xlink="http://www.w3.org/1999/xlink">
    <!-- Generator: Sketch 46.2 (44496) - http://www.bohemiancoding.com/sketch -->
    <title>containers icon</title>
    <desc>Created with Sketch.</desc>
    <defs></defs>
    <g id="conjur.org" stroke="none" stroke-width="1" fill="none" fill-rule="evenodd">
        <g id="01_conjur_org_cybr" transform="translate(-923.000000, -1758.000000)" fill="#35B89F">
            <g id="Features-Icons-Copy-3" transform="translate(425.000000, 914.000000)">
                <g id="containers-icon" transform="translate(498.000000, 844.000000)">
                    <g id="Page-1">
                        <polygon id="Fill-1" points="47.961 59.719 48.965 59.719 48.965 45.153 47.961 45.153"></polygon>
                        <polygon id="Fill-2" points="53.257 59.719 54.261 59.719 54.261 45.153 53.257 45.153"></polygon>
                        <polygon id="Fill-3" points="50.609 59.719 51.613 59.719 51.613 45.153 50.609 45.153"></polygon>
                        <polygon id="Fill-4" points="55.905 59.719 56.91 59.719 56.91 45.153 55.905 45.153"></polygon>
                        <polygon id="Fill-5" points="27.794 39.551 28.797 39.551 28.797 24.985 27.794 24.985"></polygon>
                        <polygon id="Fill-6" points="58.546 59.719 59.512 59.719 59.512 45.153 58.546 45.153"></polygon>
                        <polygon id="Fill-7" points="30.441 39.551 31.445 39.551 31.445 24.985 30.441 24.985"></polygon>
                        <polygon id="Fill-8" points="25.192 39.551 26.157 39.551 26.157 24.985 25.192 24.985"></polygon>
                        <polygon id="Fill-9" points="50.609 39.551 51.613 39.551 51.613 24.985 50.609 24.985"></polygon>
                        <polygon id="Fill-10" points="47.961 39.551 48.965 39.551 48.965 24.985 47.961 24.985"></polygon>
                        <polygon id="Fill-11" points="53.257 39.551 54.261 39.551 54.261 24.985 53.257 24.985"></polygon>
                        <polygon id="Fill-12" points="55.905 39.551 56.91 39.551 56.91 24.985 55.905 24.985"></polygon>
                        <polygon id="Fill-13" points="58.546 39.551 59.512 39.551 59.512 24.985 58.546 24.985"></polygon>
                        <polygon id="Fill-14" points="45.359 59.719 46.324 59.719 46.324 45.153 45.359 45.153"></polygon>
                        <polygon id="Fill-15" points="33.089 39.551 34.093 39.551 34.093 24.985 33.089 24.985"></polygon>
                        <polygon id="Fill-16" points="7.626 59.719 8.63 59.719 8.63 45.153 7.626 45.153"></polygon>
                        <polygon id="Fill-17" points="5.024 59.719 5.989 59.719 5.989 45.153 5.024 45.153"></polygon>
                        <polygon id="Fill-18" points="10.274 59.719 11.278 59.719 11.278 45.153 10.274 45.153"></polygon>
                        <polygon id="Fill-19" points="38.378 59.719 39.345 59.719 39.345 45.153 38.378 45.153"></polygon>
                        <polygon id="Fill-20" points="12.922 59.719 13.926 59.719 13.926 45.153 12.922 45.153"></polygon>
                        <polygon id="Fill-21" points="18.21 59.719 19.177 59.719 19.177 45.153 18.21 45.153"></polygon>
                        <polygon id="Fill-22" points="15.571 59.719 16.575 59.719 16.575 45.153 15.571 45.153"></polygon>
                        <polygon id="Fill-23" points="33.089 59.719 34.093 59.719 34.093 45.153 33.089 45.153"></polygon>
                        <polygon id="Fill-24" points="38.378 39.551 39.345 39.551 39.345 24.985 38.378 24.985"></polygon>
                        <polygon id="Fill-25" points="35.738 39.551 36.742 39.551 36.742 24.985 35.738 24.985"></polygon>
                        <polygon id="Fill-26" points="25.192 59.719 26.157 59.719 26.157 45.153 25.192 45.153"></polygon>
                        <polygon id="Fill-27" points="45.359 39.551 46.324 39.551 46.324 24.985 45.359 24.985"></polygon>
                        <polygon id="Fill-28" points="35.738 59.719 36.742 59.719 36.742 45.153 35.738 45.153"></polygon>
                        <polygon id="Fill-29" points="30.441 59.719 31.445 59.719 31.445 45.153 30.441 45.153"></polygon>
                        <polygon id="Fill-30" points="27.794 59.719 28.797 59.719 28.797 45.153 27.794 45.153"></polygon>
                        <polygon id="Fill-31" points="76.074 59.719 77.078 59.719 77.078 45.153 76.074 45.153"></polygon>
                        <polygon id="Fill-32" points="68.129 19.383 69.133 19.383 69.133 4.817 68.129 4.817"></polygon>
                        <polygon id="Fill-33" points="98.88 59.719 99.846 59.719 99.846 45.153 98.88 45.153"></polygon>
                        <polygon id="Fill-34" points="70.776 19.383 71.78 19.383 71.78 4.817 70.776 4.817"></polygon>
                        <polygon id="Fill-35" points="65.527 19.383 66.492 19.383 66.492 4.817 65.527 4.817"></polygon>
                        <polygon id="Fill-36" points="73.424 19.383 74.429 19.383 74.429 4.817 73.424 4.817"></polygon>
                        <polygon id="Fill-37" points="76.074 19.383 77.078 19.383 77.078 4.817 76.074 4.817"></polygon>
                        <polygon id="Fill-38" points="90.944 59.719 91.948 59.719 91.948 45.153 90.944 45.153"></polygon>
                        <polygon id="Fill-39" points="85.693 59.719 86.66 59.719 86.66 45.153 85.693 45.153"></polygon>
                        <polygon id="Fill-40" points="88.294 59.719 89.299 59.719 89.299 45.153 88.294 45.153"></polygon>
                        <polygon id="Fill-41" points="96.241 59.719 97.245 59.719 97.245 45.153 96.241 45.153"></polygon>
                        <polygon id="Fill-42" points="93.591 59.719 94.595 59.719 94.595 45.153 93.591 45.153"></polygon>
                        <polygon id="Fill-43" points="78.714 19.383 79.68 19.383 79.68 4.817 78.714 4.817"></polygon>
                        <polygon id="Fill-44" points="65.527 39.551 66.492 39.551 66.492 24.985 65.527 24.985"></polygon>
                        <polygon id="Fill-45" points="68.129 59.719 69.133 59.719 69.133 45.153 68.129 45.153"></polygon>
                        <polygon id="Fill-46" points="65.527 59.719 66.492 59.719 66.492 45.153 65.527 45.153"></polygon>
                        <polygon id="Fill-47" points="78.714 39.551 79.68 39.551 79.68 24.985 78.714 24.985"></polygon>
                        <polygon id="Fill-48" points="76.074 39.551 77.078 39.551 77.078 24.985 76.074 24.985"></polygon>
                        <polygon id="Fill-49" points="70.776 59.719 71.78 59.719 71.78 45.153 70.776 45.153"></polygon>
                        <polygon id="Fill-50" points="78.714 59.719 79.68 59.719 79.68 45.153 78.714 45.153"></polygon>
                        <polygon id="Fill-51" points="73.424 59.719 74.429 59.719 74.429 45.153 73.424 45.153"></polygon>
                        <polygon id="Fill-52" points="73.424 39.551 74.429 39.551 74.429 24.985 73.424 24.985"></polygon>
                        <polygon id="Fill-53" points="68.129 39.551 69.133 39.551 69.133 24.985 68.129 24.985"></polygon>
                        <polygon id="Fill-54" points="70.776 39.551 71.78 39.551 71.78 24.985 70.776 24.985"></polygon>
                        <polygon id="Fill-55" points="53.257 59.719 54.261 59.719 54.261 45.153 53.257 45.153"></polygon>
                        <polygon id="Fill-56" points="55.905 59.719 56.91 59.719 56.91 45.153 55.905 45.153"></polygon>
                        <polygon id="Fill-57" points="50.609 59.719 51.613 59.719 51.613 45.153 50.609 45.153"></polygon>
                        <polygon id="Fill-58" points="25.192 39.551 26.157 39.551 26.157 24.985 25.192 24.985"></polygon>
                        <polygon id="Fill-59" points="27.794 39.551 28.797 39.551 28.797 24.985 27.794 24.985"></polygon>
                        <polygon id="Fill-60" points="47.961 59.719 48.965 59.719 48.965 45.153 47.961 45.153"></polygon>
                        <polygon id="Fill-61" points="18.21 59.719 19.177 59.719 19.177 45.153 18.21 45.153"></polygon>
                        <polygon id="Fill-62" points="50.609 39.551 51.613 39.551 51.613 24.985 50.609 24.985"></polygon>
                        <polygon id="Fill-63" points="30.441 39.551 31.445 39.551 31.445 24.985 30.441 24.985"></polygon>
                        <polygon id="Fill-64" points="45.359 59.719 46.324 59.719 46.324 45.153 45.359 45.153"></polygon>
                        <polygon id="Fill-65" points="47.961 39.551 48.965 39.551 48.965 24.985 47.961 24.985"></polygon>
                        <polygon id="Fill-66" points="45.359 39.551 46.324 39.551 46.324 24.985 45.359 24.985"></polygon>
                        <polygon id="Fill-67" points="53.257 39.551 54.261 39.551 54.261 24.985 53.257 24.985"></polygon>
                        <polygon id="Fill-68" points="58.546 39.551 59.512 39.551 59.512 24.985 58.546 24.985"></polygon>
                        <polygon id="Fill-69" points="55.905 39.551 56.91 39.551 56.91 24.985 55.905 24.985"></polygon>
                        <polygon id="Fill-70" points="58.546 59.719 59.512 59.719 59.512 45.153 58.546 45.153"></polygon>
                        <polygon id="Fill-71" points="5.024 59.719 5.989 59.719 5.989 45.153 5.024 45.153"></polygon>
                        <polygon id="Fill-72" points="7.626 59.719 8.63 59.719 8.63 45.153 7.626 45.153"></polygon>
                        <polygon id="Fill-73" points="38.378 59.719 39.345 59.719 39.345 45.153 38.378 45.153"></polygon>
                        <polygon id="Fill-74" points="33.089 39.551 34.093 39.551 34.093 24.985 33.089 24.985"></polygon>
                        <polygon id="Fill-75" points="15.571 59.719 16.575 59.719 16.575 45.153 15.571 45.153"></polygon>
                        <polygon id="Fill-76" points="10.274 59.719 11.278 59.719 11.278 45.153 10.274 45.153"></polygon>
                        <polygon id="Fill-77" points="12.922 59.719 13.926 59.719 13.926 45.153 12.922 45.153"></polygon>
                        <polygon id="Fill-78" points="35.738 59.719 36.742 59.719 36.742 45.153 35.738 45.153"></polygon>
                        <polygon id="Fill-79" points="25.192 59.719 26.157 59.719 26.157 45.153 25.192 45.153"></polygon>
                        <polygon id="Fill-80" points="38.378 39.551 39.345 39.551 39.345 24.985 38.378 24.985"></polygon>
                        <polygon id="Fill-81" points="33.089 59.719 34.093 59.719 34.093 45.153 33.089 45.153"></polygon>
                        <polygon id="Fill-82" points="35.738 39.551 36.742 39.551 36.742 24.985 35.738 24.985"></polygon>
                        <polygon id="Fill-83" points="27.794 59.719 28.797 59.719 28.797 45.153 27.794 45.153"></polygon>
                        <polygon id="Fill-84" points="30.441 59.719 31.445 59.719 31.445 45.153 30.441 45.153"></polygon>
                        <polygon id="Fill-85" points="76.074 59.719 77.078 59.719 77.078 45.153 76.074 45.153"></polygon>
                        <polygon id="Fill-86" points="70.776 19.383 71.78 19.383 71.78 4.817 70.776 4.817"></polygon>
                        <polygon id="Fill-87" points="73.424 19.383 74.429 19.383 74.429 4.817 73.424 4.817"></polygon>
                        <polygon id="Fill-88" points="65.527 19.383 66.492 19.383 66.492 4.817 65.527 4.817"></polygon>
                        <polygon id="Fill-89" points="68.129 19.383 69.133 19.383 69.133 4.817 68.129 4.817"></polygon>
                        <polygon id="Fill-90" points="65.527 39.551 66.492 39.551 66.492 24.985 65.527 24.985"></polygon>
                        <polygon id="Fill-91" points="78.714 19.383 79.68 19.383 79.68 4.817 78.714 4.817"></polygon>
                        <polygon id="Fill-92" points="76.074 19.383 77.078 19.383 77.078 4.817 76.074 4.817"></polygon>
                        <polygon id="Fill-93" points="98.88 59.719 99.846 59.719 99.846 45.153 98.88 45.153"></polygon>
                        <polygon id="Fill-94" points="90.944 59.719 91.948 59.719 91.948 45.153 90.944 45.153"></polygon>
                        <polygon id="Fill-95" points="85.693 59.719 86.66 59.719 86.66 45.153 85.693 45.153"></polygon>
                        <polygon id="Fill-96" points="88.294 59.719 89.299 59.719 89.299 45.153 88.294 45.153"></polygon>
                        <polygon id="Fill-97" points="93.591 59.719 94.595 59.719 94.595 45.153 93.591 45.153"></polygon>
                        <polygon id="Fill-98" points="96.241 59.719 97.245 59.719 97.245 45.153 96.241 45.153"></polygon>
                        <polygon id="Fill-99" points="70.776 59.719 71.78 59.719 71.78 45.153 70.776 45.153"></polygon>
                        <polygon id="Fill-100" points="78.714 59.719 79.68 59.719 79.68 45.153 78.714 45.153"></polygon>
                        <polygon id="Fill-101" points="68.129 59.719 69.133 59.719 69.133 45.153 68.129 45.153"></polygon>
                        <polygon id="Fill-102" points="65.527 59.719 66.492 59.719 66.492 45.153 65.527 45.153"></polygon>
                        <polygon id="Fill-103" points="78.714 39.551 79.68 39.551 79.68 24.985 78.714 24.985"></polygon>
                        <polygon id="Fill-104" points="73.424 59.719 74.429 59.719 74.429 45.153 73.424 45.153"></polygon>
                        <polygon id="Fill-105" points="70.776 39.551 71.78 39.551 71.78 24.985 70.776 24.985"></polygon>
                        <polygon id="Fill-106" points="73.424 39.551 74.429 39.551 74.429 24.985 73.424 24.985"></polygon>
                        <polygon id="Fill-107" points="76.074 39.551 77.078 39.551 77.078 24.985 76.074 24.985"></polygon>
                        <polygon id="Fill-108" points="68.129 39.551 69.133 39.551 69.133 24.985 68.129 24.985"></polygon>
                        <path d="M60.5025,0.0001 L60.5025,20.1671 L20.1665,20.1671 L20.1665,40.3351 L-0.0005,40.3351 L-0.0005,60.9521 L-0.0005,64.0001 L104.8705,64.0001 L104.8705,40.3351 L84.7025,40.3351 L84.7025,0.0001 L60.5025,0.0001 Z M63.8635,20.8401 L81.3435,20.8401 L81.3435,3.3611 L63.8635,3.3611 L63.8635,20.8401 Z M63.8635,41.0071 L81.3435,41.0071 L81.3435,23.5291 L63.8635,23.5291 L63.8635,41.0071 Z M43.6955,41.0071 L61.1745,41.0071 L61.1745,23.5291 L43.6955,23.5291 L43.6955,41.0071 Z M23.5275,41.0071 L41.0075,41.0071 L41.0075,23.5291 L23.5275,23.5291 L23.5275,41.0071 Z M84.0315,61.1751 L101.5095,61.1751 L101.5095,43.6951 L84.0315,43.6951 L84.0315,61.1751 Z M63.8635,61.1751 L81.3435,61.1751 L81.3435,43.6951 L63.8635,43.6951 L63.8635,61.1751 Z M43.6955,61.1751 L61.1745,61.1751 L61.1745,43.6951 L43.6955,43.6951 L43.6955,61.1751 Z M23.5275,61.1751 L41.0075,61.1751 L41.0075,43.6951 L23.5275,43.6951 L23.5275,61.1751 Z M3.3605,61.1751 L20.8385,61.1751 L20.8385,43.6951 L3.3605,43.6951 L3.3605,61.1751 Z" id="Fill-109"></path>
                    </g>
                </g>
            </g>
        </g>
    </g>
</svg>