<?xml version="1.0" encoding="UTF-8" standalone="no"?>
<svg width="80px" height="81px" viewBox="0 0 80 81" version="1.1" xmlns="http://www.w3.org/2000/svg" xmlns:xlink="http://www.w3.org/1999/xlink">
    <!-- Generator: Sketch 46.2 (44496) - http://www.bohemiancoding.com/sketch -->
    <title>integrations icon</title>
    <desc>Created with Sketch.</desc>
    <defs></defs>
    <g id="conjur.org" stroke="none" stroke-width="1" fill="none" fill-rule="evenodd">
        <g id="01_conjur_org_cybr" transform="translate(-428.000000, -1741.000000)" stroke="#35B89F">
            <g id="Features-Icons-Copy-3" transform="translate(425.000000, 914.000000)">
                <g id="integrations-icon" transform="translate(4.000000, 828.000000)">
                    <g id="Page-1">
                        <path d="M27.2385,5.0628 C26.7895,5.5118 26.4285,6.0158 26.1535,6.5518 L20.3685,0.7678 L0.7675,20.3688 L20.3685,39.9698 L26.1535,34.1858 C25.6175,33.9098 25.1135,33.5488 24.6645,33.0998 C22.3355,30.7708 22.3355,26.9938 24.6645,24.6648 C26.9935,22.3348 30.7705,22.3348 33.0995,24.6648 C33.5495,25.1138 33.9095,25.6178 34.1855,26.1538 L39.9695,20.3688 L34.1855,14.5838 C34.7215,14.3088 35.2255,13.9488 35.6745,13.4998 C38.0045,11.1688 38.0045,7.3928 35.6755,5.0638 C33.3445,2.7338 29.5685,2.7338 27.2385,5.0628 Z" id="Stroke-1" stroke-width="2.5"></path>
                        <path d="M69.2454,52.179 C69.2454,51.544 69.1444,50.933 68.9604,50.359 L77.1414,50.359 L77.1414,22.639 L49.4214,22.639 L49.4214,30.819 C49.9954,30.635 50.6054,30.533 51.2414,30.533 C54.5354,30.533 57.2064,33.204 57.2064,36.498 C57.2064,39.793 54.5354,42.463 51.2414,42.463 C50.6054,42.463 49.9954,42.363 49.4214,42.178 L49.4214,50.359 L57.6004,50.359 C57.4174,50.933 57.3154,51.544 57.3154,52.179 C57.3154,55.473 59.9864,58.144 63.2804,58.144 C66.5754,58.144 69.2454,55.473 69.2454,52.179 Z" id="Stroke-3" stroke-width="2.5"></path>
                        <path d="M47.6008,70.181 C48.2358,70.181 48.8468,70.079 49.4208,69.896 L49.4208,78.077 L77.1408,78.077 L77.1408,50.356 L68.9598,50.356 C69.1448,50.93 69.2458,51.541 69.2458,52.176 C69.2458,55.471 66.5758,58.141 63.2808,58.141 C59.9868,58.141 57.3158,55.471 57.3158,52.176 C57.3158,51.541 57.4168,50.93 57.6008,50.356 L49.4208,50.356 L49.4208,58.536 C48.8468,58.353 48.2358,58.251 47.6008,58.251 C44.3058,58.251 41.6348,60.922 41.6348,64.216 C41.6348,67.511 44.3058,70.181 47.6008,70.181 Z" id="Stroke-5" stroke-width="2.5"></path>
                        <path d="M29.5959,48.5355 C29.5959,49.1715 29.6979,49.7815 29.8809,50.3555 L21.6999,50.3555 L21.6999,78.0765 L49.4209,78.0765 L49.4209,69.8955 C48.8469,70.0795 48.2359,70.1815 47.6009,70.1815 C44.3059,70.1815 41.6359,67.5115 41.6359,64.2165 C41.6359,60.9225 44.3059,58.2515 47.6009,58.2515 C48.2359,58.2515 48.8469,58.3525 49.4209,58.5365 L49.4209,50.3555 L41.2409,50.3555 C41.4239,49.7815 41.5259,49.1715 41.5259,48.5355 C41.5259,45.2415 38.8549,42.5705 35.5609,42.5705 C32.2659,42.5705 29.5959,45.2415 29.5959,48.5355 Z" id="Stroke-7" stroke-width="2.5"></path>
                    </g>
                </g>
            </g>
        </g>
    </g>
</svg>