<?xml version="1.0" encoding="UTF-8" standalone="no"?>
<svg width="50px" height="50px" viewBox="0 0 50 50" version="1.1" xmlns="http://www.w3.org/2000/svg" xmlns:xlink="http://www.w3.org/1999/xlink">
    <!-- Generator: Sketch 47 (45396) - http://www.bohemiancoding.com/sketch -->
    <title>icon/integrations-teal</title>
    <desc>Created with Sketch.</desc>
    <defs>
        <polygon id="path-1" points="0.0196687065 0.461648438 24.0558811 0.461648438 24.0558811 24.7411243 0.0196687065 24.7411243 0.0196687065 0.461648438"></polygon>
    </defs>
    <g id="Symbols" stroke="none" stroke-width="1" fill="none" fill-rule="evenodd">
        <g id="icon/integrations-teal">
            <g id="Page-1" transform="translate(0.000000, -1.000000)">
                <g id="Group-3" transform="translate(0.000000, 0.553000)" fill="#35B89F">
                    <path d="M25.898061,14.1550974 C26.1809841,14.2306247 26.4198661,14.4414856 26.6964976,14.6855946 C27.2400252,15.1653834 27.915014,15.7626442 29.145915,15.6886556 C30.135881,15.6291837 30.7513977,15.0721283 31.0933956,14.6153522 C31.5196346,14.0461214 31.77408,13.292588 31.77408,12.5997307 C31.77408,11.907074 31.5197008,11.1540089 31.093528,10.5853802 C30.7515964,10.1290055 30.1360797,9.5724852 29.145915,9.51301333 C27.9162724,9.43882401 27.2398927,10.0358173 26.6962989,10.5153385 C26.4197336,10.7592468 26.1809179,10.969907 25.8979948,11.0454343 C25.4842065,11.1560158 25.070948,11.072996 24.7349768,10.8116275 C24.2909226,10.4662357 24.0362786,9.85927477 24.0362786,9.14634816 L24.0362786,0.461648438 L0,0.461648438 L0,24.7411577 L8.58445144,24.7411577 C9.29659381,24.7411577 9.90297115,25.0008538 10.2482804,25.4538168 C10.5062358,25.7921843 10.5884901,26.2069488 10.4799436,26.6217132 C10.4051067,26.9076331 10.1964244,27.1488655 9.95476092,27.4282963 C9.47977858,27.9773241 8.88863352,28.660682 8.96174848,29.9025002 C9.02062457,30.9026177 9.57183455,31.5243631 10.0239022,31.8698217 C10.5870994,32.3002402 11.332819,32.5572604 12.0186691,32.5572604 C12.7045192,32.5572604 13.4502389,32.3002402 14.0135022,31.8698217 C14.4655037,31.5243631 15.0166474,30.9026177 15.0755898,29.9025002 C15.1486385,28.6604813 14.557957,27.9771234 14.0833058,27.4280956 C13.8417748,27.1487317 13.633225,26.9074993 13.5584543,26.6217132 C13.4489143,26.2032694 13.5312349,25.785829 13.789985,25.446458 C14.1316518,24.9981779 14.7320686,24.7411577 15.4373896,24.7411577 L24.0362786,24.7411577 L24.0362786,16.0687003 C24.0362786,15.3498198 24.2932406,14.7376408 24.7412684,14.3891049 C25.0763787,14.1285391 25.4869218,14.0454524 25.898061,14.1550974" id="Fill-1"></path>
                </g>
                <path d="M23.9314821,37.2090542 C23.6464807,37.1328893 23.4059002,36.9202482 23.1273018,36.6740783 C22.5799096,36.1902389 21.8987875,35.5877334 20.6604685,35.662549 C19.6634637,35.7224555 19.0435705,36.2842139 18.699141,36.7449137 C18.2698713,37.3188827 18.0136168,38.0787778 18.0136168,38.777552 C18.0136168,39.4760564 18.2698046,40.2354792 18.6990076,40.8089085 C19.0433705,41.2691361 19.6632636,41.8303548 20.6604685,41.8903287 C21.898454,41.9648745 22.5801097,41.3630436 23.1275686,40.8795415 C23.4060336,40.6335066 23.6465474,40.4211354 23.9314154,40.344903 C24.3486127,40.2335228 24.7644094,40.317176 25.1027694,40.5807511 C25.5499809,40.9290588 25.8064355,41.5410766 25.8064355,42.260022 L25.8064355,51.0181092 L50.0136168,51.0181092 L50.0136168,26.5336217 L41.3681282,26.5336217 C40.6509224,26.5336217 40.0402336,26.2717332 39.6924691,25.8149461 C39.4326796,25.473722 39.3498404,25.0554559 39.4591588,24.6371898 C39.5345277,24.348856 39.7446938,24.1055871 39.9880756,23.8237972 C40.4664351,23.2701343 41.0617166,22.5810072 40.9881485,21.328705 C40.9287871,20.320144 40.3737246,19.6931497 39.9184426,19.3447745 C39.351241,18.9106548 38.6002192,18.6515322 37.9094926,18.6515322 C37.2187659,18.6515322 36.4677441,18.9106548 35.9004758,19.3447745 C35.4452605,19.6931497 34.890198,20.320144 34.8308366,21.328705 C34.7572685,22.5812096 35.3521498,23.2703367 35.8301759,23.8239996 C36.0734242,24.105722 36.2834569,24.348991 36.3587592,24.6371898 C36.469078,25.0591663 36.3861722,25.4801309 36.1255822,25.822367 C35.7814862,26.2744317 35.1767335,26.5336217 34.4664643,26.5336217 L25.8064355,26.5336217 L25.8064355,35.2792959 C25.8064355,36.0042454 25.5476464,36.6215927 25.096433,36.9730037 C24.7590068,37.2358367 24.3451444,37.3197598 23.9314821,37.2090542" id="Fill-4" fill="#35B89F"></path>
                <g id="Group-8" transform="translate(26.000000, 0.553000)">
                    <mask id="mask-2" fill="white">
                        <use xlink:href="#path-1"></use>
                    </mask>
                    <g id="Clip-7"></g>
                    <path d="M15.2185737,18.0133436 C16.3074171,18.8456822 16.9775713,20.0969998 17.0570441,21.446523 C17.1434046,22.9141872 16.5925257,24.0162565 16.1152254,24.6824217 C16.1005229,24.7029593 16.0864828,24.7224933 16.0730386,24.7411577 L24.0558811,24.7411577 L24.0558811,0.461648438 L0.0196687065,0.461648438 L0.0196687065,8.52527181 C0.0381461287,8.51169162 0.0574845062,8.49750935 0.0778162934,8.48272501 C0.737307946,8.00052786 1.82787322,7.44360621 3.28123176,7.53137573 C4.61723549,7.61165272 5.85608373,8.28852158 6.68001782,9.38845019 C7.37553713,10.3168536 7.75852973,11.4577235 7.75852973,12.6008679 C7.75852973,13.7447482 7.37553713,14.8860195 6.68001782,15.814356 C5.85661355,16.9136156 4.6177653,17.5900831 3.28123176,17.6703601 C1.82674736,17.7579958 0.7367119,17.20181 0.0778162934,16.7201481 C0.0574845062,16.7052968 0.0381461287,16.6911146 0.0196687065,16.6775344 L0.0196687065,24.7411577 L8.00251117,24.7411577 C7.98906703,24.7224933 7.97502683,24.7029593 7.96032437,24.6824217 C7.48342144,24.0169255 6.93320486,22.9153244 7.01969774,21.446523 C7.0991043,20.0965316 7.76886119,18.845147 8.85697605,18.0133436 C9.77601257,17.310853 10.9059169,16.9239178 12.0383378,16.9239178 C13.1700965,16.9239178 14.2995372,17.310853 15.2185737,18.0133436" id="Fill-6" fill="#35B89F" mask="url(#mask-2)"></path>
                </g>
                <path d="M0,51.0181092 L24.0362786,51.0181092 L24.0362786,42.9544858 C24.0177349,42.968066 23.9983966,42.9822483 23.978131,42.9970995 C23.3186394,43.4792297 22.2280079,44.0359507 20.7746493,43.9483819 C19.4387118,43.8681718 18.1999298,43.1913029 17.375797,42.0913743 C16.6802777,41.1629709 16.2972851,40.0220341 16.2972851,38.8789566 C16.2972851,37.7350763 16.6802777,36.5938051 17.375797,35.6654016 C18.1993338,34.5662089 19.4381158,33.8897414 20.7746493,33.8094644 C22.2291337,33.7220294 23.3192354,34.2779476 23.978131,34.7596095 C23.9983966,34.7745277 24.0177349,34.788643 24.0362786,34.8022232 L24.0362786,26.7385999 L16.0533699,26.7385999 C16.0668803,26.7573312 16.0808542,26.7768652 16.0955567,26.7974028 C16.5723934,27.4628321 17.1227424,28.5644332 17.0361833,30.0332346 C16.9567768,31.3832929 16.2870861,32.6346775 15.1988388,33.4664141 C14.2798023,34.1689715 13.1500304,34.5558398 12.0175433,34.5558398 C10.8858508,34.5558398 9.75641009,34.1689715 8.83730735,33.4664141 C7.74839775,32.6340754 7.07830973,31.3827578 6.99890317,30.0332346 C6.91247652,28.5656373 7.46335537,27.4635011 7.94065566,26.7973359 C7.95535813,26.7768652 7.96939832,26.7573312 7.98284247,26.7385999 L0,26.7385999 L0,51.0181092 Z" id="Fill-9" fill="#35B89F"></path>
            </g>
        </g>
    </g>
</svg>