<?xml version="1.0" encoding="UTF-8" standalone="no"?>
<svg width="68px" height="68px" viewBox="0 0 68 68" version="1.1" xmlns="http://www.w3.org/2000/svg" xmlns:xlink="http://www.w3.org/1999/xlink">
    <!-- Generator: Sketch 46.2 (44496) - http://www.bohemiancoding.com/sketch -->
    <title>Machine Identity</title>
    <desc>Created with Sketch.</desc>
    <defs></defs>
    <g id="conjur.org" stroke="none" stroke-width="1" fill="none" fill-rule="evenodd">
        <g id="01_conjur_org_cybr" transform="translate(-428.000000, -973.000000)" fill-rule="nonzero" fill="#35B89F">
            <g id="Features-Icons-Copy-3" transform="translate(425.000000, 914.000000)">
                <g id="Machine-Identity" transform="translate(3.000000, 59.000000)">
                    <polygon id="Shape" points="6.78827586 6.78436782 33.9335632 6.78436782 33.9335632 0 6.78827586 0 0 0 0 33.9296552 6.78827586 33.9296552"></polygon>
                    <polygon id="Shape" points="6.78827586 40.717931 0 40.717931 0 67.8632184 6.78827586 67.8632184 54.2944828 67.8632184 54.2944828 61.0788506 6.78827586 61.0788506"></polygon>
                    <polygon id="Shape" points="61.0788506 7.1e-15 40.717931 7.1e-15 40.717931 6.78436782 61.0788506 6.78436782 61.0788506 54.2905747 67.8671264 54.2905747 67.8671264 7.1e-15"></polygon>
                    <polygon id="Shape" points="13.5726437 47.5062069 13.5726437 54.2905747 33.9335632 54.2905747 33.9335632 47.5062069 20.3609195 47.5062069 20.3609195 20.3609195 47.5062069 20.3609195 47.5062069 47.5062069 40.717931 47.5062069 40.717931 54.2905747 54.2944828 54.2905747 54.2944828 47.5062069 54.2944828 20.3609195 54.2944828 13.5726437 13.5726437 13.5726437 13.5726437 20.3609195"></polygon>
                    <polygon id="Shape" points="40.717931 27.1452874 33.9335632 27.1452874 33.9335632 33.9296552 27.1491954 33.9296552 27.1491954 40.717931 40.717931 40.717931"></polygon>
                </g>
            </g>
        </g>
    </g>
</svg>