<?xml version="1.0" encoding="UTF-8" standalone="no"?>
<svg width="50px" height="50px" viewBox="0 0 50 50" version="1.1" xmlns="http://www.w3.org/2000/svg" xmlns:xlink="http://www.w3.org/1999/xlink">
    <!-- Generator: Sketch 47 (45396) - http://www.bohemiancoding.com/sketch -->
    <title>icon/secrets-teal</title>
    <desc>Created with Sketch.</desc>
    <defs></defs>
    <g id="Symbols" stroke="none" stroke-width="1" fill="none" fill-rule="evenodd">
        <g id="icon/secrets-teal" fill="#36B69E">
            <path d="M40.5720679,20.5551062 C37.5082041,23.6237538 32.5408642,23.6237538 29.4770004,20.5551062 C26.4131366,17.4864585 26.4131366,12.5111124 29.4770004,9.44271515 C32.5408642,6.3740675 37.5082041,6.3740675 40.5720679,9.44271515 C43.6359318,12.5111124 43.6359318,17.4864585 40.5720679,20.5551062 M45.6136666,4.39299425 C39.7654721,-1.46433142 30.2835962,-1.46433142 24.4354017,4.39299425 C19.2910408,9.54538739 18.6739675,17.5125022 22.5796813,23.3427825 L1e-16,45.9574687 L3.98547327,49.9494151 L9.52013052,44.4058658 L15.1055438,50 L18.9622518,46.1367694 L13.3770885,40.5428857 L16.0099012,37.9062127 L19.5710741,41.4731963 L23.4282821,37.6102161 L19.8666092,34.0432325 L26.5421519,27.3575172 C32.3763447,31.3835209 40.4245504,30.8020454 45.6136666,25.6045767 C51.4621111,19.747251 51.4621111,10.2505703 45.6136666,4.39299425" id="Fill-1"></path>
        </g>
    </g>
</svg>