<?xml version="1.0" encoding="UTF-8" standalone="no"?>
<svg width="56px" height="66px" viewBox="0 0 56 66" version="1.1" xmlns="http://www.w3.org/2000/svg" xmlns:xlink="http://www.w3.org/1999/xlink">
    <!-- Generator: Sketch 46.2 (44496) - http://www.bohemiancoding.com/sketch -->
    <title>Secrets key</title>
    <desc>Created with Sketch.</desc>
    <defs></defs>
    <g id="conjur.org" stroke="none" stroke-width="1" fill="none" fill-rule="evenodd">
        <g id="01_conjur_org_cybr" transform="translate(-928.000000, -973.000000)" fill="#35B89F">
            <g id="Features-Icons-Copy-3" transform="translate(425.000000, 914.000000)">
                <g id="Secrets-key" transform="translate(503.000000, 59.000000)">
                    <path d="M39.4756923,26.3493276 C33.7947077,26.2353276 29.2836923,21.5621848 29.3974154,15.9110419 C29.512,10.259899 34.2091077,5.7710419 39.8883692,5.8850419 C45.4883692,5.99647047 49.9683692,10.5436133 49.9692308,16.1150419 C49.9115077,21.8236133 45.2144,26.405899 39.4765538,26.3493276 L39.4756923,26.3493276 Z M39.4756923,0.000756181002 C30.4416,-0.0849581047 23.0461538,7.1270419 22.9513846,16.1150419 C22.9496615,19.8221848 24.2548923,23.4136133 26.6387692,26.2636133 L0,59.597899 L5.76369231,64.157899 L9.99384615,58.8693276 L18.6092308,65.7264705 L22.9169231,60.2921848 L14.3015385,53.4350419 L16.0676923,51.2150419 L21.8141538,55.757899 L26.1218462,50.3236133 L20.3753846,45.779899 L32.4369231,30.737899 C34.6338462,31.7407562 37.0228923,32.2584705 39.4412308,32.2550419 C48.4804923,32.3596133 55.8948923,25.1527562 55.9991385,16.1596133 C56,16.1450419 56,16.1296133 56,16.1150419 C55.9043692,7.1270419 48.5089231,-0.0849581047 39.4756923,0.000756181002 L39.4756923,0.000756181002 Z" id="Fill-1"></path>
                </g>
            </g>
        </g>
    </g>
</svg>